<svg width="100%" height="100%" viewBox="0 0 32 32" fill="none" xmlns="http://www.w3.org/2000/svg">
<path d="M5 0H21L29 8V30C29 31.1046 28.1046 32 27 32H5C3.8954 32 3 31.1046 3 30V2C3 0.8954 3.8954 0 5 0Z" fill="#325E9C"/>
<path d="M21 0L29 8H23C21.8954 8 21 7.1046 21 6V0Z" fill="#A6BCDD"/>
<path d="M16 11.5C11.86 11.5 8.5 14.86 8.5 19C8.5 23.14 11.86 26.5 16 26.5C20.14 26.5 23.5 23.14 23.5 19C23.5 14.86 20.14 11.5 16 11.5ZM15.25 24.9475C12.2875 24.58 10 22.06 10 19C10 18.535 10.06 18.0925 10.1575 17.6575L13.75 21.25V22C13.75 22.825 14.425 23.5 15.25 23.5V24.9475ZM20.425 23.0425C20.23 22.435 19.675 22 19 22H18.25V19.75C18.25 19.3375 17.9125 19 17.5 19H13V17.5H14.5C14.9125 17.5 15.25 17.1625 15.25 16.75V15.25H16.75C17.575 15.25 18.25 14.575 18.25 13.75V13.4425C20.4475 14.335 22 16.4875 22 19C22 20.56 21.4 21.9775 20.425 23.0425Z" fill="white"/>
</svg>
