<svg width="100%" height="100%" viewBox="0 0 32 32" fill="none" xmlns="http://www.w3.org/2000/svg">
<path d="M5 0H21L29 8V30C29 31.1046 28.1046 32 27 32H5C3.8954 32 3 31.1046 3 30V2C3 0.8954 3.8954 0 5 0Z" fill="#EC5C59"/>
<path d="M21.1968 21.5517C20.117 21.4715 19.0774 21.0705 18.2376 20.3487C16.598 20.7095 15.0382 21.2307 13.4786 21.8725C12.239 24.0779 11.0792 25.2007 10.0794 25.2007C9.8794 25.2007 9.6396 25.1607 9.4796 25.0403C9.0396 24.8399 8.7998 24.3987 8.7998 23.9577C8.7998 23.5967 8.8798 22.5943 12.6788 20.9501C13.5588 19.3461 14.2384 17.7021 14.7984 15.9779C14.3184 15.0155 13.2788 12.6495 13.9984 11.4467C14.2384 11.0055 14.7184 10.7649 15.2384 10.8051C15.6382 10.8051 16.038 11.0055 16.278 11.3263C16.798 12.0481 16.758 13.5719 16.078 15.8175C16.718 17.0188 17.5563 18.1034 18.5574 19.0255C19.3974 18.8649 20.237 18.7447 21.0768 18.7447C22.9564 18.7847 23.2364 19.6669 23.1964 20.1883C23.1964 21.5517 21.8766 21.5517 21.1968 21.5517ZM9.9996 24.0377L10.1196 23.9977C10.6794 23.7973 11.1192 23.3963 11.4392 22.8749C10.8392 23.1155 10.3594 23.5165 9.9996 24.0379V24.0377ZM15.3182 12.0081H15.1982C15.1582 12.0081 15.0782 12.0081 15.0382 12.0481C14.8782 12.7297 14.9982 13.4515 15.2782 14.0931C15.5182 13.4115 15.5182 12.6897 15.3182 12.0081ZM15.5982 17.8225L15.5582 17.9025L15.5182 17.8625C15.1582 18.7849 14.7582 19.7071 14.3184 20.5893L14.3984 20.5493V20.6293C15.2877 20.3069 16.1959 20.0391 17.1178 19.8273L17.0778 19.7873H17.1978C16.5978 19.1857 16.038 18.5041 15.5982 17.8225ZM21.0368 19.9477C20.6768 19.9477 20.357 19.9477 19.997 20.0277C20.397 20.2283 20.797 20.3085 21.1968 20.3487C21.4768 20.3887 21.7568 20.3487 21.9966 20.2685C21.9966 20.1481 21.8366 19.9477 21.0368 19.9477Z" fill="white"/>
<path d="M21 0L29 8H23C21.8954 8 21 7.1046 21 6V0Z" fill="#FBA9A9"/>
</svg>
