<svg width="100%" height="100%" viewBox="0 0 20 20" fill="currentColor" xmlns="http://www.w3.org/2000/svg">
<g id="Icon">
<path id="Icon (Stroke)" fill-rule="evenodd" clip-rule="evenodd" d="M9.99984 3.33268C6.31794 3.33268 3.33317 6.31745 3.33317 9.99935C3.33317 13.6812 6.31794 16.666 9.99984 16.666C13.6817 16.666 16.6665 13.6812 16.6665 9.99935C16.6665 6.31745 13.6817 3.33268 9.99984 3.33268ZM1.6665 9.99935C1.6665 5.39698 5.39746 1.66602 9.99984 1.66602C14.6022 1.66602 18.3332 5.39698 18.3332 9.99935C18.3332 14.6017 14.6022 18.3327 9.99984 18.3327C5.39746 18.3327 1.6665 14.6017 1.6665 9.99935ZM9.99984 6.66602C10.4601 6.66602 10.8332 7.03911 10.8332 7.49935V9.16602H12.4998C12.9601 9.16602 13.3332 9.53911 13.3332 9.99935C13.3332 10.4596 12.9601 10.8327 12.4998 10.8327H10.8332V12.4993C10.8332 12.9596 10.4601 13.3327 9.99984 13.3327C9.5396 13.3327 9.1665 12.9596 9.1665 12.4993V10.8327H7.49984C7.0396 10.8327 6.6665 10.4596 6.6665 9.99935C6.6665 9.53911 7.0396 9.16602 7.49984 9.16602H9.1665V7.49935C9.1665 7.03911 9.5396 6.66602 9.99984 6.66602Z" fill="white"/>
</g>
</svg>
