<svg width="100%" height="100%" viewBox="0 0 32 32" fill="none" xmlns="http://www.w3.org/2000/svg">
<path d="M0 16C0 7.16344 7.16344 0 16 0C24.8366 0 32 7.16344 32 16C32 24.8366 24.8366 32 16 32C7.16344 32 0 24.8366 0 16Z" fill="url(#paint0_radial_5242_104749)"/>
<path d="M0 16C0 7.16344 7.16344 0 16 0C24.8366 0 32 7.16344 32 16C32 24.8366 24.8366 32 16 32C7.16344 32 0 24.8366 0 16Z" fill="url(#paint1_radial_5242_104749)" fill-opacity="0.4"/>
<path d="M0 16C0 7.16344 7.16344 0 16 0C24.8366 0 32 7.16344 32 16C32 24.8366 24.8366 32 16 32C7.16344 32 0 24.8366 0 16Z" fill="url(#paint2_radial_5242_104749)" fill-opacity="0.3"/>
<path d="M6 16.0339L26 16.0036L11.0214 7.41016L6 16.0339Z" fill="white"/>
<path d="M11.0213 24.5913L25.9999 16.0039L8.05859 19.5067L11.0213 24.5913Z" fill="white"/>
<path d="M16.5684 7.41016L26.0002 16.0036L21.0155 7.41016H16.5684Z" fill="white"/>
<path d="M21.0155 24.5913L26.0002 16.0039L16.5684 24.5913H21.0155Z" fill="white"/>
<defs>
<radialGradient id="paint0_radial_5242_104749" cx="0" cy="0" r="1" gradientUnits="userSpaceOnUse" gradientTransform="translate(32 16) rotate(-180) scale(32 77.0889)">
<stop offset="0.554633" stop-color="#FF7024"/>
</radialGradient>
<radialGradient id="paint1_radial_5242_104749" cx="0" cy="0" r="1" gradientUnits="userSpaceOnUse" gradientTransform="translate(16 16) rotate(180) scale(13.8621 73.0909)">
<stop stop-color="#FF2E00" stop-opacity="0"/>
<stop offset="1" stop-color="#FF2E00"/>
</radialGradient>
<radialGradient id="paint2_radial_5242_104749" cx="0" cy="0" r="1" gradientUnits="userSpaceOnUse" gradientTransform="translate(30.7586 16) rotate(180) scale(10.3448 54.5454)">
<stop stop-color="#FBFF29"/>
<stop offset="1" stop-color="#FBFF29" stop-opacity="0"/>
</radialGradient>
</defs>
</svg>
