<svg width="52" height="52" viewBox="0 0 52 52" fill="none" xmlns="http://www.w3.org/2000/svg">
<path d="M0 26C0 11.6406 11.6406 0 26 0C40.3594 0 52 11.6406 52 26C52 40.3594 40.3594 52 26 52C11.6406 52 0 40.3594 0 26Z" fill="#EF4444"/>
<path d="M2 26C2 12.7452 12.7452 2 26 2C39.2548 2 50 12.7452 50 26C50 39.2548 39.2548 50 26 50C12.7452 50 2 39.2548 2 26Z" fill="#DC2626"/>
<path d="M25.9997 13.3333C19.5597 13.3333 14.333 18.5599 14.333 24.9999C14.333 31.4399 19.5597 36.6666 25.9997 36.6666C32.4397 36.6666 37.6663 31.4399 37.6663 24.9999C37.6663 18.5599 32.4397 13.3333 25.9997 13.3333ZM27.1663 30.8333H24.833V28.4999H27.1663V30.8333ZM27.1663 26.1666H24.833V19.1666H27.1663V26.1666Z" fill="white"/>
</svg>
