<svg width="20" height="20" viewBox="0 0 20 20" fill="none" xmlns="http://www.w3.org/2000/svg">
<g id="cached">
<path id="Vector" d="M15.833 6.66732L12.4997 10.0007H14.9997C14.9997 12.759 12.758 15.0007 9.99967 15.0007C9.15801 15.0007 8.35801 14.7923 7.66634 14.4173L6.44967 15.634C7.47467 16.284 8.69134 16.6673 9.99967 16.6673C13.683 16.6673 16.6663 13.684 16.6663 10.0007H19.1663L15.833 6.66732ZM4.99967 10.0007C4.99967 7.24232 7.24134 5.00065 9.99967 5.00065C10.8413 5.00065 11.6413 5.20898 12.333 5.58398L13.5497 4.36732C12.5247 3.71732 11.308 3.33398 9.99967 3.33398C6.31634 3.33398 3.33301 6.31732 3.33301 10.0007H0.833008L4.16634 13.334L7.49967 10.0007H4.99967Z" fill="black"/>
</g>
</svg>
