<svg width="20" height="20" viewBox="0 0 20 20" fill="currentColor" xmlns="http://www.w3.org/2000/svg">
<g id="cancel">
<path id="Vector" d="M10.0003 1.66406C5.39199 1.66406 1.66699 5.38906 1.66699 9.9974C1.66699 14.6057 5.39199 18.3307 10.0003 18.3307C14.6087 18.3307 18.3337 14.6057 18.3337 9.9974C18.3337 5.38906 14.6087 1.66406 10.0003 1.66406ZM13.5837 13.5807C13.2587 13.9057 12.7337 13.9057 12.4087 13.5807L10.0003 11.1724L7.59199 13.5807C7.26699 13.9057 6.74199 13.9057 6.41699 13.5807C6.09199 13.2557 6.09199 12.7307 6.41699 12.4057L8.82533 9.9974L6.41699 7.58906C6.09199 7.26406 6.09199 6.73906 6.41699 6.41406C6.74199 6.08906 7.26699 6.08906 7.59199 6.41406L10.0003 8.8224L12.4087 6.41406C12.7337 6.08906 13.2587 6.08906 13.5837 6.41406C13.9087 6.73906 13.9087 7.26406 13.5837 7.58906L11.1753 9.9974L13.5837 12.4057C13.9003 12.7224 13.9003 13.2557 13.5837 13.5807Z" fill="currentColor"/>
</g>
</svg>
