<svg width="60" height="61" viewBox="0 0 60 61" fill="none" xmlns="http://www.w3.org/2000/svg">
<path d="M0.5 30.5C0.5 14.2076 13.7076 1 30 1C46.2924 1 59.5 14.2076 59.5 30.5C59.5 46.7924 46.2924 60 30 60C13.7076 60 0.5 46.7924 0.5 30.5Z" fill="#BBF7D0"/>
<path d="M0.5 30.5C0.5 14.2076 13.7076 1 30 1C46.2924 1 59.5 14.2076 59.5 30.5C59.5 46.7924 46.2924 60 30 60C13.7076 60 0.5 46.7924 0.5 30.5Z" stroke="#F0FDF4"/>
<path d="M2 30.5C2 15.036 14.536 2.5 30 2.5C45.464 2.5 58 15.036 58 30.5C58 45.964 45.464 58.5 30 58.5C14.536 58.5 2 45.964 2 30.5Z" fill="#F0FDF4"/>
<path d="M43.3346 21.4065L28.1213 36.6332L22.468 30.9798L24.348 29.0998L28.1213 32.8732L41.4546 19.5398L43.3346 21.4065ZM40.388 28.1265C40.5613 28.8865 40.668 29.6865 40.668 30.4998C40.668 36.3932 35.8946 41.1665 30.0013 41.1665C24.108 41.1665 19.3346 36.3932 19.3346 30.4998C19.3346 24.6065 24.108 19.8332 30.0013 19.8332C32.108 19.8332 34.0546 20.4465 35.708 21.4998L37.628 19.5798C35.468 18.0598 32.8413 17.1665 30.0013 17.1665C22.6413 17.1665 16.668 23.1398 16.668 30.4998C16.668 37.8598 22.6413 43.8332 30.0013 43.8332C37.3613 43.8332 43.3346 37.8598 43.3346 30.4998C43.3346 28.9132 43.0413 27.3932 42.5346 25.9798L40.388 28.1265Z" fill="#16A34A"/>
</svg>
