<svg width="128" height="80" viewBox="0 0 128 80" fill="none" xmlns="http://www.w3.org/2000/svg">
<path d="M64.0002 33.4026C70.4802 33.4026 75.7602 28.1626 75.7602 21.7092C75.7602 19.0026 74.9335 16.3359 73.2935 13.7892C72.9735 13.2826 72.3602 13.0559 71.7868 13.2292L67.9735 14.3626L65.2535 6.24256C65.1202 5.85589 64.8402 5.56256 64.4669 5.41589C64.0935 5.28256 63.6802 5.30922 63.3335 5.50922C62.8802 5.77589 52.2402 12.0292 52.2402 21.7092C52.2402 28.1492 57.5202 33.4026 64.0002 33.4026ZM63.2935 8.73589L65.8669 16.4426C66.0935 17.1226 66.8269 17.4959 67.5069 17.2959L71.5602 16.0692C72.5735 17.9092 73.0935 19.8026 73.0935 21.6959C73.0935 26.6692 69.0135 30.7226 64.0002 30.7226C58.9869 30.7226 54.9069 26.6692 54.9069 21.6959C54.9069 15.4692 60.6002 10.6559 63.2935 8.73589Z" fill="black"/>
<path d="M103.8 59.2298L101.16 47.7498C100.36 44.2431 97.2931 41.8031 93.7065 41.8031H85.8398L84.1198 39.0965C82.9998 37.3231 81.0665 36.2698 78.9732 36.2698H77.9599V33.5365C77.9599 32.8031 77.3599 32.2031 76.6265 32.2031C75.8932 32.2031 75.2932 32.8031 75.2932 33.5365V36.2698H52.7066V33.5365C52.7066 32.8031 52.1066 32.2031 51.3733 32.2031C50.6399 32.2031 50.0399 32.8031 50.0399 33.5365V36.2698H49.0266C46.9333 36.2698 44.9999 37.3231 43.88 39.0965L42.16 41.8031H34.2933C30.7067 41.8031 27.6533 44.2431 26.84 47.7498L24.2 59.2298C23.6667 61.5231 24.2133 63.9098 25.68 65.7498C27.1333 67.5898 29.32 68.6298 31.6533 68.6298H38.6L39.6666 73.7498C39.8 74.3631 40.3333 74.8165 40.9733 74.8165H45.3066C45.9333 74.8165 46.4799 74.3765 46.6133 73.7498L47.6799 68.6298H80.3332L81.3998 73.7498C81.5332 74.3631 82.0665 74.8165 82.7065 74.8165H87.0398C87.6665 74.8165 88.2132 74.3765 88.3465 73.7498L89.4132 68.6298H96.3598C98.6931 68.6298 100.88 67.5765 102.333 65.7498C103.786 63.8965 104.333 61.5231 103.8 59.2298ZM46.1199 40.5231C46.7599 39.5231 47.8399 38.9365 49.0133 38.9365H78.9732C80.1599 38.9365 81.2398 39.5365 81.8665 40.5231L82.6798 41.8031H45.3066L46.1199 40.5231ZM44.2266 72.1498H42.0666L41.3333 68.6298H44.9599L44.2266 72.1498ZM85.9465 72.1498H83.7865L83.0532 68.6298H86.6665L85.9465 72.1498ZM100.24 64.0831C99.2931 65.2831 97.8665 65.9631 96.3465 65.9631H88.3065H81.3998H46.5866H39.68H31.6533C30.1333 65.9631 28.72 65.2831 27.76 64.0831C26.8 62.8831 26.4533 61.3231 26.8 59.8165L29.44 48.3365C29.96 46.0565 31.96 44.4565 34.2933 44.4565H93.7198C96.0531 44.4565 98.0531 46.0565 98.5731 48.3365L101.213 59.8165C101.546 61.3231 101.2 62.8831 100.24 64.0831Z" fill="black"/>
<path d="M63.9992 47.4038C59.6925 47.4038 56.1992 50.9105 56.1992 55.2038C56.1992 59.4971 59.7059 63.0038 63.9992 63.0038C68.2925 63.0038 71.7992 59.4971 71.7992 55.2038C71.7992 50.9105 68.3059 47.4038 63.9992 47.4038ZM63.9992 60.3505C61.1725 60.3505 58.8659 58.0438 58.8659 55.2171C58.8659 52.3905 61.1725 50.0705 63.9992 50.0705C66.8259 50.0705 69.1325 52.3771 69.1325 55.2038C69.1325 58.0305 66.8259 60.3505 63.9992 60.3505Z" fill="black"/>
<path d="M63.9993 51.3101C63.266 51.3101 62.666 51.9101 62.666 52.6434V57.7901C62.666 58.5234 63.266 59.1234 63.9993 59.1234C64.7327 59.1234 65.3327 58.5234 65.3327 57.7901V52.6434C65.3327 51.9101 64.7327 51.3101 63.9993 51.3101Z" fill="black"/>
</svg>
