<svg width="32" height="32" viewBox="0 0 32 32" fill="none" xmlns="http://www.w3.org/2000/svg">
<path d="M0 16C0 7.16344 7.16344 0 16 0C24.8366 0 32 7.16344 32 16C32 24.8366 24.8366 32 16 32C7.16344 32 0 24.8366 0 16Z" fill="#E0702B"/>
<path d="M2 16C2 8.26801 8.26801 2 16 2C23.732 2 30 8.26801 30 16C30 23.732 23.732 30 16 30C8.26801 30 2 23.732 2 16Z" fill="#D76015"/>
<path d="M10.9807 21.6694H21.0207C22.0474 21.6694 22.6874 20.5561 22.1741 19.6694L17.1541 10.9961C16.6407 10.1094 15.3607 10.1094 14.8474 10.9961L9.8274 19.6694C9.31407 20.5561 9.95407 21.6694 10.9807 21.6694ZM16.0007 17.0027C15.6341 17.0027 15.3341 16.7027 15.3341 16.3361V15.0027C15.3341 14.6361 15.6341 14.3361 16.0007 14.3361C16.3674 14.3361 16.6674 14.6361 16.6674 15.0027V16.3361C16.6674 16.7027 16.3674 17.0027 16.0007 17.0027ZM16.6674 19.6694H15.3341V18.3361H16.6674V19.6694Z" fill="white"/>
</svg>
