<svg width="100%" height="100%" viewBox="0 0 28 28" fill="currentColor" xmlns="http://www.w3.org/2000/svg">
<g id="pdf">
<path id="Shape" opacity="0.67" fill-rule="evenodd" clip-rule="evenodd" d="M23.39 7.00039L18.2002 1.81059C17.9377 1.54802 17.5817 1.40047 17.2104 1.40039H5.6002C4.827 1.40039 4.2002 2.02719 4.2002 2.80039V25.2004C4.2002 25.9736 4.827 26.6004 5.6002 26.6004H22.4002C23.1734 26.6004 23.8002 25.9736 23.8002 25.2004V7.99019C23.8001 7.61892 23.6526 7.26288 23.39 7.00039ZM22.4002 7.99019V8.40039H18.9002C18.5139 8.39962 18.201 8.08667 18.2002 7.70039V3.79019L22.4002 7.99019ZM5.6002 3.08039V24.9204C5.6002 25.075 5.72556 25.2004 5.8802 25.2004H22.1202C22.2748 25.2004 22.4002 25.075 22.4002 24.9204V9.80039H18.9002C17.7404 9.80039 16.8002 8.86019 16.8002 7.70039V2.80039H5.8802C5.7262 2.80039 5.6002 2.92639 5.6002 3.08039Z" fill="#605E5C"/>
</g>
</svg>
