<svg width="40" height="40" viewBox="0 0 40 40" fill="none" xmlns="http://www.w3.org/2000/svg">
<g clip-path="url(#clip0_734_22799)">
<path d="M0 5.45441C0 4.9722 0.191558 4.50974 0.532533 4.16876C0.873508 3.82779 1.33597 3.63623 1.81818 3.63623H15.6814C16.0728 3.63626 16.4556 3.75114 16.7823 3.96662C17.1091 4.18211 17.3654 4.48874 17.5195 4.8485L18.5 7.13578L38.1818 7.13623C38.664 7.13623 39.1265 7.32779 39.4675 7.66876C39.8084 8.00974 40 8.4722 40 8.95441V30.3181C40 30.8003 39.8084 31.2627 39.4675 31.6037C39.1265 31.9447 38.664 32.1362 38.1818 32.1362H1.81818C1.33597 32.1362 0.873508 31.9447 0.532533 31.6037C0.191558 31.2627 1.036e-08 30.8003 0 30.3181L0 5.45441Z" fill="#047857"/>
<path d="M1.81818 10.8184H38.1818C39.3939 10.8184 40 11.4244 40 12.6365V34.4547C40 35.6668 39.3939 36.2729 38.1818 36.2729H1.81818C0.606061 36.2729 0 35.6668 0 34.4547V12.6365C0 11.4244 0.606061 10.8184 1.81818 10.8184Z" fill="#10B981"/>
<path d="M30 23.7496C30 29.2639 25.514 33.75 20 33.75C14.486 33.75 10 29.2639 10 23.7496C10 18.2361 14.486 13.75 20 13.75C25.514 13.75 30 18.2361 30 23.7496Z" fill="#ECFDF5"/>
<path d="M16.41 24.1771L15 22.7083L20 17.5L25 22.7083L23.59 24.1771L21 21.4896V30H19V21.4896L16.41 24.1771Z" fill="#15803D"/>
</g>
<defs>
<clipPath id="clip0_734_22799">
<rect width="40" height="40" fill="white"/>
</clipPath>
</defs>
</svg>
