<svg width="57" height="57" viewBox="0 0 57 57" fill="none" xmlns="http://www.w3.org/2000/svg">
<g clip-path="url(#clip0_2420_243762)">
<path d="M56.6484 0.40625H0.648438V56.4062H56.6484V0.40625Z" fill="#007DBB"/>
<path d="M5.44903 7.38103C5.17598 7.50843 4.89578 7.6199 4.60984 7.7149C4.23988 7.8322 4.00526 7.92244 3.90601 7.95854V6.44259C4.28318 6.29718 4.64826 6.12218 4.99785 5.91923C5.33198 5.7532 5.63677 5.53375 5.9002 5.26953H7.49737V15.9534H5.44903V7.38103Z" fill="white"/>
<path d="M11.612 13.4178H8.39062V11.8116L11.1969 5.26953H13.4528V11.8747H14.5176V13.4178H13.4528V15.9534H11.6481L11.612 13.4178ZM11.612 11.8747V7.36298L9.98779 11.8747H11.612Z" fill="white"/>
<path d="M18.551 9.34817V5.26953H19.318V8.83382H20.3106V9.34817H18.551Z" fill="white"/>
<path d="M20.5183 9.34817V5.26953H21.2582V9.34817H20.5183Z" fill="white"/>
<path d="M21.7363 9.34817V5.26953H23.4147V5.78387H22.5124V6.96594H23.2794V7.48931H22.5124V9.34817H21.7363Z" fill="white"/>
<path d="M23.6494 9.34817V5.26953H25.3639V5.7929H24.3984V6.96594H25.1563V7.48029H24.3984V8.83382H25.3729V9.34817H23.6494Z" fill="white"/>
<path d="M18.551 16.0169V11.9383H19.5526C19.7163 11.9337 19.8799 11.9489 20.0399 11.9834C20.1765 12.0144 20.3054 12.0727 20.4189 12.1549C20.5285 12.2348 20.613 12.3444 20.6625 12.4707C20.7294 12.6336 20.7602 12.8091 20.7528 12.985C20.7546 13.1296 20.7302 13.2733 20.6806 13.4091C20.6415 13.5189 20.5728 13.6157 20.4821 13.6889C20.3837 13.7549 20.2733 13.8008 20.1572 13.8242C20.3029 13.8435 20.4403 13.9029 20.5542 13.9957C20.6645 14.0806 20.7463 14.197 20.7889 14.3295C20.8465 14.4885 20.874 14.6568 20.8701 14.8258C20.8721 14.9999 20.8478 15.1734 20.7979 15.3402C20.7578 15.4823 20.6834 15.6125 20.5813 15.7192C20.4789 15.8198 20.3557 15.8968 20.2204 15.9447C20.0598 15.9948 19.8923 16.0192 19.7241 16.0169H18.551ZM19.318 13.5716H19.5707C19.6885 13.5796 19.8064 13.5579 19.9136 13.5084C19.9931 13.4654 20.054 13.3948 20.085 13.3099C20.1163 13.1983 20.1315 13.0828 20.1301 12.967C20.1403 12.851 20.1151 12.7346 20.058 12.6331C20.0352 12.5924 20.0042 12.5569 19.9669 12.529C19.9296 12.501 19.8868 12.4811 19.8414 12.4707C19.7176 12.439 19.5902 12.4239 19.4624 12.4256H19.318V13.5716ZM19.318 15.4665H19.6068C19.6895 15.4773 19.7736 15.4682 19.8521 15.44C19.9305 15.4117 20.0011 15.3651 20.058 15.3041C20.152 15.153 20.1962 14.9763 20.1843 14.7988C20.1905 14.6605 20.169 14.5225 20.1211 14.3927C20.0892 14.296 20.0214 14.2152 19.9316 14.1671C19.8238 14.1087 19.7022 14.0806 19.5797 14.0859H19.318V15.4665Z" fill="white"/>
<path d="M21.2041 16.0161V11.9375H22.9276V12.4609H21.9621V13.6339H22.7201V14.1483H21.9621V15.5018H22.9276V16.0161H21.2041Z" fill="white"/>
<path d="M23.2073 16.0161V11.9375H23.9562V15.5018H24.9398V16.0161H23.2073Z" fill="white"/>
<path d="M26.2392 16.0715C25.997 16.0832 25.7563 16.0269 25.5444 15.909C25.3763 15.8 25.2494 15.6381 25.1835 15.4488C25.0992 15.2209 25.0594 14.9789 25.0662 14.736V13.202C25.0594 12.962 25.0993 12.723 25.1835 12.4981C25.2452 12.309 25.3734 12.1487 25.5444 12.047C25.7572 11.9322 25.9979 11.8791 26.2392 11.8936C26.4807 11.8771 26.7219 11.9303 26.934 12.047C27.1074 12.1483 27.2386 12.3083 27.304 12.4981C27.384 12.7241 27.4237 12.9623 27.4213 13.202V14.736C27.4227 14.9785 27.3831 15.2195 27.304 15.4488C27.2358 15.6394 27.1055 15.8015 26.934 15.909C26.723 16.0293 26.4817 16.0857 26.2392 16.0715ZM26.2392 15.521C26.3366 15.5308 26.434 15.5016 26.5099 15.4398C26.5725 15.3817 26.6164 15.3063 26.6363 15.2232C26.6456 15.1212 26.6456 15.0185 26.6363 14.9164V13.0305C26.646 12.9285 26.646 12.8258 26.6363 12.7237C26.6168 12.6354 26.5657 12.5572 26.4925 12.504C26.4194 12.4508 26.3293 12.4262 26.2392 12.435C26.1422 12.4288 26.0461 12.4576 25.9685 12.5162C25.907 12.5701 25.8657 12.6433 25.8512 12.7237C25.8415 12.8258 25.8415 12.9285 25.8512 13.0305V14.9164C25.8419 15.0185 25.8419 15.1212 25.8512 15.2232C25.8644 15.3067 25.9058 15.3831 25.9685 15.4398C26.0461 15.4984 26.1422 15.5272 26.2392 15.521Z" fill="white"/>
<path d="M28.2423 16.0161L27.6648 11.9375H28.2874L28.6303 14.5814L29.0544 11.9465H29.5597L29.9929 14.5814L30.3267 11.9375H30.9403L30.3719 16.0161H29.7673L29.3161 13.3091L28.8649 16.0161H28.2423Z" fill="white"/>
<path d="M32.7452 16.0161L32.1677 11.9375H32.7904L33.1242 14.5814L33.5483 11.9465H34.0627L34.4958 14.5814L34.8297 11.9375H35.4433L34.8748 16.0161H34.2702L33.81 13.3091L33.3679 16.0161H32.7452Z" fill="white"/>
<path d="M35.425 16.0161L36.2372 11.9375H37.0312L37.8524 16.0161H37.1576L36.9951 15.1138H36.2913L36.1199 16.0161H35.425ZM36.3274 14.5994H36.8869L36.6071 12.885L36.3274 14.5994Z" fill="white"/>
<path d="M38.3216 16.0161V12.4789H37.6719V11.9375H39.7112V12.4789H39.0705V16.0161H38.3216Z" fill="white"/>
<path d="M39.9368 16.0161V11.9375H41.6422V12.4609H40.6767V13.6339H41.4437V14.1483H40.6767V15.5018H41.6603V16.0161H39.9368Z" fill="white"/>
<path d="M41.9402 16.0171V11.9385H42.9147C43.1526 11.9314 43.3901 11.9619 43.6186 12.0287C43.7978 12.0902 43.9507 12.2112 44.0517 12.3716C44.1594 12.5673 44.2094 12.7894 44.1961 13.0123C44.2113 13.1593 44.2113 13.3075 44.1961 13.4545C44.1731 13.5766 44.1204 13.6913 44.0427 13.7883C43.9679 13.8893 43.864 13.9649 43.7449 14.0049L44.3134 16.0171H43.5644L43.0681 14.1493H42.7343V16.0171H41.9402ZM42.6891 13.68H42.9147C43.0324 13.687 43.1501 13.6653 43.2576 13.6169C43.3439 13.5775 43.4117 13.5064 43.4471 13.4184C43.4862 13.3021 43.5045 13.18 43.5013 13.0574C43.5152 12.8952 43.4738 12.733 43.3839 12.5972C43.33 12.5406 43.2636 12.4972 43.19 12.4706C43.1164 12.444 43.0376 12.4348 42.9598 12.4438H42.6891V13.68Z" fill="white"/>
<path d="M43.6816 41.3189C42.9777 40.3624 38.4028 34.5332 31.951 34.5332C26.3835 34.5332 20.4279 39.5864 20.4279 39.5864C20.4279 39.5864 18.1901 35.0024 13.6152 34.5603H13.4979C13.4507 34.5625 13.4061 34.5822 13.3727 34.6156C13.3393 34.6489 13.3196 34.6936 13.3174 34.7408C13.3328 34.7983 13.3571 34.8531 13.3896 34.9032C14.7571 36.8156 15.4923 39.1077 15.4923 41.4588C15.4923 43.8098 14.7571 46.102 13.3896 48.0144V48.0775C13.3808 48.11 13.3808 48.1443 13.3896 48.1768C13.3915 48.2225 13.41 48.2659 13.4415 48.2991C13.473 48.3323 13.5155 48.3529 13.561 48.3573H13.6603C18.2533 47.9241 20.5001 43.3311 20.5001 43.3311C20.5001 43.3311 26.4556 48.3843 32.0232 48.3843C38.4299 48.3843 43.0048 42.5551 43.7537 41.5986L43.8079 41.5355C43.8197 41.5133 43.8259 41.4885 43.8259 41.4633C43.8259 41.4381 43.8197 41.4133 43.8079 41.3911L43.7537 41.3279M35.6326 42.2303C35.261 42.2321 34.8972 42.1235 34.5874 41.9184C34.2775 41.7132 34.0356 41.4207 33.8921 41.0779C33.7487 40.7351 33.7102 40.3575 33.7816 39.9928C33.853 39.6281 34.0311 39.2928 34.2932 39.0294C34.5553 38.766 34.8897 38.5864 35.254 38.5132C35.6184 38.4401 35.9962 38.4767 36.3397 38.6185C36.6832 38.7603 36.9768 39.0009 37.1835 39.3097C37.3901 39.6185 37.5004 39.9818 37.5004 40.3534C37.5004 40.8496 37.3039 41.3256 36.9539 41.6774C36.6039 42.0291 36.1288 42.2279 35.6326 42.2303Z" fill="white"/>
<path d="M20.0762 29.3086V29.2544C20.1119 29.2466 20.1488 29.2466 20.1845 29.2544C20.2321 29.2551 20.2775 29.2746 20.3108 29.3086C23.8119 32.6383 27.4755 29.9402 28.2425 29.3086L28.3147 29.2364H28.459L28.5312 29.3086C29.2982 29.9402 32.9618 32.6383 36.4539 29.3086C36.4697 29.2909 36.4892 29.2768 36.511 29.2675C36.5329 29.2581 36.5565 29.2537 36.5802 29.2544C36.6127 29.2456 36.647 29.2456 36.6795 29.2544C36.6997 29.2701 36.7179 29.2883 36.7336 29.3086C37.4104 29.9763 40.343 32.4939 43.4381 29.8049C43.4706 29.767 43.4897 29.7194 43.4922 29.6695V28.3972C43.4922 28.3723 43.4873 28.3477 43.4778 28.3247C43.4683 28.3017 43.4543 28.2808 43.4367 28.2632C43.4191 28.2456 43.3982 28.2317 43.3753 28.2221C43.3523 28.2126 43.3276 28.2077 43.3027 28.2077L43.2125 28.2528C42.1609 28.8211 40.9558 29.0399 39.7715 28.8777C38.5873 28.7155 37.4854 28.1806 36.6253 27.3505L36.5441 27.2783C36.5209 27.2692 36.4951 27.2692 36.4719 27.2783H36.4629C36.4217 27.2884 36.386 27.3144 36.3636 27.3505C35.5696 27.955 31.8519 30.4365 28.6395 27.3956L28.5854 27.3505C28.5695 27.3328 28.55 27.3187 28.5282 27.3094C28.5064 27.3 28.4828 27.2956 28.459 27.2963C28.4352 27.2949 28.4114 27.2991 28.3895 27.3085C28.3675 27.3179 28.3481 27.3322 28.3327 27.3505L28.2786 27.3956C25.0121 30.4365 21.3485 27.955 20.5454 27.3505C20.5372 27.3321 20.5247 27.316 20.509 27.3034C20.4933 27.2909 20.4749 27.2823 20.4552 27.2783H20.401C20.3746 27.27 20.3463 27.27 20.3198 27.2783L20.2386 27.3505C19.38 28.1798 18.2797 28.7143 17.097 28.8765C15.9143 29.0388 14.7107 28.8203 13.6605 28.2528L13.5702 28.2077C13.5453 28.2077 13.5207 28.2126 13.4977 28.2221C13.4747 28.2317 13.4538 28.2456 13.4362 28.2632C13.4186 28.2808 13.4047 28.3017 13.3952 28.3247C13.3856 28.3477 13.3807 28.3723 13.3807 28.3972V29.6695C13.3798 29.6946 13.3842 29.7196 13.3935 29.7429C13.4028 29.7662 13.4169 29.7873 13.4349 29.8049C16.5299 32.5119 19.4626 29.9763 20.1394 29.3086" fill="white"/>
<path d="M13.543 23.5688C13.5186 23.5676 13.4941 23.5714 13.4712 23.5799C13.4483 23.5884 13.4273 23.6015 13.4096 23.6184C13.3918 23.6353 13.3777 23.6556 13.3681 23.6781C13.3585 23.7006 13.3535 23.7248 13.3535 23.7493V25.0306C13.3521 25.0545 13.3563 25.0783 13.3657 25.1002C13.3751 25.1222 13.3895 25.1416 13.4077 25.157C16.5028 27.864 19.4354 25.3284 20.1122 24.6607V24.6065C20.1477 24.5974 20.1849 24.5974 20.2204 24.6065C20.2639 24.6062 20.3058 24.6223 20.3378 24.6517C23.8389 27.9904 27.5024 25.2833 28.2694 24.6517L28.3416 24.5885C28.3648 24.5794 28.3906 24.5794 28.4138 24.5885C28.4372 24.5802 28.4626 24.5802 28.486 24.5885L28.5582 24.6517C29.3252 25.2833 32.9887 27.9904 36.4808 24.6517C36.5164 24.6224 36.5611 24.6065 36.6072 24.6065C36.6396 24.5973 36.674 24.5973 36.7064 24.6065L36.7606 24.6607C37.4373 25.3284 40.37 27.846 43.4651 25.157C43.4803 25.1162 43.4803 25.0714 43.4651 25.0306V23.7493C43.4664 23.7253 43.4626 23.7012 43.454 23.6787C43.4454 23.6562 43.4321 23.6358 43.4151 23.6188C43.3981 23.6018 43.3776 23.5885 43.3552 23.5799C43.3327 23.5713 43.3086 23.5675 43.2846 23.5688L43.1943 23.623C42.1424 24.1898 40.9376 24.4079 39.7536 24.2457C38.5697 24.0835 37.4679 23.5495 36.6072 22.7206L36.526 22.6484H36.4538H36.4628C36.4248 22.6649 36.3909 22.6895 36.3635 22.7206C35.5695 23.3342 31.8518 25.8157 28.6394 22.7657L28.5853 22.7206C28.5509 22.6881 28.5061 22.6689 28.4589 22.6665C28.4113 22.6672 28.3659 22.6866 28.3326 22.7206L28.2785 22.7657C25.0119 25.8157 21.3484 23.3342 20.5453 22.7206C20.5235 22.6878 20.4919 22.6625 20.4551 22.6484H20.4009H20.3197L20.2475 22.7206C19.3867 23.5495 18.285 24.0835 17.101 24.2457C15.9171 24.4079 14.7123 24.1898 13.6603 23.623L13.5701 23.5688" fill="white"/>
<g style="mix-blend-mode:hue">
<rect x="0.648438" y="0.40625" width="56" height="56" fill="#D9D9D9"/>
</g>
</g>
<defs>
<clipPath id="clip0_2420_243762">
<rect x="0.648438" y="0.40625" width="56" height="56" rx="4" fill="white"/>
</clipPath>
</defs>
</svg>
