<svg width="57" height="57" viewBox="0 0 57 57" fill="none" xmlns="http://www.w3.org/2000/svg">
<g clip-path="url(#clip0_1648_94184)">
<path d="M56.8594 0.976562H0.859375V56.9766H56.8594V0.976562Z" fill="#8F1838"/>
<path d="M5.24191 14.5915C5.22966 14.0556 5.33727 13.5237 5.55687 13.0347C5.74339 12.6216 6.05925 12.2805 6.45675 12.0628C6.12424 11.811 5.85598 11.4842 5.67386 11.1089C5.45744 10.6542 5.35255 10.1545 5.36789 9.65111C5.32214 8.90296 5.57083 8.16659 6.06081 7.59936C6.32817 7.34781 6.64402 7.15343 6.98906 7.0281C7.3341 6.90278 7.70108 6.84913 8.06755 6.87046C8.43108 6.8433 8.79623 6.89341 9.139 7.01749C9.48177 7.14157 9.79439 7.33681 10.0563 7.59037C10.5416 8.14606 10.7903 8.86951 10.7492 9.60612C10.7664 10.1232 10.6648 10.6373 10.4523 11.1089C10.2813 11.4886 10.0146 11.8173 9.67835 12.0628C10.0829 12.2841 10.4002 12.6363 10.5782 13.0617C10.7971 13.5731 10.9045 14.1253 10.8932 14.6815C10.947 15.5119 10.7046 16.3345 10.2093 17.0032C9.93115 17.295 9.59117 17.5209 9.21433 17.6641C8.83748 17.8074 8.43333 17.8645 8.03156 17.8311C6.17179 17.8311 5.24191 16.7512 5.24191 14.5915ZM8.84146 15.8513C8.97003 15.472 9.03095 15.0729 9.02143 14.6725C9.03567 14.2482 8.97474 13.8247 8.84146 13.4216C8.79535 13.2771 8.7019 13.1523 8.57619 13.0674C8.45048 12.9825 8.29983 12.9425 8.14855 12.9537C7.99756 12.9441 7.84763 12.9848 7.72225 13.0694C7.59686 13.1541 7.5031 13.278 7.45563 13.4216C7.32326 13.8249 7.26235 14.2482 7.27565 14.6725C7.26614 15.0729 7.32705 15.472 7.45563 15.8513C7.51126 15.9896 7.60697 16.108 7.73044 16.1914C7.85392 16.2749 7.99953 16.3194 8.14855 16.3194C8.29756 16.3194 8.44317 16.2749 8.56665 16.1914C8.69013 16.108 8.78583 15.9896 8.84146 15.8513ZM8.90445 9.65111C8.91688 9.34013 8.85195 9.03092 8.71547 8.75122C8.66373 8.64584 8.58277 8.55758 8.48225 8.49694C8.38173 8.43631 8.26589 8.40588 8.14855 8.40927C8.0301 8.40634 7.91324 8.43687 7.81136 8.49736C7.70949 8.55784 7.62674 8.64583 7.57262 8.75122C7.42966 9.02892 7.36143 9.33905 7.37464 9.65111C7.37464 10.749 7.62661 11.2979 8.14855 11.2979C8.67048 11.2979 8.85946 10.749 8.85946 9.65111H8.90445Z" fill="white"/>
<path d="M14.9785 6.98834H15.9414C16.2062 6.9758 16.4704 7.02189 16.7153 7.12332C16.8053 7.16287 16.8866 7.21979 16.9545 7.29083C17.0225 7.36186 17.0757 7.44562 17.1113 7.53728C17.202 7.7661 17.2449 8.01113 17.2372 8.25719V9.75099C17.2451 10.0058 17.2023 10.2597 17.1113 10.4979C17.0378 10.6863 16.8966 10.8403 16.7153 10.9298C16.4818 11.0381 16.2254 11.0876 15.9684 11.0738H14.9785V6.98834ZM15.9504 10.5879C16.0757 10.5964 16.2008 10.5682 16.3104 10.5069C16.3839 10.4454 16.432 10.3588 16.4453 10.2639C16.4589 10.1113 16.4589 9.95766 16.4453 9.80498V8.19419C16.4584 8.05652 16.4584 7.91791 16.4453 7.78024C16.4364 7.7367 16.4181 7.69563 16.3917 7.65988C16.3652 7.62414 16.3314 7.59458 16.2924 7.57327C16.1838 7.51851 16.0627 7.49366 15.9414 7.50127H15.6894V10.5339L15.9504 10.5879Z" fill="white"/>
<path d="M17.6514 6.98828H19.3612V7.51921H18.3893V8.68907H19.1632V9.211H18.3893V10.5608H19.3791V11.0738H17.6514V6.98828Z" fill="white"/>
<path d="M19.8741 10.7759C19.685 10.475 19.5938 10.1229 19.6131 9.76805V8.31023C19.5901 7.95218 19.6815 7.59606 19.8741 7.29336C20.1123 7.07616 20.4208 6.95206 20.7431 6.9438C21.0654 6.93554 21.3798 7.04365 21.6289 7.24836C21.8203 7.5073 21.91 7.82754 21.8808 8.14825V8.49021H21.1609V8.13925C21.1718 8.02552 21.1718 7.91102 21.1609 7.79729C21.1527 7.71896 21.1178 7.64585 21.0619 7.59032C20.9855 7.53775 20.8936 7.5124 20.801 7.51833C20.7038 7.50853 20.6067 7.53765 20.531 7.59931C20.4666 7.65936 20.4226 7.73801 20.405 7.82429C20.3936 7.944 20.3936 8.06454 20.405 8.18425V9.98402C20.3956 10.1567 20.4264 10.3292 20.495 10.488C20.5317 10.5409 20.582 10.5831 20.6406 10.61C20.6991 10.6369 20.7638 10.6476 20.828 10.6409C20.8732 10.6449 20.9188 10.6397 20.9621 10.6258C21.0054 10.6119 21.0454 10.5895 21.0799 10.56C21.1366 10.5003 21.1742 10.4251 21.1879 10.344C21.1984 10.2272 21.1984 10.1098 21.1879 9.99302V9.62406H21.9078V9.94802C21.9243 10.2662 21.8392 10.5813 21.6649 10.8479C21.552 10.9703 21.4112 11.0637 21.2546 11.1201C21.0979 11.1765 20.93 11.1942 20.765 11.1719C20.5956 11.1818 20.4264 11.1511 20.2714 11.0822C20.1164 11.0133 19.9802 10.9083 19.8741 10.7759Z" fill="white"/>
<path d="M22.2676 6.98828H23.9864V7.51921H23.0055V8.68907H23.7884V9.211H23.0145V10.5608H24.0044V11.0738H22.2766L22.2676 6.98828Z" fill="white"/>
<path d="M24.2925 6.98828H24.8144L25.8043 9.31899V6.98828H26.4252V11.0738H25.9303L24.9314 8.63508V11.0738H24.2925V6.98828Z" fill="white"/>
<path d="M27.307 7.53721H26.6321V6.98828H28.7198V7.53721H28.0539V11.0738H27.307V7.53721Z" fill="white"/>
<path d="M29.8628 6.98828H30.4837L30.8257 9.63395L31.2486 6.99728H31.7526L32.1845 9.63395L32.5175 6.98828H33.1384L32.5625 11.0738H31.9595L31.5096 8.3741L31.0596 11.0738H30.4387L29.8628 6.98828Z" fill="white"/>
<path d="M33.6874 10.7845C33.4888 10.4942 33.3937 10.1455 33.4174 9.7946V8.2558C33.3977 7.91373 33.4927 7.57487 33.6874 7.29291C33.8043 7.1755 33.9453 7.08491 34.1007 7.02742C34.2561 6.96993 34.4221 6.94691 34.5872 6.95996C34.7526 6.94438 34.9194 6.96621 35.0751 7.02385C35.2309 7.08149 35.3717 7.17345 35.4871 7.29291C35.693 7.57668 35.7918 7.92415 35.7661 8.27379V9.8126C35.7872 10.1646 35.6889 10.5133 35.4871 10.8025C35.2379 11.0202 34.9182 11.1402 34.5872 11.1402C34.2563 11.1402 33.9366 11.0202 33.6874 10.8025V10.7845ZM34.9292 10.4245C34.9938 10.2804 35.0246 10.1234 35.0192 9.96558V8.08482C35.0305 7.93235 34.9993 7.77972 34.9292 7.64387C34.8752 7.53588 34.7672 7.49089 34.5962 7.49089C34.4253 7.49089 34.3173 7.53588 34.2633 7.64387C34.194 7.78003 34.1629 7.93241 34.1733 8.08482V9.99257C34.1623 10.1508 34.1934 10.3091 34.2633 10.4515C34.2986 10.506 34.3486 10.5493 34.4075 10.5764C34.4665 10.6035 34.532 10.6132 34.5962 10.6045C34.6571 10.6028 34.7165 10.5854 34.7685 10.5538C34.8206 10.5223 34.8636 10.4777 34.8932 10.4245H34.9292Z" fill="white"/>
<path d="M36.1531 6.98688H37.134C37.4728 6.96125 37.8107 7.04652 38.0968 7.22984C38.2131 7.33578 38.3029 7.46748 38.3592 7.61436C38.4155 7.76124 38.4365 7.91924 38.4208 8.07574C38.4254 8.29151 38.3856 8.50593 38.3038 8.70567C38.2659 8.78695 38.2121 8.85984 38.1457 8.9201C38.0792 8.98036 38.0014 9.02678 37.9169 9.05663L38.4838 11.0724H37.7369L37.2509 9.2006H36.891V11.0724H36.1531V6.98688ZM37.134 8.78666C37.2154 8.79351 37.2975 8.78346 37.3749 8.75714C37.4523 8.73081 37.5235 8.68878 37.5839 8.63368C37.6878 8.49758 37.736 8.32709 37.7189 8.15674C37.7295 7.99239 37.6886 7.82882 37.6019 7.6888C37.5451 7.63426 37.4768 7.59306 37.4021 7.56815C37.3274 7.54325 37.2481 7.53527 37.17 7.54481H36.891V8.78666H37.134Z" fill="white"/>
<path d="M38.8525 6.98828H39.5904V8.78806L40.4003 6.98828H41.1113L40.3284 8.78806L41.2282 11.0558H40.4903L39.8064 9.202L39.6264 9.50797V11.0558H38.8885L38.8525 6.98828Z" fill="white"/>
<path d="M43.1092 6.98828H43.9011L44.72 11.0738H44.0271L43.8651 10.1739H43.1542L42.9922 11.0738H42.2903L43.1092 6.98828ZM43.7841 9.68794L43.5051 7.96916L43.2352 9.68794H43.7841Z" fill="white"/>
<path d="M44.9988 6.98828H45.5117L46.5106 9.31899V6.98828H47.1225V11.0738H46.6276L45.6287 8.63508V11.0738H44.9988V6.98828Z" fill="white"/>
<path d="M47.6086 6.98834H48.5715C48.8363 6.9758 49.1005 7.02189 49.3454 7.12332C49.5278 7.20523 49.6725 7.35312 49.7504 7.53728C49.8381 7.76675 49.8779 8.01175 49.8674 8.25719V9.75099C49.8776 10.0052 49.8379 10.259 49.7504 10.4979C49.6748 10.6849 49.5342 10.8383 49.3544 10.9298C49.1206 11.0371 48.8644 11.0865 48.6075 11.0738H47.6086V6.98834ZM48.5805 10.5879C48.706 10.5992 48.8319 10.5709 48.9405 10.5069C49.0167 10.4464 49.068 10.3599 49.0845 10.2639C49.0969 10.1112 49.0969 9.95771 49.0845 9.80498V8.19419C49.1021 8.05677 49.1021 7.91766 49.0845 7.78024C49.0771 7.73729 49.0604 7.69649 49.0355 7.66072C49.0106 7.62495 48.9782 7.59509 48.9405 7.57327C48.8283 7.5197 48.7046 7.49495 48.5805 7.50127H48.3645V10.5339L48.5805 10.5879Z" fill="white"/>
<path d="M14.9785 13.6562H16.6883V14.1872H15.6894V15.393H16.4543V15.915H15.6894V17.1928H16.6703V17.7057H14.9785V13.6562Z" fill="white"/>
<path d="M17.2283 17.4444C17.0392 17.1435 16.9481 16.7914 16.9674 16.4365V14.9787C16.9443 14.6207 17.0357 14.2646 17.2283 13.9618C17.3394 13.8358 17.4791 13.7381 17.6357 13.6771C17.7922 13.616 17.9611 13.5933 18.1282 13.6109C18.2916 13.5892 18.4579 13.6055 18.614 13.6586C18.7701 13.7116 18.9118 13.8 19.0281 13.9169C19.2195 14.1758 19.3092 14.496 19.2801 14.8167V15.1587H18.5602V14.8077C18.571 14.694 18.571 14.5795 18.5602 14.4658C18.552 14.3875 18.517 14.3143 18.4612 14.2588C18.3847 14.2062 18.2928 14.1809 18.2002 14.1868C18.1074 14.1765 18.0142 14.2027 17.9404 14.2597C17.8665 14.3168 17.8177 14.4004 17.8043 14.4928C17.7928 14.6125 17.7928 14.733 17.8043 14.8527V16.6525C17.7948 16.8252 17.8256 16.9977 17.8942 17.1565C17.931 17.2094 17.9812 17.2516 18.0398 17.2785C18.0984 17.3054 18.1631 17.3161 18.2272 17.3094C18.2916 17.2874 18.348 17.2467 18.3892 17.1924C18.4458 17.1328 18.4834 17.0576 18.4972 16.9765C18.5077 16.8597 18.5077 16.7423 18.4972 16.6255V16.2566H19.2171V16.5805C19.2348 16.9001 19.1462 17.2165 18.9651 17.4804C18.8537 17.6047 18.7131 17.6994 18.556 17.7559C18.399 17.8125 18.2303 17.8291 18.0652 17.8044C17.9078 17.8102 17.751 17.781 17.6062 17.7187C17.4615 17.6564 17.3324 17.5627 17.2283 17.4444Z" fill="white"/>
<path d="M19.8561 17.4529C19.6575 17.1626 19.5624 16.8139 19.5861 16.463V14.9242C19.5623 14.5761 19.6575 14.2302 19.8561 13.9433C19.973 13.8259 20.114 13.7353 20.2694 13.6778C20.4248 13.6203 20.5908 13.5973 20.756 13.6103C20.9213 13.5948 21.0881 13.6166 21.2439 13.6742C21.3996 13.7319 21.5404 13.8238 21.6558 13.9433C21.8617 14.2271 21.9605 14.5745 21.9348 14.9242V16.463C21.9604 16.8154 21.8617 17.1656 21.6558 17.4529C21.4066 17.6706 21.0869 17.7906 20.756 17.7906C20.425 17.7906 20.1053 17.6706 19.8561 17.4529ZM21.0979 17.0929C21.1678 16.9505 21.1989 16.7922 21.1879 16.634V14.7532C21.1992 14.6007 21.1681 14.4481 21.0979 14.3123C21.0439 14.2043 20.9359 14.1593 20.765 14.1593C20.7008 14.1516 20.6357 14.1619 20.5769 14.1889C20.5182 14.2159 20.468 14.2586 20.432 14.3123C20.3627 14.4484 20.3316 14.6008 20.342 14.7532V16.634C20.331 16.7922 20.3621 16.9505 20.432 17.0929C20.468 17.1466 20.5182 17.1893 20.5769 17.2163C20.6357 17.2433 20.7008 17.2535 20.765 17.2459C20.8278 17.2528 20.8914 17.2422 20.9486 17.2152C21.0058 17.1882 21.0544 17.1459 21.0889 17.0929H21.0979Z" fill="white"/>
<path d="M22.3937 13.6562H22.8887L23.8875 15.987V13.6562H24.4995V17.7417H24.0045L23.0057 15.303V17.7417H22.3757L22.3937 13.6562Z" fill="white"/>
<path d="M25.2464 17.4529C25.0405 17.1656 24.9418 16.8154 24.9674 16.463V14.9242C24.9417 14.5745 25.0405 14.2271 25.2464 13.9433C25.3618 13.8238 25.5026 13.7319 25.6583 13.6742C25.8141 13.6166 25.9809 13.5948 26.1462 13.6103C26.3114 13.5973 26.4774 13.6203 26.6328 13.6778C26.7882 13.7353 26.9292 13.8259 27.0461 13.9433C27.2447 14.2302 27.3399 14.5761 27.3161 14.9242V16.463C27.3416 16.8154 27.2429 17.1656 27.0371 17.4529C26.9234 17.575 26.7831 17.6694 26.627 17.7287C26.471 17.788 26.3034 17.8106 26.1372 17.7948C25.9724 17.8113 25.8059 17.7889 25.6512 17.7296C25.4965 17.6702 25.3579 17.5754 25.2464 17.4529ZM26.4792 17.0929C26.5491 16.9505 26.5802 16.7922 26.5692 16.634V14.7532C26.5798 14.6017 26.552 14.4501 26.4882 14.3123C26.446 14.2644 26.394 14.226 26.3359 14.1998C26.2777 14.1735 26.2146 14.1599 26.1507 14.1599C26.0869 14.1599 26.0238 14.1735 25.9656 14.1998C25.9074 14.226 25.8555 14.2644 25.8133 14.3123C25.7485 14.45 25.7177 14.6011 25.7233 14.7532V16.634C25.7179 16.7918 25.7487 16.9488 25.8133 17.0929C25.8493 17.1466 25.8995 17.1893 25.9582 17.2163C26.017 17.2433 26.082 17.2535 26.1462 17.2459C26.2119 17.2564 26.2793 17.2476 26.34 17.2204C26.4008 17.1932 26.4523 17.1489 26.4882 17.0929H26.4792Z" fill="white"/>
<path d="M27.829 13.6562H28.6029L29.1878 16.4909L29.7818 13.6562H30.5377L30.6097 17.7417H30.0877L30.0337 14.9071L29.4488 17.7417H28.9989L28.4139 14.8981L28.3599 17.7417H27.802L27.829 13.6562Z" fill="white"/>
<path d="M31.1316 13.6562H31.8875V17.7417H31.1496L31.1316 13.6562Z" fill="white"/>
<path d="M32.5983 17.4447C32.4052 17.1456 32.3137 16.7922 32.3373 16.4369V14.9791C32.3097 14.6206 32.4015 14.2631 32.5983 13.9622C32.7094 13.8361 32.8491 13.7385 33.0056 13.6774C33.1622 13.6164 33.3311 13.5937 33.4982 13.6112C33.6544 13.5971 33.8117 13.6172 33.9594 13.67C34.107 13.7228 34.2413 13.8072 34.3531 13.9172C34.5408 14.1779 34.6301 14.4968 34.605 14.8171V15.159H33.8851V14.8081C33.8914 14.6942 33.8914 14.58 33.8851 14.4661C33.8731 14.387 33.8351 14.3142 33.7772 14.2592C33.7041 14.2066 33.615 14.1811 33.5252 14.1872C33.4789 14.1795 33.4315 14.1815 33.386 14.193C33.3405 14.2046 33.2978 14.2253 33.2607 14.254C33.2235 14.2827 33.1927 14.3187 33.1701 14.3599C33.1475 14.401 33.1336 14.4464 33.1292 14.4931C33.1178 14.6128 33.1178 14.7334 33.1292 14.8531V16.6528C33.1154 16.8258 33.1464 16.9994 33.2192 17.1568C33.2559 17.2098 33.3062 17.2519 33.3648 17.2788C33.4233 17.3057 33.4881 17.3164 33.5522 17.3098C33.6435 17.3167 33.7339 17.2876 33.8042 17.2288C33.8608 17.1691 33.8984 17.0939 33.9121 17.0128C33.9181 16.8959 33.9181 16.7788 33.9121 16.6618V16.2929H34.6321V16.6169C34.6458 16.936 34.5576 17.2512 34.3801 17.5167C34.2732 17.6343 34.14 17.7249 33.9915 17.7812C33.8429 17.8375 33.6831 17.8579 33.5252 17.8407C33.35 17.8566 33.1736 17.8288 33.0118 17.7597C32.85 17.6906 32.7079 17.5824 32.5983 17.4447Z" fill="white"/>
<path d="M36.3329 17.4359C36.1446 17.1217 36.0567 16.7575 36.0809 16.3921V15.0242C36.052 14.6543 36.1435 14.2849 36.3419 13.9714C36.4506 13.8418 36.5896 13.7412 36.7466 13.6784C36.9036 13.6156 37.0737 13.5926 37.2418 13.6114C37.4052 13.589 37.5717 13.605 37.7279 13.6581C37.8841 13.7112 38.0257 13.8 38.1417 13.9174C38.3427 14.1722 38.4392 14.4939 38.4116 14.8173V15.0332H37.7007V14.7993C37.7118 14.6825 37.7118 14.565 37.7007 14.4483C37.6827 14.372 37.6419 14.3029 37.5837 14.2503C37.5051 14.1951 37.4094 14.1695 37.3138 14.1783C37.2636 14.1735 37.2129 14.179 37.165 14.1944C37.117 14.2099 37.0727 14.2351 37.0348 14.2683C36.9748 14.3339 36.9342 14.4149 36.9178 14.5023C36.9064 14.625 36.9064 14.7485 36.9178 14.8712V16.572C36.9083 16.7514 36.9423 16.9305 37.0168 17.094C37.0493 17.1541 37.0996 17.2028 37.1608 17.2334C37.222 17.264 37.2911 17.275 37.3588 17.2649C37.4283 17.2712 37.4982 17.2576 37.5603 17.2258C37.6224 17.1939 37.6742 17.1451 37.7097 17.085C37.789 16.9134 37.8231 16.7245 37.8087 16.536V16.1581H37.2868V15.6901H38.3936V17.7599H37.9077L37.8537 17.3639C37.8035 17.5027 37.7098 17.6214 37.5865 17.7025C37.4632 17.7836 37.3171 17.8227 37.1698 17.8139C37.0097 17.8272 36.8488 17.7995 36.7023 17.7334C36.5559 17.6673 36.4287 17.5649 36.3329 17.4359Z" fill="white"/>
<path d="M38.8616 13.6554H39.8424C40.1827 13.6276 40.5223 13.7164 40.8053 13.9074C40.9204 14.0119 41.009 14.1423 41.0637 14.2878C41.1185 14.4333 41.1379 14.5898 41.1203 14.7442C41.1282 14.9594 41.0915 15.1739 41.0123 15.3742C40.9293 15.5389 40.7883 15.6672 40.6164 15.7341L41.1923 17.7409H40.4454L39.9504 15.8691H39.5995V17.7409H38.8616V13.6554ZM39.8424 15.4552C39.9239 15.462 40.006 15.452 40.0834 15.4256C40.1608 15.3993 40.232 15.3573 40.2924 15.3022C40.3962 15.1661 40.4445 14.9956 40.4274 14.8252C40.44 14.6594 40.3955 14.4943 40.3014 14.3573C40.2471 14.3018 40.1806 14.2599 40.1071 14.2349C40.0336 14.2098 39.9553 14.2025 39.8784 14.2133H39.5995V15.3922L39.8424 15.4552Z" fill="white"/>
<path d="M41.7863 17.4539C41.5876 17.1636 41.4925 16.8149 41.5163 16.464V14.9252C41.4925 14.5771 41.5877 14.2312 41.7863 13.9443C42.0379 13.7318 42.3567 13.6152 42.6861 13.6152C43.0156 13.6152 43.3343 13.7318 43.586 13.9443C43.7846 14.2312 43.8798 14.5771 43.856 14.9252V16.464C43.8797 16.8149 43.7846 17.1636 43.586 17.4539C43.4715 17.575 43.331 17.6686 43.1752 17.7278C43.0194 17.787 42.8522 17.8103 42.6861 17.7959C42.5199 17.8123 42.3521 17.79 42.196 17.7307C42.0398 17.6714 41.8996 17.5766 41.7863 17.4539ZM43.0281 17.0939C43.0893 16.949 43.117 16.7921 43.1091 16.635V14.7542C43.1197 14.6028 43.0919 14.4511 43.0281 14.3133C42.9936 14.258 42.9437 14.2141 42.8846 14.1869C42.8254 14.1597 42.7595 14.1505 42.6951 14.1603C42.6297 14.153 42.5634 14.1633 42.5033 14.1902C42.4432 14.2171 42.3913 14.2596 42.3532 14.3133C42.2919 14.4519 42.2641 14.6029 42.2722 14.7542V16.635C42.2643 16.7921 42.2919 16.949 42.3532 17.0939C42.3913 17.1477 42.4432 17.1902 42.5033 17.2171C42.5634 17.244 42.6297 17.2543 42.6951 17.2469C42.7607 17.2553 42.8273 17.2454 42.8876 17.2184C42.9479 17.1915 42.9996 17.1484 43.0371 17.0939H43.0281Z" fill="white"/>
<path d="M44.1799 13.6562H44.8009L45.1338 16.3019L45.5568 13.6652H46.0607L46.5016 16.3019L46.8346 13.6562H47.4465L46.8796 17.7417H46.2857L45.8267 15.0421L45.3858 17.7417H44.7649L44.1799 13.6562Z" fill="white"/>
<path d="M48.2115 14.2052H47.5366V13.6562H49.6244V14.2052H48.9854V17.7417H48.2385L48.2115 14.2052Z" fill="white"/>
<path d="M49.8853 13.6562H50.6232V15.393H51.4511V13.6832H52.198V17.7687H51.4511V15.924H50.6232V17.7687H49.8853V13.6562Z" fill="white"/>
<path d="M39.5365 29.6733L33.8132 35.0726C33.695 35.1691 33.6032 35.294 33.5465 35.4357C33.4899 35.5774 33.4702 35.7311 33.4893 35.8825V51.1266C33.4892 51.2134 33.5231 51.2967 33.5836 51.3589C33.6441 51.4211 33.7265 51.4572 33.8132 51.4596H39.7255C39.8122 51.4572 39.8946 51.4211 39.9551 51.3589C40.0156 51.2967 40.0495 51.2134 40.0494 51.1266V29.7903C40.0494 29.6103 39.9055 29.2864 39.5365 29.6553" fill="white"/>
<path d="M23.0596 36.7648L17.3453 42.1641C17.2272 42.2631 17.1352 42.3895 17.0772 42.5322C17.0191 42.6749 16.9969 42.8297 17.0123 42.983V51.136C17.0146 51.2236 17.0504 51.3069 17.1124 51.3689C17.1743 51.4309 17.2577 51.4667 17.3453 51.4689H23.2486C23.3353 51.4666 23.4177 51.4305 23.4782 51.3683C23.5387 51.3061 23.5726 51.2228 23.5725 51.136V36.8998C23.5725 36.7198 23.4285 36.3868 23.0596 36.7648Z" fill="white"/>
<path d="M42.1282 23.0772C42.1377 23.0576 42.1427 23.0361 42.1427 23.0142C42.1427 22.9924 42.1377 22.9709 42.1282 22.9512C42.0966 22.9273 42.0594 22.9119 42.0202 22.9062H41.9482L37.5658 23.8961H37.4848H37.4038C37.3734 23.9293 37.3566 23.9726 37.3566 24.0176C37.3566 24.0626 37.3734 24.1059 37.4038 24.1391V24.1841L38.4027 25.183L28.5039 35.0817L23.9235 30.4923C23.8965 30.4711 23.8633 30.4596 23.829 30.4596C23.7947 30.4596 23.7615 30.4711 23.7345 30.4923L22.4927 31.7431L15.1406 39.0862C15.1194 39.1132 15.1079 39.1464 15.1079 39.1807C15.1079 39.215 15.1194 39.2482 15.1406 39.2752L16.3734 40.589C16.3844 40.6022 16.3982 40.6129 16.4137 40.6202C16.4293 40.6275 16.4462 40.6313 16.4634 40.6313C16.4806 40.6313 16.4976 40.6275 16.5131 40.6202C16.5287 40.6129 16.5424 40.6022 16.5534 40.589L23.7885 33.3899L27.1181 36.7195L28.3599 37.9614C28.3717 37.9748 28.3863 37.9855 28.4026 37.9929C28.4189 38.0002 28.4365 38.004 28.4544 38.004C28.4723 38.004 28.49 38.0002 28.5062 37.9929C28.5225 37.9855 28.5371 37.9748 28.5489 37.9614L39.8065 26.7038L40.8864 27.7206C40.9181 27.7504 40.9599 27.7669 41.0033 27.7669C41.0468 27.7669 41.0886 27.7504 41.1203 27.7206C41.1308 27.6854 41.1308 27.6479 41.1203 27.6127L42.0832 23.1132L42.1282 23.0772Z" fill="white"/>
<path d="M31.3296 37.7182L28.558 40.5078C28.5347 40.5293 28.5042 40.5413 28.4725 40.5413C28.4408 40.5413 28.4103 40.5293 28.387 40.5078L25.8763 37.9522C25.4173 37.4932 25.3184 37.8622 25.3184 38.0422V51.1805C25.3183 51.2673 25.3522 51.3506 25.4127 51.4128C25.4732 51.475 25.5556 51.5111 25.6423 51.5135H31.5546C31.6413 51.5111 31.7237 51.475 31.7842 51.4128C31.8447 51.3506 31.8786 51.2673 31.8785 51.1805V37.8172C31.8785 37.6372 31.7346 37.3132 31.3296 37.7182Z" fill="white"/>
</g>
<defs>
<clipPath id="clip0_1648_94184">
<rect x="0.859375" y="0.976562" width="56" height="56" rx="4" fill="white"/>
</clipPath>
</defs>
</svg>
