<svg width="57" height="57" viewBox="0 0 57 57" fill="none" xmlns="http://www.w3.org/2000/svg">
<g clip-path="url(#clip0_1648_94186)">
<path d="M56.9297 0.0703125H0.929688V56.0703H56.9297V0.0703125Z" fill="#F99D25"/>
<path d="M5.81231 7.04739C5.71303 7.10154 5.43326 7.20983 4.96396 7.38131C4.49466 7.55278 4.36832 7.58889 4.26904 7.62499V6.11782C4.64074 5.96297 5.00242 5.78513 5.35202 5.58533C5.68769 5.42175 5.99292 5.202 6.25452 4.93555H7.85196V15.6211H5.81231V7.04739Z" fill="white"/>
<path d="M10.3248 7.04739C10.2255 7.10154 9.94571 7.20983 9.47641 7.38131C9.00711 7.55278 8.88077 7.58889 8.78149 7.62499V6.11782C9.15543 5.96145 9.52003 5.78365 9.87351 5.58533C10.2061 5.41665 10.5105 5.19746 10.776 4.93555H12.3644V15.6211H10.3248V7.04739Z" fill="white"/>
<path d="M17.0662 9.03225C16.8494 9.0413 16.6342 8.99139 16.4435 8.88785C16.2795 8.79187 16.1501 8.64659 16.0735 8.47271C15.986 8.25451 15.9401 8.02187 15.9381 7.7868L16.5699 7.66045C16.575 7.80376 16.5961 7.94605 16.633 8.08463C16.6568 8.18858 16.7065 8.28482 16.7774 8.3644C16.8127 8.39635 16.8541 8.42083 16.8991 8.43634C16.944 8.45185 16.9917 8.45809 17.0392 8.45466C17.087 8.45988 17.1355 8.45266 17.1797 8.43368C17.224 8.41471 17.2626 8.38464 17.2919 8.34636C17.3478 8.26743 17.3764 8.17231 17.3731 8.07561C17.3778 7.91867 17.3336 7.76415 17.2468 7.63338C17.1515 7.51019 17.0458 7.39546 16.9309 7.29044L16.4164 6.83919C16.2774 6.72076 16.1585 6.58055 16.0645 6.42403C15.9763 6.24776 15.9329 6.05248 15.9381 5.85546C15.931 5.71946 15.9522 5.58346 16.0003 5.45607C16.0485 5.32868 16.1226 5.21268 16.2179 5.11542C16.4324 4.92993 16.711 4.83595 16.9941 4.85368C17.1573 4.84866 17.3199 4.87629 17.4724 4.93492C17.5913 4.99269 17.696 5.07587 17.7792 5.17858C17.8531 5.28901 17.908 5.41104 17.9417 5.53959C17.9796 5.67521 18.0037 5.81428 18.0139 5.95473L17.3821 6.07206C17.3733 5.95701 17.3582 5.84252 17.337 5.72911C17.3203 5.63887 17.2798 5.55475 17.2197 5.48544C17.1864 5.45649 17.1478 5.4344 17.106 5.42046C17.0641 5.40652 17.02 5.40099 16.976 5.40421C16.9283 5.40136 16.8807 5.40967 16.8368 5.42847C16.793 5.44727 16.7541 5.47606 16.7233 5.51252C16.6607 5.58846 16.6285 5.68494 16.633 5.78326C16.627 5.90414 16.6585 6.02394 16.7233 6.12621C16.7913 6.22753 16.8733 6.31869 16.967 6.39696L17.4724 6.84821C17.6445 6.98724 17.7911 7.15522 17.9056 7.34459C18.0295 7.55149 18.0921 7.78936 18.0861 8.03048C18.0883 8.21277 18.0449 8.39273 17.9597 8.55393C17.8701 8.69914 17.7461 8.82004 17.5987 8.9059C17.4343 8.99109 17.2514 9.03448 17.0662 9.03225Z" fill="white"/>
<path d="M19.4398 9.03188C19.1916 9.04559 18.9446 8.98931 18.7268 8.86944C18.5623 8.7528 18.4415 8.58439 18.3839 8.3911C18.315 8.15365 18.2815 7.90731 18.2846 7.66008V4.89844H19.0156V7.74131C19.006 7.86145 19.006 7.98217 19.0156 8.10231C19.0203 8.20388 19.062 8.30022 19.133 8.37306C19.1687 8.41061 19.2124 8.43979 19.2607 8.45851C19.3091 8.47723 19.361 8.48503 19.4127 8.48136C19.4646 8.48638 19.5169 8.4792 19.5655 8.4604C19.614 8.44159 19.6576 8.41168 19.6925 8.37306C19.7597 8.29777 19.8009 8.20283 19.8098 8.10231C19.8195 7.98217 19.8195 7.86145 19.8098 7.74131V4.89844H20.5318V7.66008C20.5349 7.90731 20.5015 8.15365 20.4326 8.3911C20.379 8.58636 20.2574 8.75603 20.0896 8.86944C19.8914 8.98064 19.667 9.03673 19.4398 9.03188Z" fill="white"/>
<path d="M21.9939 9.0326C21.7799 9.04183 21.5676 8.99186 21.3802 8.8882C21.2129 8.7937 21.0801 8.64827 21.0011 8.47306C20.9137 8.25486 20.8678 8.02222 20.8658 7.78715L21.5066 7.6608C21.5089 7.80376 21.5271 7.94601 21.5607 8.08498C21.5882 8.18751 21.6374 8.28293 21.7051 8.36475C21.7774 8.42757 21.8712 8.45992 21.9668 8.455C22.0159 8.45931 22.0654 8.45171 22.1109 8.43286C22.1565 8.41401 22.1968 8.38446 22.2285 8.34671C22.2776 8.26507 22.3027 8.17121 22.3007 8.07596C22.3043 7.92041 22.2636 7.76705 22.1834 7.63373C22.0875 7.50827 21.9786 7.39332 21.8585 7.29079L21.3441 6.83954C21.2053 6.72329 21.0891 6.58257 21.0011 6.42438C20.9056 6.25052 20.8588 6.05407 20.8658 5.85581C20.8581 5.71896 20.8799 5.58207 20.9297 5.45439C20.9795 5.32671 21.0562 5.21123 21.1546 5.11576C21.2586 5.02334 21.38 4.95258 21.5118 4.90764C21.6435 4.8627 21.7829 4.84448 21.9217 4.85403C22.085 4.84901 22.2476 4.87664 22.4 4.93527C22.5201 4.99115 22.6252 5.07464 22.7069 5.17893C22.7801 5.29096 22.8378 5.41241 22.8783 5.53994C22.9133 5.67586 22.9344 5.81493 22.9415 5.95508L22.3098 6.07241C22.3203 5.95834 22.3203 5.84353 22.3098 5.72946C22.2971 5.63797 22.256 5.55277 22.1924 5.48579C22.1592 5.45684 22.1205 5.43475 22.0787 5.42081C22.0369 5.40687 21.9927 5.40134 21.9488 5.40456C21.9012 5.4024 21.8538 5.41102 21.81 5.42977C21.7663 5.44853 21.7273 5.47694 21.6961 5.51287C21.6369 5.59066 21.6052 5.68586 21.6058 5.7836C21.6044 5.90397 21.6356 6.02246 21.6961 6.12656C21.7641 6.22787 21.8461 6.31903 21.9397 6.39731L22.4542 6.84856C22.6211 6.99039 22.7643 7.15796 22.8783 7.34494C23.0062 7.55017 23.0691 7.78923 23.0588 8.03083C23.0611 8.21312 23.0176 8.39308 22.9325 8.55428C22.8429 8.69949 22.7189 8.82039 22.5715 8.90625C22.3941 9.00024 22.1943 9.04394 21.9939 9.0326Z" fill="white"/>
<path d="M23.6547 9.03242V5.49463H23.0049V4.95312H25.0445V5.49463H24.4038V9.03242H23.6547Z" fill="white"/>
<path d="M24.9001 9.03242L25.7214 4.95312H26.5156L27.3279 9.03242H26.642L26.4795 8.12992H25.7665L25.6041 9.03242H24.9001ZM25.8478 7.61549H26.3983L26.1185 5.90075L25.8478 7.61549Z" fill="white"/>
<path d="M27.5354 9.03242V4.95312H28.2664V9.03242H27.5354Z" fill="white"/>
<path d="M28.6904 9.03188V4.95259H29.2139L30.1795 7.22688V4.89844H30.7932V9.03188H30.2969L29.2951 6.59514V9.03188H28.6904Z" fill="white"/>
<path d="M31.0281 9.03242L31.8403 4.95312H32.6345L33.4558 9.03242H32.7609L32.6074 8.12992H31.8945L31.723 9.03242H31.0281ZM31.9306 7.61549H32.4901L32.2103 5.90075L31.9306 7.61549Z" fill="white"/>
<path d="M33.6362 9.03307V4.95378H34.638C34.8029 4.93468 34.9695 4.93468 35.1344 4.95378C35.271 4.98477 35.4 5.0431 35.5134 5.12526C35.6172 5.21105 35.7005 5.31899 35.7571 5.44114C35.8161 5.60601 35.8437 5.78051 35.8383 5.95555C35.8429 6.09959 35.8215 6.24328 35.7752 6.37973C35.7327 6.49014 35.661 6.58687 35.5676 6.6595C35.4712 6.7292 35.36 6.77555 35.2427 6.79488C35.3862 6.8103 35.5225 6.8659 35.6359 6.9553C35.7492 7.04471 35.835 7.16428 35.8835 7.30028C35.9378 7.45989 35.9623 7.62817 35.9557 7.79666C35.9621 7.97105 35.9377 8.1452 35.8835 8.31107C35.844 8.45 35.7717 8.57744 35.6728 8.68266C35.5739 8.78788 35.4511 8.8678 35.3149 8.91574C35.151 8.96503 34.9806 8.98937 34.8095 8.98795L33.6362 9.03307ZM34.3853 6.61439H34.638C34.7558 6.6213 34.8734 6.59962 34.981 6.5512C35.0201 6.53087 35.0547 6.50278 35.0826 6.46865C35.1106 6.43451 35.1312 6.39504 35.1434 6.35265C35.1835 6.24292 35.2019 6.12644 35.1976 6.0097C35.2056 5.89268 35.1772 5.77605 35.1163 5.67578C35.0936 5.63508 35.0625 5.5996 35.0252 5.57162C34.9879 5.54364 34.9452 5.52379 34.8997 5.51334C34.779 5.48164 34.6545 5.46646 34.5297 5.46821H34.3853V6.61439ZM34.3853 8.50962H34.6922C34.7762 8.52047 34.8617 8.51141 34.9416 8.4832C35.0216 8.45498 35.0938 8.4084 35.1524 8.34718C35.2402 8.19383 35.281 8.01809 35.2698 7.84177C35.2739 7.70435 35.2556 7.56718 35.2156 7.43565C35.1777 7.34237 35.1114 7.26341 35.0261 7.21002C34.9155 7.15039 34.7906 7.1223 34.6651 7.1288H34.4124L34.3853 8.50962Z" fill="white"/>
<path d="M36.2354 9.03242V4.95312H36.9844V8.51799H37.9682V9.03242H36.2354Z" fill="white"/>
<path d="M38.1306 9.03242V4.95312H39.8454V5.42243H38.8797V6.59568H39.6378V7.11009H38.8797V8.46384H39.8544V9.03242H38.1306Z" fill="white"/>
<path d="M42.2008 9.03204C41.9543 9.04702 41.7089 8.98725 41.4969 8.86056C41.3273 8.74311 41.2031 8.57112 41.1449 8.37322C41.0682 8.14665 41.0315 7.90843 41.0366 7.66927V6.21625C41.0318 5.96825 41.0684 5.72118 41.1449 5.48523C41.202 5.29155 41.3269 5.12493 41.4969 5.01593C41.7116 4.89679 41.9556 4.84049 42.2008 4.85347C42.4284 4.84125 42.6553 4.88788 42.8596 4.98885C43.0198 5.08188 43.1415 5.22912 43.2026 5.40399C43.2749 5.60338 43.3086 5.81472 43.3019 6.02672V6.36967H42.5889V6.0177C42.5942 5.91247 42.5942 5.80705 42.5889 5.70182C42.5826 5.61748 42.5475 5.53785 42.4896 5.4762C42.4529 5.44419 42.4097 5.4204 42.363 5.40639C42.3163 5.39238 42.2672 5.38849 42.2189 5.39497C42.1685 5.3901 42.1178 5.39561 42.0696 5.41113C42.0215 5.42665 41.9771 5.45187 41.9391 5.48523C41.8804 5.55092 41.8427 5.63262 41.8308 5.71987C41.8207 5.83095 41.8207 5.94271 41.8308 6.05379V7.85879C41.8146 7.97858 41.8146 8.10001 41.8308 8.2198C41.8464 8.3045 41.8911 8.38109 41.9571 8.43639C42.0301 8.48982 42.1197 8.51543 42.2098 8.50859C42.2588 8.51387 42.3083 8.50855 42.3551 8.49297C42.4018 8.4774 42.4446 8.45195 42.4806 8.41835C42.5348 8.35434 42.5693 8.27596 42.5799 8.19272C42.5799 8.09345 42.5799 7.98514 42.5799 7.85879V7.48876H43.2928V7.8227C43.2978 8.03978 43.2674 8.25621 43.2026 8.46346C43.1422 8.64576 43.0212 8.80186 42.8596 8.90569C42.6559 9.00772 42.4279 9.05144 42.2008 9.03204Z" fill="white"/>
<path d="M43.636 9.03242V4.95312H44.376V9.03242H43.636Z" fill="white"/>
<path d="M45.2062 9.03242V5.49463H44.5564V4.95312H46.587V5.49463H45.9463V9.03242H45.2062Z" fill="white"/>
<path d="M46.7766 9.03242V4.95312H47.5166V9.03242H46.7766Z" fill="white"/>
<path d="M47.9407 9.03242V4.95312H49.6464V5.42243H48.6807V6.59568H49.4479V7.11009H48.6807V8.46384H49.6644V9.03242H47.9407Z" fill="white"/>
<path d="M50.9372 9.03225C50.7204 9.0413 50.5052 8.99139 50.3145 8.88785C50.1505 8.79187 50.021 8.64659 49.9445 8.47271C49.858 8.25386 49.8091 8.02195 49.8 7.7868L50.4408 7.66045C50.4459 7.80376 50.4671 7.94605 50.504 8.08463C50.5277 8.18858 50.5774 8.28482 50.6484 8.3644C50.6837 8.39635 50.725 8.42083 50.77 8.43634C50.815 8.45185 50.8627 8.45809 50.9101 8.45466C50.958 8.45988 51.0064 8.45266 51.0507 8.43368C51.095 8.41471 51.1336 8.38464 51.1628 8.34636C51.2188 8.26743 51.2473 8.17231 51.2441 8.07561C51.2487 7.91867 51.2046 7.76415 51.1177 7.63338C51.0225 7.51019 50.9168 7.39546 50.8018 7.29044L50.2874 6.83919C50.1484 6.72076 50.0295 6.58055 49.9354 6.42403C49.8473 6.24776 49.8039 6.05248 49.8091 5.85546C49.8002 5.71929 49.8206 5.5828 49.8689 5.45516C49.9171 5.32752 49.9921 5.21168 50.0889 5.11542C50.3033 4.92993 50.582 4.83595 50.865 4.85368C51.0283 4.84866 51.1909 4.87629 51.3433 4.93492C51.4622 4.99269 51.567 5.07587 51.6502 5.17858C51.7241 5.28901 51.779 5.41104 51.8126 5.53959C51.8505 5.67521 51.8747 5.81428 51.8848 5.95473L51.2531 6.07206C51.2443 5.95701 51.2292 5.84252 51.2079 5.72911C51.1913 5.63887 51.1508 5.55475 51.0906 5.48544C51.0574 5.45649 51.0187 5.4344 50.9769 5.42046C50.9351 5.40652 50.8909 5.40099 50.8469 5.40421C50.7993 5.40136 50.7517 5.40967 50.7078 5.42847C50.6639 5.44727 50.625 5.47606 50.5943 5.51252C50.5317 5.58846 50.4995 5.68494 50.504 5.78326C50.498 5.90414 50.5295 6.02394 50.5943 6.12621C50.6623 6.22753 50.7443 6.31869 50.8379 6.39696L51.3433 6.84821C51.5155 6.98724 51.6621 7.15522 51.7765 7.34459C51.9005 7.55149 51.9631 7.78936 51.957 8.03048C51.9593 8.21277 51.9158 8.39273 51.8307 8.55393C51.7411 8.69914 51.6171 8.82004 51.4697 8.9059C51.3052 8.99109 51.1224 9.03448 50.9372 9.03225Z" fill="white"/>
<path d="M15.8298 15.6828L16.6421 11.6035H17.4453L18.2576 15.6828H17.5446L17.3911 14.7803H16.6782L16.5067 15.6828H15.8298ZM16.7323 14.2659H17.2919L17.0121 12.5511L16.7323 14.2659Z" fill="white"/>
<path d="M18.4473 15.6828V11.6035H18.9707L19.9635 13.9319V11.6035H20.5771V15.6828H20.0808L19.079 13.2461V15.6828H18.4473Z" fill="white"/>
<path d="M20.9832 15.6827V11.6035H21.9398C22.2082 11.5913 22.4761 11.6375 22.725 11.7388C22.9035 11.8242 23.0447 11.9719 23.1221 12.154C23.2043 12.3825 23.244 12.6241 23.2394 12.867V14.3651C23.2438 14.6138 23.2041 14.8613 23.1221 15.0961C23.0434 15.2841 22.9035 15.44 22.725 15.5384C22.4908 15.647 22.2336 15.6965 21.9759 15.6827H20.9832ZM21.7232 15.1593H21.9488C22.0789 15.1726 22.2096 15.1408 22.3189 15.0691C22.3966 15.003 22.4453 14.909 22.4542 14.8073C22.4647 14.6661 22.4647 14.5243 22.4542 14.3831V12.8218C22.4711 12.69 22.4711 12.5566 22.4542 12.4247C22.4482 12.3788 22.4321 12.3348 22.4071 12.2959C22.3822 12.2569 22.349 12.2238 22.3098 12.1991C22.1982 12.143 22.0735 12.1181 21.9488 12.1269H21.7322L21.7232 15.1593Z" fill="white"/>
<path d="M25.6671 15.7371C25.4206 15.7521 25.1752 15.6923 24.9632 15.5656C24.7974 15.4443 24.6742 15.2737 24.6112 15.0783C24.5421 14.8501 24.5087 14.6127 24.5119 14.3743V12.9213C24.5088 12.6741 24.5423 12.4277 24.6112 12.1903C24.673 11.999 24.7969 11.8339 24.9632 11.721C25.1779 11.6018 25.4219 11.5456 25.6671 11.5585C25.8976 11.5464 26.1274 11.5929 26.335 11.6939C26.4889 11.7942 26.6085 11.939 26.6779 12.1091C26.7459 12.3095 26.7795 12.5201 26.7772 12.7318V13.0747H26.0552V12.7227C26.065 12.6177 26.065 12.5119 26.0552 12.4069C26.0537 12.3232 26.0216 12.2429 25.9649 12.1813C25.889 12.1194 25.7917 12.0902 25.6942 12.1C25.6439 12.0946 25.5929 12.0998 25.5447 12.1154C25.4965 12.1309 25.4521 12.1565 25.4144 12.1903C25.3493 12.2525 25.3078 12.3355 25.2971 12.4249C25.2874 12.536 25.2874 12.6478 25.2971 12.7589V14.5639C25.2864 14.6839 25.2864 14.8048 25.2971 14.9248C25.3158 15.0105 25.3637 15.0871 25.4325 15.1415C25.505 15.1956 25.5949 15.2213 25.6852 15.2137C25.7328 15.2195 25.7811 15.2144 25.8265 15.1987C25.8718 15.1831 25.913 15.1573 25.9469 15.1234C26.0061 15.059 26.0412 14.9761 26.0462 14.8888C26.0563 14.7807 26.0563 14.6719 26.0462 14.5639V14.1938H26.7682V14.5277C26.7704 14.7453 26.7369 14.9618 26.6689 15.1685C26.6122 15.3502 26.4942 15.5065 26.335 15.6107C26.1275 15.7114 25.897 15.755 25.6671 15.7371Z" fill="white"/>
<path d="M28.2213 15.7378C27.9819 15.7498 27.744 15.6934 27.5354 15.5753C27.364 15.4677 27.2336 15.3056 27.1654 15.115C27.0887 14.8854 27.0521 14.6442 27.0571 14.4021V12.8678C27.052 12.6287 27.0887 12.3904 27.1654 12.1639C27.2308 11.974 27.3621 11.8139 27.5354 11.7126C27.745 11.5976 27.9828 11.5444 28.2213 11.5592C28.4657 11.544 28.7094 11.5971 28.9253 11.7126C29.0918 11.8194 29.2187 11.978 29.2863 12.1639C29.3705 12.3887 29.4103 12.6278 29.4036 12.8678V14.4472C29.4095 14.6901 29.3697 14.9319 29.2863 15.1602C29.2204 15.3494 29.0934 15.5113 28.9253 15.6204C28.706 15.724 28.4623 15.7646 28.2213 15.7378ZM28.2213 15.1872C28.3213 15.1949 28.4207 15.166 28.5011 15.106C28.5608 15.047 28.6016 14.9716 28.6184 14.8894C28.6277 14.7873 28.6277 14.6846 28.6184 14.5826V12.6963C28.6281 12.5943 28.6281 12.4915 28.6184 12.3895C28.6039 12.309 28.5626 12.2358 28.5011 12.1819C28.4207 12.1219 28.3213 12.0931 28.2213 12.1007C28.1268 12.0923 28.0328 12.1215 27.9596 12.1819C27.8922 12.2322 27.8469 12.3066 27.8332 12.3895C27.8235 12.4915 27.8235 12.5943 27.8332 12.6963V14.5826C27.8239 14.6846 27.8239 14.7873 27.8332 14.8894C27.8465 14.9729 27.8879 15.0493 27.9506 15.106C28.0282 15.1646 28.1242 15.1935 28.2213 15.1872Z" fill="white"/>
<path d="M29.7375 15.6828L29.8097 11.6035H30.5769L31.1544 14.4283L31.7591 11.6035H32.5082L32.5804 15.6828H32.0299L31.9667 12.849L31.3891 15.6828H30.9379L30.3512 12.8309L30.2971 15.6828H29.7375Z" fill="white"/>
<path d="M32.9683 15.6828L33.0405 11.6035H33.7895L34.3671 14.4283L34.9718 11.6035H35.7119L35.7931 15.6828H35.2335L35.1794 12.849L34.5928 15.6828H34.1505L33.5549 12.8309L33.5007 15.6828H32.9683Z" fill="white"/>
<path d="M37.3366 15.7369C37.0911 15.7519 36.8466 15.6955 36.6326 15.5745C36.4647 15.4593 36.3407 15.2908 36.2806 15.0962C36.215 14.8582 36.1846 14.6119 36.1904 14.3652V11.6035H36.9124V14.4464C36.9027 14.5665 36.9027 14.6872 36.9124 14.8074C36.9214 14.9079 36.9625 15.0028 37.0297 15.0781C37.0655 15.1157 37.1091 15.1449 37.1575 15.1636C37.2058 15.1823 37.2577 15.1901 37.3095 15.1864C37.3626 15.1902 37.4159 15.1825 37.4657 15.1638C37.5155 15.1451 37.5608 15.1159 37.5983 15.0781C37.6589 14.9997 37.6964 14.9059 37.7066 14.8074C37.7162 14.6872 37.7162 14.5665 37.7066 14.4464V11.6035H38.4286V14.3652C38.4344 14.6119 38.404 14.8582 38.3383 15.0962C38.2783 15.2908 38.1543 15.4593 37.9864 15.5745C37.7881 15.6857 37.5638 15.7418 37.3366 15.7369Z" fill="white"/>
<path d="M38.8616 15.6828V11.6035H39.385L40.3778 13.9319V11.6035H41.0095V15.6828H40.5132L39.5204 13.2461V15.6828H38.8616Z" fill="white"/>
<path d="M41.4248 15.6828V11.6035H42.1558V15.6828H41.4248Z" fill="white"/>
<path d="M42.995 15.6828V12.145H42.3452V11.6035H44.3758V12.145H43.717V15.6828H42.995Z" fill="white"/>
<path d="M44.5654 15.6828V11.6035H45.2965V15.6828H44.5654Z" fill="white"/>
<path d="M45.7207 15.6828V11.6035H47.4354V12.127H46.4698V13.3002H47.2279V13.8146H46.4698V15.1684H47.4445V15.6828H45.7207Z" fill="white"/>
<path d="M48.6989 15.7378C48.4851 15.7456 48.2731 15.6958 48.0852 15.5934C47.9213 15.4974 47.7918 15.3521 47.7152 15.1782C47.6246 14.9606 47.5757 14.728 47.5708 14.4923L48.2116 14.366C48.2167 14.5093 48.2379 14.6516 48.2747 14.7902C48.2985 14.8941 48.3482 14.9904 48.4192 15.0699C48.4544 15.1019 48.4958 15.1264 48.5408 15.1419C48.5858 15.1574 48.6334 15.1636 48.6809 15.1602C48.7288 15.1654 48.7772 15.1582 48.8215 15.1392C48.8657 15.1202 48.9043 15.0902 48.9336 15.0519C48.987 14.9721 49.0124 14.8769 49.0058 14.7811C49.0137 14.6251 48.9727 14.4705 48.8885 14.3389C48.7926 14.2135 48.6836 14.0985 48.5636 13.996L48.0491 13.5447C47.9129 13.426 47.797 13.2858 47.7062 13.1296C47.618 12.9533 47.5746 12.758 47.5798 12.561C47.5672 12.4245 47.5858 12.2869 47.6343 12.1587C47.6828 12.0304 47.7598 11.9149 47.8596 11.8209C47.9653 11.7282 48.0883 11.6574 48.2215 11.6125C48.3547 11.5675 48.4955 11.5494 48.6358 11.5592C48.799 11.5542 48.9616 11.5818 49.1141 11.6404C49.2316 11.6963 49.3338 11.78 49.4119 11.8841C49.4921 11.9921 49.5504 12.1147 49.5834 12.2451C49.622 12.3806 49.6462 12.5197 49.6556 12.6603L49.0238 12.7776C49.015 12.6625 48.9999 12.5481 48.9787 12.4346C48.9582 12.3457 48.9181 12.2624 48.8614 12.191C48.8281 12.162 48.7895 12.1399 48.7477 12.126C48.7058 12.112 48.6617 12.1065 48.6177 12.1097C48.5701 12.1069 48.5224 12.1152 48.4786 12.134C48.4347 12.1528 48.3958 12.1816 48.365 12.218C48.3024 12.294 48.2702 12.3905 48.2747 12.4888C48.2706 12.6083 48.2987 12.7268 48.356 12.8317C48.4301 12.9309 48.5148 13.0217 48.6087 13.1025L49.1141 13.5537C49.2862 13.6928 49.4328 13.8607 49.5473 14.0501C49.6712 14.257 49.7338 14.4949 49.7278 14.736C49.7309 14.9155 49.6873 15.0928 49.6014 15.2504C49.5146 15.4002 49.3902 15.5246 49.2404 15.6114C49.073 15.6973 48.8871 15.7407 48.6989 15.7378Z" fill="white"/>
<path d="M10.4782 42.7684H18.9436C18.9709 42.7684 18.9979 42.7631 19.0231 42.7526C19.0483 42.7422 19.0711 42.7269 19.0904 42.7076C19.1097 42.6884 19.125 42.6655 19.1354 42.6403C19.1458 42.6151 19.1512 42.5881 19.1512 42.5608C19.1521 42.5358 19.1477 42.5108 19.1384 42.4874C19.1291 42.4641 19.115 42.443 19.0971 42.4255L14.8373 37.0105C14.8174 36.99 14.7935 36.9738 14.7671 36.9629C14.7407 36.952 14.7124 36.9467 14.6838 36.9473C14.6366 36.9342 14.5867 36.9342 14.5395 36.9473V36.9924L10.4331 42.4074L10.3248 42.4255C10.3156 42.464 10.3156 42.5042 10.3248 42.5428C10.3188 42.5926 10.331 42.6429 10.3592 42.6844C10.3874 42.7258 10.4297 42.7557 10.4782 42.7684Z" fill="white"/>
<path d="M18.9164 43.5352H10.442C10.3869 43.5352 10.3341 43.557 10.2952 43.596C10.2563 43.6349 10.2344 43.6877 10.2344 43.7427V50.3851C10.2344 50.4402 10.2563 50.493 10.2952 50.5319C10.3341 50.5708 10.3869 50.5927 10.442 50.5927H13.1495V46.4141C13.1495 46.3591 13.1713 46.3063 13.2102 46.2674C13.2492 46.2284 13.302 46.2066 13.357 46.2066H15.8931C15.9481 46.2066 16.0009 46.2284 16.0398 46.2674C16.0788 46.3063 16.1006 46.3591 16.1006 46.4141V50.5927H18.8984C18.9534 50.5927 19.0062 50.5708 19.0451 50.5319C19.0841 50.493 19.1059 50.4402 19.1059 50.3851V43.7427C19.1061 43.6907 19.0868 43.6404 19.0517 43.602C19.0166 43.5635 18.9683 43.5397 18.9164 43.5352Z" fill="white"/>
<path d="M48.2297 41.801H39.8365C39.7838 41.801 39.7333 41.8219 39.6961 41.8591C39.6588 41.8964 39.6379 41.9469 39.6379 41.9995V50.474C39.6379 50.5267 39.6588 50.5772 39.6961 50.6144C39.7333 50.6516 39.7838 50.6725 39.8365 50.6725H48.2297C48.2565 50.6738 48.2833 50.6695 48.3085 50.6601C48.3336 50.6507 48.3566 50.6362 48.376 50.6177C48.3954 50.5991 48.4108 50.5768 48.4213 50.5521C48.4319 50.5274 48.4373 50.5008 48.4373 50.474V41.9995C48.4373 41.9727 48.4319 41.9461 48.4213 41.9214C48.4108 41.8967 48.3954 41.8744 48.376 41.8559C48.3566 41.8373 48.3336 41.8229 48.3085 41.8134C48.2833 41.804 48.2565 41.7998 48.2297 41.801ZM43.636 47.3333C43.636 47.386 43.6151 47.4365 43.5778 47.4737C43.5406 47.5109 43.4901 47.5319 43.4374 47.5319H40.9195C40.8926 47.5331 40.8659 47.5288 40.8407 47.5194C40.8156 47.51 40.7926 47.4956 40.7732 47.477C40.7538 47.4584 40.7384 47.4361 40.7278 47.4114C40.7173 47.3867 40.7119 47.3602 40.7119 47.3333V45.8081C40.7119 45.7812 40.7173 45.7547 40.7278 45.73C40.7384 45.7053 40.7538 45.683 40.7732 45.6644C40.7926 45.6458 40.8156 45.6314 40.8407 45.622C40.8659 45.6125 40.8926 45.6083 40.9195 45.6095H43.4284C43.4545 45.6095 43.4803 45.6147 43.5044 45.6246C43.5285 45.6346 43.5504 45.6492 43.5688 45.6677C43.5873 45.6861 43.6019 45.708 43.6118 45.7321C43.6218 45.7562 43.627 45.782 43.627 45.8081L43.636 47.3333ZM43.636 44.5175C43.636 44.5702 43.6151 44.6207 43.5778 44.6579C43.5406 44.6951 43.4901 44.7161 43.4374 44.7161H40.9195C40.8926 44.7173 40.8659 44.713 40.8407 44.7036C40.8156 44.6942 40.7926 44.6797 40.7732 44.6612C40.7538 44.6426 40.7384 44.6203 40.7278 44.5956C40.7173 44.5709 40.7119 44.5444 40.7119 44.5175V42.9923C40.7119 42.9654 40.7173 42.9389 40.7278 42.9142C40.7384 42.8895 40.7538 42.8672 40.7732 42.8486C40.7926 42.83 40.8156 42.8156 40.8407 42.8062C40.8659 42.7967 40.8926 42.7925 40.9195 42.7937H43.4284C43.4545 42.7937 43.4803 42.7989 43.5044 42.8088C43.5285 42.8188 43.5504 42.8335 43.5688 42.8519C43.5873 42.8703 43.6019 42.8922 43.6118 42.9163C43.6218 42.9404 43.627 42.9662 43.627 42.9923L43.636 44.5175ZM47.4716 47.3333C47.4716 47.3602 47.4662 47.3867 47.4557 47.4114C47.4452 47.4361 47.4297 47.4584 47.4103 47.477C47.3909 47.4956 47.3679 47.51 47.3428 47.5194C47.3177 47.5288 47.2909 47.5331 47.264 47.5319H44.7641C44.7373 47.5331 44.7105 47.5288 44.6853 47.5194C44.6602 47.51 44.6372 47.4956 44.6178 47.477C44.5984 47.4584 44.583 47.4361 44.5725 47.4114C44.5619 47.3867 44.5565 47.3602 44.5565 47.3333V45.8081C44.5565 45.7812 44.5619 45.7547 44.5725 45.73C44.583 45.7053 44.5984 45.683 44.6178 45.6644C44.6372 45.6458 44.6602 45.6314 44.6853 45.622C44.7105 45.6125 44.7373 45.6083 44.7641 45.6095H47.264C47.2909 45.6083 47.3177 45.6125 47.3428 45.622C47.3679 45.6314 47.3909 45.6458 47.4103 45.6644C47.4297 45.683 47.4452 45.7053 47.4557 45.73C47.4662 45.7547 47.4716 45.7812 47.4716 45.8081V47.3333ZM47.4716 44.5175C47.4716 44.5444 47.4662 44.5709 47.4557 44.5956C47.4452 44.6203 47.4297 44.6426 47.4103 44.6612C47.3909 44.6797 47.3679 44.6942 47.3428 44.7036C47.3177 44.713 47.2909 44.7173 47.264 44.7161H44.7641C44.7373 44.7173 44.7105 44.713 44.6853 44.7036C44.6602 44.6942 44.6372 44.6797 44.6178 44.6612C44.5984 44.6426 44.583 44.6203 44.5725 44.5956C44.5619 44.5709 44.5565 44.5444 44.5565 44.5175V42.9923C44.5565 42.9654 44.5619 42.9389 44.5725 42.9142C44.583 42.8895 44.5984 42.8672 44.6178 42.8486C44.6372 42.83 44.6602 42.8156 44.6853 42.8062C44.7105 42.7967 44.7373 42.7925 44.7641 42.7937H47.264C47.2909 42.7925 47.3177 42.7967 47.3428 42.8062C47.3679 42.8156 47.3909 42.83 47.4103 42.8486C47.4297 42.8672 47.4452 42.8895 47.4557 42.9142C47.4662 42.9389 47.4716 42.9654 47.4716 42.9923V44.5175Z" fill="white"/>
<path d="M28.7177 22.127H20.5049C20.4499 22.127 20.3971 22.1488 20.3582 22.1878C20.3192 22.2267 20.2974 22.2795 20.2974 22.3345V50.4022C20.2973 50.4291 20.3028 50.4556 20.3133 50.4803C20.3238 50.505 20.3393 50.5273 20.3587 50.5459C20.3781 50.5645 20.4011 50.5789 20.4262 50.5883C20.4513 50.5978 20.4781 50.602 20.5049 50.6008H28.7177C28.7703 50.6008 28.8208 50.5798 28.8581 50.5426C28.8953 50.5054 28.9162 50.4549 28.9162 50.4022V22.3345C28.9175 22.3077 28.9132 22.2809 28.9038 22.2558C28.8944 22.2306 28.8799 22.2077 28.8614 22.1883C28.8428 22.1689 28.8205 22.1534 28.7958 22.1429C28.7711 22.1323 28.7445 22.1269 28.7177 22.127ZM23.8261 47.3969C23.8261 47.4256 23.8147 47.4532 23.7944 47.4735C23.7741 47.4938 23.7466 47.5052 23.7178 47.5052H21.8407C21.8119 47.5052 21.7844 47.4938 21.7641 47.4735C21.7437 47.4532 21.7324 47.4256 21.7324 47.3969V45.2941C21.7323 45.2802 21.7351 45.2666 21.7407 45.2539C21.7462 45.2412 21.7543 45.2298 21.7645 45.2205C21.7747 45.2112 21.7868 45.204 21.7999 45.1996C21.813 45.1952 21.8269 45.1936 21.8407 45.1948H23.7178C23.7316 45.1936 23.7455 45.1952 23.7586 45.1996C23.7717 45.204 23.7837 45.2112 23.7939 45.2205C23.8041 45.2298 23.8123 45.2412 23.8178 45.2539C23.8234 45.2666 23.8262 45.2802 23.8261 45.2941V47.3969ZM23.8261 42.5776C23.8261 42.6063 23.8147 42.6338 23.7944 42.6541C23.7741 42.6745 23.7466 42.6859 23.7178 42.6859H21.8407C21.8119 42.6859 21.7844 42.6745 21.7641 42.6541C21.7437 42.6338 21.7324 42.6063 21.7324 42.5776V40.4838C21.7324 40.4551 21.7437 40.4275 21.7641 40.4072C21.7844 40.3869 21.8119 40.3755 21.8407 40.3755H23.7178C23.7466 40.3755 23.7741 40.3869 23.7944 40.4072C23.8147 40.4275 23.8261 40.4551 23.8261 40.4838V42.5776ZM23.8261 37.7672C23.8261 37.796 23.8147 37.8235 23.7944 37.8438C23.7741 37.8641 23.7466 37.8756 23.7178 37.8756H21.8407C21.8119 37.8756 21.7844 37.8641 21.7641 37.8438C21.7437 37.8235 21.7324 37.796 21.7324 37.7672V35.6735C21.7324 35.6447 21.7437 35.6172 21.7641 35.5969C21.7844 35.5766 21.8119 35.5651 21.8407 35.5651H23.7178C23.7466 35.5651 23.7741 35.5766 23.7944 35.5969C23.8147 35.6172 23.8261 35.6447 23.8261 35.6735V37.7672ZM23.8261 32.9569C23.8261 32.9857 23.8147 33.0132 23.7944 33.0335C23.7741 33.0538 23.7466 33.0652 23.7178 33.0652H21.8407C21.8119 33.0652 21.7844 33.0538 21.7641 33.0335C21.7437 33.0132 21.7324 32.9857 21.7324 32.9569V30.8722C21.7324 30.8434 21.7437 30.8159 21.7641 30.7956C21.7844 30.7753 21.8119 30.7639 21.8407 30.7639H23.7178C23.7466 30.7639 23.7741 30.7753 23.7944 30.7956C23.8147 30.8159 23.8261 30.8434 23.8261 30.8722V32.9569ZM23.8261 28.1466C23.8261 28.1753 23.8147 28.2029 23.7944 28.2232C23.7741 28.2435 23.7466 28.2549 23.7178 28.2549H21.8407C21.8119 28.2549 21.7844 28.2435 21.7641 28.2232C21.7437 28.2029 21.7324 28.1753 21.7324 28.1466V26.0438C21.7324 26.0151 21.7437 25.9875 21.7641 25.9672C21.7844 25.9469 21.8119 25.9355 21.8407 25.9355H23.7178C23.7466 25.9355 23.7741 25.9469 23.7944 25.9672C23.8147 25.9875 23.8261 26.0151 23.8261 26.0438V28.1466ZM27.5173 47.3969C27.5173 47.4256 27.506 47.4532 27.4856 47.4735C27.4653 47.4938 27.4378 47.5052 27.409 47.5052H25.5319C25.5031 47.5052 25.4756 47.4938 25.4553 47.4735C25.435 47.4532 25.4236 47.4256 25.4236 47.3969V45.2941C25.4235 45.2802 25.4263 45.2666 25.4319 45.2539C25.4374 45.2412 25.4455 45.2298 25.4557 45.2205C25.4659 45.2112 25.478 45.204 25.4911 45.1996C25.5042 45.1952 25.5181 45.1936 25.5319 45.1948H27.409C27.4228 45.1936 27.4367 45.1952 27.4498 45.1996C27.4629 45.204 27.475 45.2112 27.4852 45.2205C27.4954 45.2298 27.5035 45.2412 27.509 45.2539C27.5146 45.2666 27.5174 45.2802 27.5173 45.2941V47.3969ZM27.5173 42.5776C27.5173 42.6063 27.506 42.6338 27.4856 42.6541C27.4653 42.6745 27.4378 42.6859 27.409 42.6859H25.5319C25.5031 42.6859 25.4756 42.6745 25.4553 42.6541C25.435 42.6338 25.4236 42.6063 25.4236 42.5776V40.4838C25.4236 40.4551 25.435 40.4275 25.4553 40.4072C25.4756 40.3869 25.5031 40.3755 25.5319 40.3755H27.409C27.4378 40.3755 27.4653 40.3869 27.4856 40.4072C27.506 40.4275 27.5173 40.4551 27.5173 40.4838V42.5776ZM27.5173 37.7672C27.5173 37.7815 27.5146 37.7956 27.5091 37.8087C27.5037 37.8218 27.4957 37.8338 27.4856 37.8438C27.4756 37.8539 27.4636 37.8619 27.4505 37.8673C27.4374 37.8727 27.4233 37.8756 27.409 37.8756H25.5319C25.5176 37.8756 25.5036 37.8727 25.4904 37.8673C25.4773 37.8619 25.4653 37.8539 25.4553 37.8438C25.4452 37.8338 25.4372 37.8218 25.4318 37.8087C25.4264 37.7956 25.4236 37.7815 25.4236 37.7672V35.6735C25.4236 35.6447 25.435 35.6172 25.4553 35.5969C25.4756 35.5766 25.5031 35.5651 25.5319 35.5651H27.409C27.4378 35.5651 27.4653 35.5766 27.4856 35.5969C27.506 35.6172 27.5173 35.6447 27.5173 35.6735V37.7672ZM27.5173 32.9569C27.5173 32.9857 27.506 33.0132 27.4856 33.0335C27.4653 33.0538 27.4378 33.0652 27.409 33.0652H25.5319C25.5031 33.0652 25.4756 33.0538 25.4553 33.0335C25.435 33.0132 25.4236 32.9857 25.4236 32.9569V30.8722C25.4236 30.8434 25.435 30.8159 25.4553 30.7956C25.4756 30.7753 25.5031 30.7639 25.5319 30.7639H27.409C27.4378 30.7639 27.4653 30.7753 27.4856 30.7956C27.506 30.8159 27.5173 30.8434 27.5173 30.8722V32.9569ZM27.5173 28.1466C27.5173 28.1753 27.506 28.2029 27.4856 28.2232C27.4653 28.2435 27.4378 28.2549 27.409 28.2549H25.5319C25.5031 28.2549 25.4756 28.2435 25.4553 28.2232C25.435 28.2029 25.4236 28.1753 25.4236 28.1466V26.0438C25.4236 26.0151 25.435 25.9875 25.4553 25.9672C25.4756 25.9469 25.5031 25.9355 25.5319 25.9355H27.409C27.4378 25.9355 27.4653 25.9469 27.4856 25.9672C27.506 25.9875 27.5173 26.0151 27.5173 26.0438V28.1466Z" fill="white"/>
<path d="M48.2477 39.0938H39.8094C39.7147 39.0938 39.6379 39.1705 39.6379 39.2652V40.9529C39.6379 41.0476 39.7147 41.1244 39.8094 41.1244H48.2477C48.3425 41.1244 48.4192 41.0476 48.4192 40.9529V39.2652C48.4192 39.1705 48.3425 39.0938 48.2477 39.0938Z" fill="white"/>
<path d="M38.636 27.4335C38.6228 27.3881 38.5957 27.3479 38.5584 27.3188C38.5212 27.2896 38.4757 27.2729 38.4285 27.271C38.3903 27.2586 38.3492 27.2586 38.3111 27.271L38.2479 27.3522L30.1796 37.6498C30.1572 37.6705 30.1392 37.6956 30.1268 37.7236C30.1144 37.7515 30.1078 37.7816 30.1074 37.8122V50.393C30.1074 50.4481 30.1293 50.5009 30.1682 50.5398C30.2071 50.5787 30.2599 50.6006 30.315 50.6006H38.5187C38.5455 50.6006 38.5721 50.5952 38.5968 50.5847C38.6215 50.5741 38.6438 50.5587 38.6624 50.5393C38.6809 50.5199 38.6954 50.4969 38.7048 50.4718C38.7142 50.4466 38.7185 50.4198 38.7172 50.393V27.4696C38.6929 27.452 38.6653 27.4398 38.636 27.4335ZM35.2336 32.9929L35.2968 32.9207C35.8473 32.2077 36.7769 31.0615 37.2281 30.511L37.2913 30.4388C37.3128 30.4113 37.3401 30.3889 37.3713 30.3733C37.4026 30.3577 37.4369 30.3492 37.4718 30.3485C37.5249 30.3512 37.5757 30.3711 37.6165 30.4053C37.6572 30.4396 37.6856 30.4862 37.6974 30.5381V33.1282C37.6974 33.1889 37.674 33.2473 37.6319 33.291C37.5898 33.3348 37.5324 33.3606 37.4718 33.3629H35.4141C35.3534 33.3606 35.2961 33.3348 35.254 33.291C35.2119 33.2473 35.1884 33.1889 35.1885 33.1282C35.1885 33.0794 35.2043 33.0319 35.2336 32.9929ZM33.9611 47.3336C33.9611 47.3604 33.9557 47.387 33.9452 47.4117C33.9346 47.4364 33.9192 47.4587 33.8998 47.4772C33.8804 47.4958 33.8574 47.5102 33.8323 47.5197C33.8071 47.5291 33.7803 47.5333 33.7535 47.5321H31.3077C31.2551 47.5321 31.2046 47.5112 31.1673 47.4739C31.1301 47.4367 31.1092 47.3862 31.1092 47.3336V45.7993C31.1092 45.7467 31.1301 45.6961 31.1673 45.6589C31.2046 45.6217 31.2551 45.6008 31.3077 45.6008H33.7896C33.8164 45.5995 33.8432 45.6038 33.8683 45.6132C33.8935 45.6226 33.9165 45.6371 33.9359 45.6556C33.9553 45.6742 33.9707 45.6965 33.9812 45.7212C33.9918 45.7459 33.9972 45.7725 33.9972 45.7993L33.9611 47.3336ZM33.9611 44.4997C33.9611 44.5266 33.9557 44.5531 33.9452 44.5778C33.9346 44.6025 33.9192 44.6248 33.8998 44.6434C33.8804 44.662 33.8574 44.6764 33.8323 44.6858C33.8071 44.6952 33.7803 44.6995 33.7535 44.6983H31.3077C31.2551 44.6983 31.2046 44.6773 31.1673 44.6401C31.1301 44.6029 31.1092 44.5524 31.1092 44.4997V42.9655C31.1092 42.9128 31.1301 42.8623 31.1673 42.8251C31.2046 42.7878 31.2551 42.7669 31.3077 42.7669H33.7896C33.8164 42.7657 33.8432 42.7699 33.8683 42.7794C33.8935 42.7888 33.9165 42.8032 33.9359 42.8218C33.9553 42.8403 33.9707 42.8626 33.9812 42.8873C33.9918 42.912 33.9972 42.9386 33.9972 42.9655L33.9611 44.4997ZM33.9611 41.6659C33.9611 41.7209 33.9392 41.7737 33.9003 41.8126C33.8613 41.8516 33.8085 41.8734 33.7535 41.8734H31.3077C31.2809 41.8735 31.2543 41.868 31.2296 41.8575C31.2049 41.847 31.1826 41.8315 31.164 41.8121C31.1455 41.7927 31.1311 41.7698 31.1216 41.7446C31.1122 41.7195 31.108 41.6927 31.1092 41.6659V40.1406C31.108 40.1138 31.1122 40.087 31.1216 40.0619C31.1311 40.0367 31.1455 40.0138 31.164 39.9944C31.1826 39.975 31.2049 39.9595 31.2296 39.949C31.2543 39.9385 31.2809 39.933 31.3077 39.9331H33.7896C33.8447 39.9331 33.8974 39.9549 33.9364 39.9939C33.9753 40.0328 33.9972 40.0856 33.9972 40.1406L33.9611 41.6659ZM33.9611 35.4657V38.814C33.9611 38.8666 33.9401 38.9171 33.9029 38.9544C33.8657 38.9916 33.8152 39.0125 33.7625 39.0125H31.3168C31.2878 39.0179 31.2581 39.0167 31.2297 39.0092C31.2012 39.0016 31.1748 38.9879 31.1524 38.9689C31.1299 38.9499 31.112 38.9261 31.0998 38.8993C31.0877 38.8725 31.0816 38.8434 31.0821 38.814V38.3898C31.077 38.366 31.077 38.3414 31.0821 38.3176C31.398 37.8754 32.8059 36.1335 33.4015 35.4115L33.4647 35.3393C33.4917 35.3059 33.5278 35.2808 33.5686 35.2672C33.6094 35.2535 33.6532 35.2518 33.6949 35.2622C33.7367 35.2727 33.7746 35.2948 33.8041 35.3261C33.8337 35.3573 33.8537 35.3964 33.8618 35.4386L33.9611 35.4657ZM37.6974 47.3336C37.6974 47.3862 37.6765 47.4367 37.6393 47.4739C37.602 47.5112 37.5515 47.5321 37.4989 47.5321H35.0531C35.027 47.5321 35.0012 47.527 34.9771 47.517C34.953 47.507 34.9311 47.4924 34.9127 47.4739C34.8943 47.4555 34.8796 47.4336 34.8697 47.4095C34.8597 47.3854 34.8545 47.3596 34.8545 47.3336V45.7993C34.8545 45.7732 34.8597 45.7474 34.8697 45.7233C34.8796 45.6992 34.8943 45.6774 34.9127 45.6589C34.9311 45.6405 34.953 45.6258 34.9771 45.6159C35.0012 45.6059 35.027 45.6008 35.0531 45.6008H37.4989C37.5515 45.6008 37.602 45.6217 37.6393 45.6589C37.6765 45.6961 37.6974 45.7467 37.6974 45.7993V47.3336ZM37.6974 44.4997C37.6974 44.5524 37.6765 44.6029 37.6393 44.6401C37.602 44.6773 37.5515 44.6983 37.4989 44.6983H35.0531C35.027 44.6983 35.0012 44.6931 34.9771 44.6831C34.953 44.6732 34.9311 44.6585 34.9127 44.6401C34.8943 44.6217 34.8796 44.5998 34.8697 44.5757C34.8597 44.5516 34.8545 44.5258 34.8545 44.4997V42.9655C34.8545 42.9394 34.8597 42.9136 34.8697 42.8895C34.8796 42.8654 34.8943 42.8435 34.9127 42.8251C34.9311 42.8066 34.953 42.792 34.9771 42.782C35.0012 42.772 35.027 42.7669 35.0531 42.7669H37.4989C37.5515 42.7669 37.602 42.7878 37.6393 42.8251C37.6765 42.8623 37.6974 42.9128 37.6974 42.9655V44.4997ZM37.6974 41.6659C37.6986 41.6927 37.6944 41.7195 37.685 41.7446C37.6756 41.7698 37.6611 41.7927 37.6425 41.8121C37.624 41.8315 37.6017 41.847 37.577 41.8575C37.5523 41.868 37.5257 41.8735 37.4989 41.8734H35.0531C35.0262 41.8735 34.9997 41.868 34.975 41.8575C34.9503 41.847 34.928 41.8315 34.9094 41.8121C34.8908 41.7927 34.8764 41.7698 34.867 41.7446C34.8576 41.7195 34.8533 41.6927 34.8545 41.6659V40.1406C34.8533 40.1138 34.8576 40.087 34.867 40.0619C34.8764 40.0367 34.8908 40.0138 34.9094 39.9944C34.928 39.975 34.9503 39.9595 34.975 39.949C34.9997 39.9385 35.0262 39.933 35.0531 39.9331H37.4989C37.5257 39.933 37.5523 39.9385 37.577 39.949C37.6017 39.9595 37.624 39.975 37.6425 39.9944C37.6611 40.0138 37.6756 40.0367 37.685 40.0619C37.6944 40.087 37.6986 40.1138 37.6974 40.1406V41.6659ZM37.6974 38.841C37.6974 38.8937 37.6765 38.9442 37.6393 38.9814C37.602 39.0187 37.5515 39.0396 37.4989 39.0396H35.0531C35.027 39.0396 35.0012 39.0345 34.9771 39.0245C34.953 39.0145 34.9311 38.9999 34.9127 38.9814C34.8943 38.963 34.8796 38.9411 34.8697 38.917C34.8597 38.8929 34.8545 38.8671 34.8545 38.841V37.3068C34.8545 37.2807 34.8597 37.2549 34.8697 37.2308C34.8796 37.2067 34.8943 37.1848 34.9127 37.1664C34.9311 37.148 34.953 37.1333 34.9771 37.1234C35.0012 37.1134 35.027 37.1082 35.0531 37.1082H37.4989C37.5515 37.1082 37.602 37.1292 37.6393 37.1664C37.6765 37.2036 37.6974 37.2541 37.6974 37.3068V38.841ZM37.6974 36.0072C37.6974 36.0599 37.6765 36.1104 37.6393 36.1476C37.602 36.1848 37.5515 36.2058 37.4989 36.2058H35.0531C35.027 36.2058 35.0012 36.2006 34.9771 36.1906C34.953 36.1807 34.9311 36.166 34.9127 36.1476C34.8943 36.1292 34.8796 36.1073 34.8697 36.0832C34.8597 36.0591 34.8545 36.0333 34.8545 36.0072V34.473C34.8545 34.4469 34.8597 34.4211 34.8697 34.397C34.8796 34.3729 34.8943 34.351 34.9127 34.3326C34.9311 34.3141 34.953 34.2995 34.9771 34.2895C35.0012 34.2795 35.027 34.2744 35.0531 34.2744H37.4989C37.5515 34.2744 37.602 34.2953 37.6393 34.3326C37.6765 34.3698 37.6974 34.4203 37.6974 34.473V36.0072Z" fill="white"/>
</g>
<defs>
<clipPath id="clip0_1648_94186">
<rect x="0.929688" y="0.0703125" width="56" height="56" rx="4" fill="white"/>
</clipPath>
</defs>
</svg>
