<svg width="57" height="57" viewBox="0 0 57 57" fill="none" xmlns="http://www.w3.org/2000/svg">
<g clip-path="url(#clip0_1648_94177)">
<path d="M56.9219 0.4375H0.921875V56.4375H56.9219V0.4375Z" fill="#D19F2A"/>
<path d="M5.43396 14.5528L8.0201 10.556L8.17382 10.3209C8.44954 9.91631 8.69728 9.49334 8.91531 9.05496C9.07378 8.70578 9.15402 8.32618 9.15041 7.94273C9.17023 7.66595 9.10048 7.39013 8.95148 7.15604C8.88658 7.06984 8.80154 7.00086 8.7038 6.95514C8.60606 6.90943 8.4986 6.88837 8.39084 6.89381C8.24117 6.87781 8.09005 6.90509 7.95541 6.9724C7.82078 7.03972 7.70828 7.14425 7.63128 7.27359C7.47261 7.64108 7.40141 8.04039 7.4233 8.44007V8.91932H5.43396V8.39486C5.38753 7.54449 5.63672 6.70424 6.13927 6.01669C6.41078 5.70403 6.75181 5.45936 7.13497 5.30233C7.51814 5.14529 7.93279 5.08026 8.34563 5.11244C8.72649 5.06591 9.11294 5.10654 9.4758 5.23127C9.83865 5.35601 10.1684 5.56158 10.4402 5.83245C10.7119 6.10333 10.9185 6.43242 11.0444 6.79487C11.1703 7.15732 11.2122 7.54364 11.1669 7.92465C11.1679 8.31166 11.1069 8.69634 10.986 9.064C10.872 9.3994 10.7267 9.72335 10.552 10.0315C10.3802 10.3119 10.118 10.7097 9.77434 11.2342L7.71266 14.3177H10.8956V15.9272H5.47013L5.43396 14.5528Z" fill="white"/>
<path d="M15.5164 8.90164L16.6105 5.81815H15.5706V5.30273H17.3791V5.68252L16.2217 8.87451H17.3701V9.38089H15.5616L15.5164 8.90164Z" fill="white"/>
<path d="M17.7681 5.30273H19.4861V5.8272H18.4824V7.00272H19.251V7.51814H18.4824V8.87451H19.468V9.38089H17.7681V5.30273Z" fill="white"/>
<path d="M19.9021 5.30311H20.8877C21.2253 5.27802 21.5618 5.36374 21.8462 5.54725C21.9619 5.65231 22.0509 5.78335 22.1059 5.92957C22.1609 6.07578 22.1804 6.23298 22.1627 6.3882C22.1699 6.60438 22.133 6.81975 22.0542 7.02118C22.0161 7.10285 21.9621 7.1761 21.8953 7.23665C21.8285 7.2972 21.7504 7.34384 21.6654 7.37383L22.2351 9.38126H21.4845L20.9962 7.50947H20.6436V9.38126H19.9021V5.30311ZM20.8787 7.0483C20.96 7.05752 21.0423 7.04939 21.1203 7.02445C21.1982 6.99952 21.27 6.95833 21.3308 6.90362C21.4344 6.76645 21.4828 6.59547 21.4664 6.42437C21.4818 6.25884 21.4403 6.09302 21.3489 5.95417C21.2932 5.9001 21.2262 5.85907 21.1527 5.83405C21.0792 5.80903 21.001 5.80064 20.9239 5.80949H20.6436V7.0483H20.8787Z" fill="white"/>
<path d="M22.9133 9.08224C22.7137 8.79056 22.6181 8.44019 22.642 8.08757V6.55035C22.6164 6.20322 22.7123 5.85799 22.9133 5.57376C23.1654 5.3585 23.486 5.24023 23.8175 5.24023C24.149 5.24023 24.4697 5.3585 24.7218 5.57376C24.9227 5.85799 25.0186 6.20322 24.993 6.55035V8.08757C25.0155 8.44004 24.92 8.78997 24.7218 9.08224C24.6062 9.20282 24.4648 9.29559 24.3081 9.35354C24.1515 9.4115 23.9837 9.43313 23.8175 9.41681C23.6512 9.4345 23.483 9.41351 23.3262 9.35547C23.1693 9.29744 23.028 9.20392 22.9133 9.08224ZM24.1521 8.7115C24.2182 8.57028 24.2492 8.41517 24.2425 8.25938V6.3695C24.2504 6.21653 24.2193 6.06407 24.1521 5.92642C24.1166 5.87169 24.0664 5.82818 24.0071 5.80096C23.9479 5.77374 23.8821 5.76394 23.8175 5.7727C23.753 5.76501 23.6876 5.7753 23.6286 5.80243C23.5695 5.82955 23.5191 5.87246 23.4829 5.92642C23.4179 6.06479 23.3869 6.21671 23.3925 6.3695V8.25034C23.3858 8.40613 23.4168 8.56124 23.4829 8.70246C23.5227 8.75321 23.5735 8.79426 23.6314 8.82248C23.6894 8.85071 23.753 8.86538 23.8175 8.86538C23.882 8.86538 23.9456 8.85071 24.0036 8.82248C24.0615 8.79426 24.1123 8.75321 24.1521 8.70246V8.7115Z" fill="white"/>
<path d="M15.6611 11.9668H16.4026V13.6758H17.2345V11.9668H17.985V16.054H17.2345V14.2455H16.4026V16.054H15.6611V11.9668Z" fill="white"/>
<path d="M19.0069 15.9455C18.8372 15.8397 18.7118 15.6758 18.6542 15.4843C18.5782 15.2417 18.5446 14.9878 18.5547 14.7338V11.9668H19.2781V14.8152C19.27 14.9996 19.2976 15.1838 19.3595 15.3577C19.3946 15.4178 19.4447 15.4676 19.505 15.5022C19.5653 15.5368 19.6336 15.555 19.7031 15.555C19.7727 15.555 19.841 15.5368 19.9013 15.5022C19.9615 15.4676 20.0117 15.4178 20.0468 15.3577C20.1087 15.1838 20.1363 14.9996 20.1281 14.8152V11.9668H20.8515V14.7338C20.8565 14.9876 20.8229 15.2406 20.7521 15.4843C20.6884 15.6726 20.5645 15.8347 20.3994 15.9455C20.1829 16.0523 19.9446 16.1079 19.7031 16.1079C19.4617 16.1079 19.2234 16.0523 19.0069 15.9455Z" fill="white"/>
<path d="M21.4121 11.9668H21.9276L22.9222 14.2997V11.9668H23.5371V16.054H23.0036L22.009 13.6125V16.054H21.376L21.4121 11.9668Z" fill="white"/>
<path d="M24.3237 15.7465C24.1363 15.4334 24.048 15.0709 24.0705 14.7066V13.3322C24.0421 12.9634 24.1341 12.5953 24.3327 12.2832C24.4409 12.1518 24.5805 12.0498 24.7385 11.9866C24.8965 11.9234 25.068 11.901 25.237 11.9215C25.4004 11.8999 25.5667 11.9156 25.7232 11.9672C25.8798 12.0189 26.0227 12.1053 26.1412 12.22C26.3376 12.4785 26.431 12.8007 26.4034 13.1242V13.3322H25.6981V13.1061C25.7101 12.9889 25.7101 12.8707 25.6981 12.7535C25.6836 12.6728 25.6422 12.5995 25.5806 12.5455C25.4999 12.4938 25.405 12.4685 25.3093 12.4731C25.2109 12.4695 25.1145 12.5016 25.038 12.5636C24.9764 12.6286 24.9355 12.7104 24.9205 12.7987C24.9094 12.922 24.9094 13.0461 24.9205 13.1694V14.8694C24.9085 15.046 24.9395 15.2229 25.0109 15.3848C25.0513 15.4391 25.1038 15.4831 25.1642 15.5135C25.2247 15.5438 25.2914 15.5596 25.359 15.5596C25.4267 15.5596 25.4934 15.5438 25.5538 15.5135C25.6143 15.4831 25.6668 15.4391 25.7072 15.3848C25.7869 15.2157 25.8212 15.0287 25.8066 14.8423V14.4625H25.3726V13.9923H26.4758V16.063H25.9965L25.9423 15.6651C25.8918 15.8045 25.7976 15.9239 25.6738 16.0054C25.5499 16.0869 25.403 16.1261 25.255 16.1173C25.0805 16.1542 24.899 16.1387 24.7333 16.0728C24.5676 16.0068 24.425 15.8933 24.3237 15.7465Z" fill="white"/>
<path d="M26.928 11.9668H28.637V12.4913H27.6695V13.6668H28.429V14.1912H27.6695V15.5386H28.646V16.054H26.928V11.9668Z" fill="white"/>
<path d="M29.053 11.967H30.0386C30.379 11.9425 30.7181 12.0281 31.0061 12.2111C31.12 12.3175 31.2079 12.4487 31.2628 12.5946C31.3177 12.7404 31.3381 12.897 31.3226 13.0521C31.3328 13.2693 31.2925 13.4859 31.2051 13.685C31.167 13.7667 31.1129 13.84 31.0462 13.9005C30.9794 13.9611 30.9013 14.0077 30.8163 14.0377L31.3859 16.0542H30.6354L30.1471 14.1824H29.7945V16.0542H29.053V11.967ZM30.0386 13.7212C30.1184 13.7286 30.1989 13.7196 30.2751 13.6947C30.3513 13.6698 30.4216 13.6296 30.4817 13.5765C30.5837 13.4386 30.6319 13.2682 30.6173 13.0973C30.6341 12.9316 30.5926 12.7653 30.4998 12.6271C30.4444 12.5725 30.3775 12.5311 30.3039 12.506C30.2303 12.481 30.1519 12.4729 30.0748 12.4824H29.7945V13.7212H30.0386Z" fill="white"/>
<path d="M23.2295 48.1097V48.9416C23.2341 49.0352 23.2739 49.1236 23.341 49.1891C23.4081 49.2545 23.4975 49.2921 23.5912 49.2943H32.9502C33.0471 49.2899 33.1388 49.2494 33.2074 49.1808C33.276 49.1122 33.3165 49.0204 33.3209 48.9235V48.0193C35.8306 47.2455 38.0823 45.8031 39.8346 43.8469C41.5869 41.8907 42.7736 39.4945 43.2676 36.9151V36.8337C43.2676 36.7354 43.2286 36.6411 43.1591 36.5716C43.0895 36.5021 42.9952 36.463 42.8969 36.463H13.328C13.2786 36.4618 13.2294 36.4705 13.1834 36.4886C13.1373 36.5067 13.0954 36.5338 13.06 36.5683C13.0246 36.6029 12.9965 36.6442 12.9773 36.6897C12.9581 36.7353 12.9482 36.7843 12.9482 36.8337V37.0055C13.4678 39.6218 14.7004 42.0435 16.51 44.0031C18.3196 45.9627 20.6357 47.3839 23.2024 48.1097" fill="white"/>
<path d="M33.2668 23.8398C33.1402 24.0116 30.2828 28.1259 33.3301 31.4536C33.8578 31.9094 34.2291 32.5195 34.3913 33.1977C34.5536 33.8759 34.4987 34.588 34.2343 35.2333H36.1785C36.4083 34.393 36.4043 33.5058 36.1668 32.6676C35.9294 31.8294 35.4675 31.0719 34.8311 30.477C32.5886 28.0265 34.8311 24.7079 34.8944 24.6536C34.9569 24.5648 34.9985 24.4631 35.0163 24.356C35.0341 24.2489 35.0275 24.1392 34.9971 24.035C34.9668 23.9307 34.9133 23.8347 34.8407 23.754C34.7681 23.6732 34.6783 23.6098 34.5779 23.5685C34.3657 23.4576 34.1215 23.4239 33.8872 23.4734C33.6529 23.5229 33.4431 23.6525 33.2939 23.8398" fill="white"/>
<path d="M28.3205 35.2333H30.2375C30.4632 34.392 30.4563 33.5052 30.2174 32.6675C29.9785 31.8298 29.5167 31.0727 28.8811 30.477C26.6386 28.0265 28.8811 24.7079 28.9444 24.6536C29.0069 24.5648 29.0485 24.4631 29.0663 24.356C29.0841 24.2489 29.0776 24.1392 29.0472 24.035C29.0168 23.9307 28.9633 23.8347 28.8907 23.754C28.8182 23.6732 28.7284 23.6098 28.628 23.5685C28.4157 23.4576 28.1715 23.4239 27.9372 23.4734C27.7029 23.5229 27.4931 23.6525 27.3439 23.8398C27.2173 24.0116 24.3599 28.1259 27.4072 31.4536C27.935 31.9094 28.3062 32.5195 28.4685 33.1977C28.6307 33.8759 28.5758 34.588 28.3115 35.2333" fill="white"/>
<path d="M21.4936 23.8398C21.367 24.0116 18.5096 28.1259 21.5569 31.4536C22.0847 31.9094 22.4559 32.5195 22.6181 33.1977C22.7804 33.8759 22.7255 34.588 22.4611 35.2333H24.4143C24.6441 34.3922 24.6391 33.5043 24.4 32.6658C24.1609 31.8273 23.6968 31.0704 23.0579 30.477C20.8154 28.0265 23.0579 24.7079 23.1212 24.6536C23.1837 24.5648 23.2253 24.4631 23.2431 24.356C23.2609 24.2489 23.2543 24.1392 23.2239 24.035C23.1936 23.9307 23.1401 23.8347 23.0675 23.754C22.9949 23.6732 22.9051 23.6098 22.8047 23.5685C22.5925 23.4576 22.3483 23.4239 22.114 23.4734C21.8797 23.5229 21.6699 23.6525 21.5207 23.8398" fill="white"/>
</g>
<defs>
<clipPath id="clip0_1648_94177">
<rect x="0.921875" y="0.4375" width="56" height="56" rx="4" fill="white"/>
</clipPath>
</defs>
</svg>
