<svg width="56" height="57" viewBox="0 0 56 57" fill="none" xmlns="http://www.w3.org/2000/svg">
<g clip-path="url(#clip0_2420_243741)">
<path d="M55.9922 0.398438H-0.0078125V56.3984H55.9922V0.398438Z" fill="#40AE49"/>
<path d="M4.76495 7.38069C4.67473 7.4258 4.38601 7.54309 3.92589 7.70549C3.46576 7.86789 3.32141 7.91299 3.22217 7.9581V6.4424C3.59846 6.29163 3.96332 6.11372 4.31384 5.91009C4.6439 5.7412 4.94779 5.52545 5.21605 5.26953H6.81296V15.9426H4.76495V7.38069Z" fill="white"/>
<path d="M9.04124 15.7278C8.63677 15.4775 8.34066 15.0848 8.21121 14.6271C8.04223 14.0411 7.96612 13.4322 7.98566 12.8227H9.9615C9.93607 13.2745 9.99418 13.7272 10.1329 14.1579C10.1905 14.2681 10.2739 14.3627 10.3761 14.4335C10.4783 14.5043 10.5962 14.5492 10.7196 14.5643C10.843 14.5794 10.9683 14.5642 11.0845 14.5201C11.2008 14.4761 11.3046 14.4044 11.387 14.3113C11.5219 14.0937 11.5995 13.8453 11.6125 13.5896C11.6508 13.1546 11.6659 12.7179 11.6577 12.2814C11.6799 11.7911 11.622 11.3004 11.4862 10.8288C11.4377 10.6768 11.339 10.5457 11.2062 10.4572C11.0734 10.3687 10.9144 10.3279 10.7554 10.3416C10.2773 10.3416 9.97053 10.6664 9.85324 11.307H8.09394L8.24731 5.24414H13.1643V6.99442H9.91639L9.79911 9.3582C9.97054 9.17594 10.1892 9.04477 10.4306 8.97928C10.7421 8.87658 11.0681 8.82479 11.396 8.8259C11.7261 8.81156 12.0537 8.8881 12.3433 9.04719C12.6328 9.20628 12.8732 9.44182 13.038 9.72811C13.4512 10.4872 13.6448 11.3463 13.5974 12.2092C13.6141 12.9167 13.5383 13.6234 13.3718 14.3113C13.2432 14.8323 12.9448 15.2958 12.5238 15.6285C11.9921 15.984 11.3572 16.1522 10.7193 16.1067C10.1353 16.1425 9.5532 16.0111 9.04124 15.7278Z" fill="white"/>
<path d="M17.865 9.3397V5.26172H18.6138V8.87055H19.5972V9.38481L17.865 9.3397Z" fill="white"/>
<path d="M19.8318 9.3397V5.26172H20.5716V9.3397H19.8318Z" fill="white"/>
<path d="M21.0588 9.3397V5.26172H22.7369V5.77598H21.8347V6.96689H22.5926V7.48115H21.8347V9.3397H21.0588Z" fill="white"/>
<path d="M22.9624 9.3397V5.26172H24.6676V5.785H23.7022V6.95787H24.4601V7.48115H23.7022V8.82545H24.6676V9.3397H22.9624Z" fill="white"/>
<path d="M18.9747 16.0704C18.7325 16.0822 18.4919 16.0259 18.28 15.908C18.107 15.7982 17.9766 15.6328 17.9101 15.4389C17.8327 15.2095 17.7961 14.9682 17.8019 14.7262V13.2014C17.7961 12.9593 17.8327 12.7181 17.9101 12.4887C17.9834 12.3035 18.1128 12.1458 18.28 12.0376C18.4944 11.927 18.7338 11.8742 18.9747 11.8842C19.2158 11.8733 19.4554 11.9262 19.6694 12.0376C19.8393 12.1428 19.9694 12.3015 20.0393 12.4887C20.12 12.7175 20.1597 12.9588 20.1566 13.2014V14.7352C20.159 14.9748 20.1193 15.213 20.0393 15.4389C19.9729 15.6328 19.8424 15.7982 19.6694 15.908C19.4579 16.0269 19.217 16.0832 18.9747 16.0704ZM18.9747 15.5201C19.0721 15.5299 19.1695 15.5007 19.2454 15.4389C19.3106 15.3804 19.3522 15.3003 19.3627 15.2134C19.3775 15.1116 19.3775 15.0083 19.3627 14.9066V13.03C19.3775 12.9283 19.3775 12.825 19.3627 12.7233C19.3495 12.6398 19.3081 12.5634 19.2454 12.5067C19.1695 12.4449 19.0721 12.4157 18.9747 12.4255C18.8777 12.4193 18.7817 12.4481 18.7041 12.5067C18.6414 12.5634 18.6 12.6398 18.5868 12.7233C18.5763 12.8252 18.5763 12.928 18.5868 13.03V14.9066C18.572 15.0083 18.572 15.1116 18.5868 15.2134C18.5972 15.3003 18.6389 15.3804 18.7041 15.4389C18.78 15.5007 18.8773 15.5299 18.9747 15.5201Z" fill="white"/>
<path d="M20.5535 16.0147V11.9277H21.0587L22.0511 14.2554V11.9277H22.6646V16.0147H22.1774L21.185 13.5698V16.0147H20.5535Z" fill="white"/>
<path d="M24.2166 16.0147V11.9277H24.9654V15.5366H25.9578V16.0508L24.2166 16.0147Z" fill="white"/>
<path d="M25.9849 16.0147L26.7968 11.9277H27.5998L28.4118 16.0147H27.7261L27.5637 15.0674H26.851L26.6886 16.0147H25.9849ZM26.8871 14.5983H27.4464L27.1668 12.8841L26.8871 14.5983Z" fill="white"/>
<path d="M28.6553 16.0147V11.9277H29.1786L30.171 14.2554V11.9277H30.7845V16.0147H30.2973L29.2868 13.5698V16.0147H28.6553Z" fill="white"/>
<path d="M31.2446 16.0148V11.9278H32.21C32.4754 11.9152 32.7404 11.9614 32.9859 12.0631C33.0767 12.1042 33.1585 12.1629 33.2266 12.2356C33.2947 12.3084 33.3478 12.3939 33.3829 12.4872C33.4727 12.7138 33.5156 12.9562 33.5092 13.1999V14.6886C33.5154 14.941 33.4725 15.1923 33.3829 15.4284C33.3133 15.619 33.1749 15.7768 32.9949 15.8705C32.7565 15.9755 32.4974 16.0249 32.2371 16.0148H31.2446ZM31.9935 15.4915H32.219C32.349 15.5049 32.4797 15.473 32.5889 15.4013C32.6652 15.3341 32.7135 15.2408 32.7242 15.1397C32.735 14.9955 32.735 14.8508 32.7242 14.7066V13.1458C32.7362 13.0137 32.7362 12.8809 32.7242 12.7488C32.7065 12.6605 32.6546 12.5827 32.5799 12.5323C32.4689 12.4744 32.3437 12.4494 32.219 12.4601H32.0025L31.9935 15.4915Z" fill="white"/>
<path d="M23.1519 38.3086H21.5008C21.4311 38.3086 21.3745 38.3651 21.3745 38.4349V42.5309C21.3745 42.6007 21.4311 42.6572 21.5008 42.6572H23.1519C23.2216 42.6572 23.2782 42.6007 23.2782 42.5309V38.4349C23.2782 38.3651 23.2216 38.3086 23.1519 38.3086Z" fill="white"/>
<path d="M41.3675 44.4082H14.0487C14.0144 44.4105 13.9822 44.4258 13.9588 44.4509C13.9353 44.476 13.9223 44.5092 13.9224 44.5435V46.2126C13.9223 46.2288 13.9256 46.2448 13.9321 46.2597C13.9385 46.2746 13.948 46.2879 13.9599 46.2989C13.9717 46.3099 13.9857 46.3184 14.001 46.3237C14.0163 46.329 14.0325 46.3312 14.0487 46.3299H41.3675C41.3995 46.33 41.4303 46.3179 41.4538 46.2962C41.4772 46.2744 41.4915 46.2445 41.4938 46.2126V44.5435C41.4939 44.5092 41.4809 44.476 41.4574 44.4509C41.434 44.4258 41.4018 44.4105 41.3675 44.4082Z" fill="white"/>
<path d="M41.3675 47.7285H14.0487C14.0152 47.7285 13.9831 47.7418 13.9594 47.7655C13.9357 47.7892 13.9224 47.8213 13.9224 47.8548V49.5329C13.9223 49.5491 13.9256 49.5651 13.9321 49.58C13.9385 49.5948 13.948 49.6082 13.9599 49.6192C13.9717 49.6302 13.9857 49.6387 14.001 49.644C14.0163 49.6493 14.0325 49.6515 14.0487 49.6502H41.3675C41.3995 49.6503 41.4303 49.6382 41.4538 49.6165C41.4772 49.5947 41.4915 49.5648 41.4938 49.5329V47.8548C41.4938 47.8213 41.4805 47.7892 41.4568 47.7655C41.4331 47.7418 41.401 47.7285 41.3675 47.7285Z" fill="white"/>
<path d="M36.1707 33.7713C35.498 33.2282 34.6704 32.9123 33.8069 32.8691C32.9863 32.8718 32.1993 33.1957 31.6145 33.7713C31.5894 33.7923 31.5691 33.8185 31.555 33.8481C31.541 33.8777 31.5336 33.91 31.5333 33.9428V34.0871C31.5322 34.1227 31.5389 34.1581 31.5529 34.1909C31.5669 34.2236 31.588 34.2529 31.6145 34.2766C31.6404 34.2984 31.671 34.3138 31.7039 34.3216C31.7368 34.3295 31.7711 34.3295 31.804 34.3217H31.8852C31.9366 34.3023 31.9829 34.2714 32.0205 34.2315C32.3615 34.0616 32.7409 33.9838 33.1212 34.0059C34.1743 34.0255 35.1806 34.4448 35.9361 35.1788C36.0014 35.2421 36.0887 35.2777 36.1797 35.278C36.2561 35.2878 36.3334 35.2685 36.3962 35.2239C37.1487 34.4843 38.1561 34.0613 39.2111 34.042C39.5914 34.0199 39.9709 34.0976 40.3118 34.2676C40.3546 34.31 40.4073 34.341 40.4652 34.3578C40.5152 34.3731 40.5686 34.3731 40.6185 34.3578C40.6678 34.344 40.7112 34.3145 40.7422 34.2738C40.7731 34.2331 40.7899 34.1834 40.79 34.1322V33.9969C40.7895 33.9325 40.7636 33.8708 40.7178 33.8255C40.1329 33.2267 39.3353 32.883 38.4984 32.8691C37.6365 32.9073 36.8103 33.2238 36.1436 33.7713" fill="white"/>
<path d="M34.4746 22.8805C34.4452 22.8938 34.4193 22.9137 34.3989 22.9388C34.3785 22.9639 34.3643 22.9933 34.3573 23.0249V23.1151C34.3437 23.148 34.3367 23.1832 34.3367 23.2188C34.3367 23.2544 34.3437 23.2897 34.3573 23.3226C34.3778 23.349 34.4037 23.3707 34.4333 23.3862C34.4629 23.4018 34.4954 23.4108 34.5288 23.4128C34.5735 23.4213 34.6194 23.4213 34.6641 23.4128C34.7178 23.4035 34.7727 23.4035 34.8265 23.4128C35.2337 23.4379 35.6274 23.5683 35.969 23.7913C36.3106 24.0143 36.5885 24.3222 36.7753 24.6849C36.8153 24.752 36.8801 24.8005 36.9557 24.8202H37.0369C37.0845 24.8305 37.1337 24.8305 37.1812 24.8202C37.5583 24.627 37.9755 24.5251 38.3992 24.5225C38.8484 24.5014 39.2902 24.6423 39.6443 24.9195C39.6669 24.9587 39.6977 24.9925 39.7345 25.0187L39.8247 25.0638H39.8879C39.9235 25.072 39.9605 25.072 39.9961 25.0638C40.0245 25.0491 40.0495 25.0286 40.0697 25.0038C40.0899 24.979 40.1047 24.9503 40.1134 24.9195V24.8383C40.1184 24.8175 40.1184 24.7959 40.1134 24.7751C40.1226 24.7366 40.1226 24.6964 40.1134 24.6578C39.9389 24.3191 39.6733 24.0358 39.3466 23.8398C39.0198 23.6438 38.6449 23.5427 38.2639 23.5481C37.9279 23.5489 37.5948 23.61 37.2805 23.7286C37.0895 23.4151 36.8292 23.1496 36.5195 22.9525C36.2098 22.7554 35.859 22.632 35.4941 22.5918C35.1392 22.5949 34.79 22.6815 34.4746 22.8444" fill="white"/>
<path d="M28.7004 27.1046V27.2309C28.7033 27.2645 28.7135 27.2971 28.7302 27.3265C28.7469 27.3558 28.7697 27.3812 28.7971 27.4009C28.8245 27.4206 28.8559 27.4341 28.889 27.4406C28.9221 27.4471 28.9562 27.4463 28.9891 27.4384C29.0338 27.4165 29.0737 27.3859 29.1063 27.3482C29.425 27.1788 29.7833 27.0978 30.1439 27.1136C30.9398 27.1241 31.7065 27.4148 32.3092 27.9346C32.3677 27.9835 32.4405 28.012 32.5167 28.0158C32.5999 28.0081 32.6771 27.9695 32.7332 27.9076C33.0345 27.5664 33.4034 27.2915 33.8165 27.1005C34.2297 26.9095 34.678 26.8064 35.1331 26.7979C35.3781 26.7853 35.6225 26.8317 35.8458 26.9332C35.8868 26.9644 35.9325 26.9887 35.9812 27.0054H36.1436C36.1918 26.9893 36.2333 26.9574 36.2611 26.9148C36.2889 26.8722 36.3016 26.8215 36.2969 26.7708V26.6625C36.2966 26.6311 36.2891 26.6001 36.275 26.572C36.261 26.5438 36.2407 26.5193 36.2157 26.5001C35.7356 26.0656 35.113 25.8217 34.4655 25.8145C33.7074 25.8496 32.9858 26.1497 32.4265 26.6625C31.8943 26.2943 31.2686 26.0847 30.6221 26.058C30.2532 26.0621 29.8895 26.1447 29.555 26.3002C29.2206 26.4558 28.9231 26.6808 28.6823 26.9602C28.6608 26.9831 28.6442 27.0101 28.6333 27.0396C28.6225 27.069 28.6177 27.1003 28.6192 27.1317" fill="white"/>
<path d="M14.8697 29.2779C14.8721 28.4923 15.1859 27.7396 15.7423 27.1849C16.2987 26.6302 17.0523 26.3187 17.838 26.3187H18.0274C18.0708 25.7302 18.2437 25.1586 18.5336 24.6447C18.8236 24.1308 19.2236 23.6872 19.7049 23.3459C20.1862 23.0045 20.737 22.7736 21.3178 22.6699C21.8987 22.5661 22.4954 22.5919 23.0651 22.7455C23.6348 22.8991 24.1636 23.1767 24.6136 23.5584C25.0636 23.9401 25.4237 24.4165 25.6682 24.9536C25.9127 25.4906 26.0355 26.075 26.0278 26.6651C26.0202 27.2551 25.8823 27.8362 25.624 28.3667C26.6552 28.6538 27.5506 29.2982 28.1504 30.1847C28.7502 31.0712 29.0152 32.1422 28.8981 33.2061C28.781 34.2701 28.2893 35.2577 27.511 35.9925C26.7328 36.7274 25.7185 37.1615 24.6496 37.2174H18.668C18.0495 37.217 17.4447 37.0356 16.9281 36.6955C16.4116 36.3553 16.0059 35.8714 15.7613 35.3034C15.5166 34.7354 15.4436 34.1081 15.5513 33.4991C15.659 32.8901 15.9427 32.3259 16.3674 31.8763C15.9095 31.6152 15.5294 31.2368 15.2662 30.7802C15.003 30.3235 14.8662 29.805 14.8697 29.2779Z" fill="white"/>
<g style="mix-blend-mode:hue">
<rect x="-0.0078125" y="0.398438" width="56" height="56" fill="#D9D9D9"/>
</g>
</g>
<defs>
<clipPath id="clip0_2420_243741">
<rect x="-0.0078125" y="0.398438" width="56" height="56" rx="4" fill="white"/>
</clipPath>
</defs>
</svg>
