<svg width="57" height="57" viewBox="0 0 57 57" fill="none" xmlns="http://www.w3.org/2000/svg">
<g clip-path="url(#clip0_2420_243665)">
<path d="M56.6875 0.367188H0.6875V56.3672H56.6875V0.367188Z" fill="#1A3668"/>
<path d="M5.56377 7.3435C5.46462 7.39758 5.1852 7.50573 4.71651 7.67699L4.02246 7.92936V6.41512C4.39368 6.26048 4.75493 6.08287 5.10407 5.88334C5.43717 5.71641 5.74145 5.49733 6.00541 5.23438H7.58275V15.9152H5.53673L5.56377 7.3435Z" fill="white"/>
<path d="M11.7199 6.79368H8.81763V5.23438H13.7119V6.56835L11.4585 15.9152H9.47561L11.7199 6.79368Z" fill="white"/>
<path d="M18.5791 5.22461H19.7778C20.4809 5.22461 20.8234 5.61219 20.8234 6.38734C20.8456 6.53648 20.8329 6.68876 20.7863 6.83215C20.7396 6.97554 20.6603 7.10613 20.5545 7.21362C20.4488 7.32112 20.3195 7.40259 20.1769 7.45158C20.0343 7.50058 19.8823 7.51578 19.7328 7.49598H19.3001V9.29865H18.561L18.5791 5.22461ZM19.6066 6.9732C19.6807 6.9819 19.7557 6.97518 19.8271 6.95347C19.8984 6.93175 19.9645 6.8955 20.0212 6.84702C20.0979 6.70657 20.1324 6.54692 20.1204 6.38734C20.1374 6.26173 20.1374 6.13439 20.1204 6.00878C20.1122 5.96957 20.096 5.93248 20.0727 5.8999C20.0494 5.86731 20.0196 5.83993 19.9852 5.81949C19.8785 5.76891 19.7604 5.74716 19.6426 5.75641H19.3001V6.9732H19.6066Z" fill="white"/>
<path d="M21.5353 5.22461H22.3285L23.1487 9.30766H22.4547L22.2924 8.40632H21.5894L21.4181 9.30766H20.7151L21.5353 5.22461ZM22.2203 7.92862L21.9409 6.21608L21.6615 7.92862H22.2203Z" fill="white"/>
<path d="M23.4463 5.22605H24.4287C24.769 5.2037 25.1074 5.29225 25.3932 5.47842C25.5067 5.58445 25.5942 5.71526 25.649 5.86065C25.7037 6.00604 25.7241 6.1621 25.7086 6.31667C25.7178 6.53313 25.6777 6.74885 25.5915 6.9476C25.5543 7.02959 25.5008 7.10308 25.4341 7.16354C25.3674 7.22401 25.2891 7.27015 25.2039 7.29912L25.7717 9.3091H25.0326L24.5369 7.44334H24.1854V9.3091H23.4463V5.22605ZM24.4197 7.02872C24.5015 7.03731 24.5841 7.02807 24.6619 7.00161C24.7397 6.97516 24.8108 6.93212 24.8704 6.87549C24.9744 6.73917 25.0227 6.56841 25.0056 6.39779C25.0208 6.23279 24.9795 6.0675 24.8884 5.92909C24.8333 5.87466 24.7665 5.83342 24.6931 5.80844C24.6198 5.78347 24.5417 5.77542 24.4648 5.78489H24.1854V7.02872H24.4197Z" fill="white"/>
<path d="M26.5649 5.77442H25.8799V5.22461H27.971V5.77442H27.304V9.30766H26.5649V5.77442Z" fill="white"/>
<path d="M28.1873 5.22461H28.71L29.7015 7.55908V5.22461H30.3144V9.30766H29.8187L28.8272 6.87406V9.30766H28.1873V5.22461Z" fill="white"/>
<path d="M30.8281 5.22461H32.5407V5.75641H31.5672V6.92813H32.3333V7.45091H31.5672V8.80291H32.5497V9.30766H30.8281V5.22461Z" fill="white"/>
<path d="M32.8743 5.2257H33.8567C34.1969 5.20465 34.5349 5.29309 34.8212 5.47808C34.9347 5.58411 35.0222 5.71492 35.0769 5.86031C35.1317 6.0057 35.1521 6.16175 35.1366 6.31633C35.1458 6.53279 35.1057 6.74851 35.0195 6.94726C34.9814 7.02867 34.9276 7.10169 34.861 7.16204C34.7945 7.2224 34.7166 7.26888 34.6319 7.29878L35.1997 9.30875H34.4516L33.9649 7.443H33.6134V9.30875H32.8743V5.2257ZM33.8477 7.02838C33.9294 7.03637 34.0119 7.02684 34.0896 7.00042C34.1673 6.97399 34.2385 6.93129 34.2984 6.87515C34.4024 6.73883 34.4507 6.56806 34.4336 6.39744C34.4489 6.23244 34.4075 6.06715 34.3164 5.92875C34.2609 5.87485 34.1941 5.83396 34.1208 5.80902C34.0476 5.78408 33.9697 5.77573 33.8928 5.78454H33.6134V7.02838H33.8477Z" fill="white"/>
<path d="M35.7855 9.04611C35.5918 8.78561 35.4874 8.46944 35.4881 8.14478L36.128 8.01859C36.1259 8.22375 36.169 8.42685 36.2542 8.61348C36.2829 8.67729 36.3299 8.73111 36.3893 8.76804C36.4487 8.80497 36.5178 8.82333 36.5877 8.82078C36.6366 8.82365 36.6856 8.81542 36.7308 8.79668C36.7761 8.77795 36.8165 8.74922 36.8491 8.71262C36.9076 8.63164 36.9362 8.53292 36.9302 8.43321C36.9357 8.29022 36.8981 8.14886 36.8221 8.0276C36.7236 7.89072 36.6086 7.7666 36.4796 7.65806L35.9658 7.2074C35.8249 7.08417 35.7061 6.93786 35.6143 6.77474C35.5263 6.60191 35.4829 6.40981 35.4881 6.21592C35.4804 6.07925 35.5022 5.94253 35.5519 5.81501C35.6017 5.6875 35.6783 5.57216 35.7765 5.47682C35.9893 5.28832 36.2678 5.19119 36.5517 5.20643C36.6931 5.19429 36.8354 5.21571 36.9669 5.26896C37.0985 5.32222 37.2156 5.40579 37.3088 5.51288C37.4715 5.74944 37.5623 6.02805 37.5702 6.31507L36.9302 6.43225C36.9268 6.26031 36.8964 6.08997 36.8401 5.92749C36.8159 5.87243 36.7751 5.82633 36.7233 5.79562C36.6716 5.76491 36.6116 5.75115 36.5517 5.75624C36.5028 5.75401 36.4541 5.76254 36.4089 5.78123C36.3638 5.79992 36.3233 5.82832 36.2903 5.8644C36.2554 5.90161 36.2285 5.94563 36.2114 5.99372C36.1944 6.04181 36.1875 6.09292 36.1911 6.14381C36.1866 6.2575 36.2147 6.37012 36.2722 6.46829C36.34 6.57764 36.4252 6.67509 36.5246 6.75673L37.0294 7.2074C37.2047 7.36176 37.3565 7.54091 37.48 7.73918C37.5903 7.93745 37.6463 8.16131 37.6423 8.38814C37.646 8.5715 37.5992 8.75235 37.5071 8.91092C37.4278 9.06375 37.3013 9.187 37.1465 9.26244C36.985 9.35531 36.801 9.40206 36.6147 9.39763C36.4592 9.40328 36.3044 9.37472 36.1611 9.31399C36.0178 9.25325 35.8896 9.1618 35.7855 9.04611Z" fill="white"/>
<path d="M37.9758 5.22461H38.7149V6.92813H39.5532V5.22461H40.2923V9.30766H39.5532V7.50499H38.7149V9.30766H37.9758V5.22461Z" fill="white"/>
<path d="M40.833 5.22461H41.5631V9.30766H40.833V5.22461Z" fill="white"/>
<path d="M42.0859 5.22461H43.2847C43.9787 5.22461 44.3303 5.61219 44.3303 6.38734C44.3528 6.53734 44.3401 6.69053 44.2929 6.83471C44.2458 6.97888 44.1656 7.11006 44.0588 7.21775C43.952 7.32544 43.8215 7.40667 43.6777 7.45498C43.5339 7.50329 43.3808 7.51733 43.2306 7.49598H42.825V9.29865H42.0859V5.22461ZM43.1135 6.9732C43.1861 6.98117 43.2596 6.97408 43.3294 6.95237C43.3992 6.93066 43.4638 6.89479 43.5191 6.84702C43.6038 6.70949 43.6417 6.54823 43.6272 6.38734C43.6443 6.26173 43.6443 6.13439 43.6272 6.00878C43.617 5.96921 43.599 5.93207 43.5742 5.89957C43.5495 5.86706 43.5184 5.83984 43.483 5.81949C43.3795 5.76883 43.2643 5.74704 43.1495 5.75641H42.8611V6.9732H43.1135Z" fill="white"/>
<path d="M44.826 9.04738C44.6323 8.78688 44.5279 8.47071 44.5286 8.14605L45.1685 8.01986C45.1664 8.22502 45.2095 8.42812 45.2947 8.61475C45.3249 8.67928 45.3736 8.73341 45.4346 8.77031C45.4955 8.80721 45.566 8.82521 45.6372 8.82205C45.6848 8.82489 45.7324 8.81659 45.7762 8.79782C45.82 8.77904 45.8588 8.75031 45.8896 8.71389C45.9481 8.63291 45.9767 8.53419 45.9707 8.43448C45.9762 8.29149 45.9385 8.15013 45.8626 8.02887C45.7641 7.89199 45.6491 7.76787 45.52 7.65933L45.0063 7.20867C44.868 7.08296 44.7495 6.9371 44.6548 6.77601C44.5699 6.60237 44.5296 6.41031 44.5376 6.21719C44.5288 6.08119 44.5491 5.94489 44.5973 5.81741C44.6455 5.68993 44.7204 5.57423 44.817 5.47809C45.0326 5.28819 45.3144 5.19104 45.6012 5.2077C45.7411 5.197 45.8816 5.21913 46.0115 5.27234C46.1414 5.32554 46.2571 5.40835 46.3493 5.51415C46.516 5.74875 46.6071 6.02858 46.6107 6.31634L45.9707 6.43352C45.9719 6.26116 45.9413 6.09006 45.8806 5.92876C45.858 5.87442 45.8188 5.82862 45.7686 5.79787C45.7184 5.76711 45.6598 5.753 45.6012 5.75751C45.5509 5.75457 45.5006 5.76272 45.4539 5.78142C45.4072 5.80011 45.3651 5.82888 45.3308 5.86567C45.2636 5.94296 45.2282 6.04277 45.2316 6.14508C45.2271 6.25877 45.2552 6.37139 45.3127 6.46956C45.3805 6.57891 45.4657 6.67636 45.5651 6.758L46.0699 7.20867C46.2476 7.36062 46.3998 7.54017 46.5205 7.74045C46.6308 7.93872 46.6867 8.16258 46.6828 8.38941C46.685 8.57147 46.6416 8.7512 46.5566 8.91219C46.4722 9.06123 46.3472 9.18317 46.196 9.26371C46.0313 9.35689 45.8444 9.40361 45.6552 9.3989C45.4997 9.40455 45.3449 9.376 45.2016 9.31526C45.0583 9.25452 44.9301 9.16308 44.826 9.04738Z" fill="white"/>
<path d="M18.5791 11.8945H20.2646V12.4083H19.3001V13.5981H20.0663V14.1208H19.3001V15.9776H18.561L18.5791 11.8945Z" fill="white"/>
<path d="M20.7153 15.6993C20.515 15.4058 20.4197 15.0532 20.4449 14.6988V13.1665C20.421 12.8179 20.5164 12.4714 20.7153 12.1841C20.8324 12.0665 20.9736 11.9757 21.1293 11.9182C21.2849 11.8606 21.4512 11.8375 21.6166 11.8506C21.7823 11.835 21.9493 11.8569 22.1053 11.9146C22.2613 11.9723 22.4024 12.0644 22.518 12.1841C22.7169 12.4714 22.8122 12.8179 22.7883 13.1665V14.6988C22.8121 15.0503 22.7169 15.3995 22.518 15.6903C22.4058 15.8154 22.2657 15.9124 22.1092 15.9734C21.9526 16.0345 21.7839 16.0579 21.6166 16.0418C21.4503 16.0556 21.2831 16.032 21.1271 15.9727C20.9711 15.9135 20.8304 15.82 20.7153 15.6993ZM22.0042 15.3568C22.0663 15.215 22.0941 15.0606 22.0853 14.9061V13.0223C22.096 12.8706 22.0681 12.7187 22.0042 12.5807C21.9501 12.4725 21.842 12.4274 21.6707 12.4274C21.4994 12.4274 21.3913 12.4725 21.3372 12.5807C21.2678 12.717 21.2367 12.8697 21.2471 13.0223V14.9061C21.2377 15.0616 21.2687 15.2169 21.3372 15.3568C21.3705 15.4138 21.4199 15.4597 21.4793 15.4885C21.5387 15.5174 21.6053 15.528 21.6707 15.519C21.736 15.5268 21.8022 15.5157 21.8613 15.4869C21.9204 15.4582 21.97 15.413 22.0042 15.3568Z" fill="white"/>
<path d="M23.2029 11.8952H24.1854C24.5232 11.8687 24.8601 11.9577 25.1408 12.1476C25.2577 12.2514 25.348 12.3816 25.4045 12.5274C25.4609 12.6732 25.4818 12.8304 25.4652 12.9858C25.4698 13.2019 25.4299 13.4167 25.3481 13.6168C25.3101 13.6982 25.2562 13.7712 25.1897 13.8315C25.1231 13.8919 25.0452 13.9384 24.9605 13.9683L25.5283 15.9783H24.7802L24.2935 14.1125H23.942V15.9783H23.2029V11.8952ZM24.1763 13.6438C24.2574 13.653 24.3394 13.6449 24.4171 13.62C24.4948 13.5952 24.5664 13.5541 24.627 13.4996C24.7302 13.3629 24.7785 13.1924 24.7622 13.0219C24.7775 12.8569 24.7361 12.6916 24.645 12.5532C24.5895 12.4993 24.5227 12.4584 24.4494 12.4335C24.3762 12.4085 24.2983 12.4001 24.2214 12.409H23.942V13.6438H24.1763Z" fill="white"/>
<path d="M27.3491 12.4443H26.6641V11.8945H28.7551V12.4443H28.0882V15.9776H27.3491V12.4443Z" fill="white"/>
<path d="M28.9443 11.8945H29.6834V13.5981H30.5217V11.8945H31.2607V15.9776H30.5217V14.1749H29.6834V15.9776H28.9443V11.8945Z" fill="white"/>
<path d="M31.7385 11.8945H33.4511V12.4263H32.4776V13.5981H33.2438V14.1118H32.4776V15.4728H33.4601V15.9776H31.7385V11.8945Z" fill="white"/>
<path d="M35.0103 15.6804C34.8186 15.3667 34.7274 15.0018 34.749 14.6348V13.2648C34.7256 12.8948 34.8168 12.5265 35.0103 12.2102C35.1202 12.0817 35.2596 11.9818 35.4166 11.919C35.5736 11.8562 35.7435 11.8324 35.9117 11.8497C36.0753 11.83 36.2412 11.8473 36.3972 11.9003C36.5532 11.9534 36.6953 12.0408 36.813 12.1561C37.0072 12.4146 37.1001 12.7352 37.0744 13.0575V13.2738H36.3623V13.0395C36.3734 12.9225 36.3734 12.8048 36.3623 12.6879C36.3481 12.61 36.3065 12.5397 36.2451 12.4897C36.1699 12.4342 36.0768 12.4085 35.9838 12.4175C35.9335 12.4127 35.8828 12.4182 35.8347 12.4337C35.7867 12.4492 35.7423 12.4744 35.7044 12.5077C35.641 12.5711 35.5999 12.6533 35.5872 12.742C35.5761 12.8619 35.5761 12.9826 35.5872 13.1026V14.8151C35.5755 14.994 35.6064 15.1732 35.6773 15.3379C35.7174 15.3937 35.7702 15.4392 35.8313 15.4706C35.8924 15.5019 35.9601 15.5183 36.0288 15.5183C36.0975 15.5183 36.1653 15.5019 36.2264 15.4706C36.2875 15.4392 36.3403 15.3937 36.3804 15.3379C36.4555 15.1679 36.4895 14.9826 36.4795 14.7971V14.4185H36.0379V13.9498H37.1465V16.0139H36.6598L36.6147 15.6173C36.5643 15.7586 36.4694 15.8799 36.3443 15.9627C36.2191 16.0456 36.0705 16.0857 35.9207 16.077C35.7468 16.1073 35.5678 16.0858 35.406 16.0153C35.2441 15.9448 35.1066 15.8284 35.0103 15.6804Z" fill="white"/>
<path d="M37.6874 15.6993C37.4872 15.4058 37.3919 15.0532 37.417 14.6988V13.1665C37.3932 12.8179 37.4885 12.4714 37.6874 12.1841C37.8041 12.066 37.9454 11.9749 38.1011 11.9173C38.2568 11.8597 38.4233 11.8369 38.5888 11.8506C38.7544 11.835 38.9214 11.8569 39.0774 11.9146C39.2335 11.9723 39.3745 12.0644 39.4901 12.1841C39.689 12.4714 39.7844 12.8179 39.7605 13.1665V14.6988C39.7843 15.0503 39.689 15.3995 39.4901 15.6903C39.377 15.8143 39.2369 15.9105 39.0806 15.9714C38.9242 16.0324 38.7559 16.0565 38.5888 16.0418C38.4224 16.0563 38.255 16.033 38.0989 15.9737C37.9429 15.9144 37.8022 15.8206 37.6874 15.6993ZM38.9313 15.3297C38.9934 15.188 39.0212 15.0336 39.0124 14.8791V12.9953C39.023 12.8436 38.9951 12.6916 38.9313 12.5536C38.8772 12.4455 38.769 12.4004 38.5978 12.4004C38.5321 12.391 38.465 12.4004 38.4044 12.4275C38.3438 12.4546 38.2921 12.4983 38.2553 12.5536C38.1939 12.6924 38.1661 12.8437 38.1742 12.9953V14.8791C38.1653 15.0336 38.1931 15.188 38.2553 15.3297C38.2917 15.3859 38.343 15.4308 38.4035 15.4595C38.464 15.4881 38.5313 15.4994 38.5978 15.492C38.6604 15.5026 38.7248 15.4956 38.7837 15.4717C38.8426 15.4478 38.8937 15.408 38.9313 15.3568V15.3297Z" fill="white"/>
<path d="M40.779 11.8945H41.5721L42.3924 15.9776H41.6984L41.5451 15.0762H40.8331L40.6618 15.9776H39.9678L40.779 11.8945ZM41.464 14.5985L41.1846 12.886L40.9052 14.5985H41.464Z" fill="white"/>
<path d="M42.6538 11.8945H43.3929V15.4999H44.3844V16.0046H42.6538V11.8945Z" fill="white"/>
<path d="M44.817 15.7251C44.6232 15.4646 44.5189 15.1485 44.5195 14.8238L45.1595 14.6976C45.1573 14.9028 45.2004 15.1059 45.2856 15.2925C45.3159 15.357 45.3645 15.4112 45.4255 15.4481C45.4865 15.485 45.557 15.503 45.6282 15.4998C45.6757 15.5026 45.7233 15.4943 45.7672 15.4756C45.811 15.4568 45.8498 15.428 45.8805 15.3916C45.939 15.3106 45.9677 15.2119 45.9616 15.1122C45.9672 14.9692 45.9295 14.8279 45.8535 14.7066C45.7551 14.5697 45.64 14.4456 45.511 14.3371L44.9972 13.8864C44.8539 13.7621 44.7347 13.6124 44.6457 13.4448C44.5608 13.2743 44.5205 13.0852 44.5285 12.8949C44.5196 12.7576 44.5398 12.6199 44.588 12.4909C44.6362 12.362 44.7111 12.2447 44.8079 12.1468C45.0268 11.9635 45.3071 11.8701 45.5921 11.8854C45.7321 11.8747 45.8726 11.8969 46.0024 11.9501C46.1323 12.0033 46.248 12.0861 46.3402 12.1919C46.503 12.4285 46.5938 12.7071 46.6016 12.9941L45.9616 13.1112C45.9636 12.9388 45.9331 12.7676 45.8715 12.6065C45.8489 12.5522 45.8097 12.5064 45.7596 12.4756C45.7094 12.4449 45.6508 12.4307 45.5921 12.4352C45.5419 12.4323 45.4916 12.4405 45.4449 12.4592C45.3981 12.4779 45.3561 12.5066 45.3217 12.5434C45.2868 12.5806 45.26 12.6247 45.2429 12.6727C45.2258 12.7208 45.2189 12.7719 45.2226 12.8228C45.2195 12.9364 45.2475 13.0486 45.3037 13.1473C45.3739 13.2548 45.4588 13.3519 45.5561 13.4357L46.0608 13.8864C46.2361 14.0408 46.388 14.2199 46.5115 14.4182C46.6217 14.6165 46.6777 14.8403 46.6737 15.0671C46.6759 15.2492 46.6326 15.4289 46.5475 15.5899C46.4632 15.739 46.3381 15.8609 46.187 15.9414C45.9676 16.0551 45.7186 16.0988 45.4737 16.0666C45.2287 16.0344 44.9995 15.9278 44.817 15.7612V15.7251Z" fill="white"/>
<path d="M42.9781 34.3563C42.9771 32.4604 42.2412 30.6386 40.9252 29.2738C39.6091 27.909 37.8153 27.1075 35.9207 27.0375C35.4155 25.6088 34.4799 24.3719 33.2426 23.497C32.0054 22.6221 30.5273 22.1523 29.0119 22.1523C27.4966 22.1523 26.0185 22.6221 24.7812 23.497C23.5439 24.3719 22.6083 25.6088 22.1032 27.0375C20.6004 27.0908 19.1506 27.6057 17.9509 28.5122C16.7511 29.4186 15.8597 30.6726 15.3978 32.1036C14.9359 33.5345 14.926 35.0731 15.3694 36.5099C15.8128 37.9467 16.688 39.2121 17.8759 40.1339C17.6829 40.7956 17.5858 41.4816 17.5875 42.1709C17.5892 43.5039 17.9544 44.8111 18.6439 45.9519C19.3334 47.0927 20.321 48.0238 21.5003 48.6451C22.6797 49.2663 24.0062 49.554 25.3369 49.4773C26.6677 49.4006 27.9523 48.9624 29.0525 48.2099C30.2527 49.0204 31.6692 49.4507 33.1175 49.4447C34.2502 49.446 35.3677 49.1844 36.3821 48.6805C37.3965 48.1765 38.2801 47.444 38.9634 46.5406C39.6466 45.6372 40.1108 44.5875 40.3195 43.4743C40.5282 42.361 40.4756 41.2144 40.166 40.1249C41.0426 39.4406 41.7516 38.5654 42.2389 37.5657C42.7263 36.5661 42.9791 35.4684 42.9781 34.3563ZM34.8661 29.4801C34.8624 30.8798 34.3577 32.2318 33.4435 33.2916C32.5292 34.3514 31.2657 35.0488 29.8817 35.2577C29.832 34.9597 29.8048 34.6584 29.8006 34.3563C29.8028 32.9548 30.3081 31.6007 31.2245 30.5404C32.1409 29.48 33.4076 28.7839 34.794 28.5788C34.8415 28.8769 34.8656 29.1782 34.8661 29.4801ZM29.0435 46.308C28.4859 45.7679 28.0416 45.1221 27.7365 44.4083C27.4314 43.6945 27.2717 42.927 27.2666 42.1507C27.2616 41.3745 27.4113 40.605 27.7071 39.8873C28.003 39.1695 28.4389 38.518 28.9894 37.9707C29.547 38.5108 29.9913 39.1566 30.2964 39.8705C30.6015 40.5843 30.7612 41.3518 30.7663 42.128C30.7713 42.9043 30.6215 43.6738 30.3257 44.3915C30.0299 45.1092 29.594 45.7608 29.0435 46.308ZM23.2389 28.5788C24.6253 28.7839 25.8919 29.48 26.8084 30.5404C27.7248 31.6007 28.2301 32.9548 28.2323 34.3563C28.228 34.6584 28.2009 34.9597 28.1512 35.2577C27.3878 35.1467 26.6541 34.8851 25.9927 34.4882C25.3313 34.0913 24.7553 33.5669 24.2983 32.9455C23.8413 32.3241 23.5123 31.6181 23.3304 30.8685C23.1485 30.1188 23.1174 29.3405 23.2389 28.5788ZM27.6013 36.9792C27.1149 37.949 26.3683 38.7643 25.4451 39.3341C24.5219 39.904 23.4585 40.2058 22.3736 40.206C21.432 40.2114 20.5035 39.9854 19.6696 39.548C20.1556 38.5773 20.9018 37.7607 21.8249 37.1893C22.748 36.6179 23.8117 36.3143 24.8973 36.3122C25.8398 36.3085 26.7687 36.5377 27.6013 36.9792ZM30.4045 36.9342C31.0959 36.5716 31.8529 36.3512 32.6309 36.2862C33.4089 36.2212 34.1921 36.3129 34.934 36.5557C35.676 36.7985 36.3618 37.1877 36.9508 37.7001C37.5398 38.2125 38.0201 38.8378 38.3633 39.539C37.6719 39.9016 36.9148 40.1219 36.1368 40.187C35.3589 40.252 34.5757 40.1603 33.8337 39.9175C33.0918 39.6746 32.406 39.2855 31.817 38.7731C31.228 38.2607 30.7477 37.6354 30.4045 36.9342ZM29.0164 23.6214C30.1642 23.6135 31.2889 23.9434 32.2505 24.5701C33.2122 25.1967 33.9682 26.0924 34.4244 27.1457C33.2585 27.3441 32.1578 27.8215 31.2162 28.5372C30.2745 29.2528 29.5198 30.1855 29.0164 31.2557C28.5161 30.1919 27.768 29.2635 26.8349 28.5484C25.9017 27.8333 24.8108 27.3523 23.6535 27.1457C24.1067 26.0995 24.8558 25.2086 25.8086 24.5825C26.7613 23.9564 27.8763 23.6223 29.0164 23.6214ZM16.5239 34.3563C16.5266 32.9137 17.0615 31.5227 18.0262 30.45C18.9908 29.3772 20.3174 28.6981 21.7517 28.5427C21.7094 28.8413 21.6883 29.1425 21.6886 29.4441C21.6876 30.4631 21.9005 31.4709 22.3135 32.4025C22.7265 33.334 23.3304 34.1685 24.0861 34.8521C22.9125 34.989 21.7889 35.406 20.8101 36.0679C19.8313 36.7299 19.0259 37.6174 18.4618 38.6557C17.8527 38.1094 17.3654 37.4411 17.0316 36.6942C16.6977 35.9473 16.5248 35.1384 16.5239 34.3203M19.0657 42.1349C19.0656 41.726 19.1079 41.3182 19.1919 40.9181C20.1833 41.3996 21.2714 41.6493 22.3736 41.6481C23.6115 41.6513 24.83 41.3413 25.9158 40.7468C25.6986 41.8984 25.7621 43.0854 26.101 44.2072C26.4399 45.329 27.0442 46.3527 27.8627 47.1914C26.9747 47.7126 25.9647 47.9897 24.9351 47.9948C23.9054 47.9998 22.8927 47.7326 21.9996 47.2202C21.1065 46.7078 20.3648 45.9683 19.8495 45.0769C19.3343 44.1854 19.0639 43.1735 19.0657 42.1439M38.9672 42.0898C38.9648 43.6405 38.3477 45.127 37.2512 46.2235C36.1547 47.32 34.6682 47.9371 33.1175 47.9395C32.1055 47.9415 31.1108 47.6773 30.2332 47.1733C31.5233 45.8166 32.2429 44.0161 32.2432 42.1439C32.2446 41.6719 32.1993 41.2009 32.108 40.7378C33.1928 41.3349 34.4121 41.6451 35.6503 41.6391C36.7595 41.6422 37.8545 41.3892 38.85 40.9C38.93 41.2854 38.9693 41.6782 38.9672 42.0718M33.9918 34.798C34.7389 34.1101 35.3341 33.2737 35.7392 32.3424C36.1443 31.4112 36.3504 30.4055 36.3443 29.39C36.3404 29.0886 36.3194 28.7877 36.2812 28.4887C37.4023 28.608 38.4649 29.0493 39.3407 29.7592C40.2165 30.4692 40.8681 31.4174 41.2169 32.4895C41.5657 33.5616 41.5967 34.7118 41.3063 35.8011C41.0159 36.8905 40.4163 37.8725 39.5801 38.6287C39.025 37.5873 38.2274 36.6948 37.2548 36.0265C36.2822 35.3582 35.163 34.9337 33.9918 34.789" fill="white"/>
<g style="mix-blend-mode:hue">
<rect x="0.6875" y="0.367188" width="56" height="56" fill="#D9D9D9"/>
</g>
</g>
<defs>
<clipPath id="clip0_2420_243665">
<rect x="0.6875" y="0.367188" width="56" height="56" rx="4" fill="white"/>
</clipPath>
</defs>
</svg>
