<svg width="57" height="57" viewBox="0 0 57 57" fill="none" xmlns="http://www.w3.org/2000/svg">
<g clip-path="url(#clip0_1648_94180)">
<path d="M56.5312 0.492188H0.53125V56.4922H56.5312V0.492188Z" fill="#EF412A"/>
<path d="M6.14575 15.8236C5.74607 15.5655 5.45085 15.174 5.31262 14.7188C5.15106 14.1292 5.07783 13.5188 5.0953 12.9077H7.06942C7.0439 13.3612 7.10223 13.8155 7.24148 14.2479C7.29101 14.3819 7.38377 14.4956 7.50512 14.5711C7.62647 14.6465 7.76948 14.6794 7.91159 14.6645C8.02239 14.6722 8.13337 14.6522 8.23453 14.6063C8.3357 14.5605 8.42388 14.4902 8.49116 14.4019C8.62871 14.1871 8.70969 13.941 8.72659 13.6865C8.72659 13.3786 8.77188 12.9439 8.77188 12.3734C8.79244 11.8808 8.73123 11.3881 8.59076 10.9154C8.54184 10.7636 8.44233 10.6331 8.30885 10.5458C8.17536 10.4585 8.01597 10.4195 7.85725 10.4355C7.38636 10.4355 7.07847 10.7524 6.95169 11.3954H5.1949L5.33979 5.32812H10.257V7.11208H7.01509L6.89736 9.4756C7.06943 9.29266 7.28887 9.161 7.53126 9.09527C7.84076 8.99222 8.16496 8.94022 8.49116 8.94132C8.82245 8.92692 9.15134 9.00375 9.44196 9.16343C9.73259 9.32311 9.97377 9.55952 10.1393 9.84688C10.5505 10.6065 10.7418 11.4658 10.6917 12.3281C10.7083 13.0353 10.6322 13.7416 10.4653 14.429C10.3426 14.95 10.0454 15.4133 9.62311 15.7421C9.09007 16.1001 8.45238 16.2691 7.81199 16.222C7.23058 16.2442 6.65423 16.1064 6.14575 15.8236Z" fill="white"/>
<path d="M15.4639 9.10474C15.2763 8.79114 15.1879 8.4281 15.2104 8.06334V6.71405C15.1819 6.34471 15.2741 5.9761 15.473 5.6636C15.5829 5.53389 15.7229 5.43306 15.8808 5.36992C16.0386 5.30678 16.2095 5.28324 16.3786 5.30137C16.543 5.28089 16.7099 5.29796 16.8667 5.35129C17.0236 5.40462 17.1663 5.49282 17.2841 5.60926C17.4808 5.86819 17.5743 6.19087 17.5467 6.51483V6.7231H16.8313V6.4786C16.8433 6.36118 16.8433 6.24285 16.8313 6.12543C16.8183 6.04416 16.7765 5.97027 16.7136 5.91715C16.6356 5.86744 16.5431 5.84513 16.451 5.85376C16.4019 5.84905 16.3524 5.85468 16.3056 5.87027C16.2588 5.88587 16.2158 5.91109 16.1793 5.94432C16.1158 6.00442 16.0743 6.08417 16.0616 6.17071C16.0499 6.2942 16.0499 6.41851 16.0616 6.54199V8.25351C16.0528 8.43107 16.087 8.60814 16.1612 8.76968C16.1958 8.82855 16.2467 8.87614 16.3078 8.90667C16.3689 8.93721 16.4375 8.94939 16.5053 8.94173C16.5753 8.94805 16.6456 8.93439 16.7081 8.90233C16.7707 8.87027 16.8228 8.82113 16.8585 8.76062C16.9321 8.5893 16.9662 8.40358 16.9581 8.21728V7.82789H16.5235V7.36606H17.5648V9.43074H17.0849L17.0306 9.03229C16.9813 9.17275 16.8873 9.29314 16.7629 9.37494C16.6386 9.45675 16.4908 9.49544 16.3423 9.48507C16.175 9.51006 16.004 9.48767 15.8488 9.42045C15.6935 9.35322 15.5602 9.24385 15.4639 9.10474Z" fill="white"/>
<path d="M18.063 5.35547H19.7745V5.87164H18.8056V7.04887H19.5753V7.56504H18.8056V8.92338H19.7836V9.4305H18.063V5.35547Z" fill="white"/>
<path d="M20.2002 5.35547H20.7164L21.7125 7.68276V5.35547H22.3192V9.4305H21.8302L20.8341 6.99453V9.4305H20.2002V5.35547Z" fill="white"/>
<path d="M22.9167 5.35463H23.9038C24.1696 5.33914 24.4355 5.38243 24.6826 5.48141C24.8632 5.56047 25.006 5.70658 25.081 5.88891C25.1736 6.122 25.2168 6.37177 25.2078 6.62242V8.10754C25.2157 8.364 25.1726 8.61948 25.081 8.85916C25.0105 9.04564 24.8711 9.19798 24.6916 9.28477C24.4564 9.39272 24.1986 9.44242 23.94 9.42966H22.9439L22.9167 5.35463ZM23.9038 8.91349C24.0271 8.92354 24.1505 8.89506 24.257 8.83199C24.3289 8.76699 24.3794 8.68175 24.4019 8.58749C24.4142 8.43681 24.4142 8.28538 24.4019 8.13471V6.56809C24.4197 6.43284 24.4197 6.29583 24.4019 6.16058C24.3945 6.11614 24.3778 6.07377 24.3529 6.03629C24.3279 5.99882 24.2952 5.9671 24.257 5.94324C24.1433 5.89281 24.0189 5.87104 23.8947 5.87986H23.6774V8.91349H23.9038Z" fill="white"/>
<path d="M25.7148 5.35547H27.4354V5.87164H26.4393V7.04887H27.209V7.56504H26.4393V8.92338H27.4264V9.4305H25.7148V5.35547Z" fill="white"/>
<path d="M27.834 5.35566H28.812C29.1529 5.33118 29.4925 5.41689 29.7809 5.60016C29.8954 5.70444 29.9837 5.83418 30.0388 5.9789C30.0939 6.12363 30.1141 6.27928 30.0979 6.43328C30.108 6.65083 30.0677 6.86777 29.9802 7.06717C29.942 7.14896 29.8879 7.22232 29.821 7.28296C29.7542 7.3436 29.6759 7.3903 29.5908 7.42034L30.1613 9.43069H29.4187L28.9297 7.56523H28.5766V9.43069H27.834V5.35566ZM28.812 7.1034C28.976 7.11567 29.1384 7.06371 29.2648 6.95851C29.3595 6.8172 29.4042 6.64821 29.3916 6.47856C29.4069 6.31278 29.3654 6.14672 29.2738 6.00767C29.2192 5.95184 29.1522 5.90963 29.0783 5.88446C29.0044 5.85929 28.9255 5.85186 28.8482 5.86277H28.5766V7.1034H28.812Z" fill="white"/>
<path d="M15.2739 12.0195H16.9854V12.5448H16.0165V13.722H16.7772V14.2382H16.0165V15.5965H16.9945V16.1036H15.2739V12.0195Z" fill="white"/>
<path d="M18.9867 16.612C18.8398 16.4758 18.7118 16.3204 18.6063 16.1502H18.5157C18.3485 16.1661 18.1799 16.1433 18.0229 16.0836C17.8659 16.024 17.7247 15.929 17.6102 15.8061C17.409 15.5146 17.3132 15.1632 17.3385 14.8099V13.2886C17.313 12.9409 17.409 12.5952 17.6102 12.3106C17.8627 12.095 18.1838 11.9766 18.5157 11.9766C18.8477 11.9766 19.1688 12.095 19.4213 12.3106C19.6225 12.5952 19.7186 12.9409 19.693 13.2886V14.819C19.693 15.4529 19.5028 15.8513 19.1316 16.0324C19.2427 16.1858 19.3808 16.3177 19.539 16.4218L19.3941 16.9199C19.2437 16.8382 19.1063 16.7344 18.9867 16.612ZM18.8599 15.4438C18.9204 15.3009 18.9483 15.1462 18.9414 14.991V13.1165C18.9495 12.9643 18.9216 12.8122 18.8599 12.6728C18.8215 12.6188 18.7693 12.576 18.7088 12.5489C18.6483 12.5218 18.5816 12.5115 18.5157 12.5189C18.4511 12.5112 18.3857 12.5215 18.3266 12.5486C18.2674 12.5758 18.2169 12.6188 18.1807 12.6728C18.1134 12.8107 18.0822 12.9633 18.0901 13.1165V15.0001C18.0844 15.156 18.1155 15.3111 18.1807 15.4529C18.2169 15.5069 18.2674 15.5499 18.3266 15.5771C18.3857 15.6042 18.4511 15.6145 18.5157 15.6068C18.5825 15.6133 18.6497 15.6015 18.7103 15.5728C18.7709 15.5441 18.8226 15.4995 18.8599 15.4438Z" fill="white"/>
<path d="M20.6437 15.995C20.4784 15.884 20.3543 15.7217 20.2905 15.5331C20.2183 15.2893 20.1847 15.0357 20.1909 14.7815V12.0648H20.9154V14.9083C20.908 15.0959 20.9357 15.2832 20.9969 15.4607C21.0337 15.5186 21.0845 15.5664 21.1446 15.5995C21.2048 15.6326 21.2723 15.6499 21.341 15.6499C21.4097 15.6499 21.4772 15.6326 21.5373 15.5995C21.5975 15.5664 21.6483 15.5186 21.6851 15.4607C21.7463 15.2832 21.774 15.0959 21.7666 14.9083V12.0195H22.4911V14.7362C22.496 14.9904 22.4624 15.2438 22.3914 15.4878C22.3277 15.6764 22.2036 15.8387 22.0383 15.9497C21.8214 16.0567 21.5828 16.1124 21.341 16.1124C21.0992 16.1124 20.8606 16.0567 20.6437 15.9497V15.995Z" fill="white"/>
<path d="M23.6593 12.0195H24.4561L25.2712 16.1036H24.5829L24.4199 15.1981H23.7136L23.5415 16.1036H22.8442L23.6593 12.0195ZM24.3384 14.6819L24.0668 12.9704L23.786 14.6819H24.3384Z" fill="white"/>
<path d="M25.6516 12.0195H26.3942V15.6418H27.3903V16.1489H25.6516V12.0195Z" fill="white"/>
<path d="M27.7705 12.0195H28.504V16.1036H27.7705V12.0195Z" fill="white"/>
<path d="M29.5093 12.5719H28.8301V12.0195H30.9219V12.5719H30.2428V16.1036H29.5002L29.5093 12.5719Z" fill="white"/>
<path d="M31.7914 14.5382L30.9673 12.0117H31.6646L32.1717 13.6327L32.6426 12.0117H33.3218L32.5068 14.5382V16.0958H31.7914V14.5382Z" fill="white"/>
<path d="M41.3812 21.6465H34.3903C34.3663 21.6465 34.3432 21.656 34.3262 21.673C34.3093 21.69 34.2997 21.713 34.2997 21.737V24.0553C34.2997 24.0793 34.3093 24.1023 34.3262 24.1193C34.3432 24.1363 34.3663 24.1458 34.3903 24.1458H37.1794L34.0824 27.2157C32.9724 26.3517 31.6784 25.755 30.3005 25.4721C28.9227 25.1891 27.4982 25.2274 26.1375 25.584C24.7769 25.9406 23.5167 26.606 22.4548 27.5284C21.3929 28.4508 20.5578 29.6055 20.0144 30.9029C19.4709 32.2003 19.2337 33.6054 19.3212 35.0093C19.4086 36.4132 19.8184 37.778 20.5186 38.9979C21.2188 40.2178 22.1908 41.26 23.3589 42.0435C24.5271 42.827 25.8601 43.3308 27.2545 43.5158V46.2325H24.5378C24.5138 46.2325 24.4907 46.2421 24.4737 46.259C24.4568 46.276 24.4472 46.2991 24.4472 46.3231V48.8134C24.4472 48.8374 24.4568 48.8604 24.4737 48.8774C24.4907 48.8944 24.5138 48.9039 24.5378 48.9039H27.2545V51.5391C27.2567 51.5615 27.2672 51.5823 27.284 51.5974C27.3007 51.6124 27.3225 51.6207 27.345 51.6206H29.8353C29.8578 51.6207 29.8796 51.6124 29.8963 51.5974C29.9131 51.5823 29.9236 51.5615 29.9259 51.5391V48.9039H32.6426C32.6666 48.9039 32.6896 48.8944 32.7066 48.8774C32.7236 48.8604 32.7331 48.8374 32.7331 48.8134V46.3231C32.7331 46.2991 32.7236 46.276 32.7066 46.259C32.6896 46.2421 32.6666 46.2325 32.6426 46.2325H29.9259V43.5158C31.4557 43.2638 32.8965 42.6273 34.1131 41.6661C35.3298 40.7048 36.2823 39.4504 36.8815 38.0203C37.4807 36.5903 37.7068 35.0315 37.5388 33.4901C37.3707 31.9487 36.8139 30.4753 35.9207 29.2079L38.9725 26.1652V28.7642C38.9725 28.7882 38.982 28.8113 38.999 28.8282C39.0159 28.8452 39.039 28.8548 39.063 28.8548H41.3812C41.4052 28.8548 41.4283 28.8452 41.4453 28.8282C41.4622 28.8113 41.4718 28.7882 41.4718 28.7642V21.7823C41.4732 21.7701 41.4719 21.7577 41.4679 21.746C41.4638 21.7344 41.4572 21.7238 41.4485 21.7151C41.4398 21.7063 41.4292 21.6997 41.4175 21.6957C41.4059 21.6916 41.3935 21.6903 41.3812 21.6918M28.4317 41.1795C27.0988 41.1777 25.7963 40.7806 24.6892 40.0383C23.582 39.2961 22.7199 38.2422 22.2119 37.0099C21.7039 35.7776 21.5728 34.4223 21.8353 33.1155C22.0977 31.8087 22.7419 30.609 23.6863 29.6684C24.6307 28.7278 25.8329 28.0885 27.1408 27.8313C28.4487 27.5741 29.8034 27.7107 31.0337 28.2236C32.2639 28.7366 33.3144 29.603 34.0521 30.7131C34.7898 31.8233 35.1817 33.1273 35.1781 34.4602C35.171 36.2448 34.457 37.9538 33.1926 39.2131C31.9281 40.4724 30.2163 41.1795 28.4317 41.1795Z" fill="white"/>
<path d="M32.5519 31.6717H24.4018C24.3802 31.6717 24.3595 31.6803 24.3442 31.6955C24.3289 31.7108 24.3203 31.7316 24.3203 31.7532V33.7363C24.3203 33.758 24.3289 33.7787 24.3442 33.794C24.3595 33.8093 24.3802 33.8179 24.4018 33.8179H32.5519C32.5633 33.8191 32.5749 33.818 32.5859 33.8145C32.5968 33.8109 32.6069 33.8051 32.6155 33.7974C32.624 33.7897 32.6308 33.7803 32.6355 33.7698C32.6402 33.7593 32.6425 33.7479 32.6424 33.7363V31.7441C32.6425 31.7326 32.6402 31.7212 32.6355 31.7107C32.6308 31.7002 32.624 31.6907 32.6155 31.683C32.6069 31.6753 32.5968 31.6695 32.5859 31.666C32.5749 31.6625 32.5633 31.6613 32.5519 31.6626" fill="white"/>
<path d="M32.5519 35.2114H24.4018C24.3802 35.2114 24.3595 35.22 24.3442 35.2353C24.3289 35.2506 24.3203 35.2713 24.3203 35.2929V37.2671C24.3203 37.2887 24.3289 37.3094 24.3442 37.3247C24.3595 37.34 24.3802 37.3486 24.4018 37.3486H32.5519C32.5633 37.3498 32.5749 37.3487 32.5859 37.3452C32.5968 37.3417 32.6069 37.3359 32.6155 37.3282C32.624 37.3205 32.6308 37.311 32.6355 37.3005C32.6402 37.29 32.6425 37.2786 32.6424 37.2671V35.2929C32.6425 35.2814 32.6402 35.27 32.6355 35.2595C32.6308 35.249 32.624 35.2396 32.6155 35.2319C32.6069 35.2242 32.5968 35.2184 32.5859 35.2148C32.5749 35.2113 32.5633 35.2102 32.5519 35.2114Z" fill="white"/>
</g>
<defs>
<clipPath id="clip0_1648_94180">
<rect x="0.53125" y="0.492188" width="56" height="56" rx="4" fill="white"/>
</clipPath>
</defs>
</svg>
