<svg width="57" height="57" viewBox="0 0 57 57" fill="none" xmlns="http://www.w3.org/2000/svg">
<g clip-path="url(#clip0_1648_94206)">
<path d="M56.6484 0.75H0.648438V56.75H56.6484V0.75Z" fill="#00ADD8"/>
<path d="M39.0109 23.3661C38.9868 23.3424 38.9583 23.3238 38.9269 23.3113C38.8955 23.2987 38.862 23.2925 38.8283 23.293H18.414C18.3465 23.2955 18.2819 23.3213 18.2313 23.3661C18.1936 23.4259 18.1775 23.4968 18.1856 23.567L21.6109 44.301C21.6196 44.3574 21.6485 44.4089 21.6921 44.4458C21.7357 44.4827 21.7912 44.5026 21.8483 44.5019H26.0591L26.3422 47.8815H24.5702L28.6896 52.0009L32.8273 47.8723H31.0553L31.3385 44.5019H35.6223C35.6794 44.5026 35.7349 44.4827 35.7785 44.4458C35.8221 44.4089 35.8509 44.3574 35.8597 44.301L39.0657 23.567C39.0707 23.5316 39.0683 23.4955 39.0589 23.4609C39.0495 23.4264 39.0332 23.3941 39.0109 23.3661ZM31.1284 39.9715C30.4344 40.5213 29.575 40.8204 28.6896 40.8204C27.8043 40.8204 26.9449 40.5213 26.2509 39.9715C25.7028 39.387 25.3622 38.6385 25.2813 37.8413C25.2004 37.0442 25.3838 36.2425 25.8033 35.5598C26.1321 34.9479 28.4795 31.4222 28.6805 31.1208C28.8723 31.4222 31.2288 34.9479 31.5577 35.5598C31.9795 36.2406 32.166 37.0411 32.0885 37.8382C32.0109 38.6353 31.6736 39.3849 31.1284 39.9715ZM37.5952 27.7321C37.282 27.6238 36.9505 27.5785 36.6197 27.5989C36.2889 27.6192 35.9655 27.7049 35.6679 27.8508C33.1378 28.8738 31.4115 29.2483 28.7535 28.408C27.0729 27.8874 25.5019 26.7913 23.6477 27.4946C22.457 28.0093 21.1808 28.2973 19.8845 28.344L19.0716 24.2247H38.1798L37.5952 27.7321Z" fill="white"/>
<path d="M9.03346 16.826C11.0612 16.826 11.8467 15.7208 11.8467 13.9671V12.2956C11.8467 10.4688 11.1069 9.5006 9.73679 9.5006C9.41355 9.47787 9.09091 9.5528 8.81077 9.71567C8.53064 9.87854 8.30593 10.1218 8.16576 10.414V7.97524C8.16576 7.29019 8.38497 6.8061 9.07915 6.8061C9.77333 6.8061 9.99254 7.20799 9.99254 7.9113V8.66028H11.7371V8.05744C11.7371 6.38594 11.1799 5.2168 9.07001 5.2168C6.96007 5.2168 6.32983 6.50468 6.32983 8.27666V13.7661C6.32983 15.5198 7.09708 16.7895 9.07001 16.7895M8.15662 12.0216C8.15662 11.3913 8.45803 10.9894 9.07001 10.9894C9.68198 10.9894 9.9834 11.3913 9.9834 12.122V14.1315C9.9834 14.8531 9.71851 15.2732 9.07001 15.2732C8.4215 15.2732 8.15662 14.8348 8.15662 14.1315V12.0216Z" fill="white"/>
<path d="M16.8064 8.98926V6.68751C16.7829 6.52196 16.7967 6.35326 16.8467 6.19371C16.8967 6.03416 16.9817 5.88778 17.0954 5.76525C17.2092 5.64273 17.3489 5.54714 17.5043 5.48547C17.6598 5.42379 17.827 5.39759 17.9938 5.40876C18.9072 5.40876 19.1264 5.902 19.1264 6.59617V7.16247H18.3957V6.54137C18.3957 6.23995 18.2952 6.07554 18.0121 6.07554C17.7289 6.07554 17.6102 6.27648 17.6102 6.56877V9.108C17.6102 9.40028 17.7289 9.60123 18.0121 9.60123C18.2952 9.60123 18.3957 9.41855 18.3957 9.1354V8.28594H19.1264V9.09886C19.1264 9.77477 18.8432 10.2863 17.9938 10.2863C17.8252 10.298 17.6561 10.2715 17.4992 10.2088C17.3422 10.1461 17.2014 10.0488 17.0873 9.92413C16.9732 9.79947 16.8886 9.65066 16.84 9.48879C16.7914 9.32693 16.7799 9.15618 16.8064 8.98926Z" fill="white"/>
<path d="M19.592 5.46289H20.3867V9.55488H21.3732V10.2034H19.6194L19.592 5.46289Z" fill="white"/>
<path d="M21.7021 5.46289H23.6112V6.12053H22.5059V7.47235H23.2915V8.12086H22.5059V9.55488H23.6112V10.2034H21.7021V5.46289Z" fill="white"/>
<path d="M23.9033 10.2034L24.8167 5.46289H25.7301L26.6435 10.2034H25.8214L25.6753 9.3448H24.835L24.6889 10.2034H23.9033ZM24.9081 8.70543H25.5474L25.2277 6.80558L24.9081 8.70543Z" fill="white"/>
<path d="M27.6118 7.22574V10.2034H26.9451V5.46289H27.7671L28.6348 8.20306V5.46289H29.2925V10.2034H28.5983L27.6118 7.22574Z" fill="white"/>
<path d="M32.6263 7.28054L32.1787 10.2034H31.4206L30.7812 5.46289H31.5485L31.923 8.47708L32.3158 5.46289H32.9734L33.4118 8.47708L33.7681 5.46289H34.444L33.832 10.2034H33.0739L32.608 7.28054H32.6263Z" fill="white"/>
<path d="M34.4075 10.2034L35.3209 5.46289H36.2343L37.1476 10.2034H36.3347L36.1886 9.3448H35.3391L35.2021 10.2034H34.4075ZM35.4031 8.70543H36.0424L35.7319 6.80558L35.4031 8.70543Z" fill="white"/>
<path d="M37.0015 5.46289H39.1205V6.12053H38.4629V10.2034H37.6591V6.12053H37.0015V5.46289Z" fill="white"/>
<path d="M39.4858 5.46289H41.3949V6.12053H40.2896V7.47235H41.0752V8.12086H40.2896V9.55488H41.3949V10.2034H39.4858V5.46289Z" fill="white"/>
<path d="M42.6187 8.02952V10.2034H41.8149V5.46289H42.9749C43.7787 5.46289 44.0801 5.86478 44.0801 6.53156V7.1344C44.0801 7.6459 43.8975 7.94732 43.4408 8.04779L44.208 10.2034H43.3768L42.6187 8.02952ZM42.6187 6.12053V7.59109H42.8836C42.9369 7.59873 42.9914 7.59383 43.0425 7.57679C43.0936 7.55976 43.1401 7.53105 43.1782 7.49293C43.2163 7.45482 43.245 7.40836 43.2621 7.35722C43.2791 7.30609 43.284 7.25169 43.2764 7.19833V6.50416C43.2764 6.23927 43.1576 6.12053 42.8836 6.12053H42.6187Z" fill="white"/>
<path d="M16.7241 16.8531L17.6375 12.1035H18.5509L19.4643 16.8531H18.6331L18.487 15.9854H17.6467L17.5005 16.8531H16.7241ZM17.7197 15.3461H18.3591L18.0394 13.4462L17.7197 15.3461Z" fill="white"/>
<path d="M20.46 13.8664V16.8531H19.7932V12.1035H20.5787L21.4373 14.8437V12.1035H22.095V16.8531H21.3734L20.46 13.8664Z" fill="white"/>
<path d="M24.8991 13.382V15.5924C24.8991 16.3231 24.5977 16.8712 23.7482 16.8712H22.5151V12.1215H23.7482C24.5977 12.1033 24.8991 12.6513 24.8991 13.382ZM23.6477 16.1953C23.7112 16.2032 23.7757 16.1963 23.836 16.1749C23.8963 16.1536 23.9509 16.1185 23.9952 16.0723C24.0396 16.0262 24.0725 15.9704 24.0915 15.9092C24.1105 15.8481 24.1149 15.7834 24.1044 15.7203V13.2359C24.1149 13.1727 24.1105 13.108 24.0915 13.0469C24.0725 12.9858 24.0396 12.93 23.9952 12.8839C23.9509 12.8377 23.8963 12.8026 23.836 12.7812C23.7757 12.7599 23.7112 12.7529 23.6477 12.7609H23.3098V16.1953H23.6477Z" fill="white"/>
<path d="M26.5157 15.8309V15.1915H27.2556V15.84C27.2556 16.1049 27.3743 16.2602 27.6483 16.2602C27.9224 16.2602 28.0046 16.0958 28.0046 15.84V15.6573C28.0007 15.5262 27.9665 15.3978 27.9047 15.2821C27.8429 15.1665 27.7552 15.0667 27.6483 14.9906L27.1825 14.5247C26.9802 14.3797 26.8145 14.1893 26.6988 13.9689C26.583 13.7485 26.5203 13.5041 26.5157 13.2551V13.0907C26.5078 12.9447 26.5321 12.7987 26.587 12.6632C26.6418 12.5276 26.7258 12.4058 26.8331 12.3064C26.9404 12.207 27.0682 12.1325 27.2075 12.088C27.3468 12.0436 27.4942 12.0305 27.6392 12.0495C28.4339 12.0495 28.7535 12.4422 28.7535 13.1273V13.5109H28.0228V13.0998C28.0228 12.8258 27.895 12.698 27.6483 12.698C27.5961 12.6936 27.5435 12.7009 27.4944 12.7192C27.4452 12.7376 27.4008 12.7665 27.3641 12.8041C27.3275 12.8416 27.2996 12.8867 27.2824 12.9363C27.2652 12.9858 27.2592 13.0386 27.2647 13.0907V13.1821C27.2647 13.4469 27.4109 13.6022 27.6483 13.8306L28.1598 14.3329C28.3528 14.4767 28.5106 14.6623 28.6214 14.8759C28.7321 15.0895 28.7929 15.3255 28.7992 15.566V15.7944C28.8128 15.9481 28.7917 16.1029 28.7375 16.2474C28.6833 16.3919 28.5974 16.5224 28.4861 16.6293C28.3748 16.7363 28.241 16.8169 28.0944 16.8652C27.9478 16.9135 27.7923 16.9284 27.6392 16.9087C27.4906 16.9303 27.3391 16.9178 27.1961 16.872C27.0531 16.8262 26.9224 16.7483 26.814 16.6444C26.7057 16.5404 26.6225 16.4131 26.5708 16.2721C26.5191 16.1312 26.5003 15.9803 26.5157 15.8309Z" fill="white"/>
<path d="M29.0183 16.8531L29.9317 12.1035H30.8451L31.7585 16.8531H30.9364L30.7903 15.9854H29.9408L29.8038 16.8531H29.0183ZM30.023 15.3461H30.6624L30.3427 13.4462L30.023 15.3461Z" fill="white"/>
<path d="M32.7268 13.8664V16.8531H32.0601V12.1035H32.8364L33.7042 14.8437V12.1035H34.3618V16.8531H33.6676L32.7268 13.8664Z" fill="white"/>
<path d="M34.8184 12.1035H35.613V16.8531H34.8184V12.1035Z" fill="white"/>
<path d="M35.9875 12.1035H38.1066V12.7612H37.449V16.8531H36.6452V12.7612H35.9875V12.1035Z" fill="white"/>
<path d="M37.9971 16.8531L38.9105 12.1035H39.8239L40.7372 16.8531H39.9152L39.7691 15.9854H38.9196L38.7826 16.8531H37.9971ZM39.0018 15.3461H39.6412L39.3306 13.4462L39.0018 15.3461Z" fill="white"/>
<path d="M40.5544 12.1035H42.6735V12.7612H42.0159V16.8531H41.2121V12.7612H40.5544V12.1035Z" fill="white"/>
<path d="M43.0845 12.1035H43.8791V16.8531H43.0845V12.1035Z" fill="white"/>
<path d="M44.345 15.5926V13.3365C44.345 13.0168 44.472 12.7101 44.6981 12.484C44.9242 12.2579 45.2309 12.1309 45.5507 12.1309C45.8704 12.1309 46.1771 12.2579 46.4032 12.484C46.6293 12.7101 46.7563 13.0168 46.7563 13.3365V15.5926C46.7563 15.9124 46.6293 16.219 46.4032 16.4452C46.1771 16.6713 45.8704 16.7983 45.5507 16.7983C45.2309 16.7983 44.9242 16.6713 44.6981 16.4452C44.472 16.219 44.345 15.9124 44.345 15.5926ZM45.9617 15.7114V13.2087C45.9617 12.9164 45.8338 12.7154 45.5415 12.7154C45.2492 12.7154 45.1396 12.9164 45.1396 13.2087V15.7479C45.1396 16.0402 45.2675 16.2411 45.5415 16.2411C45.8155 16.2411 45.9617 16.0402 45.9617 15.7479V15.7114Z" fill="white"/>
<path d="M47.8617 13.8664V16.8531H47.1858V12.1035H47.9713L48.8299 14.8437V12.1035H49.4967V16.8531H48.8025L47.8617 13.8664Z" fill="white"/>
</g>
<defs>
<clipPath id="clip0_1648_94206">
<rect x="0.648438" y="0.75" width="56" height="56" rx="4" fill="white"/>
</clipPath>
</defs>
</svg>
