<svg width="57" height="57" viewBox="0 0 57 57" fill="none" xmlns="http://www.w3.org/2000/svg">
<g clip-path="url(#clip0_2420_243985)">
<path d="M56.5625 0.09375H0.5625V56.0938H56.5625V0.09375Z" fill="#FDB714"/>
<path d="M8.0659 6.51399H5.15845V4.96094H10.0524V6.3334L7.79502 15.6878H5.78147L8.0659 6.51399Z" fill="white"/>
<path d="M15.2172 4.95117H16.0118L16.8244 9.03244H16.1382L15.9756 8.1295H15.2623L15.0998 9.03244H14.3955L15.2172 4.95117ZM15.8944 7.61483L15.6145 5.90828L15.3436 7.61483H15.8944Z" fill="white"/>
<path d="M17.1313 4.95117H18.8108V5.42973H17.9079V6.62161H18.6754V7.13627H17.9079V9.04146H17.1675L17.1313 4.95117Z" fill="white"/>
<path d="M19.1179 4.95117H20.7974V5.42973H19.8944V6.62161H20.6619V7.13627H19.8944V9.04146H19.154L19.1179 4.95117Z" fill="white"/>
<path d="M21.303 8.75297C21.1024 8.45893 21.0069 8.10578 21.0321 7.75072V6.22476C21.0067 5.87532 21.1024 5.52779 21.303 5.24055C21.4184 5.12015 21.5596 5.02753 21.716 4.96965C21.8724 4.91178 22.0399 4.89017 22.2059 4.90647C22.372 4.8888 22.5399 4.90977 22.6965 4.96772C22.8531 5.02568 22.9943 5.11904 23.1088 5.24055C23.3126 5.52663 23.4115 5.87426 23.3887 6.22476V7.75072C23.4099 8.10387 23.3113 8.45382 23.1088 8.74394C22.996 8.86822 22.8554 8.96407 22.6985 9.0237C22.5416 9.08332 22.3728 9.10504 22.2059 9.08706C22.0399 9.10336 21.8724 9.08175 21.716 9.02388C21.5596 8.966 21.4184 8.87337 21.303 8.75297ZM22.54 8.38277C22.6086 8.24261 22.6397 8.08707 22.6303 7.93131V6.0532C22.6391 5.89841 22.6113 5.74372 22.549 5.60173C22.5107 5.54785 22.4587 5.50518 22.3984 5.47819C22.338 5.4512 22.2716 5.44086 22.2059 5.44824C22.1415 5.44056 22.0762 5.45083 22.0172 5.47791C21.9583 5.505 21.908 5.54785 21.8718 5.60173C21.8105 5.74401 21.7827 5.89847 21.7905 6.0532V7.93131C21.7817 8.08609 21.8095 8.24079 21.8718 8.38277C21.906 8.43908 21.9557 8.48434 22.015 8.51316C22.0742 8.54199 22.1405 8.55314 22.2059 8.54529C22.2714 8.55432 22.3381 8.54368 22.3976 8.51475C22.4571 8.48582 22.5066 8.43989 22.54 8.38277Z" fill="white"/>
<path d="M23.8401 4.95135H24.8243C25.1641 4.92694 25.5028 5.01241 25.7904 5.19515C25.9042 5.30136 25.9919 5.43239 26.0467 5.57804C26.1015 5.72369 26.1219 5.88002 26.1065 6.03487C26.1166 6.25179 26.0764 6.4681 25.9891 6.66692C25.9094 6.83164 25.7709 6.96052 25.6008 7.0281L26.1697 9.03262H25.4202L24.9326 7.16354H24.5805V9.04164H23.8401V4.95135ZM24.8153 6.70305C24.8964 6.71113 24.9783 6.70248 25.056 6.67763C25.1336 6.65278 25.2054 6.61226 25.2667 6.55857C25.3686 6.42083 25.4167 6.2507 25.4022 6.08002C25.4189 5.91461 25.3774 5.74854 25.2848 5.61049C25.2304 5.55435 25.1638 5.51135 25.0903 5.48475C25.0168 5.45816 24.9382 5.44866 24.8604 5.45699H24.5805V6.70305H24.8153Z" fill="white"/>
<path d="M26.5491 4.95124H27.5152C27.7809 4.93866 28.046 4.9849 28.2917 5.08668C28.4697 5.16851 28.6112 5.31322 28.689 5.49301C28.7783 5.72607 28.8182 5.9751 28.8064 6.22438V7.70519C28.8167 7.96323 28.7769 8.22081 28.689 8.46366C28.615 8.65022 28.473 8.80184 28.2917 8.88804C28.0575 8.99671 27.8002 9.04631 27.5423 9.03251H26.5491V4.95124ZM27.5242 8.51783C27.6513 8.5284 27.7783 8.49666 27.8854 8.42755C27.9593 8.36984 28.0079 8.28564 28.0209 8.19277C28.0331 8.03952 28.0331 7.88554 28.0209 7.73228V6.17021C28.0327 6.03201 28.0327 5.89305 28.0209 5.75485C28.0108 5.71159 27.992 5.67083 27.9656 5.63511C27.9392 5.59939 27.9058 5.56947 27.8674 5.54718C27.7575 5.49576 27.6361 5.47396 27.5152 5.48397H27.2895V8.51783H27.5242Z" fill="white"/>
<path d="M29.8175 4.95117H30.6121L31.4338 9.03244H30.7385L30.585 8.1295H29.8717L29.7001 9.03244H29.0049L29.8175 4.95117ZM30.5038 7.61483L30.2238 5.90828L29.9439 7.61483H30.5038Z" fill="white"/>
<path d="M31.7407 4.95068H32.752C33.0705 4.92895 33.3874 5.01134 33.6549 5.18544C33.7662 5.2815 33.8523 5.40328 33.9058 5.54017C33.9593 5.67707 33.9786 5.82497 33.9619 5.971C33.9619 6.48568 33.7633 6.77461 33.375 6.87394C33.8446 6.96423 34.0793 7.29831 34.0793 7.88522C34.0939 8.04739 34.0759 8.21084 34.0262 8.36592C33.9766 8.521 33.8964 8.66458 33.7904 8.78815C33.6772 8.89381 33.5433 8.97483 33.3972 9.02612C33.2512 9.07741 33.096 9.09784 32.9416 9.08612H31.7407V4.95068ZM32.7339 6.62112C32.8138 6.63208 32.8951 6.62477 32.9718 6.59975C33.0484 6.57472 33.1184 6.53263 33.1764 6.47664C33.2677 6.33799 33.3091 6.17241 33.2938 6.00711C33.3043 5.92924 33.2958 5.84999 33.2691 5.7761C33.2423 5.70221 33.1982 5.63587 33.1403 5.58273C32.9859 5.49809 32.8101 5.46043 32.6346 5.47439H32.4811V6.62112H32.7339ZM32.7339 8.50825C32.8158 8.51685 32.8986 8.50758 32.9765 8.48108C33.0545 8.45458 33.1258 8.41148 33.1854 8.35475C33.2781 8.1997 33.3221 8.02041 33.3118 7.84007C33.3277 7.65233 33.28 7.4647 33.1764 7.30734C33.116 7.24542 33.0424 7.19785 32.9611 7.16816C32.8799 7.13847 32.793 7.12741 32.7069 7.13578H32.445V8.50825H32.7339Z" fill="white"/>
<path d="M34.4497 4.95117H35.1901V8.56291H36.1833V9.04146H34.4497V4.95117Z" fill="white"/>
<path d="M36.4812 4.95117H38.1877V5.47488H37.2126V6.64869H37.971V7.17238H37.2126V8.52678H38.1877V9.04146H36.4812V4.95117Z" fill="white"/>
<path d="M40.2555 4.95117H41.0501L41.8988 9.04146H41.1765L40.9959 8.13853H40.2826L40.111 9.04146H39.4158L40.2555 4.95117ZM40.9417 7.61483L40.6618 5.90828L40.3819 7.61483H40.9417Z" fill="white"/>
<path d="M42.1787 4.95117H42.6934L43.6866 7.28074V4.95117H44.3096V9.04146H43.813L42.8017 6.59451V9.04146H42.1697L42.1787 4.95117Z" fill="white"/>
<path d="M44.8245 4.95124H45.7906C46.0563 4.93866 46.3214 4.9849 46.5671 5.08668C46.7432 5.1712 46.8839 5.31507 46.9644 5.49301C47.0537 5.72607 47.0936 5.9751 47.0818 6.22438V7.70519C47.0921 7.96323 47.0523 8.22081 46.9644 8.46366C46.8903 8.65022 46.7484 8.80184 46.5671 8.88804C46.3329 8.99671 46.0756 9.04631 45.8177 9.03251H44.8245V4.95124ZM45.7996 8.51783C45.924 8.52995 46.0486 8.498 46.1518 8.42755C46.1908 8.40053 46.2238 8.36571 46.2486 8.3253C46.2735 8.28489 46.2897 8.23977 46.2962 8.19277C46.3085 8.03952 46.3085 7.88554 46.2962 7.73228V6.17021C46.3134 6.03229 46.3134 5.89277 46.2962 5.75485C46.2878 5.71215 46.2706 5.67166 46.2457 5.63592C46.2208 5.60019 46.1889 5.56998 46.1518 5.54718C46.0416 5.49692 45.9205 5.47518 45.7996 5.48397H45.5739V8.51783H45.7996Z" fill="white"/>
<path d="M14.8108 15.4079C14.621 15.106 14.5296 14.7527 14.5489 14.3966V12.9429C14.5258 12.5836 14.6175 12.2263 14.8108 11.9226C15.0501 11.7088 15.3575 11.5868 15.6783 11.5786C15.9991 11.5703 16.3125 11.6762 16.5625 11.8774C16.7545 12.1373 16.8445 12.4586 16.8153 12.7804V13.1235H16.102V12.7714C16.1082 12.6571 16.1082 12.5425 16.102 12.4282C16.0881 12.3521 16.0501 12.2825 15.9936 12.2296C15.9204 12.1691 15.8263 12.1399 15.7318 12.1483C15.6346 12.1421 15.5385 12.1709 15.4609 12.2296C15.3991 12.2907 15.358 12.3696 15.3435 12.4553C15.332 12.5754 15.332 12.6964 15.3435 12.8165V14.6224C15.3303 14.7929 15.3614 14.964 15.4338 15.119C15.4699 15.1707 15.5188 15.2121 15.5759 15.239C15.6329 15.266 15.696 15.2775 15.7588 15.2725C15.8532 15.279 15.9466 15.25 16.0207 15.1912C16.0786 15.1332 16.1139 15.0563 16.12 14.9745C16.1315 14.8574 16.1315 14.7395 16.12 14.6224V14.2522H16.8333V14.5862C16.8505 14.9055 16.765 15.2219 16.5895 15.4892C16.4777 15.6139 16.3367 15.7089 16.1791 15.7656C16.0215 15.8224 15.8523 15.8391 15.6866 15.8142C15.5189 15.8203 15.3522 15.7866 15.2 15.716C15.0478 15.6454 14.9145 15.5398 14.8108 15.4079Z" fill="white"/>
<path d="M17.2217 11.625H17.9621V15.1916H18.9553V15.7063H17.2217V11.625Z" fill="white"/>
<path d="M19.2441 11.625H20.9597V12.1487H19.9845V13.3225H20.752V13.8372H19.9845V15.1916H20.9687V15.7063H19.2441V11.625Z" fill="white"/>
<path d="M21.9169 11.625H22.7115L23.5241 15.7063H22.8379L22.6754 14.8033H21.962L21.7995 15.7063H21.1313L21.9169 11.625ZM22.5941 14.2887L22.3142 12.5731L22.0343 14.2887H22.5941Z" fill="white"/>
<path d="M23.8401 11.625H24.3638L25.357 13.9546V11.625H25.971V15.7063H25.4654L24.4721 13.2683V15.7063H23.8401V11.625Z" fill="white"/>
<path d="M27.6055 11.625H29.312V12.1487H28.3549V13.3225H29.1224V13.8372H28.3549V15.1916H29.3391V15.7063H27.6055V11.625Z" fill="white"/>
<path d="M29.655 11.625H30.1607L31.1539 13.9546V11.625H31.7679V15.7063H31.2713L30.278 13.2683V15.7063H29.637L29.655 11.625Z" fill="white"/>
<path d="M32.3005 11.625H34.0161V12.1487H33.05V13.3225H33.7723V13.8372H33.05V15.1916H34.0251V15.7063H32.3005V11.625Z" fill="white"/>
<path d="M34.3594 11.6252H35.3436C35.6834 11.6008 36.0221 11.6862 36.3097 11.869C36.4234 11.9752 36.5111 12.1062 36.566 12.2519C36.6208 12.3975 36.6412 12.5538 36.6257 12.7087C36.6349 12.9255 36.5948 13.1416 36.5084 13.3407C36.4703 13.4223 36.4163 13.4955 36.3497 13.5559C36.283 13.6164 36.205 13.6629 36.1201 13.6929L36.6889 15.7064H35.9485L35.4519 13.8374H35.0998V15.7064H34.3594V11.6252ZM35.3436 13.3678C35.4234 13.3775 35.5044 13.3696 35.5808 13.3446C35.6572 13.3197 35.7273 13.2783 35.786 13.2234C35.8894 13.0864 35.9377 12.9157 35.9215 12.7448C35.9367 12.5795 35.8953 12.4139 35.8041 12.2753C35.7488 12.2208 35.6819 12.1794 35.6084 12.1544C35.5349 12.1294 35.4567 12.1213 35.3797 12.1308H35.0998V13.3678H35.3436Z" fill="white"/>
<path d="M37.2757 15.362C37.0886 15.0493 37.0005 14.6874 37.0229 14.3237V12.9512C36.9994 12.5805 37.0909 12.2116 37.2847 11.8948C37.3962 11.7683 37.5364 11.6703 37.6934 11.6091C37.8505 11.5478 38.02 11.525 38.1877 11.5426C38.3509 11.521 38.5169 11.5366 38.6733 11.5882C38.8296 11.6398 38.9723 11.7261 39.0906 11.8406C39.2851 12.0996 39.3783 12.4207 39.3525 12.7435V12.9602H38.6391V12.7255C38.6503 12.6084 38.6503 12.4904 38.6391 12.3733C38.6338 12.3341 38.6206 12.2963 38.6005 12.2622C38.5803 12.2281 38.5535 12.1983 38.5218 12.1747C38.445 12.1219 38.3528 12.0965 38.2599 12.1024C38.2096 12.0976 38.1587 12.1031 38.1106 12.1186C38.0625 12.1341 38.018 12.1594 37.98 12.1927C37.9198 12.2585 37.8791 12.3398 37.8626 12.4275C37.8515 12.5476 37.8515 12.6685 37.8626 12.7887V14.5043C37.8563 14.6802 37.887 14.8556 37.9529 15.0189C37.9889 15.0784 38.0412 15.1262 38.1037 15.1566C38.1662 15.187 38.2361 15.1988 38.3051 15.1905C38.3748 15.1968 38.445 15.1832 38.5073 15.1512C38.5696 15.1192 38.6216 15.0702 38.6572 15.0099C38.7318 14.8394 38.7658 14.654 38.7565 14.4681V14.0799H38.3141V13.6103H39.4247V15.6871H38.9461L38.892 15.2898C38.8404 15.4282 38.746 15.5465 38.6226 15.6277C38.4993 15.7089 38.3532 15.7487 38.2057 15.7413C38.0308 15.7715 37.8508 15.752 37.6864 15.6849C37.522 15.6179 37.3797 15.506 37.2757 15.362Z" fill="white"/>
<path d="M40.3458 14.1442L39.5151 11.625H40.2104L40.716 13.2412L41.1946 11.625H41.8989L41.0772 14.1442V15.7063H40.3729L40.3458 14.1442Z" fill="white"/>
<path d="M28.5895 27.3711C26.959 27.3711 25.3652 27.8546 24.0095 28.7604C22.6538 29.6663 21.5972 30.9538 20.9732 32.4601C20.3493 33.9665 20.186 35.624 20.5041 37.2232C20.8222 38.8223 21.6073 40.2912 22.7603 41.4441C23.9132 42.597 25.3821 43.3822 26.9812 43.7003C28.5804 44.0184 30.2379 43.8551 31.7443 43.2312C33.2506 42.6072 34.5381 41.5506 35.444 40.1949C36.3498 38.8392 36.8333 37.2453 36.8333 35.6149C36.8333 33.4285 35.9648 31.3317 34.4187 29.7856C32.8727 28.2396 30.7759 27.3711 28.5895 27.3711ZM27.9755 30.6307C27.9868 30.4749 28.0562 30.3291 28.1699 30.2221C28.2836 30.1151 28.4334 30.0547 28.5895 30.0528C28.745 30.0567 28.8937 30.1178 29.0069 30.2244C29.1202 30.331 29.1902 30.4757 29.2035 30.6307V33.4208C29.1902 33.5758 29.1202 33.7204 29.0069 33.827C28.8937 33.9337 28.745 33.9948 28.5895 33.9986C28.434 33.9948 28.2853 33.9337 28.1721 33.827C28.0588 33.7204 27.9888 33.5758 27.9755 33.4208V30.6307ZM28.5895 39.8406C27.5615 39.8435 26.5666 39.477 25.7861 38.8079C25.0056 38.1389 24.4914 37.2117 24.3371 36.1953C24.1828 35.1789 24.3988 34.1409 24.9456 33.2703C25.4924 32.3998 26.3338 31.7546 27.3164 31.4524V33.0505C26.7505 33.3359 26.2974 33.8038 26.0303 34.3786C25.7631 34.9533 25.6976 35.6013 25.8443 36.2179C25.991 36.8345 26.3413 37.3836 26.8386 37.7765C27.3359 38.1693 27.9512 38.383 28.585 38.383C29.2188 38.383 29.834 38.1693 30.3313 37.7765C30.8287 37.3836 31.179 36.8345 31.3257 36.2179C31.4723 35.6013 31.4068 34.9533 31.1397 34.3786C30.8726 33.8038 30.4195 33.3359 29.8536 33.0505V31.4524C30.8354 31.7544 31.6763 32.3988 32.2231 33.2684C32.77 34.138 32.9866 35.175 32.8335 36.1908C32.6804 37.2066 32.1678 38.1337 31.389 38.8035C30.6101 39.4733 29.6168 39.8413 28.5895 39.8406Z" fill="white"/>
<path d="M19.1178 35.5424C19.1161 35.371 19.0502 35.2064 18.9333 35.0811C18.8163 34.9558 18.6566 34.8788 18.4857 34.8652H14.874C14.7038 34.8807 14.5453 34.9583 14.4288 35.0832C14.3122 35.2081 14.2457 35.3716 14.2419 35.5424C14.2437 35.7139 14.3095 35.8784 14.4265 36.0038C14.5434 36.1291 14.7031 36.2061 14.874 36.2196H18.4857C18.6574 36.2082 18.8183 36.1318 18.9357 36.006C19.0531 35.8802 19.1182 35.7145 19.1178 35.5424Z" fill="white"/>
<path d="M42.9371 35.5424C42.9334 35.3716 42.8669 35.2081 42.7503 35.0832C42.6337 34.9583 42.4752 34.8807 42.3051 34.8652H38.6933C38.5137 34.8652 38.3415 34.9366 38.2145 35.0636C38.0875 35.1906 38.0161 35.3628 38.0161 35.5424C38.0161 35.722 38.0875 35.8943 38.2145 36.0213C38.3415 36.1483 38.5137 36.2196 38.6933 36.2196H42.3051C42.476 36.2061 42.6356 36.1291 42.7526 36.0038C42.8696 35.8784 42.9354 35.7139 42.9371 35.5424Z" fill="white"/>
<path d="M28.5896 49.8915C28.761 49.8898 28.9256 49.8239 29.0509 49.707C29.1762 49.59 29.2532 49.4303 29.2668 49.2594V45.6477C29.2513 45.4775 29.1737 45.319 29.0488 45.2025C28.9238 45.0859 28.7604 45.0194 28.5896 45.0156C28.4181 45.0173 28.2535 45.0832 28.1282 45.2001C28.0029 45.3171 27.9259 45.4768 27.9124 45.6477V49.2594C27.9238 49.4311 28.0002 49.592 28.126 49.7094C28.2518 49.8267 28.4175 49.8919 28.5896 49.8915Z" fill="white"/>
<path d="M41.0411 42.6668C41.1269 42.517 41.1522 42.3402 41.1119 42.1723C41.0716 42.0045 40.9688 41.8584 40.8244 41.7639L37.6912 39.958C37.5368 39.8847 37.3604 39.8725 37.1974 39.9238C37.0344 39.9752 36.8968 40.0862 36.8123 40.2348C36.7278 40.3833 36.7025 40.5583 36.7416 40.7247C36.7807 40.891 36.8812 41.0365 37.0231 41.1318L40.1562 42.9377C40.3143 43.0134 40.4952 43.0267 40.6626 42.9748C40.83 42.9229 40.9717 42.8097 41.0592 42.6578" fill="white"/>
<path d="M21.4655 47.9938C21.6142 48.0804 21.7903 48.1071 21.958 48.0685C22.1258 48.0299 22.2725 47.929 22.3684 47.7861L24.1743 44.6529C24.2641 44.4972 24.2884 44.3123 24.2418 44.1387C24.1953 43.9652 24.0817 43.8172 23.926 43.7274C23.7703 43.6376 23.5854 43.6133 23.4118 43.6599C23.2383 43.7064 23.0903 43.82 23.0005 43.9757L21.1946 47.1089C21.1167 47.2666 21.1022 47.4482 21.1543 47.6162C21.2064 47.7843 21.321 47.9259 21.4745 48.0118" fill="white"/>
<path d="M35.7409 47.9862C35.8928 47.8987 36.0055 47.7565 36.0559 47.5886C36.1063 47.4207 36.0905 47.2398 36.0117 47.0832L34.2059 43.95C34.1072 43.8105 33.9613 43.7117 33.7952 43.6718C33.6291 43.6319 33.4541 43.6538 33.3029 43.7333C33.1542 43.8237 33.0447 43.9666 32.9963 44.1338C32.9478 44.301 32.9638 44.4803 33.0411 44.6363L34.847 47.7604C34.9443 47.9015 35.0903 48.0016 35.2569 48.0416C35.4236 48.0816 35.5991 48.0586 35.7499 47.9771" fill="white"/>
<path d="M16.1472 42.703C16.2361 42.8534 16.379 42.9642 16.5468 43.0129C16.7146 43.0615 16.8946 43.0444 17.0502 42.9649L20.1834 41.159C20.339 41.0692 20.4526 40.9213 20.4992 40.7477C20.5458 40.5741 20.5215 40.3892 20.4317 40.2335C20.3419 40.0778 20.1939 39.9642 20.0203 39.9177C19.8468 39.8711 19.6618 39.8954 19.5062 39.9852L16.382 41.7911C16.244 41.8909 16.1464 42.0368 16.1066 42.2024C16.0669 42.368 16.0877 42.5424 16.1653 42.694" fill="white"/>
<path d="M28.5896 26.0811C28.7604 26.0774 28.9238 26.0109 29.0488 25.8943C29.1737 25.7778 29.2513 25.6193 29.2668 25.4491V21.8374C29.2668 21.6578 29.1954 21.4855 29.0684 21.3585C28.9414 21.2315 28.7692 21.1602 28.5896 21.1602C28.4099 21.1602 28.2377 21.2315 28.1107 21.3585C27.9837 21.4855 27.9124 21.6578 27.9124 21.8374V25.4491C27.9259 25.62 28.0029 25.7796 28.1282 25.8966C28.2535 26.0136 28.4181 26.0794 28.5896 26.0811Z" fill="white"/>
<path d="M20.3729 30.8387C20.4565 30.6884 20.4806 30.5122 20.4405 30.345C20.4003 30.1778 20.2989 30.0317 20.1562 29.9357L17.023 28.1299C16.8686 28.0566 16.6922 28.0444 16.5292 28.0957C16.3662 28.1471 16.2286 28.2581 16.1441 28.4066C16.0595 28.5552 16.0343 28.7302 16.0734 28.8965C16.1125 29.0629 16.213 29.2084 16.3548 29.3037L19.488 31.1096C19.6461 31.1853 19.827 31.1986 19.9944 31.1467C20.1618 31.0948 20.3035 30.9815 20.391 30.8297" fill="white"/>
<path d="M33.2938 27.3258C33.4419 27.4146 33.6187 27.4426 33.7871 27.4039C33.9554 27.3651 34.1022 27.2627 34.1967 27.1181L36.0026 23.9849C36.047 23.9079 36.0759 23.8228 36.0875 23.7346C36.0991 23.6463 36.0931 23.5567 36.0701 23.4707C36.047 23.3848 36.0073 23.3043 35.9531 23.2337C35.8989 23.1631 35.8313 23.1039 35.7543 23.0594C35.6772 23.015 35.5921 22.9861 35.5039 22.9745C35.4157 22.9629 35.326 22.9688 35.2401 22.9919C35.1541 23.015 35.0736 23.0547 35.003 23.1089C34.9324 23.1631 34.8732 23.2307 34.8287 23.3077L33.0229 26.4409C32.9471 26.599 32.9339 26.7798 32.9858 26.9473C33.0377 27.1147 33.1509 27.2563 33.3028 27.3439" fill="white"/>
<path d="M23.8401 27.3343C23.9921 27.2469 24.1048 27.1046 24.1552 26.9367C24.2055 26.7688 24.1897 26.588 24.111 26.4314L22.3052 23.3072C22.2098 23.1654 22.0644 23.0649 21.898 23.0258C21.7316 22.9867 21.5566 23.0119 21.4081 23.0965C21.2596 23.181 21.1485 23.3186 21.0972 23.4816C21.0459 23.6446 21.0581 23.821 21.1313 23.9754L22.9372 27.0996C23.0346 27.2407 23.1812 27.3403 23.3483 27.3788C23.5155 27.4172 23.6909 27.3917 23.8401 27.3072" fill="white"/>
<path d="M36.7973 30.8289C36.8862 30.9792 37.0285 31.0906 37.1958 31.1407C37.3631 31.1909 37.5432 31.1763 37.7002 31.0998L40.8244 29.2939C40.9662 29.1986 41.0667 29.0531 41.1058 28.8868C41.1449 28.7204 41.1197 28.5454 41.0351 28.3969C40.9506 28.2484 40.813 28.1373 40.65 28.086C40.487 28.0346 40.3106 28.0468 40.1562 28.1201L37.023 29.926C36.8818 30.0233 36.7822 30.17 36.7438 30.3371C36.7053 30.5042 36.7309 30.6797 36.8153 30.8289" fill="white"/>
<g style="mix-blend-mode:hue">
<rect x="0.5625" y="0.09375" width="56" height="56" fill="#D9D9D9"/>
</g>
</g>
<defs>
<clipPath id="clip0_2420_243985">
<rect x="0.5625" y="0.09375" width="56" height="56" rx="4" fill="white"/>
</clipPath>
</defs>
</svg>
