<svg width="57" height="57" viewBox="0 0 57 57" fill="none" xmlns="http://www.w3.org/2000/svg">
<g clip-path="url(#clip0_1648_94182)">
<path d="M56.3672 0.171875H0.367188V56.1719H56.3672V0.171875Z" fill="#F36E24"/>
<path d="M5.56437 15.1833C5.10345 14.6047 4.87429 13.8753 4.92152 13.137V12.9741H6.85006C6.82713 13.3244 6.87644 13.6757 6.99493 14.0062C7.06035 14.112 7.15505 14.1965 7.26754 14.2496C7.38004 14.3026 7.5055 14.3219 7.62872 14.305C7.7201 14.3122 7.81189 14.2979 7.89677 14.2633C7.98165 14.2287 8.05728 14.1748 8.11764 14.1058C8.25309 13.9135 8.3344 13.6884 8.35306 13.4539C8.39943 13.0209 8.42059 12.5856 8.41643 12.1501V11.0636C8.28559 11.2663 8.09609 11.4242 7.87319 11.5163C7.60457 11.6323 7.31468 11.6909 7.02209 11.6884C6.67848 11.7109 6.3353 11.6383 6.03023 11.4786C5.72517 11.3189 5.47001 11.0782 5.29275 10.783C4.90048 10.0821 4.71229 9.28547 4.74949 8.4832C4.74949 6.06876 5.70924 4.86154 7.62872 4.86154C8.03677 4.82929 8.44665 4.89458 8.82449 5.05201C9.20232 5.20944 9.53728 5.4545 9.80171 5.76695C10.3026 6.50058 10.5477 7.3789 10.4989 8.2659V12.1592C10.5563 13.1081 10.3327 14.0529 9.85604 14.8754C9.59633 15.224 9.24992 15.4985 8.85122 15.6716C8.45252 15.8448 8.01544 15.9105 7.58345 15.8623C7.21828 15.8943 6.85045 15.8504 6.50302 15.7336C6.15558 15.6167 5.83603 15.4294 5.56437 15.1833ZM8.41643 9.64213V7.93995C8.43252 7.564 8.37405 7.18859 8.2444 6.83534C8.19837 6.71082 8.11388 6.6042 8.00318 6.53094C7.89247 6.45768 7.76132 6.42159 7.62872 6.4279C7.48945 6.41773 7.35086 6.4552 7.2357 6.53417C7.12053 6.61314 7.03563 6.72892 6.99493 6.8625C6.86599 7.31859 6.81096 7.7924 6.83195 8.2659C6.82835 8.61655 6.84347 8.96714 6.87722 9.31618C6.885 9.53052 6.96115 9.73674 7.09453 9.9047C7.16144 9.98183 7.24531 10.0424 7.33956 10.0817C7.43382 10.1209 7.53589 10.1378 7.63777 10.1311C7.79939 10.1265 7.95685 10.0788 8.09378 9.99278C8.23071 9.90681 8.34212 9.78573 8.41643 9.64213Z" fill="white"/>
<path d="M12.8711 9.0717V4.98828H13.6045V9.0717H12.8711Z" fill="white"/>
<path d="M13.9756 9.0717V4.98828H14.4917L15.4876 7.31519V4.98828H16.1033V9.0717H15.6144L14.6094 6.62708V9.0717H13.9756Z" fill="white"/>
<path d="M16.4656 9.07178V4.98836H17.4253C17.6917 4.97574 17.9576 5.02211 18.204 5.12416C18.3852 5.20693 18.5277 5.35599 18.6024 5.54066C18.6894 5.76872 18.7294 6.01201 18.7201 6.25593V7.74987C18.729 7.99966 18.689 8.2488 18.6024 8.48326C18.5297 8.67286 18.3916 8.8302 18.213 8.92691C17.9735 9.03146 17.7136 9.08097 17.4525 9.07178H16.4656ZM17.208 8.54664H17.4344C17.5648 8.56003 17.6959 8.52806 17.8056 8.4561C17.8836 8.38984 17.9324 8.2955 17.9414 8.19352C17.9522 8.05188 17.9522 7.90962 17.9414 7.76798V6.17445C17.9529 6.0419 17.9529 5.90861 17.9414 5.77606C17.9325 5.73105 17.9142 5.68842 17.8877 5.65098C17.8611 5.61353 17.827 5.5821 17.7875 5.55876C17.6783 5.50367 17.5564 5.47866 17.4344 5.48632H17.2171L17.208 8.54664Z" fill="white"/>
<path d="M20.1235 9.07295C19.8761 9.08798 19.63 9.02802 19.4172 8.90092C19.2501 8.78997 19.1281 8.62301 19.0732 8.4301C19.004 8.19188 18.9705 7.94475 18.9736 7.69672V4.98047H19.707V7.82348C19.707 7.95023 19.707 8.077 19.707 8.18565C19.722 8.28486 19.7626 8.37845 19.8247 8.45728C19.8609 8.49445 19.9048 8.52339 19.9532 8.54213C20.0016 8.56088 20.0535 8.56899 20.1054 8.56592C20.1587 8.571 20.2126 8.56385 20.2628 8.54502C20.313 8.5262 20.3582 8.4962 20.3951 8.45728C20.4572 8.37845 20.4977 8.28486 20.5128 8.18565C20.5225 8.06512 20.5225 7.944 20.5128 7.82348V4.98047H21.2281V7.69672C21.2339 7.94429 21.2034 8.19137 21.1375 8.4301C21.0826 8.62301 20.9606 8.78997 20.7935 8.90092C20.5908 9.02018 20.3585 9.07981 20.1235 9.07295Z" fill="white"/>
<path d="M22.6222 9.07222C22.4109 9.0772 22.2019 9.02728 22.0156 8.92735C21.8463 8.8302 21.7129 8.68093 21.6353 8.5018C21.5468 8.28629 21.5007 8.05572 21.4995 7.82274L22.1333 7.69598C22.1384 7.83975 22.1597 7.9825 22.1967 8.12153C22.2187 8.2238 22.2689 8.31788 22.3415 8.39315C22.3751 8.42828 22.4161 8.45544 22.4616 8.47268C22.507 8.48991 22.5557 8.49677 22.6041 8.49275C22.6521 8.49799 22.7007 8.49074 22.7451 8.47171C22.7896 8.45267 22.8283 8.4225 22.8576 8.3841C22.9112 8.30409 22.9367 8.20854 22.9301 8.11248C22.9393 7.95865 22.898 7.80602 22.8124 7.67788C22.7209 7.54809 22.6111 7.4322 22.4864 7.33382L21.9794 6.88111C21.8402 6.76449 21.7236 6.62331 21.6353 6.46461C21.5395 6.29018 21.4926 6.09311 21.4995 5.89421C21.488 5.75655 21.5081 5.61807 21.5583 5.48939C21.6085 5.3607 21.6875 5.24521 21.7892 5.15176C21.8936 5.05904 22.0155 4.98807 22.1476 4.94298C22.2797 4.8979 22.4195 4.87961 22.5588 4.8892C22.7226 4.8851 22.8855 4.91277 23.0387 4.97068C23.1567 5.02676 23.2592 5.11065 23.3375 5.21515C23.418 5.32346 23.4764 5.4465 23.5095 5.57731C23.5483 5.71319 23.5726 5.85281 23.582 5.99381L22.9482 6.10245C22.9394 5.99002 22.9242 5.87819 22.9029 5.76745C22.8842 5.67757 22.8438 5.59362 22.7852 5.52299C22.7518 5.49394 22.7131 5.47178 22.6711 5.45779C22.6292 5.4438 22.5849 5.43827 22.5407 5.4415C22.4929 5.43865 22.4451 5.44698 22.4011 5.46584C22.3571 5.48471 22.3181 5.51357 22.2872 5.55015C22.2244 5.62634 22.1922 5.72314 22.1967 5.82177C22.1907 5.9402 22.2224 6.05747 22.2872 6.15677C22.355 6.26147 22.4373 6.35598 22.5317 6.43745L23.0387 6.88111C23.2093 7.0228 23.356 7.19093 23.4733 7.37909C23.5977 7.58667 23.6605 7.8253 23.6544 8.0672C23.6593 8.24867 23.6122 8.42776 23.5186 8.5833C23.4377 8.73511 23.3152 8.86073 23.1655 8.94546C22.9975 9.03166 22.811 9.07519 22.6222 9.07222Z" fill="white"/>
<path d="M24.2339 9.0717V5.53152H23.582V4.98828H25.6192V5.53152H24.9764V9.0717H24.2339Z" fill="white"/>
<path d="M25.6917 9.07122V4.9878H26.6695C26.909 4.97863 27.1481 5.01236 27.3757 5.0874C27.5543 5.14229 27.706 5.26172 27.8013 5.42239C27.9125 5.61776 27.9658 5.84069 27.9552 6.06523C27.97 6.21275 27.97 6.36138 27.9552 6.50889C27.9262 6.62953 27.8739 6.74334 27.8013 6.84389C27.7213 6.94006 27.6186 7.01475 27.5025 7.0612L28.0729 9.07122H27.3214L26.8325 7.197H26.4884V9.07122H25.6917ZM26.4431 6.7262H26.6695C26.7905 6.73219 26.9113 6.71051 27.0226 6.66281C27.1063 6.62215 27.1712 6.55082 27.2037 6.46362C27.2435 6.3503 27.262 6.23056 27.258 6.11051C27.272 5.94772 27.2305 5.78499 27.1403 5.64875C27.0862 5.59189 27.0195 5.54838 26.9457 5.52167C26.8718 5.49496 26.7928 5.48578 26.7148 5.49483H26.4431V6.7262Z" fill="white"/>
<path d="M28.8154 9.0717V7.51439L27.9915 4.98828H28.6886L29.1866 6.59992L29.6665 4.98828H30.3455L29.5307 7.51439V9.0717H28.8154Z" fill="white"/>
<path d="M30.3818 9.7246L30.3184 9.48013C30.4048 9.45156 30.4827 9.40174 30.5448 9.33526C30.6121 9.25397 30.6475 9.151 30.6444 9.04553H30.2822V8.35742H30.9522V8.98215C30.9595 9.16231 30.9087 9.34005 30.8074 9.48919C30.6994 9.61751 30.5479 9.70135 30.3818 9.7246Z" fill="white"/>
<path d="M32.1653 9.0717V4.98828H32.9349V9.0717H32.1653Z" fill="white"/>
<path d="M33.27 9.07135V4.98793H33.8404L34.7459 7.26052V4.93359H35.3615V9.07135H34.8726L33.8676 6.62673V9.07135H33.27Z" fill="white"/>
<path d="M35.76 9.0717V4.98828H36.2761L37.2721 7.31519V4.98828H37.8877V9.0717H37.3898L36.3938 6.62708V9.0717H35.76Z" fill="white"/>
<path d="M39.3544 9.07158C39.1113 9.08338 38.8698 9.02693 38.6572 8.90861C38.4886 8.79917 38.3612 8.6367 38.295 8.44684C38.2189 8.2162 38.1822 7.9744 38.1864 7.73157V6.20141C38.1805 5.96143 38.2173 5.72231 38.295 5.49519C38.3629 5.30867 38.4901 5.14961 38.6572 5.04248C38.8757 4.94116 39.1136 4.88867 39.3544 4.88867C39.5952 4.88867 39.8331 4.94116 40.0516 5.04248C40.2231 5.14453 40.3518 5.30539 40.4137 5.49519C40.4996 5.72042 40.5396 5.96052 40.5314 6.20141V7.73157C40.5382 7.97237 40.4982 8.21219 40.4137 8.43779C40.3494 8.63099 40.2218 8.79686 40.0516 8.90861C39.8389 9.02693 39.5974 9.08338 39.3544 9.07158ZM39.3544 8.51928C39.4519 8.52723 39.5489 8.49814 39.626 8.43779C39.6889 8.38093 39.7304 8.30424 39.7437 8.22049C39.7531 8.11809 39.7531 8.01505 39.7437 7.91265V6.02938C39.7539 5.92702 39.7539 5.8239 39.7437 5.72154C39.7304 5.63779 39.6889 5.5611 39.626 5.50424C39.5457 5.45129 39.4504 5.42587 39.3544 5.4318C39.2585 5.42713 39.1636 5.45245 39.0827 5.50424C39.0229 5.56343 38.9819 5.63906 38.9651 5.72154C38.9549 5.8239 38.9549 5.92702 38.9651 6.02938V7.91265C38.9557 8.01505 38.9557 8.11809 38.9651 8.22049C38.9783 8.30424 39.0198 8.38093 39.0827 8.43779C39.1183 8.47336 39.1607 8.50132 39.2074 8.51999C39.2541 8.53867 39.3041 8.54767 39.3544 8.54644V8.51928Z" fill="white"/>
<path d="M41.4279 9.0717L40.604 4.98828H41.265L41.7991 7.87655L42.3062 4.98828H42.9853L42.1613 9.0717H41.4279Z" fill="white"/>
<path d="M42.7769 9.0717L43.5917 4.98828H44.3885L45.2124 9.0717H44.5153L44.3613 8.16629H43.6461L43.4831 9.0717H42.7769ZM43.6823 7.65019H44.2436L43.9629 5.93896L43.6823 7.65019Z" fill="white"/>
<path d="M45.6109 9.0717V5.53152H44.959V4.98828H46.9962V5.53152H46.3533V9.0717H45.6109Z" fill="white"/>
<path d="M47.0867 9.0717V4.98828H47.8291V9.0717H47.0867Z" fill="white"/>
<path d="M49.3048 9.07158C49.0618 9.08338 48.8203 9.02693 48.6077 8.90861C48.439 8.79917 48.3116 8.6367 48.2455 8.44684C48.1694 8.2162 48.1327 7.9744 48.1368 7.73157V6.20141C48.131 5.96143 48.1678 5.72231 48.2455 5.49519C48.3133 5.30867 48.4406 5.14961 48.6077 5.04248C48.8261 4.94116 49.064 4.88867 49.3048 4.88867C49.5456 4.88867 49.7836 4.94116 50.002 5.04248C50.1736 5.14453 50.3023 5.30539 50.3642 5.49519C50.45 5.72042 50.49 5.96052 50.4819 6.20141V7.73157C50.4886 7.97237 50.4486 8.21219 50.3642 8.43779C50.2998 8.63099 50.1722 8.79686 50.002 8.90861C49.7894 9.02693 49.5479 9.08338 49.3048 9.07158ZM49.3048 8.51928C49.4024 8.52723 49.4994 8.49814 49.5765 8.43779C49.6394 8.38093 49.6809 8.30424 49.6942 8.22049C49.7035 8.11809 49.7035 8.01505 49.6942 7.91265V6.02938C49.7043 5.92702 49.7043 5.8239 49.6942 5.72154C49.6809 5.63779 49.6394 5.5611 49.5765 5.50424C49.4962 5.45129 49.4008 5.42587 49.3048 5.4318C49.209 5.42713 49.114 5.45245 49.0332 5.50424C48.9733 5.56343 48.9324 5.63906 48.9155 5.72154C48.905 5.82389 48.905 5.92703 48.9155 6.02938V7.91265C48.9061 8.01505 48.9061 8.11809 48.9155 8.22049C48.9288 8.30424 48.9703 8.38093 49.0332 8.43779C49.0688 8.47336 49.1112 8.50132 49.1579 8.51999C49.2046 8.53867 49.2546 8.54767 49.3048 8.54644V8.51928Z" fill="white"/>
<path d="M50.7717 9.0717V4.98828H51.2878L52.2838 7.31519V4.98828H52.8995V9.0717H52.4015L51.4055 6.62708V9.0717H50.7717Z" fill="white"/>
<path d="M12.6445 15.7084L13.4594 11.625H14.2562L15.0801 15.7084H14.3829L14.22 14.803H13.5137L13.3508 15.7084H12.6445ZM13.5499 14.296H14.1113L13.8306 12.5847L13.5499 14.296Z" fill="white"/>
<path d="M15.2703 15.7084V11.625H15.7863L16.7823 13.9519V11.625H17.398V15.7084H16.9L15.9041 13.2729V15.7084H15.2703Z" fill="white"/>
<path d="M17.8145 15.7085V11.6251H18.7832C19.0496 11.6125 19.3155 11.6588 19.5619 11.7609C19.7416 11.8501 19.8831 12.0012 19.9603 12.1864C20.0435 12.4155 20.0835 12.658 20.078 12.9017V14.3866C20.0824 14.639 20.0425 14.8903 19.9603 15.129C19.8888 15.32 19.7459 15.4758 19.5619 15.5636C19.327 15.6726 19.069 15.7223 18.8104 15.7085H17.8145ZM18.566 15.1924H18.7923C18.9199 15.206 19.0482 15.1739 19.1545 15.1019C19.1943 15.0701 19.227 15.0303 19.2504 14.9851C19.2738 14.9398 19.2874 14.8901 19.2903 14.8393C19.3008 14.6976 19.3008 14.5554 19.2903 14.4137V12.8474C19.3067 12.7151 19.3067 12.5813 19.2903 12.449C19.283 12.4046 19.2662 12.3622 19.2413 12.3247C19.2163 12.2873 19.1836 12.2556 19.1454 12.2317C19.0378 12.1723 18.9146 12.1471 18.7923 12.1593H18.575L18.566 15.1924Z" fill="white"/>
<path d="M21.4814 15.7084V11.625H22.2148V15.7084H21.4814Z" fill="white"/>
<path d="M22.6494 15.7084V11.625H23.1655L24.1615 13.9519V11.625H24.7862V15.7084H24.2882L23.2923 13.2729V15.7084H22.6494Z" fill="white"/>
<path d="M25.1936 15.7084V11.625H26.8777V12.1411H25.9723V13.3272H26.7328V13.8523H25.9723V15.7084H25.1936Z" fill="white"/>
<path d="M27.0679 15.7087V11.6253H28.0457C28.2819 11.6213 28.5172 11.6549 28.7429 11.7249C28.9221 11.783 29.0757 11.9014 29.1775 12.0599C29.2846 12.2566 29.3348 12.4792 29.3223 12.7028C29.3426 12.8499 29.3426 12.9992 29.3223 13.1464C29.2993 13.269 29.2464 13.3841 29.1684 13.4814C29.0934 13.5827 28.9891 13.6586 28.8696 13.6987L29.4401 15.7087H28.6976L28.1996 13.8436H27.8556V15.7087H27.0679ZM27.8103 13.3728H28.0457C28.1638 13.3797 28.2819 13.3579 28.3898 13.3094C28.4741 13.2695 28.5392 13.1979 28.5709 13.1102C28.6165 12.9951 28.6381 12.8718 28.6342 12.748C28.6413 12.5859 28.6004 12.4252 28.5165 12.2863C28.4605 12.2297 28.392 12.1871 28.3165 12.162C28.241 12.1368 28.1607 12.1297 28.0819 12.1414H27.8103V13.3728Z" fill="white"/>
<path d="M29.4944 15.7084L30.3093 11.625H31.1241L31.939 15.7084H31.2509L31.0879 14.803H30.3817L30.2097 15.7084H29.4944ZM30.3998 14.296H30.9521L30.6714 12.5847L30.3998 14.296Z" fill="white"/>
<path d="M33.1432 15.763C32.9298 15.7703 32.718 15.7236 32.5275 15.6272C32.3615 15.5285 32.2315 15.3794 32.1563 15.2016C32.0637 14.9812 32.0204 14.7433 32.0295 14.5044L32.6724 14.3777C32.6792 14.5177 32.6973 14.657 32.7267 14.7942C32.7501 14.8986 32.8 14.9952 32.8715 15.0748C32.9431 15.1403 33.0371 15.176 33.1341 15.1744C33.1822 15.1797 33.2307 15.1724 33.2751 15.1534C33.3196 15.1344 33.3583 15.1042 33.3876 15.0658C33.4438 14.9866 33.4724 14.8912 33.4691 14.7942C33.4738 14.6367 33.4295 14.4817 33.3424 14.3505C33.252 14.2226 33.1455 14.107 33.0255 14.0064L32.5094 13.5537C32.3702 13.4371 32.2536 13.296 32.1653 13.1373C32.0738 12.9648 32.03 12.771 32.0386 12.5759C32.0295 12.4379 32.0499 12.2996 32.0983 12.17C32.1467 12.0405 32.222 11.9227 32.3192 11.8244C32.5331 11.6422 32.8083 11.5483 33.0888 11.5618C33.2533 11.5594 33.4165 11.5902 33.5687 11.6524C33.688 11.7103 33.7931 11.7938 33.8766 11.8968C33.949 12.0053 34.004 12.1245 34.0395 12.2499C34.0783 12.3889 34.1026 12.5315 34.112 12.6755L33.4782 12.7841C33.4738 12.6683 33.4587 12.5531 33.4329 12.4401C33.4184 12.3515 33.3773 12.2694 33.3152 12.2047C33.2818 12.1756 33.2431 12.1535 33.2011 12.1395C33.1592 12.1255 33.1148 12.12 33.0707 12.1232C33.0239 12.1217 32.9773 12.1297 32.9337 12.1468C32.8901 12.164 32.8505 12.1898 32.8172 12.2228C32.7611 12.302 32.7324 12.3974 32.7357 12.4944C32.7316 12.6143 32.7597 12.7331 32.8172 12.8385C32.8831 12.942 32.9657 13.0338 33.0617 13.1101L33.5687 13.5628C33.7414 13.7023 33.8885 13.8708 34.0033 14.0608C34.1277 14.2683 34.1905 14.507 34.1844 14.7489C34.1855 14.9288 34.142 15.1061 34.0576 15.265C33.9729 15.4147 33.8473 15.5372 33.6955 15.6181C33.5285 15.7169 33.3372 15.7671 33.1432 15.763Z" fill="white"/>
<path d="M34.8182 15.7084V12.1773H34.1663V11.625H36.2034V12.1773H35.5606V15.7084H34.8182Z" fill="white"/>
<path d="M36.3755 15.7089V11.6254H37.3533C37.5896 11.6207 37.825 11.6543 38.0505 11.725C38.2297 11.7831 38.3833 11.9015 38.4851 12.06C38.5954 12.2558 38.6487 12.4784 38.639 12.7029C38.6398 12.852 38.6246 13.0007 38.5938 13.1465C38.566 13.2676 38.5136 13.3816 38.4398 13.4815C38.3648 13.5828 38.2605 13.6587 38.141 13.6988L38.7024 15.7089H37.96L37.462 13.8437H37.127V15.7089H36.3755ZM37.127 13.3729H37.3533C37.4715 13.3798 37.5895 13.3581 37.6974 13.3095C37.784 13.2699 37.852 13.1986 37.8875 13.1103C37.9267 12.9937 37.9451 12.8711 37.9419 12.7482C37.9531 12.5856 37.9118 12.4237 37.8241 12.2864C37.7695 12.2306 37.7026 12.1884 37.6287 12.1632C37.5547 12.1381 37.4759 12.1306 37.3986 12.1415H37.127V13.3729Z" fill="white"/>
<path d="M40.115 15.7627C39.8688 15.7778 39.6235 15.7212 39.4088 15.5998C39.2383 15.4904 39.1129 15.3233 39.0557 15.129C38.9894 14.8872 38.9589 14.6371 38.9652 14.3865V11.625H39.6895V14.5042C39.6802 14.6248 39.6802 14.7458 39.6895 14.8664C39.7024 14.9662 39.7432 15.0604 39.8072 15.138C39.8449 15.1726 39.8891 15.1993 39.9374 15.2164C39.9856 15.2335 40.0368 15.2407 40.0879 15.2376C40.139 15.2418 40.1905 15.2352 40.2389 15.218C40.2873 15.2008 40.3315 15.1736 40.3686 15.138C40.4326 15.0604 40.4734 14.9662 40.4863 14.8664C40.4956 14.7458 40.4956 14.6248 40.4863 14.5042V11.6522H41.2106V14.4137C41.2142 14.6647 41.1806 14.9149 41.111 15.1561C41.0514 15.3467 40.9304 15.5122 40.7669 15.6269C40.5655 15.7291 40.3405 15.7759 40.115 15.7627Z" fill="white"/>
<path d="M42.7497 15.7634C42.5024 15.7784 42.2562 15.7185 42.0435 15.5914C41.875 15.4758 41.7506 15.3067 41.6904 15.1115C41.6224 14.8823 41.5889 14.6443 41.5908 14.4053V12.9476C41.5876 12.7025 41.6212 12.4583 41.6904 12.2232C41.7483 12.0293 41.8735 11.8624 42.0435 11.7524C42.2562 11.6253 42.5024 11.5654 42.7497 11.5804C42.9789 11.5705 43.2067 11.6204 43.4107 11.7252C43.5689 11.8215 43.6901 11.9682 43.7547 12.1417C43.8233 12.3397 43.857 12.548 43.8543 12.7574V13.1015H43.139V12.7484C43.139 12.6307 43.139 12.5311 43.139 12.4315C43.1329 12.3495 43.0976 12.2724 43.0395 12.2142C43.0058 12.1796 42.9646 12.1533 42.919 12.1376C42.8733 12.1219 42.8247 12.1171 42.7769 12.1236C42.7264 12.1193 42.6756 12.125 42.6274 12.1406C42.5792 12.1561 42.5346 12.1812 42.4962 12.2142C42.4325 12.2779 42.3912 12.3605 42.3785 12.4496C42.3688 12.561 42.3688 12.6731 42.3785 12.7846V14.5954C42.3668 14.7189 42.3668 14.8432 42.3785 14.9666C42.4022 15.0484 42.4457 15.1231 42.5053 15.1839C42.5833 15.2345 42.6749 15.2598 42.7678 15.2564C42.8154 15.2593 42.8631 15.2528 42.9081 15.2373C42.9532 15.2217 42.9947 15.1975 43.0304 15.1658C43.0812 15.0961 43.1153 15.0155 43.13 14.9304C43.13 14.8308 43.13 14.7222 43.13 14.6045V14.2333H43.8453V14.5049C43.8482 14.7232 43.8145 14.9405 43.7457 15.1477C43.6888 15.33 43.5704 15.4868 43.4107 15.5914C43.2124 15.7133 42.9822 15.7732 42.7497 15.7634Z" fill="white"/>
<path d="M44.5877 15.7084V12.1773H43.9358V11.625H45.973V12.1773H45.3301V15.7084H44.5877Z" fill="white"/>
<path d="M47.2676 15.7627C47.0214 15.7778 46.7761 15.7212 46.5614 15.5998C46.3909 15.4904 46.2655 15.3233 46.2083 15.129C46.142 14.8872 46.1115 14.6371 46.1178 14.3865V11.625H46.8421V14.5042C46.8328 14.6248 46.8328 14.7458 46.8421 14.8664C46.855 14.9662 46.8958 15.0604 46.9598 15.138C46.9975 15.1726 47.0418 15.1993 47.09 15.2164C47.1382 15.2335 47.1894 15.2407 47.2405 15.2376C47.2916 15.2418 47.3431 15.2352 47.3915 15.218C47.4399 15.2008 47.4841 15.1736 47.5211 15.138C47.5852 15.0604 47.626 14.9662 47.6389 14.8664C47.6482 14.7458 47.6482 14.6248 47.6389 14.5042V11.6522H48.3632V14.4137C48.3668 14.6647 48.3332 14.9149 48.2636 15.1561C48.204 15.3467 48.083 15.5122 47.9195 15.6269C47.7181 15.7291 47.4931 15.7759 47.2676 15.7627Z" fill="white"/>
<path d="M48.8069 15.7087V11.6253H49.7847C50.0209 11.6213 50.2563 11.6549 50.4819 11.7249C50.6611 11.783 50.8147 11.9014 50.9165 12.0599C51.0236 12.2566 51.0738 12.4792 51.0614 12.7028C51.0621 12.8518 51.047 13.0006 51.0161 13.1464C50.993 13.269 50.9402 13.3841 50.8622 13.4814C50.7872 13.5827 50.6829 13.6586 50.5634 13.6987L51.1338 15.7087H50.3823L49.8934 13.8436H49.5493V15.7087H48.8069ZM49.5493 13.3728H49.7847C49.9028 13.379 50.0207 13.3573 50.1288 13.3094C50.2109 13.2666 50.2751 13.196 50.3099 13.1102C50.3491 12.9936 50.3674 12.871 50.3642 12.748C50.3735 12.5868 50.3358 12.4264 50.2556 12.2863C50.1984 12.2314 50.1297 12.1899 50.0546 12.1649C49.9794 12.1398 49.8996 12.1318 49.8209 12.1414H49.5493V13.3728Z" fill="white"/>
<path d="M51.4236 15.7084V11.625H53.1348V12.1501H52.166V13.3272H52.9356V13.8433H52.166V15.1923H53.1439V15.7084H51.4236Z" fill="white"/>
<path d="M42.7407 37.0224L36.0496 33.1563V25.4422C36.0508 25.3616 36.0304 25.2822 35.9906 25.2122C35.9508 25.1422 35.893 25.084 35.8233 25.0438L28.9059 21.0509C28.8371 21.0112 28.759 20.9902 28.6796 20.9902C28.6001 20.9902 28.522 21.0112 28.4532 21.0509L21.5358 25.0438C21.4673 25.0854 21.4105 25.1438 21.3709 25.2136C21.3313 25.2833 21.3102 25.362 21.3095 25.4422V33.1563L14.6184 37.0224C14.55 37.0619 14.4931 37.1187 14.4534 37.187C14.4137 37.2553 14.3926 37.3328 14.3921 37.4118V45.3975C14.3928 45.4777 14.4139 45.5564 14.4535 45.6261C14.4931 45.6958 14.5499 45.7543 14.6184 45.7959L21.5358 49.7888C21.6057 49.8302 21.6854 49.8521 21.7667 49.8521C21.8479 49.8521 21.9277 49.8302 21.9976 49.7888L28.6796 45.9317L35.3706 49.7888C35.4395 49.8287 35.5173 49.8505 35.5969 49.8522C35.6762 49.8481 35.7535 49.8265 35.8233 49.7888L42.7407 45.7959C42.8092 45.7543 42.866 45.6958 42.9056 45.6261C42.9452 45.5564 42.9663 45.4777 42.967 45.3975V37.4118C42.9665 37.3328 42.9454 37.2553 42.9057 37.187C42.866 37.1187 42.8091 37.0619 42.7407 37.0224ZM28.254 44.6098L22.7038 41.4047L28.254 38.2085V44.6098ZM34.7096 33.4189L29.1594 36.624V30.2228L34.7096 33.4189ZM28.254 36.624L22.7038 33.4189L28.254 30.2228V36.624ZM29.6212 37.4118L35.6241 33.9531L41.627 37.4118L35.6241 40.8795L29.6212 37.4118ZM35.1623 32.6312L29.6212 29.426L35.1623 26.2299V32.6312ZM27.7923 29.426L22.2239 32.6131V26.2751L27.7923 29.426ZM21.3366 48.6027L15.3337 45.135V38.2085L21.3366 41.6672V48.6027ZM22.242 48.6027V42.2014L27.7832 45.3975L22.242 48.6027ZM42.0707 45.135L36.0678 48.6027V41.6672L42.0707 38.2085V45.135Z" fill="white"/>
</g>
<defs>
<clipPath id="clip0_1648_94182">
<rect x="0.367188" y="0.171875" width="56" height="56" rx="4" fill="white"/>
</clipPath>
</defs>
</svg>
