<svg width="57" height="57" viewBox="0 0 57 57" fill="none" xmlns="http://www.w3.org/2000/svg">
<g clip-path="url(#clip0_2420_243801)">
<path d="M56.2578 0.0625H0.257812V56.0625H56.2578V0.0625Z" fill="#CD8B2A"/>
<path d="M5.06571 7.03539C4.96648 7.08951 4.68684 7.19777 4.21777 7.36916C3.7487 7.54055 3.6134 7.57663 3.52319 7.62173V6.10626C3.89471 5.95149 4.25622 5.77375 4.60565 5.57405C4.93711 5.40759 5.24128 5.19163 5.50771 4.93359H7.10438V15.605H5.06571V7.03539Z" fill="white"/>
<path d="M8.24097 14.1711L10.8209 10.175L10.9832 9.94043C11.2583 9.53682 11.5054 9.11487 11.7229 8.67755C11.881 8.32921 11.9611 7.95053 11.9575 7.56802C11.9773 7.2919 11.9077 7.01674 11.759 6.78321C11.6939 6.69485 11.6079 6.62392 11.5088 6.57672C11.4096 6.52952 11.3004 6.5075 11.1907 6.51261C11.0353 6.49902 10.8792 6.5321 10.7427 6.60762C10.6061 6.68314 10.4951 6.79766 10.424 6.93656C10.2782 7.31558 10.2196 7.72255 10.2526 8.12729V8.6144H8.27706V8.09121C8.23087 7.24012 8.47935 6.39911 8.98066 5.70977C9.25555 5.40044 9.59773 5.15827 9.98087 5.00188C10.364 4.8455 10.7779 4.77908 11.1907 4.80771C11.5707 4.76129 11.9562 4.80182 12.3182 4.92625C12.6801 5.05068 13.0091 5.25576 13.2802 5.52598C13.5513 5.7962 13.7574 6.1245 13.883 6.48607C14.0086 6.84764 14.0504 7.23302 14.0052 7.61311C14.0105 8.00246 13.9495 8.38988 13.8247 8.75873C13.711 9.09333 13.566 9.41649 13.3918 9.72394C13.2204 10.0036 12.9588 10.4095 12.616 10.9237L10.5593 14.0087H13.7345V15.6144H8.27706L8.24097 14.1711Z" fill="white"/>
<path d="M18.0825 9.02803V4.95071H19.0568C19.2924 4.94148 19.5277 4.9751 19.7513 5.04994C19.933 5.10182 20.0879 5.22125 20.1843 5.38371C20.2951 5.57835 20.3483 5.80046 20.3377 6.02417C20.338 6.17267 20.3229 6.3208 20.2926 6.46618C20.2677 6.59047 20.2153 6.70759 20.1392 6.80896C20.0614 6.90463 19.9583 6.97652 19.8416 7.01644L20.4099 9.02803H19.6611L19.165 7.16076H18.8222V9.02803H18.0825ZM18.8222 6.6917H19.0568C19.1744 6.69861 19.2921 6.67694 19.3995 6.62855C19.4858 6.58913 19.5536 6.51808 19.589 6.43009C19.628 6.31391 19.6463 6.19179 19.6431 6.06927C19.6556 5.9072 19.6144 5.74553 19.5258 5.60923C19.4719 5.55258 19.4055 5.50923 19.3319 5.48262C19.2583 5.45601 19.1796 5.44685 19.1019 5.45586H18.8222V6.6917Z" fill="white"/>
<path d="M20.7437 9.0285V4.95117H22.4576V5.42025H21.4924V6.59293H22.2501V7.1071H21.4924V8.46019H22.4666V9.0285H20.7437Z" fill="white"/>
<path d="M23.7836 9.02828C23.5669 9.03732 23.3518 8.98743 23.1612 8.88395C22.9973 8.78801 22.8678 8.6428 22.7913 8.46901C22.7048 8.25027 22.656 8.01846 22.647 7.78343L23.2875 7.65714C23.2925 7.80038 23.3137 7.9426 23.3506 8.08111C23.3723 8.18574 23.4222 8.28243 23.4949 8.36075C23.5297 8.39387 23.5708 8.41972 23.6157 8.43676C23.6606 8.4538 23.7085 8.46169 23.7565 8.45998C23.8044 8.4652 23.8528 8.45799 23.897 8.43903C23.9413 8.42006 23.9799 8.38999 24.0091 8.35173C24.0663 8.27006 24.0949 8.17172 24.0903 8.0721C24.0968 7.91782 24.0525 7.76567 23.964 7.63911C23.8728 7.5098 23.7634 7.39434 23.6392 7.29632L23.1251 6.83628C22.9868 6.71966 22.8707 6.57909 22.7823 6.42132C22.6942 6.24513 22.6508 6.04995 22.656 5.85302C22.6472 5.71691 22.6675 5.5805 22.7158 5.45292C22.764 5.32534 22.839 5.20955 22.9356 5.11333C23.15 4.92794 23.4286 4.83401 23.7114 4.85173C23.8746 4.84671 24.0371 4.87432 24.1895 4.93293C24.3105 4.99134 24.4157 5.07797 24.4962 5.1855C24.5716 5.29174 24.6266 5.41102 24.6586 5.53731C24.6972 5.67576 24.7214 5.81784 24.7307 5.96128L24.0993 6.06952C24.0905 5.95452 24.0754 5.84009 24.0542 5.72673C24.0397 5.63849 23.9989 5.55672 23.9369 5.4922C23.8699 5.42876 23.7811 5.3934 23.6889 5.3934C23.5966 5.3934 23.5078 5.42876 23.4408 5.4922C23.3782 5.56811 23.3461 5.66455 23.3506 5.76282C23.3446 5.88365 23.3761 6.00338 23.4408 6.10559C23.5064 6.2087 23.5887 6.30016 23.6844 6.37622L24.1895 6.82725C24.3594 6.96841 24.5056 7.13592 24.6225 7.32338C24.7464 7.53019 24.809 7.76794 24.8029 8.00895C24.8052 8.19115 24.7617 8.37102 24.6766 8.53214C24.5896 8.6793 24.4651 8.8007 24.3158 8.88395C24.1547 8.97919 23.9708 9.02907 23.7836 9.02828Z" fill="white"/>
<path d="M25.0464 9.02979V4.95247H26.2461C26.4561 4.94259 26.6648 4.98933 26.8505 5.08778C27.0022 5.18004 27.1194 5.31946 27.1843 5.48469C27.2612 5.68295 27.298 5.89451 27.2925 6.1071C27.3029 6.32864 27.2562 6.54914 27.1572 6.74757C27.0742 6.90636 26.941 7.03322 26.7784 7.10839C26.5954 7.18392 26.3989 7.22078 26.201 7.21665H25.7951V9.02077L25.0464 9.02979ZM25.7951 6.69345H26.0748C26.1827 6.69869 26.2905 6.68022 26.3905 6.63933C26.4649 6.5969 26.5223 6.52994 26.5528 6.44989C26.5691 6.33621 26.5691 6.22079 26.5528 6.1071C26.5643 5.9871 26.5643 5.86629 26.5528 5.74629C26.5439 5.70381 26.5265 5.66356 26.5017 5.62793C26.4769 5.59229 26.4452 5.562 26.4085 5.53881C26.3017 5.48819 26.1835 5.46641 26.0657 5.47566H25.7861L25.7951 6.69345Z" fill="white"/>
<path d="M28.6637 9.0291C28.4215 9.04085 28.1809 8.98461 27.9691 8.86673C27.7981 8.76101 27.6702 8.59795 27.6082 8.40667C27.524 8.17879 27.4842 7.9369 27.491 7.69405V6.16055C27.4843 5.92064 27.5241 5.68169 27.6082 5.45692C27.6699 5.26783 27.7981 5.10756 27.9691 5.00589C28.1818 4.89115 28.4224 4.83804 28.6637 4.85255C28.9051 4.83606 29.1462 4.88928 29.3582 5.00589C29.5315 5.10716 29.6627 5.26718 29.7281 5.45692C29.8123 5.68169 29.8521 5.92064 29.8454 6.16055V7.69405C29.8521 7.9369 29.8123 8.17879 29.7281 8.40667C29.6599 8.59716 29.5296 8.7592 29.3582 8.86673C29.1473 8.98696 28.906 9.04336 28.6637 9.0291ZM28.6637 8.47884C28.7594 8.48613 28.8548 8.46069 28.9343 8.40667C28.9971 8.34511 29.0409 8.26685 29.0606 8.18116C29.0703 8.07915 29.0703 7.97646 29.0606 7.87446V5.98915C29.0703 5.88715 29.0703 5.78444 29.0606 5.68244C29.0411 5.59412 28.99 5.51599 28.9169 5.4628C28.8438 5.40961 28.7537 5.38506 28.6637 5.39379C28.5666 5.38757 28.4706 5.41638 28.393 5.47497C28.3316 5.52885 28.2902 5.602 28.2758 5.68244C28.2661 5.78444 28.2661 5.88715 28.2758 5.98915V7.87446C28.2661 7.97646 28.2661 8.07915 28.2758 8.18116C28.2884 8.26736 28.3297 8.3468 28.393 8.40667C28.4703 8.46788 28.5652 8.50266 28.6637 8.5059V8.47884Z" fill="white"/>
<path d="M30.2424 9.0285V4.95117H30.7566L31.7489 7.27849V4.95117H32.3713V9.0285H31.9022L30.9009 6.59293V9.0285H30.2424Z" fill="white"/>
<path d="M33.8685 9.02828C33.6518 9.03732 33.4367 8.98743 33.2461 8.88395C33.0822 8.78801 32.9528 8.6428 32.8762 8.46901C32.7898 8.25027 32.741 8.01846 32.7319 7.78343L33.3724 7.65714C33.3775 7.80038 33.3987 7.9426 33.4355 8.08111C33.4573 8.18574 33.5072 8.28243 33.5798 8.36075C33.6146 8.39387 33.6557 8.41972 33.7006 8.43676C33.7456 8.4538 33.7934 8.46169 33.8415 8.45998C33.8893 8.4652 33.9377 8.45799 33.982 8.43903C34.0262 8.42006 34.0648 8.38999 34.094 8.35173C34.1513 8.27006 34.1798 8.17172 34.1752 8.0721C34.1818 7.91782 34.1374 7.76567 34.0489 7.63911C33.9578 7.5098 33.8484 7.39434 33.7242 7.29632L33.21 6.83628C33.0718 6.71966 32.9557 6.57909 32.8672 6.42132C32.7791 6.24513 32.7357 6.04995 32.7409 5.85302C32.7321 5.71691 32.7525 5.5805 32.8007 5.45292C32.8489 5.32534 32.9239 5.20955 33.0206 5.11333C33.2349 4.92794 33.5135 4.83401 33.7964 4.85173C33.9595 4.84671 34.1221 4.87432 34.2745 4.93293C34.3954 4.99134 34.5006 5.07797 34.5811 5.1855C34.6565 5.29174 34.7116 5.41102 34.7435 5.53731C34.7821 5.67576 34.8063 5.81784 34.8157 5.96128L34.1842 6.06952C34.1904 5.95534 34.1904 5.84091 34.1842 5.72673C34.1698 5.63849 34.1289 5.55672 34.067 5.4922C34 5.42876 33.9112 5.3934 33.8189 5.3934C33.7266 5.3934 33.6379 5.42876 33.5708 5.4922C33.5083 5.56811 33.4761 5.66455 33.4806 5.76282C33.4746 5.88365 33.5061 6.00338 33.5708 6.10559C33.6364 6.2087 33.7187 6.30016 33.8144 6.37622L34.3195 6.82725C34.4895 6.96841 34.6357 7.13592 34.7525 7.32338C34.8764 7.53019 34.939 7.76794 34.9329 8.00895C34.9352 8.19115 34.8918 8.37102 34.8067 8.53214C34.7197 8.6793 34.5952 8.8007 34.4458 8.88395C34.2716 8.98741 34.0709 9.03758 33.8685 9.02828Z" fill="white"/>
<path d="M35.1584 9.0285V4.95117H35.8891V9.0285H35.1584Z" fill="white"/>
<path d="M36.4124 9.0285V4.95117H37.4136C37.58 4.95092 37.7461 4.96602 37.9098 4.99628C38.0463 5.02726 38.1752 5.08556 38.2886 5.16767C38.3962 5.24959 38.4803 5.35852 38.5322 5.4834C38.5912 5.6482 38.6187 5.82261 38.6134 5.99757C38.618 6.14154 38.5966 6.28515 38.5502 6.42154C38.5078 6.52952 38.4397 6.62551 38.3518 6.70118C38.2532 6.77276 38.1386 6.81922 38.018 6.83649C38.1663 6.856 38.3066 6.91521 38.424 7.00787C38.5315 7.09528 38.6127 7.21083 38.6585 7.34165C38.7161 7.50056 38.7436 7.66879 38.7397 7.83777C38.7414 8.01476 38.7171 8.19105 38.6675 8.36097C38.6192 8.49677 38.5458 8.62225 38.451 8.73082C38.3486 8.83142 38.2255 8.9084 38.0902 8.95633C37.9265 9.00628 37.7561 9.03063 37.585 9.0285H36.4124ZM37.1611 6.61999H37.4136C37.5321 6.62446 37.6498 6.59967 37.7564 6.54783C37.8359 6.50483 37.8968 6.43424 37.9278 6.34937C37.9591 6.23784 37.9743 6.12241 37.9729 6.00659C37.9778 5.89099 37.9529 5.77608 37.9008 5.67283C37.8489 5.59209 37.7683 5.53407 37.6752 5.51046C37.5526 5.49319 37.4281 5.49319 37.3054 5.51046H37.1611V6.61999ZM37.1611 8.5053H37.4407C37.5248 8.51614 37.6102 8.50709 37.6901 8.47889C37.77 8.45068 37.8421 8.40412 37.9008 8.34294C37.9884 8.18966 38.0292 8.014 38.018 7.83777C38.0216 7.70045 38.0033 7.56344 37.9639 7.43184C37.9297 7.33645 37.8625 7.25645 37.7745 7.20633C37.6629 7.15027 37.5382 7.12534 37.4136 7.13416H37.1611V8.5053Z" fill="white"/>
<path d="M39.0283 9.0285V4.95117H39.768V8.55942H40.7603V9.0285H39.0283Z" fill="white"/>
<path d="M40.9768 9.0285V4.95117H42.7268V5.42025H41.7616V6.59293H42.5193V7.1071H41.7616V8.46019H42.7268V9.0285H40.9768Z" fill="white"/>
<path d="M19.1742 15.7314C18.9295 15.7447 18.6868 15.6817 18.4796 15.551C18.3112 15.4344 18.1847 15.2668 18.1187 15.0729C18.0511 14.8445 18.0176 14.6074 18.0195 14.3693V12.9079C18.0163 12.6638 18.0498 12.4205 18.1187 12.1863C18.181 11.9905 18.3083 11.8218 18.4796 11.7082C18.6924 11.6071 18.925 11.5547 19.1606 11.5547C19.3962 11.5547 19.6289 11.6071 19.8417 11.7082C19.9987 11.8007 20.1196 11.9438 20.1845 12.1141C20.2524 12.3145 20.2859 12.525 20.2837 12.7365V13.0793H19.562V12.7275C19.562 12.6103 19.562 12.511 19.562 12.4118C19.5496 12.3291 19.5154 12.2513 19.4628 12.1863C19.3818 12.1308 19.2859 12.1011 19.1877 12.1011C19.0895 12.1011 18.9936 12.1308 18.9126 12.1863C18.8491 12.2497 18.808 12.332 18.7953 12.4208C18.7953 12.52 18.7953 12.6373 18.7953 12.7546V14.5587C18.7796 14.6815 18.7796 14.8058 18.7953 14.9285C18.8116 15.0129 18.8561 15.0893 18.9216 15.145C18.996 15.1952 19.0844 15.2205 19.1742 15.2172C19.2217 15.2218 19.2696 15.2161 19.3147 15.2005C19.3598 15.1849 19.4011 15.1599 19.4357 15.127C19.4937 15.0618 19.5286 14.9794 19.535 14.8925C19.5445 14.7844 19.5445 14.6758 19.535 14.5677V14.1979H20.2566V14.5226C20.2595 14.7401 20.226 14.9566 20.1574 15.1631C20.1007 15.3446 19.9827 15.5009 19.8236 15.6051C19.6231 15.7068 19.3982 15.7505 19.1742 15.7314Z" fill="white"/>
<path d="M21.7629 15.7319C21.5207 15.7446 21.2798 15.6883 21.0683 15.5695C20.8953 15.4597 20.7649 15.2943 20.6984 15.1004C20.621 14.871 20.5844 14.6299 20.5902 14.3878V12.8633C20.5844 12.6213 20.621 12.3801 20.6984 12.1507C20.7684 11.9636 20.8985 11.8049 21.0683 11.6997C21.2823 11.5883 21.5219 11.5354 21.7629 11.5463C22.0038 11.5363 22.2432 11.5891 22.4575 11.6997C22.6273 11.8049 22.7574 11.9636 22.8273 12.1507C22.9047 12.3801 22.9413 12.6213 22.9356 12.8633V14.4419C22.9406 14.681 22.904 14.9191 22.8273 15.1455C22.7591 15.336 22.6289 15.4981 22.4575 15.6056C22.2435 15.7154 22.0018 15.7593 21.7629 15.7319ZM21.7629 15.1816C21.8599 15.1879 21.9559 15.159 22.0335 15.1004C22.0952 15.0394 22.1362 14.9605 22.1508 14.8749C22.1605 14.7729 22.1605 14.6702 22.1508 14.5682V12.6919C22.1609 12.59 22.1609 12.4872 22.1508 12.3852C22.134 12.3031 22.0931 12.2277 22.0335 12.1687C21.9559 12.1101 21.8599 12.0813 21.7629 12.0876C21.6657 12.0796 21.569 12.1086 21.4923 12.1687C21.4296 12.2254 21.3882 12.3018 21.375 12.3852C21.3602 12.4869 21.3602 12.5902 21.375 12.6919V14.5682C21.3652 14.6702 21.3652 14.7729 21.375 14.8749C21.3793 14.9218 21.3933 14.9672 21.4159 15.0085C21.4386 15.0497 21.4695 15.0858 21.5067 15.1146C21.544 15.1434 21.5867 15.1642 21.6323 15.1757C21.678 15.1872 21.7255 15.1893 21.7719 15.1816H21.7629Z" fill="white"/>
<path d="M23.3325 15.6691V11.5918H23.8557L24.848 13.9191V11.5918H25.4614V15.6691H24.9652L23.973 13.2336V15.6691H23.3325Z" fill="white"/>
<path d="M26.9589 15.7318C26.7455 15.7367 26.5343 15.687 26.3455 15.5874C26.1802 15.4892 26.0506 15.3406 25.9756 15.1635C25.8808 14.9505 25.8316 14.72 25.8313 14.4869L26.4718 14.3606C26.4786 14.5002 26.4967 14.639 26.5259 14.7756C26.5506 14.881 26.6036 14.9777 26.6792 15.0552C26.7124 15.0881 26.7519 15.1138 26.7953 15.1309C26.8387 15.148 26.8852 15.156 26.9318 15.1544C26.981 15.1595 27.0306 15.1523 27.0763 15.1334C27.122 15.1145 27.1622 15.0845 27.1934 15.0462C27.2437 14.9618 27.2687 14.8648 27.2656 14.7666C27.2722 14.6136 27.2313 14.4623 27.1483 14.3336C27.0548 14.2062 26.9457 14.0911 26.8236 13.9908L26.3094 13.5398C26.1703 13.4205 26.0542 13.2768 25.9666 13.1158C25.8733 12.9448 25.8295 12.7511 25.8403 12.5565C25.8302 12.4189 25.8499 12.2808 25.8982 12.1515C25.9464 12.0223 26.0221 11.905 26.12 11.8078C26.333 11.6263 26.6072 11.5327 26.8867 11.5462C27.0509 11.5386 27.2147 11.5695 27.3648 11.6364C27.49 11.6836 27.5972 11.7688 27.6715 11.88C27.7537 11.9833 27.8122 12.1034 27.8429 12.2318C27.8815 12.3702 27.9057 12.5123 27.9151 12.6557L27.2746 12.764C27.2849 12.65 27.2849 12.5352 27.2746 12.4212C27.2561 12.3343 27.2157 12.2536 27.1573 12.1867C27.1262 12.1542 27.0881 12.1292 27.0459 12.1136C27.0037 12.098 26.9586 12.0921 26.9138 12.0965C26.8648 12.0936 26.8159 12.1018 26.7706 12.1206C26.7253 12.1393 26.6848 12.1681 26.6522 12.2047C26.5962 12.2836 26.5677 12.3787 26.571 12.4753C26.5655 12.5949 26.5936 12.7137 26.6522 12.8181C26.7213 12.9213 26.8066 13.0127 26.9048 13.0887L27.4099 13.5398C27.5775 13.6833 27.7233 13.8505 27.8429 14.0359C27.9659 14.2431 28.0284 14.4806 28.0233 14.7215C28.027 14.905 27.9802 15.086 27.888 15.2447C27.8095 15.3951 27.6867 15.5179 27.5362 15.5965C27.3608 15.6963 27.1603 15.7433 26.9589 15.7318Z" fill="white"/>
<path d="M29.3854 15.7323C29.1394 15.7425 28.8955 15.6831 28.6818 15.5609C28.5189 15.4466 28.3984 15.2817 28.339 15.0918C28.2696 14.8515 28.2362 14.6022 28.2398 14.3521V11.5918H28.9614V14.4423C28.9521 14.5624 28.9521 14.683 28.9614 14.8031C28.9782 14.9014 29.0185 14.9942 29.0787 15.0738C29.1551 15.1426 29.2556 15.1783 29.3583 15.173C29.4106 15.1768 29.4632 15.17 29.5128 15.153C29.5624 15.1359 29.6081 15.109 29.647 15.0738C29.7108 14.9964 29.7514 14.9026 29.7643 14.8031C29.7735 14.683 29.7735 14.5624 29.7643 14.4423V11.5918H30.4859V14.3521C30.4895 14.6022 30.4561 14.8515 30.3867 15.0918C30.3273 15.2817 30.2068 15.4466 30.0439 15.5609C29.8432 15.6747 29.6161 15.7338 29.3854 15.7323Z" fill="white"/>
<path d="M31 15.6691L31.0722 11.5918H31.8389L32.4162 14.4153L33.0206 11.5918H33.7062L33.7783 15.6691H33.2281L33.1649 12.8366L32.5876 15.6691H32.1366L31.5502 12.8276L31.4961 15.6691H31Z" fill="white"/>
<path d="M34.2295 15.6685V11.5911H35.4293C35.6392 11.5813 35.8479 11.628 36.0336 11.7265C36.1813 11.8232 36.2974 11.9612 36.3674 12.1234C36.4443 12.3216 36.4811 12.5332 36.4756 12.7458C36.4859 12.9702 36.4394 13.1936 36.3403 13.3953C36.2569 13.5515 36.1235 13.6754 35.9615 13.7471C35.7786 13.8226 35.582 13.8595 35.3841 13.8553H34.9782V15.6594L34.2295 15.6685ZM34.9782 13.3321H35.2579C35.3658 13.3374 35.4736 13.3189 35.5736 13.278C35.6121 13.2591 35.6463 13.2326 35.6743 13.2C35.7022 13.1674 35.7232 13.1295 35.7359 13.0886C35.7529 12.9749 35.7529 12.8594 35.7359 12.7458C35.7474 12.6258 35.7474 12.505 35.7359 12.385C35.7152 12.3003 35.6638 12.2264 35.5916 12.1775C35.4848 12.1269 35.3666 12.1051 35.2488 12.1143H34.9692L34.9782 13.3321Z" fill="white"/>
<path d="M37.1431 15.6691V12.1421H36.4937V11.5918H38.5323V12.1421H37.8919V15.6691H37.1431Z" fill="white"/>
<path d="M38.7759 15.6691V11.5918H39.5065V15.6691H38.7759Z" fill="white"/>
<path d="M41.0942 15.7319C40.8549 15.7439 40.6171 15.6876 40.4086 15.5695C40.2356 15.4597 40.1052 15.2942 40.0388 15.1004C39.9614 14.871 39.9247 14.6298 39.9305 14.3878V12.8633C39.9247 12.6213 39.9614 12.3801 40.0388 12.1507C40.1087 11.9635 40.2388 11.8049 40.4086 11.6997C40.6196 11.5891 40.8562 11.5362 41.0942 11.5463C41.3381 11.5355 41.5805 11.5884 41.7978 11.6997C41.9643 11.8064 42.091 11.9649 42.1586 12.1507C42.2435 12.3784 42.2833 12.6204 42.2759 12.8633V14.4419C42.2826 14.6818 42.2428 14.9208 42.1586 15.1455C42.0928 15.3347 41.9658 15.4965 41.7978 15.6056C41.581 15.7166 41.3361 15.7605 41.0942 15.7319ZM41.0942 15.1816C41.1406 15.1892 41.1881 15.1872 41.2337 15.1757C41.2794 15.1642 41.3221 15.1434 41.3593 15.1146C41.3966 15.0858 41.4275 15.0497 41.4502 15.0085C41.4728 14.9672 41.4868 14.9218 41.4911 14.8749C41.5008 14.7729 41.5008 14.6702 41.4911 14.5682V12.6919C41.5012 12.5899 41.5012 12.4872 41.4911 12.3852C41.4743 12.303 41.4335 12.2277 41.3738 12.1687C41.2935 12.1088 41.1941 12.0799 41.0942 12.0875C40.9997 12.0792 40.9057 12.1083 40.8326 12.1687C40.7701 12.2269 40.7261 12.3022 40.7063 12.3852C40.6962 12.4872 40.6962 12.5899 40.7063 12.6919V14.5682C40.6966 14.6702 40.6966 14.7729 40.7063 14.8749C40.7168 14.9618 40.7584 15.042 40.8236 15.1004C40.9012 15.159 40.9972 15.1878 41.0942 15.1816Z" fill="white"/>
<path d="M42.6729 15.6691V11.5918H43.196L44.1883 13.9191V11.5918H44.8017V15.6691H44.3056L43.3133 13.2336V15.6691H42.6729Z" fill="white"/>
<path d="M17.875 22.3442L18.6869 18.2578H19.4897L20.3015 22.3442H19.616L19.4536 21.4421H18.741L18.5696 22.3442H17.875ZM18.7771 20.9279H19.3363L19.0567 19.214L18.7771 20.9279Z" fill="white"/>
<path d="M20.5361 22.3442V18.2578H21.0774L22.0696 20.5851V18.2578H22.683V22.3442H22.1869L21.1946 19.8996V22.3442H20.5361Z" fill="white"/>
<path d="M23.134 22.3442V18.2579H24.0992C24.3646 18.2453 24.6295 18.2915 24.875 18.3932C25.0561 18.4793 25.1979 18.6308 25.2719 18.8172C25.3586 19.0444 25.3985 19.2868 25.3892 19.5298V21.0182C25.3981 21.27 25.3582 21.5212 25.2719 21.7579C25.1995 21.9468 25.0619 22.1036 24.884 22.1999C24.6454 22.3041 24.3865 22.3534 24.1263 22.3442H23.134ZM23.8827 21.821H24.1082C24.2381 21.8329 24.3683 21.8012 24.4781 21.7308C24.5544 21.6636 24.6027 21.5703 24.6134 21.4692C24.6239 21.3281 24.6239 21.1864 24.6134 21.0453V19.4757C24.6253 19.3436 24.6253 19.2108 24.6134 19.0788C24.6045 19.0339 24.5863 18.9914 24.5599 18.9541C24.5334 18.9168 24.4994 18.8855 24.4601 18.8623C24.3528 18.8031 24.2301 18.778 24.1082 18.7901H23.8918L23.8827 21.821Z" fill="white"/>
<path d="M26.8687 22.3435V18.2572H28.0594C28.2693 18.2473 28.4781 18.294 28.6637 18.3925C28.8158 18.4842 28.9332 18.6238 28.9975 18.7894C29.0754 18.9905 29.1122 19.2052 29.1057 19.4208C29.1149 19.6423 29.0684 19.8625 28.9704 20.0613C28.887 20.2175 28.7536 20.3414 28.5916 20.4131C28.4093 20.4917 28.2127 20.5316 28.0143 20.5304H27.6083V22.3345L26.8687 22.3435ZM27.6083 19.9981H27.888C27.9959 20.0034 28.1037 19.9849 28.2037 19.944C28.2432 19.9266 28.2783 19.9005 28.3064 19.8678C28.3345 19.835 28.3549 19.7963 28.3661 19.7546C28.383 19.6409 28.383 19.5254 28.3661 19.4118C28.3772 19.2918 28.3772 19.171 28.3661 19.051C28.3453 18.9663 28.2939 18.8924 28.2217 18.8435C28.1138 18.7964 27.9966 18.7748 27.879 18.7804H27.5993L27.6083 19.9981Z" fill="white"/>
<path d="M29.3494 22.3426V18.2563H30.3236C30.5619 18.2517 30.7994 18.2852 31.0272 18.3555C31.2058 18.4134 31.3588 18.5313 31.4602 18.6893C31.5668 18.8885 31.6167 19.1131 31.6045 19.3388C31.6088 19.4874 31.5937 19.636 31.5594 19.7808C31.5345 19.9023 31.482 20.0164 31.4061 20.1145C31.3264 20.2103 31.2241 20.2848 31.1084 20.331L31.6767 22.3426H30.928L30.4409 20.4663H30.0981V22.3426H29.3494ZM30.0981 19.9973H30.3236C30.4441 20.0032 30.5645 19.9816 30.6754 19.9341C30.7588 19.8936 30.8234 19.8225 30.8558 19.7357C30.8955 19.6228 30.9138 19.5035 30.9099 19.3839C30.922 19.223 30.8842 19.0624 30.8017 18.9238C30.7468 18.8658 30.6789 18.8217 30.6036 18.7951C30.5284 18.7684 30.4478 18.76 30.3687 18.7705H30.0981V19.9973Z" fill="white"/>
<path d="M33.1108 22.3979C32.8715 22.4099 32.6337 22.3536 32.4252 22.2355C32.2538 22.128 32.1236 21.966 32.0554 21.7755C31.9789 21.5427 31.9423 21.2987 31.9471 21.0538V19.5293C31.9413 19.2873 31.978 19.0461 32.0554 18.8167C32.1253 18.6296 32.2554 18.4709 32.4252 18.3657C32.6363 18.2551 32.8728 18.2022 33.1108 18.2123C33.3547 18.2015 33.5971 18.2544 33.8144 18.3657C33.9809 18.4724 34.1076 18.6309 34.1752 18.8167C34.2601 19.0444 34.2999 19.2864 34.2925 19.5293V21.0628C34.2992 21.3027 34.2594 21.5417 34.1752 21.7664C34.1111 21.9589 33.984 22.1242 33.8144 22.2355C33.5997 22.3546 33.3559 22.4109 33.1108 22.3979ZM33.1108 21.8476C33.1572 21.8553 33.2047 21.8532 33.2504 21.8417C33.296 21.8302 33.3387 21.8094 33.376 21.7806C33.4132 21.7518 33.4441 21.7157 33.4668 21.6745C33.4894 21.6332 33.5034 21.5878 33.5077 21.5409C33.5178 21.4389 33.5178 21.3362 33.5077 21.2342V19.3579C33.5178 19.2559 33.5178 19.1532 33.5077 19.0512C33.4909 18.9691 33.4501 18.8937 33.3904 18.8347C33.3101 18.7748 33.2108 18.7459 33.1108 18.7536C33.0163 18.7452 32.9223 18.7743 32.8492 18.8347C32.7867 18.8929 32.7427 18.9682 32.7229 19.0512C32.7128 19.1532 32.7128 19.2559 32.7229 19.3579V21.2342C32.7128 21.3362 32.7128 21.4389 32.7229 21.5409C32.7334 21.6278 32.775 21.708 32.8402 21.7664C32.9178 21.825 33.0138 21.8538 33.1108 21.8476Z" fill="white"/>
<path d="M34.6895 22.3442V18.2579H35.6547C35.9201 18.2453 36.185 18.2915 36.4304 18.3932C36.5212 18.4343 36.603 18.4929 36.6711 18.5656C36.7392 18.6384 36.7923 18.7239 36.8273 18.8172C36.9141 19.0444 36.954 19.2868 36.9446 19.5298V21.0182C36.9535 21.27 36.9137 21.5212 36.8273 21.7579C36.7578 21.9485 36.6194 22.1062 36.4395 22.1999C36.2008 22.3041 35.9419 22.3534 35.6817 22.3442H34.6895ZM35.4382 21.821H35.6637C35.7937 21.8344 35.9243 21.8025 36.0335 21.7308C36.1098 21.6636 36.1581 21.5703 36.1688 21.4692C36.1793 21.3281 36.1793 21.1864 36.1688 21.0453V19.4757C36.1808 19.3436 36.1808 19.2108 36.1688 19.0788C36.1511 18.9904 36.0992 18.9127 36.0245 18.8623C35.9135 18.8044 35.7884 18.7794 35.6637 18.7901H35.4472L35.4382 21.821Z" fill="white"/>
<path d="M38.4691 22.3983C38.2197 22.414 37.9714 22.3542 37.7565 22.2269C37.59 22.1164 37.4684 21.95 37.4137 21.7578C37.3443 21.5175 37.3109 21.2682 37.3145 21.0181V18.2578H38.0451V21.1083C38.0359 21.2284 38.0359 21.3491 38.0451 21.4692C38.0541 21.5696 38.0952 21.6645 38.1624 21.7398C38.1986 21.7762 38.2425 21.804 38.2909 21.8212C38.3393 21.8384 38.391 21.8445 38.442 21.839C38.4932 21.8451 38.545 21.8394 38.5935 21.8222C38.642 21.805 38.6859 21.7768 38.7217 21.7398C38.7855 21.6624 38.8261 21.5686 38.839 21.4692C38.8482 21.3491 38.8482 21.2284 38.839 21.1083V18.2578H39.5606V21.0181C39.5688 21.2685 39.5353 21.5185 39.4614 21.7578C39.4105 21.9519 39.288 22.1195 39.1186 22.2269C38.923 22.3452 38.6976 22.4047 38.4691 22.3983Z" fill="white"/>
<path d="M41.1482 22.3982C40.9008 22.4105 40.6556 22.3476 40.4446 22.2178C40.2768 22.1027 40.1528 21.9342 40.0928 21.7397C40.0176 21.5129 39.9811 21.275 39.9846 21.0361V19.5838C39.9797 19.3359 40.0163 19.0889 40.0928 18.8531C40.1475 18.6584 40.273 18.4911 40.4446 18.384C40.6567 18.2804 40.8896 18.2266 41.1257 18.2266C41.3617 18.2266 41.5946 18.2804 41.8067 18.384C41.9669 18.477 42.0884 18.6242 42.1495 18.799C42.2227 18.9949 42.2564 19.2034 42.2487 19.4124V19.7552H41.5361V19.4034C41.5361 19.2951 41.5361 19.1869 41.5361 19.0967C41.5313 19.012 41.4961 18.9319 41.4369 18.8711C41.4009 18.8376 41.3581 18.8121 41.3114 18.7966C41.2647 18.781 41.2152 18.7757 41.1663 18.7809C41.0652 18.7759 40.9657 18.808 40.8866 18.8711C40.8293 18.9377 40.7918 19.0189 40.7784 19.1057C40.7683 19.2197 40.7683 19.3344 40.7784 19.4485V21.2526C40.7623 21.3753 40.7623 21.4997 40.7784 21.6224C40.7982 21.7055 40.8422 21.7808 40.9047 21.8389C40.9796 21.888 41.0677 21.9132 41.1572 21.9111C41.2062 21.9164 41.2557 21.911 41.3024 21.8955C41.3491 21.8799 41.3919 21.8545 41.4279 21.8209C41.4837 21.7544 41.5183 21.6727 41.5271 21.5863C41.5271 21.4871 41.5271 21.3789 41.5271 21.2616V20.8918H42.2397V21.2165C42.2446 21.4364 42.2141 21.6557 42.1495 21.866C42.0891 22.0432 41.9717 22.1955 41.8157 22.299C41.6072 22.3948 41.3756 22.4292 41.1482 22.3982Z" fill="white"/>
<path d="M43.0245 22.3442V18.8081H42.375V18.2578H44.4137V18.8081H43.7732V22.3442H43.0245Z" fill="white"/>
<path d="M44.6572 22.3442V18.2578H45.433V22.3442H44.6572Z" fill="white"/>
<path d="M46.9755 22.3979C46.7362 22.4099 46.4985 22.3536 46.29 22.2355C46.1186 22.128 45.9883 21.966 45.9201 21.7755C45.8436 21.5427 45.807 21.2987 45.8119 21.0538V19.5293C45.8061 19.2873 45.8427 19.0461 45.9201 18.8167C45.99 18.6296 46.1201 18.4709 46.29 18.3657C46.501 18.2551 46.7375 18.2022 46.9755 18.2123C47.2194 18.2015 47.4619 18.2544 47.6791 18.3657C47.8464 18.4738 47.9757 18.6315 48.049 18.8167C48.1264 19.0461 48.163 19.2873 48.1572 19.5293V21.0628C48.1623 21.3019 48.1257 21.54 48.049 21.7664C47.9784 21.958 47.8489 22.1222 47.6791 22.2355C47.4645 22.3546 47.2206 22.4109 46.9755 22.3979ZM46.9755 21.8476C47.0219 21.8553 47.0695 21.8532 47.1151 21.8417C47.1607 21.8302 47.2035 21.8094 47.2407 21.7806C47.2779 21.7518 47.3088 21.7157 47.3315 21.6745C47.3542 21.6332 47.3681 21.5878 47.3724 21.5409C47.3825 21.4389 47.3825 21.3362 47.3724 21.2342V19.3579C47.3825 19.2559 47.3825 19.1532 47.3724 19.0512C47.3556 18.9691 47.3148 18.8937 47.2551 18.8347C47.1748 18.7748 47.0755 18.7459 46.9755 18.7536C46.881 18.7452 46.7871 18.7743 46.7139 18.8347C46.6514 18.8929 46.6075 18.9682 46.5876 19.0512C46.5775 19.1532 46.5775 19.2559 46.5876 19.3579V21.2342C46.5775 21.3362 46.5775 21.4389 46.5876 21.5409C46.5981 21.6278 46.6398 21.708 46.7049 21.7664C46.7825 21.825 46.8785 21.8538 46.9755 21.8476Z" fill="white"/>
<path d="M48.5542 22.3442V18.2578H49.0413L50.0336 20.5851V18.2578H50.647V22.3442H50.1509L49.1586 19.8996V22.3442H48.5542Z" fill="white"/>
<path d="M42.5375 29.1172C41.5481 28.378 40.4201 27.8453 39.2207 27.5508C38.0212 27.2564 36.7748 27.2062 35.5555 27.4033H35.4112C34.0221 27.737 31.803 28.3053 29.2231 31.4896V31.5437C29.2139 31.5823 29.2139 31.6224 29.2231 31.661C29.2126 31.6963 29.2126 31.7339 29.2231 31.7692L29.2772 31.8685C29.6019 32.4187 30.0169 33.1133 30.3597 33.7628C30.3784 33.7991 30.4069 33.8293 30.442 33.85C30.4771 33.8708 30.5174 33.8812 30.5581 33.8801C30.5868 33.8819 30.6155 33.8771 30.6421 33.8662C30.6686 33.8552 30.6924 33.8384 30.7115 33.8169C30.7314 33.7998 30.7469 33.7782 30.7566 33.7538C33.0569 30.5785 34.861 30.1455 36.0878 29.8479H36.2321C37.9267 29.6314 39.6401 30.0702 41.022 31.0747C42.3751 32.1481 43.0697 33.853 43.0697 36.1442C43.0697 39.996 41.1934 41.5025 39.6239 42.0798C38.0493 42.5961 36.336 42.483 34.8429 41.7641L34.7437 41.719C33.3996 41.1417 31.4061 39.9149 29.5298 36.1533C25.7411 28.5489 22.5749 27.8363 20.5092 27.3582H20.3919C19.1898 27.1652 17.9611 27.2176 16.7798 27.5121C15.5984 27.8067 14.489 28.3373 13.5182 29.0721C12.1561 30.1546 10.5414 32.2654 10.5414 36.1623C10.4245 38.169 11.0399 40.1498 12.2733 41.737C13.2716 42.977 14.5991 43.9106 16.1037 44.4307C17.6082 44.9508 19.2288 45.0364 20.7798 44.6777C21.9964 44.4229 23.1383 43.8921 24.1174 43.1262L25.3081 44.2087C25.3258 44.2267 25.3468 44.241 25.3701 44.2507C25.3933 44.2605 25.4182 44.2655 25.4434 44.2655C25.4686 44.2655 25.4936 44.2605 25.5168 44.2507C25.5401 44.241 25.5611 44.2267 25.5787 44.2087C25.6127 44.1754 25.6322 44.13 25.6329 44.0824L26.4898 38.7873V38.7332C26.4909 38.7059 26.4858 38.6787 26.4749 38.6537C26.4639 38.6287 26.4474 38.6065 26.4267 38.5888C26.4097 38.5732 26.3898 38.5612 26.3681 38.5534C26.3464 38.5457 26.3234 38.5424 26.3004 38.5437H26.2102L21.1316 39.96H21.0414C21.0041 39.9689 20.9699 39.9876 20.9422 40.0141C20.9242 40.0317 20.9099 40.0528 20.9001 40.076C20.8903 40.0992 20.8853 40.1242 20.8853 40.1494C20.8853 40.1746 20.8903 40.1996 20.9001 40.2228C20.9099 40.246 20.9242 40.2671 20.9422 40.2847L20.9963 40.3479L22.1329 41.3672C21.5697 41.7478 20.939 42.0173 20.2746 42.161C19.2044 42.4232 18.0823 42.3824 17.034 42.043C15.9857 41.7037 15.0526 41.0792 14.3391 40.2396C13.4438 39.0948 13.0094 37.6564 13.1213 36.2074C13.1213 33.9071 13.7978 32.1932 15.1329 31.1288C16.484 30.1329 18.1686 29.6996 19.8326 29.92H19.9499C21.6638 30.3079 24.0182 30.8221 27.2566 37.353C28.9435 40.7267 31.0543 42.9368 33.7063 44.1094C34.9696 44.7068 36.3502 45.015 37.7476 45.0115C38.708 45.018 39.6617 44.8498 40.562 44.5154C42.0955 43.9471 45.6767 41.9806 45.6767 36.1623C45.6767 32.2744 44.035 30.1636 42.6548 29.0721" fill="white"/>
<g style="mix-blend-mode:hue">
<rect x="0.257812" y="0.0625" width="56" height="56" fill="#D9D9D9"/>
</g>
</g>
<defs>
<clipPath id="clip0_2420_243801">
<rect x="0.257812" y="0.0625" width="56" height="56" rx="4" fill="white"/>
</clipPath>
</defs>
</svg>
