<svg width="57" height="57" viewBox="0 0 57 57" fill="none" xmlns="http://www.w3.org/2000/svg">
<g clip-path="url(#clip0_2420_243783)">
<path d="M0.343707 0.390579L0.265625 56.3125L56.1875 56.3906L56.2656 0.468661L0.343707 0.390579Z" fill="#48773C"/>
<path d="M5.22277 7.35992C4.94916 7.48542 4.66927 7.59679 4.38422 7.69355C4.01453 7.81978 3.78009 7.90093 3.68091 7.94602V6.42218C4.05709 6.27525 4.42178 6.10044 4.77194 5.89921C5.10581 5.7333 5.41038 5.51402 5.67361 5.25H7.26958V15.9349H5.22277V7.35992Z" fill="white"/>
<path d="M8.99166 15.2764C8.50855 14.5769 8.27365 13.7357 8.32442 12.887V12.5173H10.3532V12.869C10.3338 13.2724 10.4014 13.6752 10.5516 14.0502C10.6177 14.1683 10.717 14.2646 10.8371 14.3271C10.9573 14.3896 11.0931 14.4155 11.2278 14.4018C11.3603 14.418 11.4944 14.3919 11.6111 14.3271C11.7277 14.2623 11.8208 14.1622 11.877 14.0411C12.0061 13.6614 12.0612 13.2604 12.0393 12.86C12.0689 12.4213 11.9818 11.9826 11.7869 11.5886C11.6877 11.4437 11.5522 11.3274 11.394 11.2515C11.2357 11.1755 11.0602 11.1425 10.8852 11.1558H10.5155V9.66801H10.8491C11.025 9.68632 11.2026 9.66232 11.3673 9.59801C11.532 9.5337 11.679 9.43096 11.7959 9.29834C11.9984 8.92622 12.0892 8.50353 12.0574 8.08107C12.0792 7.73393 12.0141 7.38684 11.868 7.07119C11.7986 6.95712 11.6981 6.86516 11.5784 6.80608C11.4586 6.747 11.3245 6.72324 11.1918 6.73756C11.062 6.72392 10.9313 6.75142 10.818 6.81614C10.7047 6.88086 10.6147 6.97954 10.5606 7.09824C10.4237 7.4326 10.3592 7.79213 10.3712 8.1532V8.62208H8.32442V8.04501C8.29935 7.6534 8.35175 7.26069 8.47862 6.88936C8.60549 6.51803 8.80434 6.17536 9.0638 5.88097C9.34496 5.61657 9.67706 5.41224 10.0398 5.28047C10.4026 5.1487 10.7884 5.09225 11.1737 5.11456C11.9559 5.06822 12.7244 5.33413 13.3107 5.85392C13.5724 6.13989 13.7736 6.4758 13.9022 6.84148C14.0308 7.20716 14.0842 7.59506 14.0591 7.98188C14.0793 8.52227 13.9447 9.05719 13.6714 9.52375C13.5711 9.71396 13.4329 9.88166 13.2655 10.0166C13.098 10.1515 12.9048 10.2507 12.6975 10.3082C13.5992 10.6418 14.0591 11.4804 14.0591 12.8329C14.11 13.6927 13.8685 14.5444 13.3738 15.2494C13.1086 15.5607 12.7734 15.8047 12.3957 15.9615C12.018 16.1182 11.6085 16.1832 11.2008 16.1511C10.7903 16.183 10.3779 16.1209 9.99505 15.9693C9.61221 15.8177 9.26903 15.5807 8.99166 15.2764Z" fill="white"/>
<path d="M19.4241 9.37884C19.1776 9.39613 18.9318 9.33626 18.7208 9.20751C18.548 9.09168 18.4206 8.91966 18.3601 8.72062C18.2911 8.49267 18.2577 8.25545 18.261 8.01731V6.56561C18.2579 6.3186 18.2913 6.07248 18.3601 5.83524C18.4242 5.64284 18.5513 5.47766 18.7208 5.36638C18.9335 5.24184 19.178 5.18228 19.4241 5.19506C19.6522 5.18645 19.8788 5.2361 20.0823 5.33933C20.2399 5.43515 20.3606 5.58126 20.425 5.75409C20.4929 5.9544 20.5264 6.16476 20.5242 6.37625V6.71889H19.8118V6.3492C19.8171 6.24407 19.8171 6.13874 19.8118 6.03361C19.8029 5.95001 19.7683 5.87124 19.7127 5.80819C19.6317 5.75275 19.5358 5.72309 19.4376 5.72309C19.3395 5.72309 19.2436 5.75275 19.1626 5.80819C19.1002 5.87125 19.0619 5.95423 19.0544 6.04264C19.0444 6.15361 19.0444 6.26527 19.0544 6.37625V8.1796C19.0382 8.29928 19.0382 8.42059 19.0544 8.54027C19.0601 8.5829 19.0742 8.624 19.0958 8.66115C19.1175 8.6983 19.1463 8.73077 19.1807 8.75668C19.2532 8.8108 19.343 8.83647 19.4331 8.82881C19.5305 8.83863 19.6278 8.80945 19.7036 8.74766C19.7549 8.6794 19.7861 8.59822 19.7938 8.51322C19.8039 8.40224 19.8039 8.29058 19.7938 8.1796V7.81894H20.5061V8.15255C20.5084 8.36994 20.4749 8.58623 20.407 8.79275C20.3503 8.97423 20.2324 9.13039 20.0733 9.23456C19.8756 9.34481 19.65 9.39495 19.4241 9.37884Z" fill="white"/>
<path d="M20.8938 9.32483V5.24023H21.6422V8.84694H22.625V9.36089L20.8938 9.32483Z" fill="white"/>
<path d="M22.8777 9.32483V5.24023H23.6171V9.32483H22.8777Z" fill="white"/>
<path d="M24.0679 9.32483L24.14 5.24023H24.9064L25.4925 8.0715L26.0966 5.24023H26.836L26.9172 9.32483H26.3581L26.304 6.49356L25.7179 9.32483H25.2761L24.681 6.47553L24.6269 9.32483H24.0679Z" fill="white"/>
<path d="M27.1606 9.32483L27.9812 5.24023H28.7746L29.5952 9.32483H28.9009L28.7386 8.42315H28.0263L27.864 9.32483H27.1606ZM28.0623 7.90919H28.6123L28.3418 6.19601L28.0623 7.90919Z" fill="white"/>
<path d="M30.0909 9.32483V5.79026H29.4417V5.24023H31.4794V5.79026H30.8122V9.32483H30.0909Z" fill="white"/>
<path d="M31.678 9.32483V5.24023H33.3912V5.77222H32.4174V6.9444H33.1838V7.45835H32.4174V8.81087H33.4002V9.32483H31.678Z" fill="white"/>
<path d="M18.1167 15.9967L18.9282 11.9121H19.7307L20.5422 15.9967H19.8569L19.6946 15.095H18.9823L18.82 15.9967H18.1167ZM19.0184 14.5811H19.5774L19.2979 12.8679L19.0184 14.5811Z" fill="white"/>
<path d="M21.8587 16.0519C21.6108 16.071 21.3635 16.0076 21.1554 15.8716C20.9842 15.758 20.857 15.5894 20.7947 15.3937C20.7257 15.1658 20.6923 14.9285 20.6955 14.6904V13.2387C20.6924 12.9917 20.7258 12.7456 20.7947 12.5084C20.8588 12.3159 20.9859 12.1508 21.1554 12.0395C21.3664 11.9107 21.6122 11.8509 21.8587 11.8682C22.0872 11.8553 22.3148 11.9052 22.5169 12.0124C22.6745 12.1082 22.7952 12.2544 22.8596 12.4272C22.9278 12.6243 22.9614 12.8318 22.9587 13.0403V13.383H22.2464V13.0313C22.2464 12.9231 22.2464 12.8149 22.2464 12.7248C22.2375 12.6412 22.2028 12.5624 22.1472 12.4993C22.1104 12.4672 22.0675 12.4426 22.021 12.4271C21.9746 12.4116 21.9255 12.4055 21.8767 12.4092C21.7757 12.4041 21.6763 12.4362 21.5972 12.4993C21.5366 12.5636 21.4986 12.6459 21.489 12.7338C21.479 12.8478 21.479 12.9624 21.489 13.0764V14.8798C21.4729 15.0025 21.4729 15.1267 21.489 15.2494C21.4947 15.2921 21.5087 15.3332 21.5304 15.3703C21.5521 15.4075 21.5809 15.4399 21.6152 15.4658C21.6896 15.516 21.778 15.5413 21.8677 15.538C21.9166 15.5433 21.9661 15.5379 22.0128 15.5224C22.0595 15.5068 22.1022 15.4814 22.1382 15.4478C22.1913 15.3806 22.2227 15.2988 22.2284 15.2134C22.2384 15.1054 22.2384 14.9967 22.2284 14.8888V14.465H22.9407V14.7986C22.9421 15.0159 22.9087 15.2321 22.8415 15.4388C22.7844 15.6177 22.6663 15.7708 22.5079 15.8716C22.3143 15.9949 22.0882 16.0577 21.8587 16.0519Z" fill="white"/>
<path d="M23.7793 15.9967V12.4621H23.1301V11.9121H25.1679V12.4621H24.5277V15.9967H23.7793Z" fill="white"/>
<path d="M25.3662 15.9967V11.9121H26.0966V15.9967H25.3662Z" fill="white"/>
<path d="M27.6835 16.0504C27.4443 16.0624 27.2067 16.0061 26.9983 15.8881C26.8269 15.7806 26.6967 15.6186 26.6286 15.4282C26.5521 15.1956 26.5155 14.9517 26.5204 14.7069V13.1831C26.5146 12.9411 26.5512 12.7 26.6286 12.4707C26.6985 12.2837 26.8285 12.1251 26.9983 12.0199C27.2092 11.9094 27.4456 11.8565 27.6835 11.8666C27.9273 11.8558 28.1697 11.9087 28.3868 12.0199C28.554 12.128 28.6833 12.2856 28.7565 12.4707C28.8339 12.7 28.8705 12.9411 28.8647 13.1831V14.7159C28.8698 14.9548 28.8332 15.1928 28.7565 15.4192C28.6901 15.613 28.5597 15.7783 28.3868 15.8881C28.1723 16.0071 27.9285 16.0633 27.6835 16.0504ZM27.6835 15.5004C27.7834 15.508 27.8827 15.4791 27.963 15.4192C28.0227 15.3603 28.0635 15.285 28.0803 15.2028C28.09 15.0978 28.09 14.9922 28.0803 14.8872V13.0117C28.0904 12.9098 28.0904 12.8071 28.0803 12.7052C28.0635 12.623 28.0227 12.5477 27.963 12.4888C27.8827 12.4288 27.7834 12.4 27.6835 12.4076C27.5891 12.3992 27.4951 12.4284 27.422 12.4888C27.3595 12.5469 27.3156 12.6222 27.2958 12.7052C27.2857 12.8071 27.2857 12.9098 27.2958 13.0117V14.8872C27.2861 14.9922 27.2861 15.0978 27.2958 15.2028C27.309 15.2862 27.3504 15.3626 27.413 15.4192C27.4906 15.4778 27.5866 15.5066 27.6835 15.5004Z" fill="white"/>
<path d="M29.2615 15.9967V11.9121H29.7844L30.7763 14.2384V11.9121H31.3894V15.9967H30.8935L29.9017 13.5622V16.0057L29.2615 15.9967Z" fill="white"/>
<path d="M49.3238 35.5004C46.9334 32.2778 43.8226 29.6588 40.2398 27.8526C36.6569 26.0463 32.7014 25.1029 28.689 25.0977C24.6767 25.0924 20.7187 26.0255 17.1311 27.8223C13.5436 29.6191 10.4259 32.23 8.02705 35.4463L7.86475 35.6717L8.02705 35.9061C10.4156 39.1309 13.5255 41.7521 17.1081 43.5603C20.6906 45.3684 24.6466 46.3133 28.6596 46.3194C32.6726 46.3256 36.6314 45.3928 40.2195 43.5956C43.8075 41.7984 46.9254 39.1867 49.3238 35.9693C49.3707 35.9505 49.4109 35.9182 49.4392 35.8764C49.4675 35.8346 49.4826 35.7853 49.4826 35.7348C49.4826 35.6843 49.4675 35.635 49.4392 35.5932C49.4109 35.5515 49.3707 35.5191 49.3238 35.5004ZM21.7325 30.3338C21.8497 30.1715 22.2194 29.7026 22.2645 29.6395C22.3794 29.5314 22.5306 29.4703 22.6883 29.4682C22.8145 29.4682 22.9949 29.5132 23.0129 29.6124C23.0246 29.8059 22.9841 29.999 22.8957 30.1715C22.6541 30.4114 22.3338 30.5555 21.994 30.5772C21.7956 30.5772 21.7145 30.3969 21.7506 30.3338M21.3087 31.2355V31.1813C21.503 31.0248 21.7446 30.939 21.994 30.9379C22.2104 30.8928 22.499 31.01 22.526 31.1543C22.5531 31.2986 21.985 31.551 21.8768 31.6502C21.5792 31.9297 21.1104 32.4888 20.8399 32.5519C20.7675 32.5805 20.6869 32.5805 20.6144 32.5519C20.7926 32.1039 21.0098 31.6724 21.2637 31.2625M25.9073 40.8383C25.8327 41.249 25.6489 41.6321 25.3753 41.9474C25.053 42.242 24.6308 42.4031 24.1941 42.3982C23.7974 42.3982 23.7433 41.3162 23.7433 40.7752C23.7433 40.5858 23.4818 41.1449 23.3465 40.0178C23.2564 39.2964 22.7875 40.0899 22.7604 39.603C22.7334 39.1161 22.4899 39.2243 22.2555 38.9177C22.0211 38.6112 21.7055 38.9177 21.3538 39.0981C21.0022 39.2784 21.1555 39.3325 20.6685 39.1792C20.2224 38.1077 19.9925 36.9586 19.9923 35.7979C19.9923 35.5004 19.9923 35.2118 20.0374 34.8963C20.0511 34.8666 20.0693 34.8392 20.0915 34.8151C20.5513 34.2651 20.5423 34.1389 20.5423 34.1389L21.0473 33.9675C21.5318 34.0457 22.0085 34.1664 22.4719 34.3282C22.9768 34.5175 23.7613 34.9413 24.2753 34.752C24.6089 34.6167 24.8613 34.4364 24.8343 34.1569C24.8072 33.8774 24.5277 33.7241 24.1941 33.9585C24.0679 34.0487 23.8064 33.4355 23.608 33.4626C23.4096 33.4896 23.8605 34.1839 23.6801 34.211C23.4998 34.238 23.1572 33.4987 23.1031 33.3724C23.049 33.2462 22.7695 32.9576 22.526 33.1831C22.0211 33.67 21.1825 33.6339 21.0202 33.7601C20.5062 34.1388 20.38 33.6339 20.389 33.3273C20.4059 33.257 20.427 33.1878 20.4521 33.12C20.5922 33.0253 20.7532 32.966 20.9212 32.9471C21.0893 32.9283 21.2594 32.9505 21.4169 33.0118C21.6424 33.165 21.8047 33.0117 21.8948 32.8855C21.985 32.7593 21.9489 32.6511 21.8948 32.5339C21.8407 32.4166 22.003 32.3175 22.1202 32.2904C22.3485 32.1768 22.5685 32.0473 22.7785 31.9027C23.2096 31.7652 23.6728 31.7652 24.1039 31.9027C24.2498 31.9868 24.4211 32.0158 24.5866 31.9844C24.752 31.9529 24.9007 31.8632 25.0056 31.7314C25.1803 31.5179 25.3946 31.3404 25.6368 31.2084C25.763 31.1453 25.3212 30.7395 24.9605 31.2084C24.5999 31.6773 24.4195 31.6863 24.2572 31.6863C24.0949 31.6863 23.085 31.4428 22.9588 31.1182C22.8326 30.7936 23.2744 30.5682 23.6441 30.3879C24.183 30.2625 24.7324 30.1871 25.2851 30.1625C25.8081 30.0452 26.4844 29.7838 26.827 30.0092C27.1696 30.2346 25.4114 30.6403 25.9794 30.9108C26.1868 31.0281 27.1155 30.3789 27.4311 30.2166C28.1795 29.8288 26.7098 29.7026 26.8991 28.9181C27.0885 28.1337 25.0958 28.3771 24.0949 28.4493C25.4701 27.5665 27.0684 27.0942 28.7025 27.0877C30.6528 27.0905 32.5456 27.7492 34.0764 28.9577C35.6071 30.1663 36.687 31.8546 37.1422 33.7511C37.1574 33.8859 37.1574 34.0221 37.1422 34.1569C37.1024 34.2557 37.0357 34.3413 36.9496 34.404C36.8635 34.4668 36.7615 34.504 36.6553 34.5115C36.549 34.519 36.4428 34.4965 36.3488 34.4466C36.2547 34.3966 36.1766 34.3212 36.1233 34.229C36.0331 34.1028 35.6634 33.7511 35.6724 34.3552C35.6815 34.9594 36.2585 35.0135 35.6724 35.3741C35.4036 35.5638 35.0954 35.6902 34.7708 35.7438C34.6153 35.8651 34.4932 36.0238 34.4159 36.2052C34.3386 36.3866 34.3087 36.5846 34.3289 36.7808C34.3921 37.1144 35.1765 38.0161 34.5904 37.98C34.047 37.7147 33.5835 37.3102 33.2469 36.8078C33.0666 36.3299 32.8682 35.852 32.733 35.4914C32.7153 35.4035 32.6749 35.3218 32.6159 35.2543C32.5568 35.1869 32.4811 35.136 32.3964 35.1068C32.3116 35.0777 32.2207 35.0712 32.1326 35.088C32.0446 35.1049 31.9625 35.1444 31.8944 35.2028C31.5879 35.4102 31.9846 35.6176 31.7592 36.1045C31.5337 36.5914 31.3805 36.9521 31.0559 36.5824C30.2083 35.6086 28.973 36.0865 28.7836 35.0045C28.6754 34.4184 28.1705 34.4725 27.7557 34.1028C27.341 33.7331 27.0975 33.5978 27.0254 33.8323C26.9532 34.0667 28.3508 35.1487 28.45 35.4282C28.5943 35.852 28.0262 36.2217 27.6205 36.3299C27.2147 36.4381 27.0254 36.0955 26.6196 35.6717C26.2139 35.2479 26.0425 34.9504 26.0155 35.284C26.0293 35.569 26.1079 35.847 26.2454 36.097C26.383 36.347 26.5757 36.5624 26.809 36.7267C27.1606 36.9431 27.5483 37.0513 27.4401 37.4119C27.3319 37.7726 27.4401 37.5652 27.0434 37.9529C26.8753 38.0669 26.744 38.2273 26.6655 38.4147C26.5871 38.602 26.5648 38.8081 26.6016 39.0079C26.6016 39.5579 26.4844 39.585 26.4032 40.0358C26.3221 40.4866 26.1147 40.0989 25.9434 40.7572M35.2667 37.3037C35.5552 37.3037 35.997 37.6914 35.8257 37.8447C35.6946 37.9118 35.5473 37.9406 35.4006 37.9278C35.2539 37.9151 35.1138 37.8613 34.9962 37.7726C34.7798 37.6013 35.1314 37.3218 35.2667 37.3037ZM34.897 37.0422C34.8068 37.0422 34.7257 36.916 34.6536 36.6996C34.6323 36.6617 34.6248 36.6176 34.6322 36.5747C34.6397 36.5319 34.6616 36.4929 34.6944 36.4643C34.7272 36.4358 34.7688 36.4194 34.8123 36.4179C34.8557 36.4164 34.8984 36.4299 34.9331 36.4562C35.1134 36.5463 35.3478 36.8078 35.3478 36.9521C35.3478 37.0963 34.9962 37.0783 34.897 37.0422ZM31.0649 37.0422C30.9324 37.106 30.785 37.1321 30.6387 37.1178C30.4925 37.1035 30.3529 37.0493 30.2353 36.9611C30.0189 36.7898 30.3796 36.5103 30.5058 36.5012C30.7944 36.5012 31.2362 36.8799 31.0649 37.0422ZM27.5123 38.8095C27.386 39.0079 27.0614 40.4686 26.845 40.2973C26.6286 40.126 26.9352 38.6021 26.9983 38.4939C27.341 37.8718 28.0803 37.8988 27.5123 38.8185M28.6845 44.4811C27.8574 44.48 27.0347 44.3616 26.2409 44.1294C26.1801 44.0795 26.1369 44.0115 26.1174 43.9352C26.098 43.859 26.1033 43.7786 26.1327 43.7056C26.2969 43.3952 26.542 43.135 26.842 42.9524C27.142 42.7699 27.4857 42.6719 27.8369 42.6687C29.2435 42.5335 31.0919 43.5704 31.3895 43.4171C31.687 43.2638 32.2912 42.5154 33.1928 42.5154C33.4717 42.4956 33.7496 42.5651 33.9863 42.7138C32.4755 43.8747 30.6258 44.5081 28.7205 44.5171M34.8429 42.0015C34.7495 41.9741 34.6589 41.9378 34.5724 41.8933C34.0945 41.6588 34.1576 42.0375 33.9232 41.9564C33.6888 41.8752 34.1847 41.3252 33.4814 41.7851C32.7781 42.2449 32.9764 41.7129 32.6699 40.9375C32.5724 40.5724 32.6099 40.1845 32.7756 39.8449C32.9412 39.5053 33.2239 39.2369 33.5715 39.089C34.0848 38.9063 34.6127 38.7675 35.1495 38.6743C36.1954 38.4128 36.4118 37.7726 36.6012 38.1693L36.7094 38.3767C36.7901 38.5522 36.8331 38.7426 36.8356 38.9358C36.3958 40.0871 35.7166 41.1321 34.8429 42.0015ZM37.2323 37.6193C36.9979 37.5562 36.0241 36.2037 36.7905 35.32C36.9258 35.1758 36.5381 34.743 36.6463 34.7339C36.8253 34.7232 37.0018 34.7803 37.1405 34.894C37.2792 35.0076 37.37 35.1694 37.3946 35.3471C37.3946 35.5094 37.3946 35.6807 37.3946 35.843C37.3964 36.4487 37.3359 37.053 37.2143 37.6464" fill="white"/>
<g style="mix-blend-mode:hue">
<rect x="0.265625" y="0.390625" width="56" height="56" fill="#D9D9D9"/>
</g>
</g>
<defs>
<clipPath id="clip0_2420_243783">
<rect x="0.265625" y="0.390625" width="56" height="56" rx="4" fill="white"/>
</clipPath>
</defs>
</svg>
