<svg width="57" height="57" viewBox="0 0 57 57" fill="none" xmlns="http://www.w3.org/2000/svg">
<g clip-path="url(#clip0_1648_94179)">
<path d="M56.3281 0.4375H0.328125V56.4375H56.3281V0.4375Z" fill="#C22033"/>
<path d="M7.82434 13.4578H4.60522V11.8482L7.39031 5.31055H9.66901V11.9115H10.736V13.4578H9.66901V15.9897H7.86052L7.82434 13.4578ZM7.82434 11.9115V7.39031L6.19669 11.9115H7.82434Z" fill="white"/>
<path d="M16.6137 9.89654C16.471 9.75427 16.341 9.59997 16.2248 9.43537H16.1434C15.9766 9.44988 15.8086 9.42652 15.652 9.36702C15.4954 9.30752 15.3543 9.21342 15.2392 9.09176C15.0396 8.80008 14.9441 8.4497 14.9679 8.09709V6.55987C14.9424 6.21273 15.0383 5.86751 15.2392 5.58328C15.3548 5.4627 15.4962 5.36994 15.6528 5.31198C15.8095 5.25403 15.9772 5.23239 16.1434 5.24871C16.3098 5.23031 16.4782 5.25097 16.6351 5.30905C16.7921 5.36713 16.9334 5.46103 17.0477 5.58328C17.2561 5.86422 17.3557 6.21116 17.328 6.55987V8.09709C17.3638 8.33278 17.3288 8.5738 17.2274 8.78954C17.126 9.00528 16.9627 9.18601 16.7583 9.30878C16.8765 9.4555 17.0133 9.58621 17.1652 9.6976L17.0296 10.1949C16.8758 10.1184 16.7354 10.0177 16.6137 9.89654ZM16.478 8.73006C16.5442 8.58884 16.5752 8.43373 16.5684 8.27794V6.36998C16.5741 6.21718 16.5431 6.06526 16.478 5.92689C16.4418 5.87294 16.3914 5.83003 16.3324 5.8029C16.2733 5.77578 16.208 5.76549 16.1434 5.77317C16.0777 5.76579 16.0111 5.77615 15.9507 5.80318C15.8902 5.83021 15.8382 5.87293 15.7998 5.92689C15.7382 6.06613 15.7103 6.21794 15.7184 6.36998V8.25081C15.7105 8.4087 15.7383 8.56635 15.7998 8.71198C15.8382 8.76594 15.8902 8.80866 15.9507 8.83569C16.0111 8.86272 16.0777 8.87308 16.1434 8.8657C16.2117 8.88394 16.2839 8.88071 16.3502 8.85643C16.4166 8.83216 16.4738 8.78804 16.5142 8.73006H16.478Z" fill="white"/>
<path d="M18.3044 9.28142C18.1347 9.17565 18.0094 9.01172 17.9518 8.82025C17.876 8.57449 17.8423 8.31767 17.8523 8.06069V5.34795H18.5757V8.17824C18.5675 8.36265 18.5951 8.54689 18.6571 8.72079C18.6938 8.77868 18.7446 8.82635 18.8046 8.85939C18.8647 8.89242 18.9321 8.90974 19.0007 8.90974C19.0692 8.90974 19.1367 8.89242 19.1968 8.85939C19.2568 8.82635 19.3076 8.77868 19.3443 8.72079C19.4062 8.54689 19.4339 8.36265 19.4257 8.17824V5.30273H20.1491V8.01547C20.1546 8.27224 20.1211 8.52836 20.0496 8.77504C19.9859 8.96335 19.862 9.12542 19.697 9.23621C19.4804 9.34307 19.2422 9.39865 19.0007 9.39865C18.7592 9.39865 18.521 9.34307 18.3044 9.23621V9.28142Z" fill="white"/>
<path d="M21.3158 5.30273H22.1115L22.9344 9.38089H22.2381L22.0753 8.47664H21.37L21.1982 9.38089H20.502L21.3158 5.30273ZM21.994 8.01547L21.7227 6.2974L21.4424 8.01547H21.994Z" fill="white"/>
<path d="M23.314 5.30273H24.0554V8.91972H25.0501V9.4261H23.314V5.30273Z" fill="white"/>
<path d="M25.4299 5.30273H26.1624V9.38089H25.4299V5.30273Z" fill="white"/>
<path d="M27.1662 5.85433H26.488V5.30273H28.5768V5.85433H27.9077V9.38089H27.1662V5.85433Z" fill="white"/>
<path d="M29.454 7.82558L28.6221 5.30273H29.3183L29.8247 6.92134L30.2949 5.30273H30.9822L30.1774 7.82558V9.38089H29.4721L29.454 7.82558Z" fill="white"/>
<path d="M15.0674 11.9668H16.7764V12.4913H15.7998V13.6668H16.6137V14.1912H15.845V15.5476H16.8307V16.054H15.1126L15.0674 11.9668Z" fill="white"/>
<path d="M17.1924 11.9669H18.1599C18.426 11.9543 18.6915 12.0006 18.9376 12.1025C19.1139 12.1871 19.2548 12.3312 19.3354 12.5094C19.4248 12.7428 19.4648 12.9922 19.453 13.2419V14.7248C19.4633 14.9803 19.4234 15.2353 19.3354 15.4753C19.2616 15.6646 19.1197 15.8194 18.9376 15.9094C18.703 16.0182 18.4453 16.0679 18.1871 16.0541H17.1924V11.9669ZM18.169 15.5296C18.2921 15.5396 18.4153 15.5112 18.5216 15.4482C18.5607 15.4212 18.5937 15.3863 18.6186 15.3458C18.6435 15.3054 18.6598 15.2602 18.6663 15.2131C18.6782 15.0596 18.6782 14.9054 18.6663 14.7519V13.1876C18.6786 13.0522 18.6786 12.916 18.6663 12.7807C18.6445 12.6914 18.5895 12.6139 18.5126 12.5637C18.4026 12.5122 18.281 12.4903 18.1599 12.5004H17.9339V15.5296H18.169Z" fill="white"/>
<path d="M20.4023 15.9455C20.2326 15.8397 20.1073 15.6758 20.0496 15.4843C19.9731 15.2418 19.9395 14.9878 19.9502 14.7338V11.9668H20.6736V14.8152C20.6662 15.0025 20.6938 15.1895 20.755 15.3668C20.7917 15.4246 20.8424 15.4723 20.9025 15.5054C20.9626 15.5384 21.03 15.5557 21.0986 15.5557C21.1671 15.5557 21.2346 15.5384 21.2946 15.5054C21.3547 15.4723 21.4055 15.4246 21.4422 15.3668C21.5033 15.1895 21.5309 15.0025 21.5236 14.8152V11.9668H22.247V14.7338C22.2519 14.9876 22.2183 15.2406 22.1475 15.4843C22.0838 15.6726 21.9599 15.8347 21.7948 15.9455C21.5825 16.0636 21.3413 16.12 21.0986 16.1082C20.8556 16.1225 20.6137 16.066 20.4023 15.9455Z" fill="white"/>
<path d="M23.0067 15.7554C22.8096 15.4592 22.7144 15.1068 22.7354 14.7517V13.2868C22.7123 12.9299 22.8042 12.5749 22.9977 12.274C23.1098 12.1479 23.2502 12.0502 23.4074 11.9889C23.5646 11.9276 23.734 11.9045 23.9019 11.9214C24.0575 11.9067 24.2144 11.9266 24.3614 11.9798C24.5083 12.0329 24.6417 12.118 24.7519 12.2288C24.9466 12.4879 25.037 12.8106 25.0051 13.1331V13.4767H24.2907V13.124C24.2971 13.0126 24.2971 12.9009 24.2907 12.7895C24.2809 12.7093 24.2423 12.6354 24.1822 12.5815C24.1468 12.5534 24.1063 12.5325 24.0628 12.5201C24.0194 12.5077 23.9739 12.504 23.929 12.5091C23.8314 12.4993 23.7338 12.5286 23.6578 12.5905C23.5949 12.6473 23.5535 12.7239 23.5402 12.8075C23.5245 12.9276 23.5245 13.0492 23.5402 13.1692V14.9777C23.5315 15.1483 23.5624 15.3185 23.6306 15.4751C23.6661 15.5298 23.7163 15.5733 23.7756 15.6005C23.8348 15.6277 23.9006 15.6375 23.9652 15.6288C24.057 15.6357 24.1479 15.6065 24.2184 15.5474C24.2756 15.4913 24.3136 15.4185 24.3269 15.3394C24.3331 15.2189 24.3331 15.0982 24.3269 14.9777V14.5075H25.0413V14.8331C25.0584 15.1528 24.9729 15.4696 24.7971 15.7373C24.6897 15.8554 24.5559 15.9465 24.4066 16.0031C24.2573 16.0596 24.0968 16.0801 23.9381 16.0628C23.7695 16.0922 23.5963 16.0794 23.4339 16.0258C23.2714 15.9722 23.1247 15.8793 23.0067 15.7554Z" fill="white"/>
<path d="M26.1083 11.9668H26.904L27.7268 16.054H27.0306L26.8678 15.1497H26.1625L25.9907 16.054H25.2944L26.1083 11.9668ZM26.7955 14.6795L26.5604 12.9253L26.2801 14.6343L26.7955 14.6795Z" fill="white"/>
<path d="M28.3689 12.5184H27.6816V11.9668H29.7795V12.5184H29.1013V16.054H28.3689V12.5184Z" fill="white"/>
<path d="M30.105 11.9668H30.8465V16.054H30.105V11.9668Z" fill="white"/>
<path d="M31.6512 15.7643C31.4504 15.4733 31.3547 15.1224 31.38 14.7697V13.2415C31.356 12.8917 31.4517 12.5442 31.6512 12.2559C31.7683 12.1374 31.91 12.046 32.0662 11.9882C32.2225 11.9304 32.3895 11.9076 32.5555 11.9213C32.7217 11.905 32.8894 11.9266 33.0461 11.9846C33.2027 12.0425 33.3442 12.1353 33.4597 12.2559C33.6666 12.541 33.7659 12.8902 33.74 13.2415V14.7697C33.7613 15.1233 33.6625 15.4738 33.4597 15.7643C33.3459 15.8877 33.2049 15.9829 33.048 16.0425C32.8911 16.1021 32.7225 16.1245 32.5555 16.108C32.3886 16.1225 32.2206 16.0991 32.064 16.0396C31.9075 15.9801 31.7664 15.886 31.6512 15.7643ZM32.8901 15.4117C32.9515 15.2692 32.9793 15.1145 32.9714 14.9596V13.0697C32.9803 12.9147 32.9524 12.7598 32.8901 12.6176C32.8469 12.5707 32.7944 12.5333 32.7361 12.5077C32.6777 12.4822 32.6147 12.469 32.551 12.469C32.4872 12.469 32.4242 12.4822 32.3658 12.5077C32.3075 12.5333 32.2551 12.5707 32.2119 12.6176C32.1478 12.756 32.1198 12.9085 32.1305 13.0606V14.9415C32.1226 15.0964 32.1505 15.2511 32.2119 15.3936C32.2488 15.4491 32.3006 15.4929 32.3614 15.5201C32.4223 15.5473 32.4895 15.5568 32.5555 15.5473C32.6183 15.558 32.6829 15.5509 32.742 15.527C32.8011 15.503 32.8524 15.4631 32.8901 15.4117Z" fill="white"/>
<path d="M34.2644 11.9668H34.7798L35.7745 14.2997V11.9668H36.3894V16.054H35.8921L34.8974 13.6125V16.054H34.2644V11.9668Z" fill="white"/>
<path d="M25.1407 30.4769L15.0583 24.6445V43.4981L25.1407 46.5363V30.4769Z" fill="white"/>
<path d="M26.2529 30.5131V46.5454L36.4076 43.489V24.6445L26.2529 30.5131Z" fill="white"/>
<path d="M42.24 43.1625H41.9417L43.1352 47.331L44.3288 43.1625H44.0305H44.3288V26.3887H44.0305H43.732H43.4156H42.8278H42.5294H42.24H41.9417V43.1625H42.24Z" fill="white"/>
<path d="M38.5778 25.4586L37.4927 24.5996V44.0047L26.2801 47.6308H25.7646H25.6652H25.1407L13.9823 44.5111V24.5996L12.8972 25.4586V45.2707L25.0955 48.6435H25.6652H25.7646H26.3343L37.5832 45.0718L38.5778 44.7824V25.4586Z" fill="white"/>
<path d="M44.3288 24.1741C44.3288 23.8575 44.2031 23.5539 43.9792 23.3301C43.7554 23.1062 43.4518 22.9805 43.1352 22.9805C42.8187 22.9805 42.5151 23.1062 42.2912 23.3301C42.0674 23.5539 41.9417 23.8575 41.9417 24.1741V25.4581H44.3288V24.1741Z" fill="white"/>
</g>
<defs>
<clipPath id="clip0_1648_94179">
<rect x="0.328125" y="0.4375" width="56" height="56" rx="4" fill="white"/>
</clipPath>
</defs>
</svg>
