<svg width="56" height="56" viewBox="0 0 56 56" fill="none" xmlns="http://www.w3.org/2000/svg">
<g clip-path="url(#clip0_1648_94178)">
<path d="M56 0H0V56H56V0Z" fill="#EA1D2D"/>
<path d="M4.88207 6.98141C4.60813 7.10656 4.32755 7.2167 4.04158 7.31135C3.66604 7.43619 3.43356 7.51644 3.33521 7.56103V6.0451C3.71193 5.89815 4.07664 5.72225 4.42606 5.51899C4.75203 5.34659 5.05286 5.13058 5.3202 4.87695H6.92071V15.5776H4.86418L4.88207 6.98141Z" fill="white"/>
<path d="M11.427 4.86914H11.9277L12.9202 7.19653V4.86914H13.5372V8.91755H13.0454L12.0618 6.50991V8.91755H11.427V4.86914Z" fill="white"/>
<path d="M14.2884 8.66688C14.084 8.37549 13.9862 8.0229 14.0113 7.66815V6.13439C13.9859 5.78517 14.0839 5.43811 14.2884 5.1535C14.4027 5.03459 14.5426 4.94311 14.6975 4.88596C14.8523 4.82881 15.0182 4.80747 15.1826 4.82357C15.3468 4.80941 15.5121 4.83165 15.6667 4.88869C15.8213 4.94573 15.9613 5.03616 16.0767 5.1535C16.2741 5.44114 16.3686 5.78667 16.345 6.13439V7.66815C16.3717 8.02028 16.2736 8.3706 16.0678 8.65796C15.956 8.78117 15.8171 8.87674 15.6619 8.9371C15.5067 8.99747 15.3395 9.02096 15.1736 9.00573C15.0101 9.01867 14.8457 8.99496 14.6925 8.93633C14.5394 8.87769 14.4013 8.78563 14.2884 8.66688ZM15.5045 8.30127C15.5653 8.15767 15.5928 8.0022 15.5849 7.84649V5.96497C15.5937 5.8121 15.5661 5.65933 15.5045 5.51911C15.4508 5.4121 15.3346 5.36752 15.1647 5.36752C15.1007 5.35774 15.0353 5.3669 14.9765 5.39384C14.9177 5.42079 14.8681 5.46434 14.8339 5.51911C14.7659 5.65752 14.7351 5.81114 14.7445 5.96497V7.84649C14.7335 8.0033 14.7644 8.16019 14.8339 8.30127C14.8697 8.35448 14.9195 8.3968 14.9779 8.42355C15.0362 8.4503 15.1009 8.46044 15.1647 8.45286C15.2297 8.46015 15.2956 8.44993 15.3553 8.42327C15.4151 8.39662 15.4666 8.35449 15.5045 8.30127Z" fill="white"/>
<path d="M11.427 11.5391H12.6251C13.3226 11.5391 13.6713 11.9225 13.6713 12.6983C13.6933 12.847 13.6804 12.9988 13.6337 13.1417C13.587 13.2847 13.5076 13.4148 13.4019 13.522C13.2962 13.6291 13.1669 13.7104 13.0244 13.7593C12.8819 13.8083 12.7299 13.8236 12.5804 13.804H12.1691V15.5875H11.427V11.5391ZM12.4553 13.3225C12.5287 13.3311 12.6032 13.3245 12.674 13.303C12.7448 13.2815 12.8103 13.2456 12.8666 13.1977C12.9519 13.0588 12.9896 12.8961 12.9739 12.734C12.9869 12.6124 12.9869 12.4899 12.9739 12.3684C12.9681 12.3195 12.9515 12.2725 12.9252 12.2308C12.8989 12.1891 12.8636 12.1539 12.8219 12.1276C12.717 12.0741 12.5997 12.0494 12.4821 12.0563H12.196V13.2779L12.4553 13.3225Z" fill="white"/>
<path d="M14.2706 15.3368C14.07 15.0436 13.9725 14.6924 13.9934 14.3381V12.8043C13.971 12.4554 14.0688 12.1093 14.2706 11.8234C14.3852 11.705 14.5251 11.6139 14.6799 11.5568C14.8347 11.4997 15.0004 11.4781 15.1647 11.4935C15.3291 11.4774 15.4949 11.4987 15.6498 11.5559C15.8047 11.613 15.9446 11.7045 16.0588 11.8234C16.2575 12.1105 16.3521 12.4564 16.3271 12.8043V14.3381C16.352 14.6887 16.2575 15.0375 16.0588 15.3279C15.8104 15.5419 15.493 15.6596 15.1647 15.6596C14.8364 15.6596 14.519 15.5419 14.2706 15.3279V15.3368ZM15.5045 14.9712C15.5687 14.8284 15.5993 14.6728 15.5939 14.5164V12.6349C15.6032 12.4811 15.5724 12.3274 15.5045 12.189C15.4508 12.082 15.3435 12.0374 15.1736 12.0374C15.0038 12.0374 14.8875 12.0374 14.8339 12.189C14.7659 12.3274 14.7351 12.4811 14.7445 12.6349V14.5164C14.7336 14.6732 14.7644 14.8301 14.8339 14.9712C14.8711 15.0251 14.9225 15.0678 14.9824 15.0945C15.0424 15.1213 15.1085 15.1311 15.1736 15.1228C15.2374 15.1304 15.3021 15.1202 15.3605 15.0935C15.4189 15.0667 15.4687 15.0244 15.5045 14.9712Z" fill="white"/>
<path d="M16.6936 11.5391H17.3463L17.8918 14.4282L18.4014 11.5391H19.081L18.2583 15.6142H17.5252L16.6936 11.5391Z" fill="white"/>
<path d="M19.4653 11.5391H21.1821V12.0563H20.2075V13.2333H20.9764V13.7505H20.2075V15.1059H21.191V15.6142H19.4653V11.5391Z" fill="white"/>
<path d="M21.6025 11.538H22.5861C22.9257 11.5113 23.2647 11.5959 23.5518 11.7788C23.6679 11.8833 23.7575 12.0138 23.8135 12.1594C23.8694 12.3051 23.89 12.4619 23.8737 12.617C23.8835 12.8341 23.8437 13.0506 23.7574 13.2501C23.7192 13.3329 23.6647 13.4072 23.5971 13.4684C23.5295 13.5297 23.4502 13.5768 23.364 13.6068L23.9362 15.6132H23.1941L22.7023 13.7495H22.3447V15.6132H21.6025V11.538ZM22.5861 13.3215C22.6671 13.3294 22.7489 13.3199 22.826 13.2938C22.9031 13.2677 22.9737 13.2254 23.0332 13.1699C23.1356 13.0346 23.1834 12.866 23.1673 12.6973C23.1824 12.5312 23.1415 12.3649 23.051 12.2247C22.9946 12.1706 22.9268 12.1298 22.8526 12.1051C22.7783 12.0804 22.6995 12.0725 22.6219 12.082H22.3447V13.2858L22.5861 13.3215Z" fill="white"/>
<path d="M24.8124 12.083H24.1328V11.5391H26.234V12.083H25.5634V15.6499H24.8213L24.8124 12.083Z" fill="white"/>
<path d="M27.1283 14.0626L26.2341 11.5391H26.9316L27.4412 13.1531L27.9151 11.5391H28.5947L27.781 14.0626V15.6142H27.1283V14.0626Z" fill="white"/>
<path d="M43.2227 26.7519C43.2227 26.4433 43.3144 26.1416 43.4864 25.8849C43.6583 25.6283 43.9027 25.4283 44.1886 25.3102C44.4745 25.1921 44.7891 25.1612 45.0927 25.2214C45.3962 25.2816 45.675 25.4302 45.8938 25.6485C46.1127 25.8667 46.2617 26.1448 46.3221 26.4475C46.3825 26.7502 46.3515 27.064 46.233 27.3491C46.1146 27.6342 45.914 27.878 45.6567 28.0494C45.3994 28.2209 45.0969 28.3124 44.7874 28.3124C44.3724 28.3124 43.9744 28.148 43.681 27.8554C43.3875 27.5627 43.2227 27.1658 43.2227 26.7519Z" fill="white"/>
<path d="M46.6294 28.873C47.1456 28.9219 47.625 29.1609 47.9739 29.5435C48.3228 29.9261 48.5161 30.4247 48.516 30.9418V35.2578C48.5264 35.343 48.5186 35.4294 48.493 35.5113C48.4675 35.5933 48.4247 35.6689 48.3677 35.7331C48.3106 35.7974 48.2406 35.8488 48.1621 35.8841C48.0836 35.9193 47.9985 35.9375 47.9125 35.9375C47.8264 35.9375 47.7413 35.9193 47.6629 35.8841C47.5844 35.8488 47.5143 35.7974 47.4573 35.7331C47.4002 35.6689 47.3575 35.5933 47.3319 35.5113C47.3064 35.4294 47.2985 35.343 47.3089 35.2578V31.5482C47.3159 31.5068 47.3132 31.4644 47.3013 31.4241C47.2893 31.3839 47.2683 31.3469 47.2398 31.316C47.2114 31.285 47.1763 31.261 47.1371 31.2456C47.098 31.2302 47.0558 31.2239 47.0139 31.2272C46.835 31.2272 46.7993 31.4055 46.7903 31.5304V42.6412C46.7419 42.834 46.6302 43.0052 46.4731 43.1274C46.3159 43.2497 46.1223 43.3161 45.923 43.3161C45.7237 43.3161 45.5301 43.2497 45.373 43.1274C45.2158 43.0052 45.1042 42.834 45.0557 42.6412V36.2387C45.0583 36.2048 45.0536 36.1708 45.042 36.1389C45.0305 36.1069 45.0123 36.0778 44.9886 36.0534C44.965 36.029 44.9364 36.0098 44.9049 35.9972C44.8733 35.9845 44.8394 35.9787 44.8053 35.9801C44.7713 35.9787 44.7374 35.9845 44.7058 35.9972C44.6742 36.0098 44.6457 36.029 44.622 36.0534C44.5984 36.0778 44.5802 36.1069 44.5687 36.1389C44.5571 36.1708 44.5524 36.2048 44.555 36.2387V42.6412C44.555 42.8777 44.4608 43.1045 44.2931 43.2717C44.1254 43.439 43.898 43.5329 43.6608 43.5329C43.4237 43.5329 43.1963 43.439 43.0286 43.2717C42.8609 43.1045 42.7667 42.8777 42.7667 42.6412V31.5304C42.7667 31.4055 42.7667 31.2272 42.5521 31.2272C42.3375 31.2272 42.257 31.4144 42.257 31.5482V35.2578C42.257 35.4186 42.193 35.5728 42.079 35.6865C41.9649 35.8002 41.8103 35.8641 41.649 35.8641C41.4878 35.8641 41.3331 35.8002 41.2191 35.6865C41.1051 35.5728 41.041 35.4186 41.041 35.2578V30.9418C41.0411 30.4233 41.2357 29.9235 41.5864 29.5407C41.9372 29.1579 42.4188 28.9198 42.9366 28.873H46.5847" fill="white"/>
<path d="M33.9504 27.5357C33.9504 27.2439 33.8634 26.9588 33.7005 26.7164C33.5376 26.4741 33.3061 26.2855 33.0355 26.1747C32.7648 26.0639 32.4673 26.0358 32.1806 26.0941C31.894 26.1523 31.6311 26.2942 31.4255 26.5018C31.2199 26.7093 31.0808 26.9731 31.026 27.2597C30.9711 27.5463 31.0028 27.8427 31.1173 28.1112C31.2317 28.3797 31.4235 28.6083 31.6685 28.7678C31.9135 28.9273 32.2004 29.0106 32.493 29.007C32.8843 29.007 33.2595 28.852 33.5362 28.5761C33.8129 28.3001 33.9683 27.9259 33.9683 27.5357" fill="white"/>
<path d="M29.4977 30.8719L28.2638 34.8668C28.2638 34.8668 28.0492 35.5981 28.6751 35.7586C29.301 35.9191 29.4798 35.2325 29.4798 35.2325L30.4723 31.8974C30.4723 31.8974 30.526 31.6477 30.7137 31.7012C30.9015 31.7548 30.8389 32.0312 30.8389 32.0312L29.1132 38.2732H30.7048V42.7318C30.7253 42.9221 30.8157 43.0981 30.9584 43.226C31.1012 43.3538 31.2863 43.4246 31.4782 43.4246C31.6701 43.4246 31.8552 43.3538 31.998 43.226C32.1408 43.0981 32.2311 42.9221 32.2516 42.7318V38.2732H32.6898V42.7318C32.6803 42.9423 32.755 43.1479 32.8976 43.3034C33.0401 43.459 33.2387 43.5517 33.4498 43.5611C33.6608 43.5706 33.867 43.496 34.023 43.3539C34.1789 43.2117 34.2719 43.0136 34.2813 42.8032V38.3446H35.8819L34.1651 32.1025C34.1651 32.1025 34.0846 31.8261 34.2813 31.7726C34.4781 31.7191 34.5317 31.9688 34.5317 31.9688L35.5153 35.3038C35.5153 35.3038 35.712 36.0172 36.3289 35.8299C36.9459 35.6426 36.7313 34.9382 36.7313 34.9382L35.4974 30.9433C35.4974 30.9433 35.0592 29.793 34.0846 29.793H30.9551C29.9805 29.793 29.5424 30.9433 29.5424 30.9433" fill="white"/>
<path d="M25.0984 27.536C25.1002 27.2425 25.0144 26.9551 24.852 26.7103C24.6896 26.4655 24.4579 26.2744 24.1863 26.1613C23.9147 26.0481 23.6155 26.0181 23.3268 26.0749C23.038 26.1317 22.7727 26.2729 22.5646 26.4804C22.3565 26.688 22.215 26.9526 22.158 27.2405C22.101 27.5285 22.1311 27.8269 22.2446 28.0977C22.358 28.3685 22.5497 28.5996 22.7951 28.7616C23.0406 28.9236 23.3288 29.0091 23.6231 29.0074C24.0144 29.0074 24.3896 28.8523 24.6663 28.5764C24.943 28.3005 25.0984 27.9262 25.0984 27.536Z" fill="white"/>
<path d="M20.6368 30.8719L19.4119 34.8668C19.4119 34.8668 19.1883 35.5981 19.8142 35.7586C20.4401 35.9191 20.6189 35.2325 20.6189 35.2325L21.6114 31.8974C21.6114 31.8974 21.6651 31.6477 21.8618 31.7012C22.0585 31.7548 21.978 32.0312 21.978 32.0312L20.2523 38.2732H21.8618V42.7318C21.8618 42.9352 21.9428 43.1303 22.087 43.2741C22.2312 43.4179 22.4268 43.4987 22.6308 43.4987C22.8347 43.4987 23.0303 43.4179 23.1745 43.2741C23.3187 43.1303 23.3997 42.9352 23.3997 42.7318V38.2732H23.8378V42.7318C23.8665 42.905 23.9538 43.0631 24.0852 43.1799C24.2166 43.2966 24.3842 43.3648 24.56 43.3732C24.7358 43.3815 24.9091 43.3295 25.0511 43.2257C25.193 43.122 25.295 42.9728 25.34 42.8032V38.3446H26.9495L25.2238 32.1025C25.2238 32.1025 25.1522 31.8261 25.34 31.7726C25.5278 31.7191 25.5904 31.9688 25.5904 31.9688L26.5829 35.3038C26.5829 35.3038 26.7706 36.0172 27.3876 35.8299C28.0045 35.6426 27.79 34.9382 27.79 34.9382L26.565 30.9433C26.565 30.9433 26.1268 29.793 25.1522 29.793H22.0496C21.0839 29.793 20.6368 30.9433 20.6368 30.9433" fill="white"/>
<path d="M38.9219 35.7854C39.1664 35.7854 39.4053 35.713 39.6084 35.5773C39.8115 35.4417 39.9696 35.249 40.0627 35.0236C40.1559 34.7982 40.1798 34.5504 40.1314 34.3114C40.0831 34.0725 39.9647 33.8532 39.7912 33.6815C39.6178 33.5098 39.3971 33.3933 39.1571 33.3468C38.9172 33.3003 38.6688 33.326 38.4435 33.4205C38.2182 33.515 38.0261 33.6741 37.8916 33.8776C37.7571 34.0812 37.6862 34.32 37.688 34.5637C37.688 34.7249 37.72 34.8845 37.7821 35.0333C37.8442 35.1821 37.9353 35.3172 38.05 35.4307C38.1647 35.5443 38.3008 35.6341 38.4504 35.6949C38.6001 35.7558 38.7603 35.7865 38.9219 35.7854Z" fill="white"/>
<path d="M35.9711 39.6019C35.9446 39.6516 35.9282 39.7061 35.9228 39.7622C35.9175 39.8183 35.9233 39.8749 35.9399 39.9287C35.9565 39.9826 35.9836 40.0326 36.0197 40.076C36.0557 40.1194 36.1 40.1552 36.15 40.1815C36.2429 40.2261 36.3495 40.2334 36.4477 40.2018C36.5458 40.1703 36.6281 40.1024 36.6775 40.0121L37.3481 37.8809C37.3481 37.8809 37.4644 37.7382 37.4644 37.8809V42.8923C37.4644 42.9751 37.4808 43.057 37.5128 43.1333C37.5449 43.2096 37.5918 43.2788 37.6508 43.3369C37.7099 43.395 37.78 43.4408 37.8569 43.4716C37.9339 43.5025 38.0163 43.5177 38.0992 43.5165C38.2652 43.5165 38.4244 43.4508 38.5418 43.3337C38.6592 43.2167 38.7251 43.0579 38.7251 42.8923V40.9216C38.7251 40.9216 38.7251 40.6452 38.9218 40.6452C39.1185 40.6452 39.1096 40.9216 39.1096 40.9216V42.9013C39.1096 42.984 39.1261 43.0659 39.1581 43.1422C39.1901 43.2185 39.237 43.2877 39.296 43.3458C39.3551 43.4039 39.4252 43.4497 39.5022 43.4805C39.5791 43.5114 39.6615 43.5266 39.7444 43.5255C39.9104 43.5255 40.0696 43.4597 40.187 43.3426C40.3044 43.2256 40.3703 43.0668 40.3703 42.9013V37.8898C40.3703 37.7382 40.4508 37.8898 40.4508 37.8898L40.9783 39.3522C41.0511 39.5883 41.1501 39.8156 41.2734 40.0299C41.3298 40.0533 41.3902 40.0655 41.4513 40.0656C41.5123 40.0657 41.5728 40.0538 41.6293 40.0307C41.6857 40.0075 41.737 39.9734 41.7803 39.9305C41.8236 39.8875 41.8579 39.8364 41.8814 39.7802C41.9214 39.7111 41.9425 39.6327 41.9425 39.5529C41.9425 39.473 41.9214 39.3946 41.8814 39.3255C41.8814 39.3255 41.1035 37.3993 40.9873 37.1318C40.7101 36.3204 40.2094 36.3293 39.7265 36.3204C39.2437 36.3115 38.9486 36.3204 38.9486 36.3204C38.9486 36.3204 38.6357 36.3204 37.9919 36.3204C37.3481 36.3204 37.1514 36.6681 36.4361 38.4872C36.3377 38.7458 35.998 39.593 35.989 39.6465L35.9711 39.6019Z" fill="white"/>
<path d="M11.9278 26.7519C11.9278 26.4433 11.8361 26.1416 11.6641 25.8849C11.4922 25.6283 11.2478 25.4283 10.9619 25.3102C10.676 25.1921 10.3613 25.1612 10.0578 25.2214C9.75429 25.2816 9.47548 25.4302 9.25664 25.6485C9.03781 25.8667 8.88878 26.1448 8.82841 26.4475C8.76803 26.7502 8.79902 27.064 8.91745 27.3491C9.03588 27.6342 9.23644 27.878 9.49376 28.0494C9.75108 28.2209 10.0536 28.3124 10.3631 28.3124C10.7781 28.3124 11.1761 28.148 11.4695 27.8554C11.763 27.5627 11.9278 27.1658 11.9278 26.7519Z" fill="white"/>
<path d="M8.50317 28.873C7.98694 28.9219 7.50752 29.1609 7.15863 29.5435C6.80973 29.9261 6.61644 30.4247 6.61653 30.9418V35.2578C6.60611 35.343 6.61395 35.4294 6.63952 35.5113C6.66509 35.5933 6.70782 35.6689 6.76487 35.7331C6.82192 35.7974 6.892 35.8488 6.97047 35.8841C7.04894 35.9193 7.13402 35.9375 7.22008 35.9375C7.30614 35.9375 7.39121 35.9193 7.46968 35.8841C7.54816 35.8488 7.61823 35.7974 7.67529 35.7331C7.73234 35.6689 7.77506 35.5933 7.80063 35.5113C7.8262 35.4294 7.83404 35.343 7.82362 35.2578V31.5482C7.8167 31.5068 7.81933 31.4644 7.8313 31.4241C7.84327 31.3839 7.86427 31.3469 7.89271 31.316C7.92114 31.285 7.95627 31.261 7.99543 31.2456C8.03458 31.2302 8.07673 31.2239 8.11869 31.2272C8.29751 31.2272 8.33328 31.4055 8.34222 31.5304V42.6412C8.30918 42.7727 8.30663 42.91 8.33477 43.0426C8.36291 43.1752 8.42099 43.2997 8.50461 43.4066C8.58823 43.5134 8.69518 43.5999 8.81733 43.6593C8.93948 43.7188 9.07361 43.7497 9.20954 43.7497C9.34546 43.7497 9.4796 43.7188 9.60175 43.6593C9.7239 43.5999 9.83085 43.5134 9.91447 43.4066C9.99808 43.2997 10.0562 43.1752 10.0843 43.0426C10.1124 42.91 10.1099 42.7727 10.0769 42.6412V36.2387C10.0743 36.2048 10.079 36.1708 10.0905 36.1389C10.1021 36.1069 10.1203 36.0778 10.1439 36.0534C10.1676 36.029 10.1961 36.0098 10.2277 35.9972C10.2593 35.9845 10.2932 35.9787 10.3272 35.9801C10.3612 35.9787 10.3951 35.9845 10.4267 35.9972C10.4583 36.0098 10.4869 36.029 10.5105 36.0534C10.5342 36.0778 10.5523 36.1069 10.5639 36.1389C10.5755 36.1708 10.5801 36.2048 10.5776 36.2387V42.6412C10.5776 42.8777 10.6718 43.1045 10.8395 43.2717C11.0071 43.439 11.2346 43.5329 11.4717 43.5329C11.7089 43.5329 11.9363 43.439 12.104 43.2717C12.2716 43.1045 12.3659 42.8777 12.3659 42.6412V31.5304C12.3659 31.4055 12.3659 31.2272 12.5804 31.2272C12.795 31.2272 12.8755 31.4144 12.8755 31.5482V35.2578C12.8755 35.4186 12.9396 35.5728 13.0536 35.6865C13.1676 35.8003 13.3223 35.8641 13.4835 35.8641C13.6448 35.8641 13.7994 35.8003 13.9135 35.6865C14.0275 35.5728 14.0915 35.4186 14.0915 35.2578V30.9418C14.0914 30.4233 13.8969 29.9235 13.5461 29.5407C13.1954 29.1579 12.7138 28.9198 12.196 28.873H8.50317Z" fill="white"/>
<path d="M5.75816 43.5522H5.66875C5.62585 43.5447 5.58487 43.5288 5.54815 43.5054C5.51143 43.4821 5.47969 43.4517 5.45477 43.4161C5.42985 43.3805 5.41223 43.3403 5.40291 43.2978C5.3936 43.2554 5.39278 43.2116 5.40051 43.1688L6.78642 35.8389C6.7939 35.7952 6.81013 35.7534 6.83414 35.7161C6.85815 35.6788 6.88945 35.6468 6.92617 35.6218C6.96289 35.5968 7.00427 35.5795 7.04786 35.5708C7.09144 35.5622 7.13633 35.5623 7.17984 35.5714C7.22249 35.5788 7.2632 35.5947 7.29953 35.6182C7.33585 35.6417 7.36705 35.6723 7.39126 35.7081C7.41547 35.7439 7.43219 35.7842 7.44042 35.8266C7.44864 35.869 7.44821 35.9126 7.43914 35.9548L6.05323 43.2847C6.03991 43.3553 6.0039 43.4195 5.95065 43.4678C5.8974 43.5161 5.82983 43.5457 5.75816 43.5522Z" fill="white"/>
<path d="M14.7801 35.1426C14.7278 35.0618 14.6507 35.0001 14.5604 34.9666C14.47 34.9331 14.3712 34.9296 14.2787 34.9567C14.1862 34.9838 14.1049 35.04 14.0471 35.1168C13.9892 35.1937 13.9578 35.2872 13.9575 35.3834C13.9641 35.4504 13.9791 35.5163 14.0022 35.5796L15.2361 37.8178C15.2832 37.9092 15.3106 38.0094 15.3166 38.112V42.9184C15.3166 43.0792 15.3807 43.2335 15.4947 43.3472C15.6087 43.4609 15.7634 43.5248 15.9246 43.5248C16.0859 43.5248 16.2405 43.4609 16.3546 43.3472C16.4686 43.2335 16.5326 43.0792 16.5326 42.9184V41.019C16.5326 41.019 16.5326 40.7426 16.7115 40.7426C16.8903 40.7426 16.8992 41.019 16.8992 41.019V42.9095C16.8992 43.0703 16.9633 43.2245 17.0773 43.3383C17.1913 43.452 17.346 43.5159 17.5073 43.5159C17.6685 43.5159 17.8232 43.452 17.9372 43.3383C18.0512 43.2245 18.1153 43.0703 18.1153 42.9095V38.112C18.1204 38.0103 18.1447 37.9105 18.1868 37.8178L19.3313 35.749C19.3912 35.6322 19.4391 35.5097 19.4744 35.3834C19.4744 35.2651 19.4273 35.1517 19.3434 35.0681C19.2596 34.9845 19.1459 34.9375 19.0273 34.9375C18.9511 34.937 18.876 34.9554 18.8089 34.9913C18.7417 35.0271 18.6846 35.0791 18.6428 35.1426C18.6428 35.1426 18.0259 36.1948 17.8381 36.3821C17.7937 36.4389 17.7366 36.4845 17.6714 36.5155C17.6062 36.5464 17.5347 36.5618 17.4625 36.5604H15.9693C15.896 36.5612 15.8234 36.5456 15.7568 36.5147C15.6903 36.4839 15.6315 36.4385 15.5849 36.3821C15.3971 36.1948 14.8248 35.1694 14.7891 35.1426H14.7801Z" fill="white"/>
<path d="M16.7115 35.7851C16.957 35.7904 17.1985 35.7225 17.4051 35.5902C17.6117 35.4579 17.7741 35.2671 17.8713 35.0422C17.9686 34.8173 17.9963 34.5686 17.9511 34.3279C17.9058 34.0872 17.7896 33.8655 17.6172 33.6911C17.4449 33.5166 17.2242 33.3975 16.9836 33.3488C16.7429 33.3001 16.4932 33.3241 16.2663 33.4178C16.0394 33.5115 15.8457 33.6705 15.71 33.8746C15.5743 34.0787 15.5027 34.3185 15.5044 34.5634C15.5044 34.8874 15.6335 35.1982 15.8632 35.4273C16.0929 35.6564 16.4045 35.7851 16.7294 35.7851" fill="white"/>
<path d="M16.7203 37.5156L18.1063 38.5233L18.7679 40.9487H16.7203H14.6638L15.3255 38.5233L16.7203 37.5156Z" fill="white"/>
</g>
<defs>
<clipPath id="clip0_1648_94178">
<rect width="56" height="56" rx="4" fill="white"/>
</clipPath>
</defs>
</svg>
