<svg width="57" height="57" viewBox="0 0 57 57" fill="none" xmlns="http://www.w3.org/2000/svg">
<g clip-path="url(#clip0_2420_244096)">
<path d="M56.125 0.4375H0.125V56.4375H56.125V0.4375Z" fill="#2D9A47"/>
<path d="M5.23489 15.3319C4.7419 14.6372 4.50244 13.7944 4.55659 12.9443V12.5735H6.59148V12.9262C6.56979 13.328 6.63776 13.7296 6.79045 14.1019C6.85399 14.2214 6.9514 14.3195 7.07046 14.3838C7.18952 14.4482 7.32491 14.4759 7.45969 14.4637C7.59338 14.4778 7.72814 14.4496 7.84497 14.3831C7.96179 14.3166 8.05479 14.2151 8.11085 14.0929C8.24118 13.7153 8.29649 13.3159 8.27365 12.9171C8.3012 12.4783 8.21719 12.0396 8.02946 11.642C7.92711 11.5002 7.7904 11.3869 7.6322 11.3125C7.474 11.2382 7.29949 11.2053 7.12507 11.2169H6.75426V9.7156H7.07984C7.24909 9.72884 7.41909 9.70218 7.57616 9.63778C7.73323 9.57338 7.87299 9.47303 7.98424 9.3448C8.19242 8.99246 8.29302 8.58692 8.27365 8.17813C8.2967 7.82988 8.23136 7.48146 8.08372 7.16521C8.01409 7.0508 7.91333 6.95857 7.79322 6.89931C7.6731 6.84005 7.53859 6.81622 7.40543 6.83059C7.27548 6.81827 7.14491 6.84642 7.03159 6.91117C6.91826 6.97593 6.82771 7.07414 6.77235 7.19234C6.63971 7.52565 6.57811 7.88296 6.59148 8.24144V8.72077H4.55659V8.0877C4.53288 7.6957 4.587 7.30288 4.71583 6.93191C4.84467 6.56093 5.04567 6.21912 5.30724 5.92619C5.58572 5.66178 5.91586 5.4578 6.27694 5.32706C6.63801 5.19633 7.02222 5.14166 7.40543 5.1665C7.79199 5.14098 8.17977 5.1926 8.5462 5.31837C8.91262 5.44413 9.25038 5.64153 9.53979 5.89906C9.80335 6.18333 10.0059 6.51855 10.135 6.88406C10.2641 7.24958 10.317 7.63766 10.2904 8.02439C10.3095 8.56512 10.178 9.10052 9.9106 9.5709C9.80999 9.76168 9.67146 9.92989 9.5035 10.0652C9.33554 10.2005 9.14168 10.3 8.93385 10.3577C9.82016 10.7135 10.2633 11.5545 10.2633 12.881C10.3145 13.7405 10.0722 14.592 9.57598 15.2957C9.31281 15.609 8.97837 15.8546 8.60071 16.0119C8.22305 16.1693 7.81317 16.2338 7.40543 16.2001C7.00126 16.2317 6.59525 16.1698 6.21885 16.0192C5.84245 15.8687 5.50577 15.6335 5.23489 15.3319Z" fill="white"/>
<path d="M15.0474 9.08378C14.86 8.77058 14.7717 8.40801 14.7941 8.04372V6.66905C14.7707 6.29776 14.8623 5.92825 15.0564 5.61091C15.1676 5.48361 15.3079 5.38507 15.4654 5.32365C15.6228 5.26224 15.7928 5.23979 15.9608 5.25819C16.1171 5.24282 16.2748 5.26154 16.4232 5.31307C16.5715 5.3646 16.7069 5.4477 16.82 5.55664C17.0179 5.81444 17.1116 6.13732 17.0822 6.46103V6.66905H16.3768V6.4339C16.388 6.3166 16.388 6.1985 16.3768 6.08119C16.3598 6.00404 16.3186 5.93433 16.2593 5.88222C16.1818 5.83063 16.0899 5.80526 15.997 5.80987C15.9494 5.80488 15.9014 5.80936 15.8556 5.82305C15.8097 5.83675 15.7671 5.85939 15.7301 5.88967C15.6931 5.91994 15.6625 5.95725 15.64 5.99944C15.6175 6.04163 15.6036 6.08786 15.599 6.13546C15.5876 6.25879 15.5876 6.38292 15.599 6.50626V8.17938C15.5874 8.35892 15.6184 8.53867 15.6895 8.70393C15.7255 8.76346 15.778 8.81134 15.8405 8.84182C15.9031 8.8723 15.9731 8.88408 16.0422 8.87577C16.1119 8.88101 16.1818 8.8669 16.244 8.83498C16.3063 8.80307 16.3585 8.75459 16.3949 8.69489C16.4684 8.52378 16.5024 8.33831 16.4944 8.15225V7.76336H16.0512V7.27499H17.1637V9.34605H16.5939L16.5487 8.94811C16.4968 9.08913 16.4013 9.20992 16.2761 9.29289C16.1508 9.37585 16.0023 9.41665 15.8523 9.40936C15.702 9.42153 15.551 9.39843 15.4113 9.34191C15.2715 9.28538 15.1469 9.19699 15.0474 9.08378Z" fill="white"/>
<path d="M17.8601 9.08286C17.6605 8.79114 17.565 8.4407 17.5888 8.08803V6.55056C17.5648 6.20352 17.6606 5.85874 17.8601 5.57382C18.1123 5.35852 18.433 5.24023 18.7645 5.24023C19.0961 5.24023 19.4168 5.35852 19.6689 5.57382C19.8685 5.85874 19.9643 6.20352 19.9403 6.55056V8.08803C19.9627 8.44056 19.8673 8.79054 19.6689 9.08286C19.5538 9.20455 19.4127 9.29866 19.2561 9.35817C19.0995 9.41768 18.9314 9.44105 18.7645 9.42653C18.5975 9.4424 18.4291 9.41966 18.2723 9.36007C18.1155 9.30048 17.9745 9.20564 17.8601 9.08286ZM19.0992 8.7211C19.1607 8.57546 19.1885 8.41778 19.1806 8.25986V6.36968C19.1894 6.21464 19.1615 6.0597 19.0992 5.91749C19.0576 5.86957 19.0062 5.83115 18.9484 5.80482C18.8907 5.77849 18.828 5.76487 18.7645 5.76487C18.7011 5.76487 18.6384 5.77849 18.5807 5.80482C18.5229 5.83115 18.4715 5.86957 18.4299 5.91749C18.3612 6.05787 18.33 6.21367 18.3395 6.36968V8.24178C18.3284 8.40081 18.3596 8.55993 18.4299 8.70302C18.4654 8.75775 18.5156 8.80127 18.5749 8.82849C18.6342 8.85572 18.6999 8.86552 18.7645 8.85676C18.8257 8.86846 18.8889 8.86375 18.9477 8.8431C19.0065 8.82245 19.0588 8.7866 19.0992 8.73919V8.7211Z" fill="white"/>
<path d="M20.6729 9.08286C20.4733 8.79114 20.3777 8.4407 20.4016 8.08803V6.55056C20.3775 6.20352 20.4733 5.85874 20.6729 5.57382C20.925 5.35852 21.2457 5.24023 21.5773 5.24023C21.9088 5.24023 22.2295 5.35852 22.4817 5.57382C22.6813 5.85874 22.777 6.20352 22.753 6.55056V8.08803C22.7755 8.44056 22.68 8.79054 22.4817 9.08286C22.3665 9.20455 22.2254 9.29866 22.0688 9.35817C21.9122 9.41768 21.7442 9.44105 21.5773 9.42653C21.4103 9.4424 21.2419 9.41966 21.0851 9.36007C20.9282 9.30048 20.7872 9.20564 20.6729 9.08286ZM21.9119 8.7211C21.9735 8.57546 22.0013 8.41778 21.9933 8.25986V6.36968C22.0022 6.21464 21.9743 6.0597 21.9119 5.91749C21.8703 5.86957 21.8189 5.83115 21.7612 5.80482C21.7035 5.77849 21.6407 5.76487 21.5773 5.76487C21.5138 5.76487 21.4511 5.77849 21.3934 5.80482C21.3357 5.83115 21.2843 5.86957 21.2427 5.91749C21.1739 6.05787 21.1428 6.21367 21.1522 6.36968V8.24178C21.1412 8.40081 21.1724 8.55993 21.2427 8.70302C21.2781 8.75775 21.3284 8.80127 21.3876 8.82849C21.4469 8.85572 21.5127 8.86552 21.5773 8.85676C21.6385 8.86846 21.7017 8.86375 21.7605 8.8431C21.8192 8.82245 21.8715 8.7866 21.9119 8.73919V8.7211Z" fill="white"/>
<path d="M23.2773 5.30281H24.236C24.5021 5.2902 24.7677 5.33653 25.0138 5.43847C25.1945 5.52004 25.3392 5.66475 25.4207 5.84544C25.5046 6.0772 25.5445 6.32257 25.5383 6.56896V8.0612C25.5441 8.31642 25.5043 8.57063 25.4207 8.81185C25.3403 8.9969 25.2002 9.1497 25.0228 9.24596C24.7858 9.34626 24.5294 9.3926 24.2722 9.38162H23.2773V5.30281ZM24.2451 8.86611C24.3712 8.87745 24.4977 8.84899 24.6068 8.78472C24.6786 8.7198 24.729 8.63467 24.7515 8.54053C24.7638 8.39005 24.7638 8.23882 24.7515 8.08834V6.52374C24.7687 6.3856 24.7687 6.24586 24.7515 6.10772C24.7307 6.02285 24.6791 5.94873 24.6068 5.89971C24.4932 5.84934 24.369 5.8276 24.2451 5.8364H24.028V8.86611H24.2451Z" fill="white"/>
<path d="M27.2659 5.30273H28.0075V7.00299H28.8395V5.30273H29.5902V9.38155H28.8395V7.57276H28.0075V9.38155H27.2659V5.30273Z" fill="white"/>
<path d="M30.1599 5.30273H31.8783V5.82728H30.9015V7.00299H31.6702V7.5185H30.9015V8.87509H31.8873V9.38155H30.1599V5.30273Z" fill="white"/>
<path d="M32.9272 5.30273H33.7231L34.5461 9.38155H33.8497L33.6869 8.47715H32.9815L32.8097 9.38155H32.1133L32.9272 5.30273ZM33.6055 8.01591L33.3342 6.29756L33.0538 8.01591H33.6055Z" fill="white"/>
<path d="M34.926 5.30273H35.6676V8.92031H36.6625V9.42677H34.926V5.30273Z" fill="white"/>
<path d="M37.3226 5.85441H36.6353V5.30273H38.7334V5.85441H38.0642V9.38155H37.3226V5.85441Z" fill="white"/>
<path d="M39.041 5.30273H39.7826V7.00299H40.6147V5.30273H41.3653V9.38155H40.6147V7.57276H39.7826V9.38155H39.041V5.30273Z" fill="white"/>
<path d="M15.4726 11.9688H16.2685L17.0825 16.0566H16.3951L16.2323 15.1522H15.5179L15.3551 16.0566H14.6497L15.4726 11.9688ZM16.1509 14.6819L15.8706 12.9726L15.5902 14.6819H16.1509Z" fill="white"/>
<path d="M17.4983 11.9688H18.0228L19.0086 14.3021V11.9688H19.6236V16.0566H19.1352L18.0952 13.6057V16.0476H17.4983V11.9688Z" fill="white"/>
<path d="M20.2117 11.9688H21.1161C21.3821 11.9562 21.6477 12.0025 21.8938 12.1045C22.0702 12.1891 22.2111 12.3332 22.2918 12.5115C22.3812 12.7449 22.4212 12.9943 22.4093 13.244V14.7272C22.4206 14.9828 22.3806 15.238 22.2918 15.4779C22.218 15.6672 22.076 15.822 21.8938 15.912C21.6592 16.0208 21.4015 16.0705 21.1432 16.0567H20.2117V11.9688ZM21.1884 15.5864C21.3126 15.5943 21.4361 15.5627 21.5411 15.4959C21.5802 15.4689 21.6132 15.434 21.6381 15.3936C21.663 15.3531 21.6793 15.3079 21.6858 15.2608C21.6977 15.1073 21.6977 14.9531 21.6858 14.7996V13.1898C21.7037 13.0547 21.7037 12.9178 21.6858 12.7828C21.6775 12.7387 21.6604 12.6969 21.6355 12.6596C21.6106 12.6223 21.5786 12.5904 21.5411 12.5657C21.4311 12.5142 21.3095 12.4924 21.1884 12.5024H20.9623V15.5412L21.1884 15.5864Z" fill="white"/>
<path d="M24.019 11.9688H24.6431L24.9777 14.6186L25.4028 11.9868H25.9092L26.3433 14.6186L26.6779 11.9688H27.2929L26.7232 16.0566H26.1172L25.665 13.3434L25.2128 16.0566H24.5979L24.019 11.9688Z" fill="white"/>
<path d="M27.7361 11.9688H29.4544V12.4933H28.4777V13.669H29.2555V14.1936H28.4867V15.5501H29.4725V16.0566H27.7451L27.7361 11.9688Z" fill="white"/>
<path d="M29.8704 11.9688H30.612V15.5863H31.6068V16.0928H29.8704V11.9688Z" fill="white"/>
<path d="M31.9688 11.9688H32.7104V15.5863H33.7052V16.0928H31.9688V11.9688Z" fill="white"/>
<path d="M34.0398 14.166H35.2607V14.6363H34.0398V14.166Z" fill="white"/>
<path d="M35.8304 11.9686H36.8342C37.1533 11.9455 37.4712 12.0282 37.7386 12.2038C37.8514 12.3009 37.9385 12.4244 37.9921 12.5632C38.0458 12.702 38.0643 12.8519 38.0461 12.9997C38.0461 13.5061 37.8562 13.7955 37.4583 13.904C37.9285 13.9945 38.1637 14.3291 38.1637 14.9079C38.1937 15.2346 38.0928 15.5599 37.8833 15.8123C37.7649 15.9275 37.6222 16.0149 37.4658 16.0681C37.3094 16.1213 37.143 16.1389 36.9789 16.1198H35.8032L35.8304 11.9686ZM36.8252 13.6418C36.9052 13.6521 36.9864 13.6445 37.0631 13.6194C37.1397 13.5944 37.2099 13.5526 37.2683 13.4971C37.3598 13.3582 37.4012 13.1923 37.3859 13.0268C37.3943 12.9489 37.3847 12.8702 37.3581 12.7965C37.3315 12.7229 37.2884 12.6562 37.2322 12.6017C37.0749 12.5152 36.8955 12.4774 36.7167 12.4932H36.5719V13.6056L36.8252 13.6418ZM36.8252 15.532C36.9086 15.5407 36.9929 15.5315 37.0724 15.505C37.152 15.4785 37.225 15.4352 37.2864 15.3782C37.3792 15.2229 37.4233 15.0433 37.413 14.8627C37.4236 14.6711 37.3729 14.481 37.2683 14.3201C37.2084 14.2604 37.1359 14.2148 37.0561 14.1867C36.9763 14.1585 36.8912 14.1485 36.8071 14.1573H36.5448V15.532H36.8252Z" fill="white"/>
<path d="M38.6069 11.9688H40.3253V12.4933H39.3485V13.669H40.1082V14.1936H39.3395V15.5501H40.3253V16.0566H38.5979L38.6069 11.9688Z" fill="white"/>
<path d="M40.7593 11.9688H41.5009V16.0566H40.7593V11.9688Z" fill="white"/>
<path d="M42.107 11.9688H42.6224L43.6173 14.3021V11.9688H44.2323V16.0566H43.7258L42.731 13.6147V16.0566H42.0979L42.107 11.9688Z" fill="white"/>
<path d="M45.019 15.7486C44.8285 15.4364 44.737 15.0737 44.7568 14.7085V13.3338C44.7352 12.9656 44.8267 12.5995 45.019 12.2847C45.26 12.0528 45.5787 11.9188 45.913 11.9088C46.2473 11.8988 46.5733 12.0134 46.8278 12.2305C47.0242 12.4891 47.1177 12.8113 47.0901 13.1349V13.3429H46.3756V13.1168C46.3876 12.9995 46.3876 12.8813 46.3756 12.7641C46.3626 12.6829 46.3209 12.6091 46.2581 12.556C46.1801 12.5064 46.0878 12.4841 45.9958 12.4927C45.9467 12.4874 45.8971 12.4928 45.8503 12.5084C45.8035 12.524 45.7606 12.5495 45.7245 12.5832C45.6615 12.6449 45.6176 12.7234 45.5979 12.8093C45.5868 12.9326 45.5868 13.0567 45.5979 13.1801V14.8713C45.5872 15.0488 45.6214 15.226 45.6973 15.3868C45.7319 15.4456 45.7827 15.4931 45.8437 15.5236C45.9047 15.5541 45.9732 15.5663 46.041 15.5586C46.1111 15.5673 46.1823 15.5547 46.2452 15.5224C46.3081 15.4902 46.3598 15.4398 46.3937 15.3777C46.4691 15.2072 46.5032 15.0213 46.4932 14.8351V14.4553H46.0591V13.985H47.1625V16.056H46.6831L46.6289 15.6581C46.5784 15.7975 46.4842 15.9169 46.3603 15.9984C46.2364 16.0799 46.0895 16.1192 45.9415 16.1103C45.7692 16.1463 45.5902 16.1313 45.4263 16.067C45.2625 16.0027 45.1209 15.8921 45.019 15.7486Z" fill="white"/>
<path d="M47.0177 35.4736C47.0499 35.1151 47.0085 34.7537 46.8959 34.4118C46.7834 34.0698 46.6021 33.7545 46.3633 33.4851C46.1244 33.2158 45.833 32.9981 45.507 32.8455C45.1809 32.6929 44.8271 32.6085 44.4673 32.5977C43.6013 32.7917 42.8247 33.2691 42.2606 33.9542C41.7632 33.4387 40.8949 32.5977 40.1262 32.5977C39.7643 32.6091 39.4083 32.693 39.0792 32.8442C38.7502 32.9954 38.4548 33.2109 38.2103 33.4781C37.9659 33.7453 37.7774 34.0587 37.656 34.3999C37.5346 34.741 37.4828 35.1031 37.5035 35.4646C37.5023 36.2215 37.7978 36.9488 38.3265 37.4904L42.2696 41.4426L46.2037 37.4904C46.7277 36.9501 47.0198 36.2263 47.0177 35.4736Z" fill="white"/>
<path d="M30.2323 47.8996H30.1599C30.0152 47.8899 29.8779 47.8321 29.7698 47.7354C29.6617 47.6387 29.5889 47.5087 29.563 47.366L27.5553 35.6994L24.5256 41.3247C24.4595 41.443 24.3582 41.5378 24.2357 41.5957C24.1132 41.6537 23.9757 41.6721 23.8423 41.6482C23.7089 41.6243 23.5862 41.5594 23.4915 41.4625C23.3967 41.3656 23.3346 41.2415 23.3137 41.1076L22.0294 32.0637L19.669 37.3634C19.6173 37.4762 19.5346 37.5718 19.4304 37.6391C19.3263 37.7064 19.2051 37.7425 19.0811 37.7433H9.94676C9.85542 37.7541 9.76283 37.7455 9.67508 37.7179C9.58733 37.6903 9.50641 37.6445 9.43765 37.5834C9.3689 37.5223 9.31385 37.4474 9.27617 37.3635C9.23848 37.2796 9.21899 37.1886 9.21899 37.0966C9.21899 37.0047 9.23848 36.9137 9.27617 36.8298C9.31385 36.7459 9.3689 36.671 9.43765 36.6099C9.50641 36.5488 9.58733 36.503 9.67508 36.4754C9.76283 36.4478 9.85542 36.4392 9.94676 36.45H18.6832L21.7853 29.4862C21.8436 29.3593 21.9407 29.2541 22.0626 29.1858C22.1845 29.1176 22.3249 29.0897 22.4636 29.1063C22.6039 29.1235 22.7345 29.1871 22.8345 29.2871C22.9345 29.3871 22.9981 29.5177 23.0152 29.658L24.3447 38.9371L27.3382 33.3932C27.4013 33.2728 27.501 33.1755 27.6229 33.1154C27.7448 33.0553 27.8826 33.0353 28.0165 33.0585C28.1493 33.0823 28.2717 33.1462 28.3671 33.2416C28.4625 33.337 28.5264 33.4593 28.5501 33.5921L30.4041 44.4448L37.1599 21.9797C37.1991 21.8562 37.2743 21.7472 37.3758 21.6667C37.4773 21.5861 37.6005 21.5377 37.7297 21.5275C37.86 21.5124 37.9917 21.5394 38.1056 21.6045C38.2195 21.6695 38.3096 21.7694 38.3628 21.8893L41.917 29.251C41.9597 29.3299 41.9856 29.4168 41.9931 29.5061C42.0006 29.5955 41.9896 29.6855 41.9608 29.7704C41.9319 29.8553 41.8858 29.9333 41.8254 29.9996C41.7649 30.0658 41.6915 30.1189 41.6096 30.1554C41.533 30.1921 41.45 30.2132 41.3652 30.2176C41.2805 30.2219 41.1957 30.2095 41.1158 30.1809C41.0359 30.1523 40.9625 30.1081 40.8998 30.051C40.8371 29.9938 40.7863 29.9248 40.7504 29.8479L37.9106 23.9784L30.8382 47.4926C30.7894 47.6133 30.7057 47.7165 30.5976 47.789C30.4896 47.8616 30.3624 47.9001 30.2323 47.8996Z" fill="white"/>
<g style="mix-blend-mode:hue">
<rect x="0.125" y="0.4375" width="56" height="56" fill="#D9D9D9"/>
</g>
</g>
<defs>
<clipPath id="clip0_2420_244096">
<rect x="0.125" y="0.4375" width="56" height="56" rx="4" fill="white"/>
</clipPath>
</defs>
</svg>
