<svg width="57" height="57" viewBox="0 0 57 57" fill="none" xmlns="http://www.w3.org/2000/svg">
<g clip-path="url(#clip0_2420_243882)">
<path d="M56.5 0.0234375H0.5V56.0234H56.5V0.0234375Z" fill="#E01A83"/>
<path d="M5.38357 7.0069C5.28445 7.0069 5.00513 7.16908 4.53658 7.33127C4.06804 7.49346 3.93288 7.53851 3.84277 7.58356V6.0698C4.21556 5.91894 4.57693 5.74127 4.92404 5.53819C5.25441 5.37074 5.55808 5.15513 5.82509 4.89844H7.41993V15.5758H5.37456L5.38357 7.0069Z" fill="white"/>
<path d="M9.21307 14.9181C8.70144 14.2858 8.44151 13.4868 8.48322 12.6745V7.88997C8.43342 7.06025 8.68634 6.24065 9.19504 5.58329C9.7777 5.04503 10.5418 4.74609 11.335 4.74609C12.1283 4.74609 12.8924 5.04503 13.475 5.58329C13.9837 6.24065 14.2366 7.06025 14.1868 7.88997V12.6745C14.229 13.4856 13.9653 14.283 13.448 14.9091C13.1822 15.1989 12.8548 15.4254 12.4899 15.5719C12.125 15.7185 11.7319 15.7814 11.3395 15.7561C10.9454 15.7802 10.5508 15.7177 10.1834 15.5729C9.816 15.4281 9.48479 15.2046 9.21307 14.9181ZM12.1144 12.6295V7.926C12.1246 7.58974 12.0758 7.2543 11.9703 6.93486C11.9118 6.81499 11.8208 6.71397 11.7077 6.6433C11.5946 6.57263 11.4639 6.53517 11.3305 6.53517C11.1971 6.53517 11.0665 6.57263 10.9534 6.6433C10.8402 6.71397 10.7493 6.81499 10.6908 6.93486C10.5874 7.25479 10.5386 7.58986 10.5466 7.926V12.6205C10.5466 13.5215 10.8169 13.954 11.3395 13.954C11.8621 13.954 12.1144 13.5215 12.1144 12.6205V12.6295Z" fill="white"/>
<path d="M18.3767 9.01658V4.93485H19.3498C19.5881 4.92649 19.826 4.96004 20.0527 5.03396C20.2329 5.08817 20.3868 5.20685 20.4852 5.36734C20.5927 5.56269 20.6427 5.78451 20.6293 6.00709C20.6295 6.1584 20.6144 6.30934 20.5843 6.45762C20.5593 6.57899 20.507 6.69303 20.4311 6.791C20.3515 6.8867 20.2493 6.96104 20.1337 7.00725L20.7014 9.01658H19.9535L19.458 7.14241H19.1156V9.01658H18.3767ZM19.1156 6.67386H19.3498C19.4674 6.68076 19.5849 6.65913 19.6922 6.61079C19.7357 6.59256 19.775 6.56554 19.8075 6.53143C19.8401 6.49732 19.8653 6.45685 19.8815 6.41256C19.9212 6.2967 19.9395 6.17457 19.9355 6.05215C19.9467 5.89038 19.9057 5.72928 19.8184 5.59261C19.7645 5.53602 19.6982 5.49274 19.6247 5.46616C19.5512 5.43958 19.4725 5.43042 19.3949 5.43943H19.1156V6.67386Z" fill="white"/>
<path d="M21.0798 9.01533V4.93359H22.7918V5.41115H21.8187V6.58251H22.5846V7.10512H21.8187V8.45669H22.8008V9.01533H21.0798Z" fill="white"/>
<path d="M23.1162 9.01528V4.93354H24.0713C24.3393 4.92141 24.6068 4.96752 24.8552 5.06869C25.0355 5.15106 25.1774 5.29939 25.2517 5.48318C25.3381 5.71333 25.3779 5.95835 25.3688 6.20402V7.69074C25.3777 7.94227 25.3379 8.19315 25.2517 8.4296C25.1786 8.62065 25.0373 8.77789 24.8552 8.8711C24.6201 8.97531 24.3644 9.02461 24.1074 9.01528H23.1162ZM23.8551 8.49267H24.0893C24.2164 8.50615 24.344 8.47424 24.4498 8.40257C24.4903 8.3718 24.5235 8.33236 24.5468 8.28716C24.5702 8.24196 24.5832 8.19212 24.5849 8.14126C24.5956 7.99729 24.5956 7.85273 24.5849 7.70876V6.14996C24.6013 6.01831 24.6013 5.88514 24.5849 5.75349C24.5777 5.70803 24.5612 5.66454 24.5364 5.62577C24.5116 5.587 24.479 5.55379 24.4407 5.52823C24.3293 5.47224 24.2048 5.44734 24.0803 5.45615H23.8641L23.8551 8.49267Z" fill="white"/>
<path d="M26.9097 9.01666C26.6606 9.03232 26.4126 8.97266 26.1979 8.84546C26.0316 8.73504 25.9102 8.56889 25.8555 8.37691C25.7862 8.13686 25.7528 7.88788 25.7564 7.63806V4.88086H26.4862V7.72817C26.477 7.84813 26.477 7.96862 26.4862 8.08858C26.4952 8.18894 26.5363 8.28373 26.6034 8.3589C26.6395 8.39529 26.6834 8.42308 26.7317 8.44023C26.7801 8.45739 26.8317 8.46347 26.8827 8.45801C26.9337 8.46415 26.9855 8.45839 27.034 8.4412C27.0824 8.424 27.1262 8.39584 27.162 8.3589C27.2257 8.28163 27.2663 8.18792 27.2791 8.08858C27.2884 7.96862 27.2884 7.84813 27.2791 7.72817V4.88086H28V7.63806C28.0062 7.88742 27.9759 8.13635 27.9099 8.37691C27.8552 8.57141 27.7299 8.7385 27.5585 8.84546C27.3631 8.9636 27.1379 9.02303 26.9097 9.01666Z" fill="white"/>
<path d="M29.6128 9.01525C29.3655 9.02984 29.1198 8.96685 28.91 8.83504C28.7419 8.71857 28.6155 8.55117 28.5496 8.35749C28.482 8.12941 28.4486 7.89256 28.4505 7.65467V6.19497C28.4467 5.95105 28.4801 5.70798 28.5496 5.47415C28.6118 5.27856 28.739 5.11007 28.91 4.99658C29.1237 4.87575 29.3678 4.81943 29.6128 4.8344C29.8412 4.82151 30.0686 4.87137 30.2706 4.97857C30.4294 5.0686 30.5508 5.21239 30.613 5.38404C30.6809 5.5842 30.7144 5.79441 30.7121 6.00576V6.34815H30.0003V5.99674C30.0003 5.8796 30.0003 5.7805 30.0003 5.68138C29.9898 5.59828 29.9553 5.52003 29.9012 5.45612C29.8202 5.40072 29.7244 5.37107 29.6264 5.37107C29.5283 5.37107 29.4325 5.40072 29.3515 5.45612C29.2892 5.51913 29.2509 5.60204 29.2434 5.69039C29.2337 5.80131 29.2337 5.91285 29.2434 6.02377V7.82586C29.2274 7.94848 29.2274 8.07267 29.2434 8.19529C29.2597 8.2796 29.3042 8.35586 29.3696 8.41155C29.4439 8.46168 29.5322 8.48692 29.6219 8.48363C29.6707 8.4889 29.7202 8.48358 29.7668 8.46803C29.8135 8.45248 29.8562 8.42707 29.8922 8.39352C29.9452 8.32633 29.9766 8.24466 29.9823 8.15926C29.992 8.05135 29.992 7.94279 29.9823 7.83488V7.46545H30.6941V7.78983C30.7011 8.01032 30.6675 8.23022 30.595 8.43858C30.5379 8.61731 30.4199 8.77035 30.2616 8.87108C30.0642 8.98175 29.8386 9.03189 29.6128 9.01525Z" fill="white"/>
<path d="M31.0996 9.01533V4.93359H32.7936V5.41115H31.8925V6.58251H32.6494V7.10512H31.8925V8.45669H32.7936V9.01533H31.0996Z" fill="white"/>
<path d="M33.127 9.0154V4.93366H34.0911C34.3562 4.9211 34.6208 4.96725 34.866 5.06881C35.0486 5.15083 35.1935 5.2989 35.2714 5.4833C35.3534 5.7146 35.3931 5.95878 35.3886 6.20414V7.69086C35.3929 7.94209 35.3533 8.19216 35.2714 8.42972C35.1929 8.61743 35.0532 8.77304 34.875 8.87123C34.6369 8.97617 34.3781 9.02548 34.1181 9.0154H33.127ZM33.8748 8.49279H34.1001C34.2299 8.50612 34.3604 8.4743 34.4695 8.40269C34.5087 8.36546 34.54 8.32077 34.5617 8.27125C34.5834 8.22174 34.5949 8.16839 34.5957 8.11435C34.6064 7.97038 34.6064 7.82582 34.5957 7.68185V6.12303C34.6076 5.99115 34.6076 5.85847 34.5957 5.72658C34.5774 5.63613 34.526 5.55577 34.4515 5.50132C34.3392 5.44769 34.2153 5.42291 34.0911 5.42924H33.8748V8.49279Z" fill="white"/>
<path d="M18.4219 15.6384V11.5566H19.1517V15.6384H18.4219Z" fill="white"/>
<path d="M19.6562 15.6384V11.5566H20.1789L21.179 13.8813V11.5566H21.7917V15.6384H21.2962L20.296 13.1965V15.6384H19.6562Z" fill="white"/>
<path d="M22.2693 15.6384V11.5566H23.9813V12.0792H23.0171V13.2506H23.783V13.7732H23.0262V15.1248H23.9993V15.6384H22.2693Z" fill="white"/>
<path d="M26.2879 16.4488C26.1924 16.3973 26.1019 16.337 26.0176 16.2686C25.9157 16.1848 25.8222 16.0912 25.7383 15.9893C25.6469 15.8958 25.5654 15.7931 25.495 15.6829H25.4049C25.163 15.6947 24.9227 15.6385 24.7111 15.5208C24.5433 15.4118 24.4165 15.2502 24.3507 15.0612C24.2667 14.8304 24.227 14.5859 24.2335 14.3404V12.8176C24.2261 12.575 24.2659 12.3332 24.3507 12.1058C24.4182 11.9202 24.5448 11.7619 24.7111 11.6553C24.93 11.5543 25.1683 11.502 25.4094 11.502C25.6505 11.502 25.8888 11.5543 26.1077 11.6553C26.2774 11.7604 26.4073 11.9188 26.4772 12.1058C26.5544 12.3349 26.591 12.5759 26.5853 12.8176V14.3494C26.5871 14.5251 26.5689 14.7004 26.5312 14.872C26.4988 15.0206 26.4376 15.1615 26.351 15.2865C26.2633 15.4021 26.1489 15.4949 26.0176 15.5568L26.1528 15.701L26.2969 15.8451C26.3374 15.8865 26.3828 15.9228 26.4321 15.9533L26.2879 16.4488ZM25.3869 15.1423C25.4867 15.1499 25.5859 15.1211 25.6662 15.0612C25.7313 15.0028 25.7729 14.9228 25.7833 14.836C25.7981 14.7344 25.7981 14.6312 25.7833 14.5296V12.6194C25.7981 12.5178 25.7981 12.4146 25.7833 12.313C25.7701 12.2297 25.7288 12.1534 25.6662 12.0968C25.5859 12.0369 25.4867 12.0081 25.3869 12.0157C25.29 12.0095 25.194 12.0383 25.1166 12.0968C25.054 12.1534 25.0126 12.2297 24.9994 12.313C24.9893 12.4149 24.9893 12.5175 24.9994 12.6194V14.4936C24.9893 14.5954 24.9893 14.6981 24.9994 14.7999C25.0099 14.8867 25.0515 14.9668 25.1166 15.0252C25.1545 15.0627 25.1996 15.0924 25.249 15.1125C25.2985 15.1326 25.3515 15.1428 25.4049 15.1423H25.3869Z" fill="white"/>
<path d="M28.1261 15.6924C27.8812 15.7064 27.6373 15.6501 27.4233 15.5302C27.2556 15.4153 27.1318 15.247 27.0719 15.0527C27.0058 14.8121 26.9755 14.5632 26.9818 14.3138V11.5566H27.7026V14.422C27.6933 14.5419 27.6933 14.6624 27.7026 14.7824C27.7154 14.8817 27.756 14.9754 27.8197 15.0527C27.8559 15.0891 27.8998 15.1169 27.9481 15.134C27.9965 15.1512 28.048 15.1573 28.099 15.1518C28.1515 15.158 28.2046 15.1523 28.2545 15.1352C28.3045 15.118 28.3499 15.0898 28.3874 15.0527C28.4475 14.9733 28.4877 14.8806 28.5045 14.7824C28.5138 14.6624 28.5138 14.5419 28.5045 14.422V11.5747H29.2254V14.3318C29.229 14.5817 29.1956 14.8307 29.1262 15.0707C29.0687 15.2637 28.9481 15.4318 28.7839 15.5483C28.5807 15.6522 28.3541 15.7018 28.1261 15.6924Z" fill="white"/>
<path d="M29.5046 15.6384L30.3156 11.5566H31.1175L31.9284 15.6384H31.2437L31.0815 14.7373H30.3696L30.2075 15.6384H29.5046ZM30.4057 14.2237H30.9914L30.712 12.5027L30.4057 14.2237Z" fill="white"/>
<path d="M32.1897 15.6384V11.5566H32.9376V15.1608H33.9197V15.6744L32.1897 15.6384Z" fill="white"/>
<path d="M34.1812 15.6384V11.5566H34.92V15.6384H34.1812Z" fill="white"/>
<path d="M35.8211 15.6384V12.1063H35.1724V11.5566H37.2087V12.1063H36.569V15.6384H35.8211Z" fill="white"/>
<path d="M37.47 15.6384V11.5566H38.1998V15.6384H37.47Z" fill="white"/>
<path d="M38.7043 15.6384V11.5566H40.4163V12.0792H39.4522V13.2506H40.2181V13.7732H39.4522V15.1248H40.4344V15.6384H38.7043Z" fill="white"/>
<path d="M41.8041 15.6929C41.5904 15.7021 41.3784 15.6522 41.1913 15.5487C41.0262 15.4505 40.8968 15.3021 40.8219 15.1252C40.7261 14.9128 40.677 14.6824 40.6777 14.4494L41.3175 14.3233C41.3242 14.4627 41.3423 14.6013 41.3715 14.7377C41.3939 14.8439 41.4472 14.9411 41.5247 15.0171C41.5571 15.0508 41.5965 15.0771 41.64 15.0942C41.6836 15.1113 41.7303 15.1188 41.777 15.1162C41.8261 15.1213 41.8757 15.1141 41.9214 15.0952C41.967 15.0763 42.0072 15.0463 42.0383 15.008C42.0916 14.9284 42.117 14.8333 42.1104 14.7377C42.1184 14.582 42.0774 14.4276 41.9933 14.2962C41.8998 14.169 41.7909 14.054 41.6689 13.9538L41.1553 13.5033C41.0188 13.3853 40.903 13.2452 40.8129 13.0888C40.7207 12.9144 40.6771 12.7183 40.6868 12.5212C40.6766 12.3837 40.6963 12.2457 40.7445 12.1166C40.7928 11.9876 40.8683 11.8704 40.9661 11.7733C41.0702 11.6814 41.1915 11.6111 41.323 11.5662C41.4544 11.5214 41.5934 11.503 41.732 11.512C41.8989 11.5053 42.0651 11.5361 42.2185 11.6021C42.3396 11.6518 42.4432 11.7365 42.5159 11.8454C42.598 11.9486 42.6564 12.0685 42.6871 12.1968C42.7257 12.3351 42.7498 12.477 42.7592 12.6203L42.1194 12.7284C42.1297 12.6145 42.1297 12.4999 42.1194 12.386C42.1009 12.2992 42.0606 12.2186 42.0023 12.1517C41.9712 12.1193 41.9331 12.0944 41.891 12.0788C41.8488 12.0631 41.8037 12.0573 41.759 12.0616C41.7101 12.0588 41.6612 12.067 41.6159 12.0857C41.5707 12.1045 41.5303 12.1332 41.4977 12.1698C41.4418 12.2486 41.4133 12.3435 41.4166 12.4401C41.4125 12.5594 41.4405 12.6777 41.4977 12.7825C41.5694 12.8834 41.6542 12.9743 41.75 13.0528L42.2546 13.5033C42.4243 13.6443 42.5703 13.8116 42.6871 13.9989C42.8107 14.2088 42.8731 14.4491 42.8673 14.6927C42.8696 14.8718 42.8262 15.0486 42.7411 15.2063C42.6545 15.3558 42.5302 15.48 42.3807 15.5667C42.2029 15.6585 42.004 15.702 41.8041 15.6929Z" fill="white"/>
<path d="M33.6945 36.7676H23.3865C23.3704 36.7675 23.3544 36.7708 23.3395 36.7773C23.3247 36.7837 23.3114 36.7932 23.3004 36.805C23.2893 36.8169 23.2809 36.8309 23.2756 36.8461C23.2703 36.8614 23.2681 36.8776 23.2694 36.8937V39.9933C23.2681 40.0094 23.2703 40.0257 23.2756 40.0409C23.2809 40.0562 23.2893 40.0702 23.3004 40.082C23.3114 40.0939 23.3247 40.1033 23.3395 40.1098C23.3544 40.1162 23.3704 40.1195 23.3865 40.1195H33.6945C33.7107 40.1195 33.7267 40.1162 33.7415 40.1098C33.7564 40.1033 33.7697 40.0939 33.7807 40.082C33.7917 40.0702 33.8001 40.0562 33.8054 40.0409C33.8108 40.0257 33.8129 40.0094 33.8116 39.9933V36.8937C33.8129 36.8776 33.8108 36.8614 33.8054 36.8461C33.8001 36.8309 33.7917 36.8169 33.7807 36.805C33.7697 36.7932 33.7564 36.7837 33.7415 36.7773C33.7267 36.7708 33.7107 36.7675 33.6945 36.7676Z" fill="white"/>
<path d="M33.6945 30.1719H23.3865C23.3704 30.1718 23.3544 30.1751 23.3395 30.1816C23.3247 30.188 23.3114 30.1975 23.3004 30.2093C23.2893 30.2212 23.2809 30.2352 23.2756 30.2504C23.2703 30.2657 23.2681 30.2819 23.2694 30.298V33.3976C23.2681 33.4137 23.2703 33.43 23.2756 33.4452C23.2809 33.4605 23.2893 33.4745 23.3004 33.4863C23.3114 33.4982 23.3247 33.5076 23.3395 33.5141C23.3544 33.5205 23.3704 33.5238 23.3865 33.5238H33.6945C33.7107 33.5238 33.7267 33.5205 33.7415 33.5141C33.7564 33.5076 33.7697 33.4982 33.7807 33.4863C33.7917 33.4745 33.8001 33.4605 33.8054 33.4452C33.8108 33.43 33.8129 33.4137 33.8116 33.3976V30.298C33.8129 30.2819 33.8108 30.2657 33.8054 30.2504C33.8001 30.2352 33.7917 30.2212 33.7807 30.2093C33.7697 30.1975 33.7564 30.188 33.7415 30.1816C33.7267 30.1751 33.7107 30.1718 33.6945 30.1719Z" fill="white"/>
<path d="M33.5505 25.4862L28.6037 20.5394C28.5869 20.5229 28.5642 20.5137 28.5406 20.5137C28.5171 20.5137 28.4944 20.5229 28.4776 20.5394L23.5308 25.4862C23.5165 25.4972 23.5063 25.5127 23.5018 25.5303C23.4973 25.5478 23.4988 25.5663 23.5061 25.5829C23.5133 25.5995 23.5259 25.6131 23.5418 25.6217C23.5577 25.6303 23.5761 25.6334 23.5939 25.6303H33.5054C33.5217 25.6292 33.5372 25.6232 33.55 25.6131C33.5628 25.6029 33.5723 25.5892 33.5771 25.5736C33.582 25.5581 33.5821 25.5414 33.5773 25.5258C33.5725 25.5102 33.5632 25.4964 33.5505 25.4862Z" fill="white"/>
<path d="M38.1998 40.1567L43.1465 35.2099C43.163 35.1931 43.1723 35.1704 43.1723 35.1469C43.1723 35.1233 43.163 35.1006 43.1465 35.0838L38.1998 30.137C38.1887 30.1227 38.1732 30.1125 38.1556 30.108C38.1381 30.1035 38.1196 30.105 38.103 30.1123C38.0865 30.1195 38.0728 30.1321 38.0642 30.148C38.0556 30.1639 38.0526 30.1823 38.0556 30.2001V40.1116C38.0567 40.1279 38.0628 40.1434 38.0729 40.1562C38.083 40.169 38.0967 40.1785 38.1123 40.1834C38.1279 40.1882 38.1445 40.1883 38.1601 40.1835C38.1757 40.1787 38.1895 40.1694 38.1998 40.1567Z" fill="white"/>
<path d="M23.5306 44.8055L28.4774 49.7522C28.4942 49.7687 28.5168 49.778 28.5404 49.778C28.564 49.778 28.5867 49.7687 28.6035 49.7522L33.5502 44.8055C33.5646 44.7944 33.5748 44.7789 33.5793 44.7614C33.5838 44.7438 33.5823 44.7253 33.575 44.7087C33.5678 44.6922 33.5552 44.6785 33.5393 44.6699C33.5234 44.6613 33.505 44.6583 33.4872 44.6613H23.5757C23.5594 44.6624 23.5438 44.6685 23.531 44.6786C23.5182 44.6887 23.5088 44.7024 23.5039 44.718C23.4991 44.7336 23.499 44.7503 23.5038 44.7659C23.5085 44.7815 23.5179 44.7953 23.5306 44.8055Z" fill="white"/>
<path d="M18.8814 30.1358L13.9347 35.0826C13.9182 35.0994 13.9089 35.1221 13.9089 35.1457C13.9089 35.1692 13.9182 35.1919 13.9347 35.2087L18.8814 40.1555C18.8925 40.1698 18.908 40.18 18.9255 40.1845C18.9431 40.189 18.9616 40.1875 18.9782 40.1802C18.9947 40.173 19.0084 40.1604 19.017 40.1445C19.0256 40.1286 19.0286 40.1102 19.0256 40.0924V30.1809C19.0245 30.1646 19.0184 30.1491 19.0083 30.1363C18.9982 30.1235 18.9845 30.114 18.9689 30.1092C18.9533 30.1043 18.9366 30.1042 18.921 30.109C18.9054 30.1138 18.8916 30.1231 18.8814 30.1358Z" fill="white"/>
<g style="mix-blend-mode:hue">
<rect x="0.5" y="0.0234375" width="56" height="56" fill="#D9D9D9"/>
</g>
</g>
<defs>
<clipPath id="clip0_2420_243882">
<rect x="0.5" y="0.0234375" width="56" height="56" rx="4" fill="white"/>
</clipPath>
</defs>
</svg>
