<svg width="57" height="57" viewBox="0 0 57 57" fill="none" xmlns="http://www.w3.org/2000/svg">
<g clip-path="url(#clip0_2420_243693)">
<path d="M56.3438 0.398438H0.34375V56.3984H56.3438V0.398438Z" fill="#00558A"/>
<path d="M5.15338 7.38299C4.87708 7.50738 4.59388 7.61584 4.30517 7.70783C3.9352 7.83416 3.70059 7.91537 3.61035 7.96049V6.44455C3.98373 6.29709 4.34568 6.12216 4.69319 5.92118C5.02731 5.75515 5.3321 5.5357 5.59554 5.27148H7.19269V15.9553H5.15338V7.38299Z" fill="white"/>
<path d="M9.0153 15.1422C8.51051 14.3895 8.26354 13.4935 8.31147 12.5885V8.78959C8.25575 7.84513 8.47516 6.90479 8.94311 6.08253C9.20055 5.74438 9.5411 5.47858 9.93164 5.31098C10.3222 5.14337 10.7495 5.07967 11.1719 5.12604C11.5423 5.08994 11.9162 5.1306 12.2702 5.24549C12.6242 5.36039 12.9507 5.54704 13.2293 5.79378C13.6945 6.36423 13.9266 7.08955 13.879 7.82408V8.01356H11.9389C11.9633 7.66139 11.9141 7.308 11.7946 6.97586C11.7356 6.87097 11.6464 6.78638 11.5384 6.73323C11.4305 6.68007 11.309 6.66085 11.19 6.67808C11.0963 6.67153 11.0023 6.68594 10.9149 6.72029C10.8275 6.75463 10.7488 6.80803 10.6847 6.8766C10.5409 7.06844 10.4534 7.29654 10.432 7.53532C10.3776 7.96925 10.3535 8.40644 10.3598 8.84372V9.96265C10.4917 9.75848 10.6842 9.60071 10.9102 9.51147C11.1967 9.39613 11.5039 9.34086 11.8126 9.34905C12.1455 9.32185 12.4796 9.38353 12.7809 9.5278C13.0821 9.67207 13.3396 9.89376 13.5271 10.1702C13.9214 10.8509 14.1095 11.6315 14.0685 12.417C14.1181 13.3644 13.8891 14.3055 13.4098 15.1241C13.1535 15.467 12.8124 15.7371 12.42 15.908C12.0276 16.0789 11.5975 16.1446 11.1719 16.0986C10.7617 16.1275 10.3506 16.0554 9.97464 15.8887C9.59869 15.7219 9.26931 15.4656 9.0153 15.1422ZM11.8397 14.1405C11.9687 13.683 12.0235 13.2078 12.0021 12.7329C12.0196 12.3872 12.0196 12.0408 12.0021 11.6952C11.9873 11.4802 11.9123 11.2738 11.7855 11.0996C11.7133 11.0095 11.6184 10.9403 11.5106 10.899C11.4027 10.8578 11.2858 10.8461 11.1719 10.865C10.996 10.8637 10.8234 10.9139 10.6756 11.0094C10.5424 11.1001 10.4289 11.2167 10.3418 11.3523V13.0577C10.3418 14.0683 10.6215 14.5737 11.19 14.5737C11.3314 14.5864 11.473 14.5504 11.5912 14.4716C11.7093 14.3928 11.797 14.276 11.8397 14.1405Z" fill="white"/>
<path d="M18.2463 9.35041V5.26274H19.4465C19.6535 5.25405 19.8591 5.30078 20.042 5.3981C20.1942 5.48987 20.3116 5.62951 20.3759 5.79514C20.4529 5.9966 20.4897 6.21119 20.4842 6.42679C20.4933 6.6483 20.4468 6.86856 20.3488 7.06745C20.2653 7.22376 20.1319 7.34764 19.9698 7.41937C19.7892 7.50312 19.5914 7.54331 19.3923 7.53668H18.9953V9.34138L18.2463 9.35041ZM18.9953 7.01331H19.2931C19.4017 7.01541 19.5095 6.99386 19.6089 6.95015C19.6452 6.93174 19.6774 6.9063 19.7037 6.87532C19.73 6.84434 19.75 6.80843 19.7623 6.76968C19.7942 6.65516 19.8094 6.53663 19.8074 6.41777C19.8231 6.29797 19.8231 6.17662 19.8074 6.05682C19.8004 6.01595 19.7847 5.97707 19.7614 5.94281C19.738 5.90856 19.7075 5.87973 19.6721 5.8583C19.5662 5.80414 19.4478 5.77922 19.3292 5.78611H19.0494L18.9953 7.01331Z" fill="white"/>
<path d="M20.782 9.34939V5.26172H22.4965V5.78508H21.5309V6.96716H22.2889V7.48151H21.5309V8.83504H22.5055V9.34939H20.782Z" fill="white"/>
<path d="M22.6318 9.34939L23.444 5.26172H24.2471L25.0592 9.34939H24.3734L24.211 8.44704H23.4981L23.3267 9.34939H22.6318ZM23.5342 7.93269H24.0937L23.8139 6.21822L23.5342 7.93269Z" fill="white"/>
<path d="M26.4218 9.40402C26.1744 9.41629 25.929 9.35336 25.718 9.22354C25.5501 9.10839 25.4261 8.93984 25.3661 8.74529C25.2893 8.51876 25.2527 8.28058 25.2578 8.04146V6.58867C25.253 6.34071 25.2896 6.09368 25.3661 5.85777C25.4231 5.66412 25.5481 5.49753 25.718 5.38854C25.93 5.26187 26.1753 5.20213 26.4218 5.2171C26.6502 5.20727 26.8772 5.25701 27.0805 5.36147C27.2407 5.45448 27.3623 5.60171 27.4234 5.77656C27.4966 5.97256 27.5303 6.18108 27.5227 6.39015V6.73305H26.8098V6.35406C26.8098 6.24578 26.8098 6.1375 26.8098 6.04727C26.805 5.96256 26.7698 5.88245 26.7106 5.82168C26.6738 5.78968 26.6307 5.76589 26.584 5.75188C26.5373 5.73788 26.4882 5.73399 26.4399 5.74047C26.3399 5.73286 26.2405 5.76171 26.1601 5.82168C26.1029 5.89173 26.0655 5.97586 26.0519 6.0653C26.0418 6.17637 26.0418 6.28812 26.0519 6.39918V8.20389C26.0358 8.32669 26.0358 8.45106 26.0519 8.57386C26.0675 8.65855 26.1122 8.73513 26.1782 8.79041C26.2532 8.83952 26.3413 8.8647 26.4309 8.8626C26.4798 8.86788 26.5293 8.86256 26.576 8.84699C26.6227 8.83142 26.6656 8.80596 26.7016 8.77236C26.7574 8.70587 26.792 8.62414 26.8008 8.53775C26.8008 8.44752 26.8008 8.33021 26.8008 8.21291V7.84294H27.5137V8.15877C27.5179 8.37577 27.4874 8.59205 27.4234 8.79944C27.3626 8.97909 27.2414 9.13213 27.0805 9.23257C26.8832 9.35459 26.6536 9.41433 26.4218 9.40402Z" fill="white"/>
<path d="M27.9468 9.34939V5.26172H29.6613V5.78508H28.6867V6.96716H29.4537V7.48151H28.6867V8.83504H29.6703V9.34939H27.9468Z" fill="white"/>
<path d="M30.0131 10.0356L29.9409 9.78298C30.0302 9.75589 30.111 9.70615 30.1755 9.6386C30.2408 9.55713 30.2731 9.45403 30.2657 9.34986H29.9048V8.66406H30.5725V9.28669C30.5837 9.46538 30.5362 9.64282 30.4372 9.792C30.33 9.92193 30.1793 10.0085 30.0131 10.0356Z" fill="white"/>
<path d="M31.8359 9.44816V8.92481H32.1066C32.165 8.91153 32.2201 8.88701 32.2691 8.85262C32.3135 8.80902 32.342 8.75185 32.3503 8.69019C32.3616 8.60333 32.3616 8.51537 32.3503 8.42851V5.2793H33.0902V8.45558C33.0966 8.64836 33.0691 8.84077 33.009 9.02407C32.9629 9.1676 32.8625 9.28742 32.7293 9.35793C32.5548 9.44019 32.3624 9.47741 32.1698 9.46621L31.8359 9.44816Z" fill="white"/>
<path d="M34.7595 9.40353C34.5142 9.41852 34.2697 9.3621 34.0557 9.2411C33.8878 9.12595 33.7638 8.9574 33.7038 8.76285C33.6344 8.52246 33.6009 8.27312 33.6045 8.02293V5.26172H34.3354V8.15828C34.3262 8.27841 34.3262 8.39908 34.3354 8.51921C34.3483 8.6187 34.3889 8.71254 34.4527 8.78992C34.4889 8.82636 34.5329 8.85421 34.5813 8.87139C34.6297 8.88857 34.6814 8.89465 34.7325 8.88918C34.7836 8.89533 34.8354 8.88956 34.884 8.87234C34.9325 8.85512 34.9764 8.82692 35.0122 8.78992C35.076 8.71254 35.1167 8.6187 35.1295 8.51921C35.1388 8.39908 35.1388 8.27841 35.1295 8.15828V5.30684H35.8514V8.06804C35.8577 8.31776 35.8273 8.56707 35.7611 8.80797C35.7012 9.00252 35.5771 9.17107 35.4092 9.28622C35.2067 9.3818 34.9827 9.42227 34.7595 9.40353Z" fill="white"/>
<path d="M37.4215 9.40338C37.2076 9.41261 36.9953 9.36265 36.8079 9.259C36.6391 9.16219 36.5062 9.01342 36.4289 8.8349C36.3407 8.62012 36.2947 8.39033 36.2935 8.15813L36.9342 8.0318C36.9315 8.17209 36.9497 8.312 36.9883 8.44689C37.0117 8.55096 37.0614 8.64728 37.1327 8.72662C37.1662 8.76162 37.2071 8.7887 37.2524 8.80587C37.2976 8.82305 37.3462 8.82988 37.3944 8.82588C37.4423 8.8311 37.4907 8.82388 37.535 8.80491C37.5792 8.78594 37.6178 8.75586 37.6471 8.71759C37.703 8.63867 37.7316 8.54358 37.7283 8.44689C37.733 8.28998 37.6888 8.13548 37.602 8.00473C37.512 7.87726 37.4058 7.762 37.2861 7.66184L36.7718 7.21066C36.6328 7.09225 36.514 6.95207 36.4199 6.79558C36.3317 6.61934 36.2883 6.42409 36.2935 6.2271C36.2857 6.08891 36.3075 5.95065 36.3572 5.82151C36.407 5.69237 36.4838 5.57532 36.5823 5.47814C36.7945 5.29492 37.0694 5.20113 37.3493 5.21647C37.5132 5.21407 37.6758 5.24475 37.8276 5.30669C37.9464 5.36446 38.0512 5.44763 38.1344 5.55033C38.2076 5.66234 38.2652 5.78376 38.3058 5.91127C38.3414 6.04702 38.3626 6.18616 38.369 6.32636L37.7373 6.43464C37.7324 6.31923 37.7173 6.2045 37.6922 6.09175C37.6795 6.00292 37.6383 5.9206 37.5749 5.85713C37.5417 5.82818 37.503 5.80611 37.4612 5.79217C37.4194 5.77823 37.3752 5.77271 37.3312 5.77592C37.2837 5.77376 37.2363 5.78238 37.1925 5.80113C37.1488 5.81988 37.1098 5.84828 37.0786 5.8842C37.0194 5.96198 36.9877 6.05718 36.9883 6.15491C36.9824 6.27294 37.014 6.38981 37.0786 6.48877C37.1461 6.59312 37.2282 6.68732 37.3222 6.76852L37.8366 7.21969C38.0056 7.35934 38.1491 7.52725 38.2607 7.71597C38.3885 7.92117 38.4514 8.16022 38.4411 8.40177C38.4434 8.58117 38.3999 8.75818 38.3148 8.91611C38.228 9.06583 38.1036 9.19026 37.9539 9.27705C37.7895 9.36222 37.6066 9.40561 37.4215 9.40338Z" fill="white"/>
<path d="M39.19 9.34939V5.81215H38.5403V5.26172H40.5706V5.81215H39.9389V9.34939H39.19Z" fill="white"/>
<path d="M40.8684 9.34939V5.26172H41.5993V9.34939H40.8684Z" fill="white"/>
<path d="M43.2326 9.40402C42.9852 9.41629 42.7398 9.35336 42.5288 9.22354C42.3609 9.10839 42.2369 8.93984 42.1769 8.74529C42.1001 8.51876 42.0635 8.28058 42.0686 8.04146V6.58867C42.0638 6.34071 42.1004 6.09368 42.1769 5.85777C42.2339 5.66412 42.3589 5.49753 42.5288 5.38854C42.7408 5.26187 42.9861 5.20213 43.2326 5.2171C43.461 5.20727 43.688 5.25701 43.8914 5.36147C44.0515 5.45448 44.1731 5.60171 44.2343 5.77656C44.3026 5.97381 44.3361 6.18142 44.3335 6.39015V6.73305H43.6567V6.35406C43.6567 6.24578 43.6567 6.1375 43.6567 6.04727C43.6519 5.96256 43.6167 5.88245 43.5575 5.82168C43.5207 5.78968 43.4775 5.76589 43.4309 5.75188C43.3842 5.73788 43.3351 5.73399 43.2868 5.74047C43.1868 5.73286 43.0874 5.76171 43.007 5.82168C42.9498 5.89173 42.9124 5.97586 42.8988 6.0653C42.8887 6.17637 42.8887 6.28812 42.8988 6.39918V8.20389C42.8827 8.32669 42.8827 8.45106 42.8988 8.57386C42.9144 8.65855 42.959 8.73513 43.0251 8.79041C43.0995 8.84062 43.188 8.86589 43.2777 8.8626C43.3267 8.86788 43.3762 8.86256 43.4229 8.84699C43.4696 8.83142 43.5125 8.80596 43.5485 8.77236C43.6043 8.70587 43.6389 8.62414 43.6477 8.53775C43.6477 8.44752 43.6477 8.33021 43.6477 8.21291V7.84294H44.3606V8.15877C44.3648 8.37577 44.3343 8.59205 44.2703 8.79944C44.2041 8.97612 44.0842 9.12759 43.9274 9.23257C43.7198 9.36184 43.4765 9.42187 43.2326 9.40402Z" fill="white"/>
<path d="M44.7576 9.34939V5.26172H46.463V5.78508H45.4614V6.96716H46.2284V7.48151H45.4614V8.83504H46.445V9.34939H44.7576Z" fill="white"/>
<path d="M18.0388 16.0174L18.8509 11.9297H19.654L20.4661 16.0174H19.7804L19.6179 15.0699H18.9051L18.7427 16.0174H18.0388ZM18.9412 14.6007H19.5006L19.2209 12.8862L18.9412 14.6007Z" fill="white"/>
<path d="M20.7549 16.0174V11.9297H21.2782L22.2708 14.2578V11.9297H22.9025V16.0174H22.4062L21.4046 13.581V16.0174H20.7549Z" fill="white"/>
<path d="M23.3989 16.0174V11.9298H24.3644C24.6299 11.9172 24.8949 11.9634 25.1405 12.0651C25.3216 12.1513 25.4635 12.3028 25.5375 12.4892C25.6273 12.7159 25.6703 12.9584 25.6638 13.2021V14.7C25.6703 14.9496 25.6273 15.198 25.5375 15.4309C25.468 15.6216 25.3295 15.7793 25.1495 15.873C24.9124 15.9824 24.6522 16.032 24.3915 16.0174H23.3989ZM24.1479 15.4941H24.3735C24.5035 15.5074 24.6341 15.4755 24.7434 15.4038C24.8212 15.3378 24.8698 15.2438 24.8788 15.1421C24.8892 15.001 24.8892 14.8592 24.8788 14.718V13.157C24.8906 13.0219 24.8906 12.886 24.8788 12.7509C24.861 12.6625 24.8091 12.5848 24.7344 12.5343C24.622 12.4806 24.4979 12.4558 24.3735 12.4622H24.1569L24.1479 15.4941Z" fill="white"/>
<path d="M28.2626 16.0714C28.0486 16.0806 27.8363 16.0306 27.6489 15.927C27.4802 15.8302 27.3473 15.6814 27.27 15.5029C27.1817 15.2881 27.1358 15.0583 27.1346 14.8261L27.7753 14.6998C27.7772 14.8398 27.7953 14.9791 27.8294 15.1149C27.8528 15.2189 27.9025 15.3153 27.9738 15.3946C28.008 15.4286 28.049 15.455 28.094 15.4721C28.1391 15.4892 28.1873 15.4966 28.2355 15.4938C28.2846 15.4981 28.334 15.4906 28.3796 15.4717C28.4251 15.4529 28.4654 15.4233 28.4972 15.3856C28.5463 15.3039 28.5713 15.2101 28.5693 15.1149C28.574 14.958 28.5299 14.8034 28.443 14.6727C28.353 14.5452 28.2468 14.43 28.1272 14.3298L27.6129 13.8786C27.4739 13.7602 27.355 13.62 27.2609 13.4636C27.1728 13.2873 27.1294 13.0921 27.1346 12.8951C27.1268 12.7569 27.1485 12.6186 27.1983 12.4895C27.2481 12.3603 27.3248 12.2433 27.4234 12.1461C27.6355 11.9629 27.9105 11.8691 28.1904 11.8844C28.3542 11.882 28.5169 11.9127 28.6686 11.9747C28.7875 12.0324 28.8922 12.1156 28.9754 12.2183C29.0486 12.3303 29.1063 12.4517 29.1469 12.5792C29.1825 12.715 29.2036 12.8541 29.21 12.9943L28.5784 13.1116C28.5892 12.9976 28.5892 12.8828 28.5784 12.7687C28.5676 12.6767 28.5263 12.5909 28.4611 12.5251C28.4278 12.4962 28.3892 12.4741 28.3474 12.4601C28.3056 12.4462 28.2614 12.4407 28.2174 12.4439C28.1699 12.4417 28.1225 12.4504 28.0787 12.4691C28.035 12.4879 27.996 12.5162 27.9648 12.5522C27.9056 12.63 27.8739 12.7251 27.8745 12.8229C27.8673 12.941 27.899 13.0583 27.9648 13.1567C28.0323 13.2611 28.1143 13.3553 28.2084 13.4365L28.7227 13.8877C28.8896 14.0295 29.0328 14.197 29.1469 14.3839C29.2747 14.5891 29.3376 14.8282 29.3273 15.0697C29.3296 15.2491 29.2861 15.4261 29.201 15.5841C29.1142 15.7338 28.9898 15.8582 28.8401 15.945C28.6627 16.039 28.463 16.0827 28.2626 16.0714Z" fill="white"/>
<path d="M30.031 16.0174V12.4801H29.3813V11.9297H31.4116V12.4801H30.78V16.0174H30.031Z" fill="white"/>
<path d="M31.6914 16.0178V11.9301H32.6659C32.9014 11.9254 33.136 11.9589 33.3608 12.0294C33.5362 12.0932 33.6875 12.2099 33.7939 12.3633C33.9036 12.5617 33.9567 12.7864 33.9473 13.013C33.9476 13.1615 33.9325 13.3097 33.9022 13.4551C33.8792 13.5773 33.8265 13.692 33.7488 13.789C33.6691 13.8848 33.5667 13.9593 33.451 14.0055L34.0195 16.0178H33.2705L32.7742 14.1499H32.4313V16.0178H31.6914ZM32.4313 13.6807H32.6659C32.7833 13.6821 32.8997 13.6607 33.0088 13.6175C33.0527 13.5974 33.0921 13.5686 33.1246 13.533C33.1572 13.4973 33.1822 13.4555 33.1983 13.41C33.238 13.2971 33.2564 13.1777 33.2525 13.0581C33.2664 12.8958 33.225 12.7337 33.1352 12.5979C33.0798 12.5405 33.0118 12.4967 32.9367 12.4701C32.8615 12.4435 32.7812 12.4347 32.702 12.4445H32.4313V13.6807Z" fill="white"/>
<path d="M35.5355 16.0715C35.2932 16.0842 35.0522 16.0279 34.8407 15.9091C34.6692 15.8015 34.5389 15.6394 34.4707 15.4489C34.3942 15.2161 34.3576 14.972 34.3624 14.727V13.202C34.3566 12.9628 34.3932 12.7245 34.4707 12.4982C34.5361 12.3084 34.6673 12.1483 34.8407 12.047C35.0522 11.9282 35.2932 11.8718 35.5355 11.8846C35.7777 11.8728 36.0184 11.9291 36.2303 12.047C36.4002 12.1523 36.5303 12.311 36.6002 12.4982C36.6777 12.7245 36.7144 12.9628 36.7085 13.202V14.736C36.7136 14.9751 36.677 15.2133 36.6002 15.4399C36.5338 15.6337 36.4033 15.7992 36.2303 15.9091C36.0184 16.027 35.7777 16.0833 35.5355 16.0715ZM35.5355 15.5211C35.6325 15.5273 35.7286 15.4985 35.8062 15.4399C35.8658 15.3809 35.9067 15.3055 35.9235 15.2233C35.9328 15.1212 35.9328 15.0185 35.9235 14.9165V13.0306C35.9332 12.9285 35.9332 12.8258 35.9235 12.7238C35.9067 12.6416 35.8658 12.5662 35.8062 12.5072C35.7256 12.4556 35.631 12.4304 35.5355 12.435C35.4398 12.4291 35.3448 12.4544 35.2648 12.5072C35.2021 12.5639 35.1607 12.6403 35.1475 12.7238C35.1331 12.8255 35.1331 12.9288 35.1475 13.0306V14.9165C35.1381 15.0185 35.1381 15.1212 35.1475 15.2233C35.1643 15.3055 35.2051 15.3809 35.2648 15.4399C35.3427 15.4978 35.4385 15.5265 35.5355 15.5211Z" fill="white"/>
<path d="M37.1326 16.0174V11.9297H37.6469L38.6485 14.2578V11.9297H39.2621V16.0174H38.7658L37.7642 13.581V16.0174H37.1326Z" fill="white"/>
<path d="M40.8054 16.0728C40.5788 16.0873 40.3537 16.0271 40.1647 15.9014C40.0019 15.7791 39.8819 15.6086 39.8218 15.4141C39.7485 15.1745 39.715 14.9246 39.7225 14.6742V13.3026C39.7138 13.0462 39.7473 12.7901 39.8218 12.5446C39.88 12.3467 40.0042 12.1748 40.1737 12.0573C40.3875 11.9351 40.6315 11.8757 40.8776 11.8859C41.1086 11.8785 41.3379 11.928 41.5453 12.0303C41.7072 12.1194 41.832 12.2634 41.8972 12.4363C41.9742 12.6409 42.011 12.8585 42.0055 13.077V13.2936H41.2926V13.0589C41.3035 12.9479 41.3035 12.8361 41.2926 12.7251C41.2833 12.6424 41.2449 12.5656 41.1844 12.5085C41.1067 12.4508 41.0098 12.4249 40.9136 12.4363C40.8633 12.4309 40.8124 12.4361 40.7642 12.4517C40.716 12.4672 40.6716 12.4927 40.6339 12.5266C40.5701 12.597 40.5292 12.6851 40.5166 12.7792C40.5166 12.8875 40.5166 12.9958 40.5166 13.1221V14.8366C40.5014 14.9564 40.5014 15.0777 40.5166 15.1975C40.5284 15.2912 40.5732 15.3776 40.6429 15.4412C40.7205 15.4998 40.8166 15.5286 40.9136 15.5224C40.964 15.5272 41.0147 15.5217 41.0629 15.5062C41.111 15.4907 41.1554 15.4655 41.1934 15.4321C41.2611 15.3622 41.308 15.2747 41.3287 15.1795C41.3439 15.0536 41.3439 14.9264 41.3287 14.8005V14.4125H40.9497V13.9433H42.0596V16.0187H41.5814L41.5273 15.6126C41.4758 15.7428 41.392 15.8578 41.2836 15.9465C41.1437 16.0429 40.9746 16.0876 40.8054 16.0728Z" fill="white"/>
<path d="M18.2644 22.6873V18.5996H19.0043V22.6873H18.2644Z" fill="white"/>
<path d="M19.5278 22.6873V18.5996H20.0512L21.0438 20.9367V18.5996H21.6574V22.6873H21.1611L20.1685 20.2509V22.6873H19.5278Z" fill="white"/>
<path d="M23.2095 22.7412C22.9927 22.7502 22.7775 22.7003 22.5868 22.5968C22.4229 22.5009 22.2934 22.3556 22.2169 22.1817C22.1304 21.9629 22.0816 21.7311 22.0725 21.496L22.7132 21.3696C22.7183 21.5129 22.7395 21.6552 22.7763 21.7937C22.8001 21.8977 22.8498 21.9939 22.9207 22.0735C22.956 22.1054 22.9973 22.1299 23.0423 22.1454C23.0873 22.1609 23.1349 22.1671 23.1824 22.1637C23.2303 22.1689 23.2787 22.1617 23.323 22.1427C23.3672 22.1238 23.4058 22.0937 23.4351 22.0554C23.491 21.9765 23.5195 21.8814 23.5163 21.7847C23.521 21.6278 23.4768 21.4733 23.3899 21.3426C23.2941 21.2171 23.1852 21.1022 23.0651 20.9997L22.5508 20.5485C22.4145 20.4298 22.2987 20.2896 22.2079 20.1334C22.1197 19.9572 22.0763 19.7619 22.0815 19.5649C22.0689 19.4284 22.0875 19.2909 22.136 19.1627C22.1845 19.0345 22.2615 18.919 22.3613 18.825C22.5743 18.6363 22.8531 18.539 23.1373 18.5543C23.3011 18.5519 23.4638 18.5826 23.6155 18.6445C23.7344 18.7023 23.8391 18.7855 23.9223 18.8882C23.9962 18.9986 24.0511 19.1206 24.0848 19.2491C24.1234 19.3845 24.1476 19.5237 24.1569 19.6642L23.5253 19.7815C23.5171 19.6664 23.502 19.5519 23.4802 19.4386C23.4653 19.3478 23.4246 19.2632 23.3629 19.195C23.3296 19.166 23.291 19.1439 23.2492 19.13C23.2074 19.1161 23.1632 19.1105 23.1192 19.1137C23.0716 19.1109 23.024 19.1192 22.9801 19.138C22.9362 19.1568 22.8974 19.1856 22.8666 19.222C22.804 19.298 22.7718 19.3944 22.7763 19.4927C22.7703 19.6136 22.8019 19.7334 22.8666 19.8356C22.9346 19.9369 23.0166 20.0281 23.1102 20.1063L23.6155 20.5575C23.7876 20.6965 23.9342 20.8645 24.0487 21.0538C24.1726 21.2607 24.2352 21.4985 24.2291 21.7396C24.2322 21.9191 24.1887 22.0963 24.1028 22.2539C24.016 22.4037 23.8916 22.5281 23.7419 22.6149C23.5774 22.7 23.3946 22.7434 23.2095 22.7412Z" fill="white"/>
<path d="M24.9781 22.6873V19.15H24.3284V18.5996H26.3587V19.15H25.718V22.6873H24.9781Z" fill="white"/>
<path d="M26.6562 22.6873V18.5996H27.4142V22.6873H26.6562Z" fill="white"/>
<path d="M28.3167 22.6873V19.15H27.667V18.5996H29.7063V19.15H29.0656V22.6873H28.3167Z" fill="white"/>
<path d="M31.1049 22.7414C30.8595 22.7564 30.6151 22.7 30.4011 22.579C30.2332 22.4638 30.1092 22.2953 30.0492 22.1007C29.9802 21.8633 29.9468 21.617 29.9499 21.3698V18.5996H30.6808V21.451C30.6712 21.5712 30.6712 21.6919 30.6808 21.812C30.6898 21.9125 30.7309 22.0074 30.7981 22.0827C30.8339 22.1202 30.8775 22.1494 30.9259 22.1681C30.9742 22.1868 31.0261 22.1946 31.0778 22.191C31.1297 22.196 31.182 22.1888 31.2306 22.17C31.2791 22.1512 31.3226 22.1213 31.3576 22.0827C31.4248 22.0074 31.4659 21.9125 31.4749 21.812C31.4845 21.6919 31.4845 21.5712 31.4749 21.451V18.5996H32.1968V21.3698C32.2025 21.6166 32.1721 21.8628 32.1065 22.1007C32.0465 22.2953 31.9225 22.4638 31.7546 22.579C31.5564 22.6902 31.3321 22.7463 31.1049 22.7414Z" fill="white"/>
<path d="M33.1443 22.6873V19.15H32.4946V18.5996H34.534V19.15H33.8933V22.6873H33.1443Z" fill="white"/>
<path d="M34.8228 22.6873V18.5996H35.5356V22.6873H34.8228Z" fill="white"/>
<path d="M37.1958 22.741C36.9564 22.753 36.7185 22.6967 36.51 22.5786C36.3385 22.471 36.2082 22.3089 36.14 22.1184C36.0642 21.8885 36.0276 21.6475 36.0317 21.4055V19.8896C36.0266 19.6505 36.0633 19.4123 36.14 19.1857C36.2054 18.9959 36.3366 18.8359 36.51 18.7346C36.7185 18.6165 36.9564 18.5601 37.1958 18.5721C37.441 18.5592 37.6849 18.6155 37.8996 18.7346C38.0661 18.8413 38.1929 18.9999 38.2605 19.1857C38.3447 19.4106 38.3846 19.6496 38.3778 19.8896V21.4236C38.3837 21.6664 38.3439 21.9083 38.2605 22.1364C38.1946 22.3257 38.0677 22.4876 37.8996 22.5966C37.6831 22.7095 37.4392 22.7595 37.1958 22.741ZM37.1958 22.1906C37.2958 22.1982 37.3951 22.1693 37.4755 22.1094C37.5351 22.0504 37.576 21.975 37.5928 21.8928C37.6021 21.7908 37.6021 21.6881 37.5928 21.586V19.7001C37.6025 19.598 37.6025 19.4953 37.5928 19.3933C37.576 19.3111 37.5351 19.2357 37.4755 19.1767C37.3922 19.1238 37.2943 19.0986 37.1958 19.1045C37.1029 19.0986 37.0107 19.124 36.9341 19.1767C36.8686 19.2325 36.8241 19.3089 36.8078 19.3933C36.798 19.4953 36.798 19.598 36.8078 19.7001V21.586C36.7984 21.6881 36.7984 21.7908 36.8078 21.8928C36.821 21.9763 36.8624 22.0527 36.9251 22.1094C37.0027 22.168 37.0987 22.1968 37.1958 22.1906Z" fill="white"/>
<path d="M38.8291 22.6873V18.5996H39.3434L40.336 20.9367V18.5996H40.9496V22.6873H40.4624L39.4608 20.2509V22.6873H38.8291Z" fill="white"/>
<path d="M42.5017 22.7415C42.2757 22.7576 42.0499 22.7075 41.852 22.5971C41.6847 22.5027 41.5519 22.3572 41.473 22.182C41.3855 21.9639 41.3396 21.7313 41.3376 21.4963L41.9783 21.3699C41.9807 21.5129 41.9988 21.6551 42.0325 21.794C42.06 21.8966 42.1092 21.992 42.1768 22.0738C42.2491 22.1366 42.3429 22.1689 42.4385 22.164C42.4876 22.1683 42.537 22.1607 42.5826 22.1419C42.6281 22.123 42.6685 22.0935 42.7002 22.0557C42.7493 21.9741 42.7743 21.8803 42.7724 21.785C42.7759 21.6295 42.7353 21.4762 42.6551 21.3429C42.5592 21.2174 42.4503 21.1025 42.3302 21L41.8159 20.5488C41.6772 20.4326 41.5609 20.2919 41.473 20.1337C41.3775 19.9599 41.3307 19.7635 41.3376 19.5652C41.3261 19.428 41.3462 19.29 41.3962 19.1618C41.4463 19.0335 41.525 18.9184 41.6264 18.8253C41.7297 18.7313 41.8508 18.6589 41.9825 18.6124C42.1143 18.5659 42.254 18.5463 42.3934 18.5546C42.5573 18.5522 42.7199 18.5829 42.8716 18.6448C42.9917 18.7007 43.0968 18.7842 43.1784 18.8885C43.2552 18.9984 43.3131 19.1204 43.3499 19.2494C43.3855 19.3852 43.4067 19.5243 43.4131 19.6645L42.7814 19.7818C42.7774 19.6663 42.7623 19.5515 42.7363 19.4389C42.7255 19.3469 42.6842 19.2611 42.619 19.1953C42.5857 19.1663 42.5471 19.1442 42.5053 19.1303C42.4635 19.1164 42.4193 19.1108 42.3753 19.1141C42.3278 19.1119 42.2804 19.1205 42.2366 19.1393C42.1929 19.158 42.1539 19.1864 42.1227 19.2223C42.0635 19.3001 42.0318 19.3953 42.0325 19.493C42.0311 19.6134 42.0622 19.7319 42.1227 19.8359C42.1907 19.9372 42.2727 20.0284 42.3663 20.1066L42.8807 20.5578C43.0476 20.6996 43.1907 20.8672 43.3047 21.0541C43.4326 21.2593 43.4955 21.4983 43.4852 21.7399C43.4955 21.9201 43.4515 22.0993 43.3589 22.2542C43.2758 22.4068 43.1505 22.5321 42.998 22.6152C42.8448 22.6957 42.6747 22.739 42.5017 22.7415Z" fill="white"/>
<path d="M37.5658 25.25C37.2578 25.6576 37.1189 26.1683 37.1778 26.6757C37.3441 27.161 37.6895 27.5645 38.1433 27.8037C38.4471 27.394 38.5857 26.885 38.5313 26.3779C38.365 25.8926 38.0197 25.4892 37.5658 25.25Z" fill="white"/>
<path d="M36.6725 29.3908C36.8494 29.2016 36.9775 28.9721 37.0454 28.7221C37.1133 28.4721 37.119 28.2093 37.0621 27.9566C37.0051 27.7039 36.8872 27.4689 36.7187 27.2722C36.5501 27.0755 36.336 26.9231 36.0949 26.8281C35.7856 27.2385 35.6466 27.7525 35.7069 28.2629C35.8764 28.7464 36.2209 29.1488 36.6725 29.3908Z" fill="white"/>
<path d="M38.9194 28.6149C39.2489 28.9419 39.6916 29.1293 40.1557 29.1383C40.613 29.0404 41.0179 28.7768 41.2926 28.3984C40.9654 28.0735 40.5263 27.8863 40.0654 27.875C39.6048 27.9708 39.1963 28.2346 38.9194 28.6149Z" fill="white"/>
<path d="M39.8668 25.502C39.528 25.9279 39.3636 26.4665 39.4066 27.009C39.9407 27.0515 40.4707 26.8867 40.8865 26.5488C41.2204 26.1208 41.3815 25.583 41.3377 25.0419C40.8063 24.9989 40.279 25.1639 39.8668 25.502Z" fill="white"/>
<path d="M38.6846 30.7719C39.1545 30.7728 39.6079 30.5991 39.9569 30.2846C39.7022 29.8969 39.308 29.6223 38.8561 29.5176C38.3862 29.5167 37.9328 29.6903 37.5837 30.0049C37.8385 30.3925 38.2327 30.6672 38.6846 30.7719Z" fill="white"/>
<path d="M39.2713 41.2936H34.3806C34.2833 41.2824 34.1847 41.292 34.0914 41.3216C33.9981 41.3512 33.9121 41.4002 33.839 41.4654C33.7659 41.5305 33.7074 41.6104 33.6674 41.6998C33.6274 41.7892 33.6067 41.886 33.6067 41.9839C33.6067 42.0818 33.6274 42.1786 33.6674 42.268C33.7074 42.3573 33.7659 42.4372 33.839 42.5024C33.9121 42.5676 33.9981 42.6165 34.0914 42.6462C34.1847 42.6758 34.2833 42.6853 34.3806 42.6742H39.2713C39.4408 42.6548 39.5972 42.5737 39.7108 42.4464C39.8243 42.3191 39.8871 42.1545 39.8871 41.9839C39.8871 41.8133 39.8243 41.6487 39.7108 41.5214C39.5972 41.3941 39.4408 41.313 39.2713 41.2936Z" fill="white"/>
<path d="M39.2713 48.9186H34.3806C34.2833 48.9074 34.1847 48.917 34.0914 48.9466C33.9981 48.9762 33.9121 49.0252 33.839 49.0904C33.7659 49.1555 33.7074 49.2354 33.6674 49.3248C33.6274 49.4142 33.6067 49.511 33.6067 49.6089C33.6067 49.7068 33.6274 49.8036 33.6674 49.893C33.7074 49.9823 33.7659 50.0622 33.839 50.1274C33.9121 50.1926 33.9981 50.2416 34.0914 50.2712C34.1847 50.3008 34.2833 50.3103 34.3806 50.2992H39.2713C39.4408 50.2798 39.5972 50.1987 39.7108 50.0714C39.8243 49.9441 39.8871 49.7795 39.8871 49.6089C39.8871 49.4383 39.8243 49.2737 39.7108 49.1464C39.5972 49.0191 39.4408 48.938 39.2713 48.9186Z" fill="white"/>
<path d="M39.0908 43.1509H34.5791C34.4753 43.1533 34.3766 43.1962 34.3041 43.2704C34.2316 43.3446 34.191 43.4442 34.1911 43.548V44.9196L31.2313 45.2444L26.9091 45.1451V42.5103C27.4886 42.4364 28.0618 42.3188 28.6235 42.1584C32.7924 40.9853 33.6947 38.3955 33.6045 36.0133C33.5143 33.6311 34.2903 32.6476 35.4092 32.2235C35.7027 32.1172 36.0045 32.0357 36.3116 31.9798C36.3407 32.6992 36.4745 33.4105 36.7086 34.0913H37.0064C36.7597 33.4073 36.6227 32.6886 36.6003 31.9618C36.9274 31.9302 37.2568 31.9302 37.5839 31.9618C37.2636 31.7669 36.9616 31.5434 36.6815 31.294C36.9122 30.2871 37.467 29.3836 38.2607 28.7223C38.6721 28.329 39.0411 27.8935 39.3615 27.4229L39.1179 27.2695C38.8043 27.7209 38.4444 28.1382 38.0441 28.5148C37.2589 29.186 36.6957 30.0795 36.4289 31.0775C36.2123 30.8789 35.9687 30.6353 35.716 30.3646C34.6964 29.2096 33.3699 30.0578 31.484 31.8084C29.5981 33.5589 27.2339 33.6131 24.9149 31.2579C21.8649 28.1268 19.203 28.1448 17.3712 28.3253C18.6255 28.8577 19.0586 30.0217 19.6902 32.9905C20.358 36.1036 22.0273 37.5022 24.3103 37.7098C23.2545 37.8812 22.9838 38.0256 21.2784 39.2077C20.0668 39.8673 18.6459 40.0291 17.3171 39.6588C18.7067 40.101 20.358 41.5628 21.8288 42.0681C22.7036 42.3677 23.6135 42.5527 24.5359 42.6186V45.1451L16.3335 44.9737V46.7333L31.2584 46.3994L34.2181 46.7333V48.1049C34.2181 48.2078 34.259 48.3065 34.3318 48.3792C34.4045 48.452 34.5032 48.4929 34.6061 48.4929H39.1179C39.2217 48.4929 39.3213 48.4523 39.3955 48.3798C39.4697 48.3073 39.5126 48.2086 39.5149 48.1049V43.5931C39.5218 43.5349 39.5156 43.476 39.497 43.4205C39.4783 43.365 39.4477 43.3143 39.4071 43.272C39.3666 43.2298 39.3172 43.197 39.2625 43.1761C39.2078 43.1551 39.1492 43.1466 39.0908 43.1509ZM25.1946 42.6005C25.5192 42.6185 25.8445 42.6185 26.1691 42.6005V45.1542H25.1946V42.6005Z" fill="white"/>
<path d="M15.8551 46.3915C15.8612 46.4733 15.8511 46.5555 15.8254 46.6334C15.7997 46.7113 15.7588 46.7834 15.7051 46.8454C15.6515 46.9075 15.5861 46.9583 15.5127 46.995C15.4393 47.0317 15.3594 47.0535 15.2776 47.0592H14.9347C14.7687 47.0477 14.6139 46.971 14.5041 46.846C14.3943 46.7209 14.3382 46.5576 14.3482 46.3915V45.1553C14.342 45.0723 14.3523 44.9889 14.3785 44.9099C14.4047 44.8309 14.4462 44.7579 14.5007 44.695C14.5552 44.6321 14.6216 44.5806 14.6961 44.5434C14.7706 44.5063 14.8517 44.4842 14.9347 44.4785H15.2776C15.3602 44.4842 15.4409 44.5063 15.515 44.5436C15.589 44.5808 15.6548 44.6325 15.7086 44.6955C15.7624 44.7586 15.803 44.8317 15.8282 44.9106C15.8533 44.9896 15.8625 45.0728 15.8551 45.1553V46.3915Z" fill="white"/>
<g style="mix-blend-mode:hue">
<rect x="0.34375" y="0.398438" width="56" height="56" fill="#D9D9D9"/>
</g>
</g>
<defs>
<clipPath id="clip0_2420_243693">
<rect x="0.34375" y="0.398438" width="56" height="56" rx="4" fill="white"/>
</clipPath>
</defs>
</svg>
