<svg width="16" height="16" viewBox="0 0 16 16" fill="none" xmlns="http://www.w3.org/2000/svg">
<g id="Icon Filled / help_outline" clip-path="url(#clip0_4991_52851)">
<path id="Vector" d="M7.33301 12.0026H8.66634V10.6693H7.33301V12.0026ZM7.99967 1.33594C4.31967 1.33594 1.33301 4.3226 1.33301 8.0026C1.33301 11.6826 4.31967 14.6693 7.99967 14.6693C11.6797 14.6693 14.6663 11.6826 14.6663 8.0026C14.6663 4.3226 11.6797 1.33594 7.99967 1.33594ZM7.99967 13.3359C5.05967 13.3359 2.66634 10.9426 2.66634 8.0026C2.66634 5.0626 5.05967 2.66927 7.99967 2.66927C10.9397 2.66927 13.333 5.0626 13.333 8.0026C13.333 10.9426 10.9397 13.3359 7.99967 13.3359ZM7.99967 4.0026C6.52634 4.0026 5.33301 5.19594 5.33301 6.66927H6.66634C6.66634 5.93594 7.26634 5.33594 7.99967 5.33594C8.73301 5.33594 9.33301 5.93594 9.33301 6.66927C9.33301 8.0026 7.33301 7.83594 7.33301 10.0026H8.66634C8.66634 8.5026 10.6663 8.33594 10.6663 6.66927C10.6663 5.19594 9.47301 4.0026 7.99967 4.0026Z" fill="#A3A3A3"/>
</g>
<defs>
<clipPath id="clip0_4991_52851">
<rect width="16" height="16" fill="white"/>
</clipPath>
</defs>
</svg>
