<svg width="20" height="20" viewBox="0 0 20 20" fill="none" xmlns="http://www.w3.org/2000/svg">
<path d="M9.22422 10.2917C9.86588 9.13337 11.0992 8.45004 11.8159 7.42504C12.5742 6.35004 12.1492 4.34171 9.99922 4.34171C8.59089 4.34171 7.89922 5.40837 7.60755 6.29171L5.44922 5.38337C6.04089 3.60837 7.64922 2.08337 9.99088 2.08337C11.9492 2.08337 13.2909 2.97504 13.9742 4.09171C14.5576 5.05004 14.8992 6.84171 13.9992 8.17504C12.9992 9.65004 12.0409 10.1 11.5242 11.05C11.3159 11.4334 11.2326 11.6834 11.2326 12.9167H8.82422C8.81589 12.2667 8.71588 11.2084 9.22422 10.2917ZM11.6659 16.25C11.6659 17.1667 10.9159 17.9167 9.99922 17.9167C9.08255 17.9167 8.33255 17.1667 8.33255 16.25C8.33255 15.3334 9.08255 14.5834 9.99922 14.5834C10.9159 14.5834 11.6659 15.3334 11.6659 16.25Z" fill="currentColor"/>
</svg>
