<svg width="100%" height="100%" viewBox="0 0 24 24" fill="none" xmlns="http://www.w3.org/2000/svg">
<path d="M14.3497 9.31536L14.4673 9.5923L14.767 9.61815L20.7801 10.1367L16.2223 14.0924L15.9949 14.2897L16.0629 14.5829L17.4258 20.4608L12.2584 17.3419L12 17.186L11.7416 17.3419L6.57613 20.4596L7.94693 14.5836L8.01549 14.2897L7.78739 14.0921L3.22308 10.138L9.23227 9.62821L9.5327 9.60272L9.65036 9.32511L12.0003 3.78048L14.3497 9.31536ZM11.5 15.9V16.1819L11.7413 16.3278L15.5113 18.6078L16.527 19.2221L16.2569 18.0662L15.3255 14.08L18.4176 11.3977L19.3096 10.6239L18.1332 10.5219L14.0531 10.1679L12.4605 6.40511L11.5 6.6V15.9Z" fill="currentColor" stroke="currentColor"/>
</svg>
