<svg width="100%" height="100%" viewBox="0 0 24 24" fill="none" xmlns="http://www.w3.org/2000/svg">
<path d="M11.8526 21.4078L12 21.4532L12.1474 21.4078C16.3925 20.0983 19.5 15.7227 19.5 11V6.3V5.97502L19.203 5.84307L12.203 2.73307L12 2.64287L11.797 2.73307L4.79699 5.84307L4.5 5.97502V6.3V11C4.5 15.7227 7.60749 20.0983 11.8526 21.4078ZM9.64713 14.5242L10.0007 14.8764L10.3536 14.5236L16.5887 8.28836L17.2941 8.99875L10 16.2929L6.70711 13L7.41068 12.2964L9.64713 14.5242ZM3.5 5.32494L12 1.54716L20.5 5.32494V11C20.5 16.2973 16.8574 21.2335 12 22.4845C7.14261 21.2335 3.5 16.2973 3.5 11V5.32494Z" fill="currentColor" stroke="currentColor"/>
</svg>
