<svg width="100%" height="100%" viewBox="0 0 24 24" fill="none" xmlns="http://www.w3.org/2000/svg">
<path d="M4.56355 9.86645L3.92372 9.22662L3.72252 10.1088C3.58562 10.7091 3.5 11.3467 3.5 12C3.5 16.3264 6.75179 19.8948 10.9269 20.426L11.49 20.4976V19.93V18V17.5H10.99C10.1661 17.5 9.49 16.8239 9.49 16V15V14.7929L9.34355 14.6464L4.56355 9.86645ZM17.4139 17.5528L17.6772 18.3729L18.2588 17.7376C19.6384 16.2307 20.5 14.2119 20.5 12C20.5 8.43851 18.289 5.37959 15.1768 4.1262L14.49 3.84961V4.59V5C14.49 5.82386 13.8139 6.5 12.99 6.5H10.99H10.49V7V9C10.49 9.27386 10.2639 9.5 9.99 9.5H7.99H7.49V10V12V12.5H7.99H13.99C14.2639 12.5 14.49 12.7261 14.49 13V16V16.5H14.99H15.99C16.6598 16.5 17.2163 16.9371 17.4139 17.5528ZM2.5 12C2.5 6.75614 6.75614 2.5 12 2.5C17.2439 2.5 21.5 6.75614 21.5 12C21.5 17.2439 17.2439 21.5 12 21.5C6.75614 21.5 2.5 17.2439 2.5 12Z" fill="currentColor" stroke="currentColor"/>
</svg>
