<svg width="52" height="53" viewBox="0 0 52 53" fill="none" xmlns="http://www.w3.org/2000/svg">
<path d="M0 26.5C0 12.1406 11.6406 0.5 26 0.5V0.5C40.3594 0.5 52 12.1406 52 26.5V26.5C52 40.8594 40.3594 52.5 26 52.5V52.5C11.6406 52.5 0 40.8594 0 26.5V26.5Z" fill="#FBBF24"/>
<path d="M2 26.5C2 13.2452 12.7452 2.5 26 2.5V2.5C39.2548 2.5 50 13.2452 50 26.5V26.5C50 39.7548 39.2548 50.5 26 50.5V50.5C12.7452 50.5 2 39.7548 2 26.5V26.5Z" fill="#F59E0B"/>
<path d="M17.2158 35.4209H34.7858C36.5825 35.4209 37.7025 33.4726 36.8041 31.9209L28.0191 16.7426C27.1208 15.1909 24.8808 15.1909 23.9825 16.7426L15.1975 31.9209C14.2991 33.4726 15.4191 35.4209 17.2158 35.4209ZM26.0008 27.2543C25.3591 27.2543 24.8341 26.7293 24.8341 26.0876V23.7543C24.8341 23.1126 25.3591 22.5876 26.0008 22.5876C26.6425 22.5876 27.1675 23.1126 27.1675 23.7543V26.0876C27.1675 26.7293 26.6425 27.2543 26.0008 27.2543ZM27.1675 31.9209H24.8341V29.5876H27.1675V31.9209Z" fill="white"/>
</svg>
