<svg width="100%" height="100%" viewBox="0 0 24 24" fill="none" xmlns="http://www.w3.org/2000/svg">
<path d="M14.3499 3.17022L14.4693 3.5H14.82H19C19.8239 3.5 20.5 4.17614 20.5 5V21C20.5 21.8239 19.8239 22.5 19 22.5H5C4.17614 22.5 3.5 21.8239 3.5 21V5C3.5 4.17614 4.17614 3.5 5 3.5H9.18H9.53073L9.65013 3.17022C10.0027 2.19634 10.9228 1.5 12 1.5C13.0772 1.5 13.9973 2.19634 14.3499 3.17022ZM19 21.5H19.5V21V5V4.5H19H17H16.5V5V7.5H7.5V5V4.5H7H5H4.5V5V21V21.5H5H19ZM13.5 4C13.5 3.17386 12.8261 2.5 12 2.5C11.1739 2.5 10.5 3.17386 10.5 4C10.5 4.82614 11.1739 5.5 12 5.5C12.8261 5.5 13.5 4.82614 13.5 4Z" fill="currentColor" stroke="currentColor"/>
</svg>
