<svg width="100%" height="100%" viewBox="0 0 20 20" fill="none" xmlns="http://www.w3.org/2000/svg">
<g clip-path="url(#clip0_5375_144766)">
<path d="M4.99935 15.8333C4.99935 16.75 5.74935 17.5 6.66602 17.5H13.3327C14.2493 17.5 14.9993 16.75 14.9993 15.8333V5.83333H4.99935V15.8333ZM6.66602 7.5H13.3327V15.8333H6.66602V7.5ZM12.916 3.33333L12.0827 2.5H7.91602L7.08268 3.33333H4.16602V5H15.8327V3.33333H12.916Z"/>
</g>
<defs>
<clipPath id="clip0_5375_144766">
<path d="M0 4C0 1.79086 1.79086 0 4 0H16C18.2091 0 20 1.79086 20 4V16C20 18.2091 18.2091 20 16 20H4C1.79086 20 0 18.2091 0 16V4Z" fill="white"/>
</clipPath>
</defs>
</svg>
