<svg width="52" height="53" viewBox="0 0 52 53" fill="none" xmlns="http://www.w3.org/2000/svg">
<path d="M0 26.5C0 12.1406 11.6406 0.5 26 0.5C40.3594 0.5 52 12.1406 52 26.5C52 40.8594 40.3594 52.5 26 52.5C11.6406 52.5 0 40.8594 0 26.5Z" fill="#32C1B3"/>
<path d="M2 26.5C2 13.2452 12.7452 2.5 26 2.5C39.2548 2.5 50 13.2452 50 26.5C50 39.7548 39.2548 50.5 26 50.5C12.7452 50.5 2 39.7548 2 26.5Z" fill="#00938C"/>
<path d="M26.0007 13.8334C19.5607 13.8334 14.334 19.06 14.334 25.5C14.334 31.94 19.5607 37.1667 26.0007 37.1667C32.4407 37.1667 37.6673 31.94 37.6673 25.5C37.6673 19.06 32.4407 13.8334 26.0007 13.8334ZM23.6673 31.3334L17.834 25.5L19.479 23.855L23.6673 28.0317L32.5223 19.1767L34.1673 20.8334L23.6673 31.3334Z" fill="white"/>
</svg>
