<svg width="100%" height="100%" viewBox="0 0 24 24" fill="none" xmlns="http://www.w3.org/2000/svg">
<path d="M19 19.5H19.5V19V5V4.5H19H5H4.5V5V19V19.5H5H19ZM11.5 7.5H16.5V8.5H11.5V7.5ZM11.5 11.5H16.5V12.5H11.5V11.5ZM11.5 15.5H16.5V16.5H11.5V15.5ZM7.5 7.5H8.5V8.5H7.5V7.5ZM7.5 11.5H8.5V12.5H7.5V11.5ZM7.5 15.5H8.5V16.5H7.5V15.5ZM3.9 3.5H20.1C20.1467 3.5 20.2553 3.53189 20.3598 3.6289C20.4591 3.72109 20.5 3.82112 20.5 3.9V20.1C20.5 20.099 20.499 20.1263 20.4711 20.1804C20.4444 20.2322 20.4018 20.291 20.3464 20.3464C20.291 20.4018 20.2322 20.4444 20.1804 20.4711C20.1295 20.4974 20.1023 20.4998 20.1001 20.5C20.1 20.5 20.0999 20.5 20.1 20.5H3.9C3.82112 20.5 3.72109 20.4591 3.6289 20.3598C3.53189 20.2553 3.5 20.1467 3.5 20.1V3.9C3.5 3.67614 3.67614 3.5 3.9 3.5Z" fill="currentColor" stroke="currentColor"/>
</svg>
