<svg width="100%" height="100%" viewBox="0 0 30 30" fill="none" xmlns="http://www.w3.org/2000/svg">
<g filter="url(#filter0_d_1102_149045)">
<path d="M2 5C2 2.79086 3.79086 1 6 1H24C26.2091 1 28 2.79086 28 5V23C28 25.2091 26.2091 27 24 27H6C3.79086 27 2 25.2091 2 23V5Z" fill="#525252"/>
<path d="M2.5 5C2.5 3.067 4.067 1.5 6 1.5H24C25.933 1.5 27.5 3.067 27.5 5V23C27.5 24.933 25.933 26.5 24 26.5H6C4.067 26.5 2.5 24.933 2.5 23V5Z" stroke="#44403C"/>
<path d="M17.6491 10.558L18 10.2071L21.7929 14L17.9988 17.7941L17.6434 17.4412L19.9811 15.1036L20.8346 14.25H19.6275H11V13.75H19.6275H20.8322L19.9815 12.8969L17.6491 10.558ZM8.5 18H8V10H8.5V18Z" fill="black" stroke="#F0F0F0"/>
</g>
<defs>
<filter id="filter0_d_1102_149045" x="0" y="0" width="30" height="30" filterUnits="userSpaceOnUse" color-interpolation-filters="sRGB">
<feFlood flood-opacity="0" result="BackgroundImageFix"/>
<feColorMatrix in="SourceAlpha" type="matrix" values="0 0 0 0 0 0 0 0 0 0 0 0 0 0 0 0 0 0 127 0" result="hardAlpha"/>
<feOffset dy="1"/>
<feGaussianBlur stdDeviation="1"/>
<feColorMatrix type="matrix" values="0 0 0 0 0.0627451 0 0 0 0 0.0941176 0 0 0 0 0.156863 0 0 0 0.05 0"/>
<feBlend mode="normal" in2="BackgroundImageFix" result="effect1_dropShadow_1102_149045"/>
<feBlend mode="normal" in="SourceGraphic" in2="effect1_dropShadow_1102_149045" result="shape"/>
</filter>
</defs>
</svg>
