<svg width="76" height="64" viewBox="0 0 76 64" fill="none" xmlns="http://www.w3.org/2000/svg">
<path d="M33.5854 2.48312C-1.81229 60.5969 0.194645 56.6703 0.194645 58.7645C0.202282 60.1507 0.756329 61.4779 1.73652 62.4581C2.71671 63.4383 4.04394 63.9924 5.43012 64H70.5827C71.5101 63.9994 72.4206 63.7525 73.2212 63.2846C74.0219 62.8167 74.6838 62.1445 75.1394 61.3368C75.595 60.5291 75.828 59.6149 75.8144 58.6877C75.8008 57.7605 75.5411 56.8535 75.062 56.0595L42.4275 2.48312C41.9654 1.72482 41.316 1.09813 40.5418 0.663268C39.7675 0.228408 38.8944 0 38.0064 0C37.1184 0 36.2453 0.228408 35.4711 0.663268C34.6969 1.09813 34.0475 1.72482 33.5854 2.48312Z" fill="url(#paint0_linear_5434_275320)"/>
<path d="M70.5814 63.9995H5.42878C4.47988 64.0013 3.54835 63.7451 2.73377 63.2584C1.91919 62.7718 1.2522 62.0728 0.804106 61.2364C0.356014 60.3999 0.14367 59.4575 0.18978 58.5097C0.235889 57.5619 0.538716 56.6445 1.06589 55.8555C1.54513 56.5727 2.19418 57.1605 2.95533 57.5664C3.71648 57.9724 4.56615 58.1839 5.42878 58.1823C75.2352 58.1823 72.7338 59.1713 74.9443 55.8555C75.4715 56.6445 75.7743 57.5619 75.8204 58.5097C75.8665 59.4575 75.6542 60.3999 75.2061 61.2364C74.758 62.0728 74.091 62.7718 73.2764 63.2584C72.4618 63.7451 71.5303 64.0013 70.5814 63.9995Z" fill="#CB4A03"/>
<path d="M35.0991 43.6383V20.3695C35.0991 19.5981 35.4056 18.8583 35.951 18.3128C36.4965 17.7674 37.2363 17.4609 38.0077 17.4609C38.7791 17.4609 39.5189 17.7674 40.0644 18.3128C40.6099 18.8583 40.9163 19.5981 40.9163 20.3695V43.6383C40.9163 44.4097 40.6099 45.1496 40.0644 45.695C39.5189 46.2405 38.7791 46.5469 38.0077 46.5469C37.2363 46.5469 36.4965 46.2405 35.951 45.695C35.4056 45.1496 35.0991 44.4097 35.0991 43.6383Z" fill="url(#paint1_linear_5434_275320)"/>
<path d="M40.9163 52.3656C40.9163 53.137 40.6099 53.8769 40.0644 54.4223C39.5189 54.9678 38.7791 55.2742 38.0077 55.2742C37.2363 55.2742 36.4965 54.9678 35.951 54.4223C35.4056 53.8769 35.0991 53.137 35.0991 52.3656C35.0991 51.5942 35.4056 50.8544 35.951 50.3089C36.4965 49.7635 37.2363 49.457 38.0077 49.457C38.7791 49.457 39.5189 49.7635 40.0644 50.3089C40.6099 50.8544 40.9163 51.5942 40.9163 52.3656Z" fill="url(#paint2_linear_5434_275320)"/>
<defs>
<linearGradient id="paint0_linear_5434_275320" x1="37.9944" y1="0" x2="37.9944" y2="64" gradientUnits="userSpaceOnUse">
<stop stop-color="#FFAC50"/>
<stop offset="0.81" stop-color="#FF800B"/>
<stop offset="0.985" stop-color="#F07300"/>
</linearGradient>
<linearGradient id="paint1_linear_5434_275320" x1="-55.0675" y1="46.5178" x2="-52.1589" y2="17.49" gradientUnits="userSpaceOnUse">
<stop stop-color="#D4D8E1"/>
<stop offset="1" stop-color="#F3F4F5"/>
</linearGradient>
<linearGradient id="paint2_linear_5434_275320" x1="-55.0675" y1="55.2451" x2="-52.1589" y2="49.4861" gradientUnits="userSpaceOnUse">
<stop stop-color="#D4D8E1"/>
<stop offset="1" stop-color="#F3F4F5"/>
</linearGradient>
</defs>
</svg>
