<svg width="100%" height="100%" viewBox="0 0 24 24" fill="none" xmlns="http://www.w3.org/2000/svg">
<path d="M16.7937 8.55852L20.6802 4.67207L21.3837 5.37559L16.4495 10.3272L13.6173 7.49497L14.3202 6.79207L16.0866 8.55852L16.4402 8.91207L16.7937 8.55852ZM17.9666 16.3885L20.203 18.625L19.5002 19.3279L17.2637 17.0914L16.9102 16.7379L16.5566 17.0914L14.3202 19.3279L13.6173 18.625L15.8537 16.3885L16.2073 16.035L15.8537 15.6814L13.6173 13.445L14.3202 12.7421L16.5566 14.9785L16.9102 15.3321L17.2637 14.9785L19.5002 12.7421L20.203 13.445L17.9666 15.6814L17.613 16.035L17.9666 16.3885ZM2.41016 8.53497V7.53497H10.4102V8.53497H2.41016ZM2.41016 16.535V15.535H10.4102V16.535H2.41016Z" fill="currentColor" stroke="currentColor"/>
</svg>
