<svg width="100%" height="100%" viewBox="0 0 24 24" fill="none" xmlns="http://www.w3.org/2000/svg">
<path d="M11.8453 12.436L11.8457 12.4354C12.0484 12.0754 12.3499 11.7742 12.7112 11.4391C12.7489 11.4042 12.7874 11.3688 12.8266 11.3327C13.1441 11.0404 13.5049 10.7084 13.7791 10.3174C14.166 9.76733 14.2446 8.9994 13.9641 8.36028C13.6664 7.68216 12.9913 7.2 12 7.2C10.9028 7.2 10.2711 7.87509 9.93395 8.52561L9.21111 8.22149C9.69432 7.25007 10.6581 6.5 11.99 6.5C13.3066 6.5 14.149 7.08826 14.5626 7.76949L14.5634 7.77073C14.739 8.05806 14.8909 8.49872 14.921 8.97647C14.9509 9.4507 14.859 9.9225 14.5969 10.3083C14.247 10.8191 13.9078 11.1525 13.5883 11.4622C13.5751 11.475 13.5618 11.4879 13.5485 11.5007C13.248 11.7915 12.9284 12.1008 12.7004 12.5219L12.7003 12.5218L12.6959 12.5303C12.6095 12.6974 12.5304 12.8672 12.4818 13.1358C12.4551 13.2829 12.4383 13.4552 12.429 13.67H11.5947C11.5946 13.2523 11.626 12.824 11.8453 12.436ZM19.5 5V4.5H19H5H4.5V5V19V19.5H5H19H19.5V19V5ZM12.75 16.74C12.75 17.167 12.4309 17.5 12 17.5C11.5761 17.5 11.24 17.1639 11.24 16.74C11.24 16.3139 11.5683 15.99 12 15.99C12.4312 15.99 12.75 16.3135 12.75 16.74ZM19 3.5C19.8239 3.5 20.5 4.17614 20.5 5V19C20.5 19.8239 19.8239 20.5 19 20.5H5C4.17614 20.5 3.5 19.8239 3.5 19V5C3.5 4.17614 4.17614 3.5 5 3.5H19Z" fill="currentColor" stroke="currentColor"/>
</svg>