<svg width="100%" height="100%" viewBox="0 0 24 24" fill="none" xmlns="http://www.w3.org/2000/svg">
<path d="M10.3536 15.5236L16.5887 9.28836L17.2941 9.99875L10 17.2929L6.70711 14L7.41068 13.2964L9.64713 15.5242L10.0007 15.8764L10.3536 15.5236ZM14.3499 4.17022L14.4693 4.5H14.82H19C19.8239 4.5 20.5 5.17614 20.5 6V20C20.5 20.8239 19.8239 21.5 19 21.5H5C4.88941 21.5 4.78864 21.4925 4.68859 21.4777C4.40803 21.4176 4.15054 21.2717 3.94823 21.0711C3.80144 20.9153 3.69197 20.7567 3.62154 20.5877C3.54448 20.4028 3.5 20.1979 3.5 20V6C3.5 5.7922 3.54441 5.59985 3.61854 5.42936L3.61859 5.42939L3.62154 5.42231C3.69558 5.24462 3.80816 5.07895 3.94355 4.94355C4.14941 4.7377 4.41313 4.58874 4.70047 4.5298L4.7005 4.52995L4.71243 4.5272C4.79399 4.50837 4.88376 4.5 5 4.5H9.18H9.53073L9.65013 4.17022C10.0027 3.19634 10.9228 2.5 12 2.5C13.0772 2.5 13.9973 3.19634 14.3499 4.17022ZM19 20.5H19.5V20V6V5.5H19H12.7467C13.0515 5.27123 13.25 4.90714 13.25 4.5C13.25 3.81386 12.6861 3.25 12 3.25C11.3139 3.25 10.75 3.81386 10.75 4.5C10.75 4.90714 10.9485 5.27123 11.2533 5.5H5H4.5V6V20V20.5H5H19Z" fill="currentColor" stroke="currentColor"/>
</svg>
