<svg xmlns="http://www.w3.org/2000/svg" width="64" height="64" viewBox="0 0 64 64" fill="none">
  <rect width="64" height="64" rx="32" fill="url(#paint0_linear_1584_3513)" fill-opacity="0.3"/>
  <path fill-rule="evenodd" clip-rule="evenodd" d="M32 64C49.6731 64 64 49.6731 64 32C64 14.3269 49.6731 0 32 0C14.3269 0 0 14.3269 0 32C0 49.6731 14.3269 64 32 64ZM53.6948 31.9738L53.7142 31.9738L53.6851 31.9571L42.89 13.3137H33.2333L53.6157 31.9173L21.1892 13.3137L10.2856 32.0396L53.6777 31.9738L53.7137 32.0067L53.6679 32.0485L14.7559 39.6456L21.1892 50.6863L53.6162 32.0957L33.2333 50.6866H42.89L53.6852 32.0561L53.7143 32.0394L53.6924 32.0437L53.7138 32.0068L53.714 32.0069L53.7138 32.0067L53.714 32.0065L53.7138 32.0067L53.6948 31.9738Z" fill="white"/>
  <defs>
    <linearGradient id="paint0_linear_1584_3513" x1="32" y1="0" x2="32" y2="64" gradientUnits="userSpaceOnUse">
      <stop stop-color="white"/>
      <stop offset="1" stop-color="#999999"/>
    </linearGradient>
  </defs>
</svg>