<svg width="100%" height="100%" viewBox="0 0 20 20" fill="currentColor" xmlns="http://www.w3.org/2000/svg">
<g id="Icon">
<path id="Vector" d="M10.0002 6.66732C10.9168 6.66732 11.6668 5.91732 11.6668 5.00065C11.6668 4.08398 10.9168 3.33398 10.0002 3.33398C9.0835 3.33398 8.3335 4.08398 8.3335 5.00065C8.3335 5.91732 9.0835 6.66732 10.0002 6.66732ZM10.0002 8.33398C9.0835 8.33398 8.3335 9.08398 8.3335 10.0007C8.3335 10.9173 9.0835 11.6673 10.0002 11.6673C10.9168 11.6673 11.6668 10.9173 11.6668 10.0007C11.6668 9.08398 10.9168 8.33398 10.0002 8.33398ZM10.0002 13.334C9.0835 13.334 8.3335 14.084 8.3335 15.0007C8.3335 15.9173 9.0835 16.6673 10.0002 16.6673C10.9168 16.6673 11.6668 15.9173 11.6668 15.0007C11.6668 14.084 10.9168 13.334 10.0002 13.334Z" fill="#525252"/>
</g>
</svg>
