<svg width="129" height="80" viewBox="0 0 129 80" fill="none" xmlns="http://www.w3.org/2000/svg">
<path fill-rule="evenodd" clip-rule="evenodd" d="M100.217 71.7802H29.2071C28.5508 71.7802 28.0352 71.2646 28.0352 70.6084C28.0352 69.9521 28.5508 69.4365 29.2071 69.4365H100.217C100.874 69.4365 101.389 69.9521 101.389 70.6084C101.389 71.2646 100.827 71.7802 100.217 71.7802Z" fill="black"/>
<path fill-rule="evenodd" clip-rule="evenodd" d="M72.8465 55.4243H57.3793C51.8475 55.4243 47.3967 50.9243 47.3967 45.3963C47.3967 43.0057 48.1468 40.8026 49.6469 39.0213C47.1154 37.1462 45.5684 34.24 45.5684 30.9621C45.5684 26.0402 49.225 21.9181 53.91 21.0749C53.5818 20.0905 53.4412 19.0593 53.4412 18.028C53.4412 12.4967 57.9417 8 63.4702 8C69.002 8 73.4528 12.5 73.4528 18.028C73.4528 19.0124 73.3591 19.9498 73.0309 20.8874C78.4221 21.028 82.8255 25.4342 82.8255 30.9154C82.8255 33.6341 81.7472 36.2591 79.7783 38.1341C81.7472 40.0091 82.8255 42.6341 82.8255 45.3528C82.8255 50.8841 78.3719 55.428 72.8429 55.428L72.8465 55.4243ZM63.4735 10.2459C59.2075 10.2459 55.6915 13.7146 55.6915 18.0272C55.6915 19.199 56.0196 20.5116 56.5353 21.5428C56.7697 21.8709 56.7697 22.2928 56.4884 22.621C56.3009 22.9491 55.9259 23.1366 55.5039 23.1366C51.2848 23.2303 47.7687 26.6522 47.7687 30.9179C47.7687 33.7772 49.3158 36.3554 51.8473 37.7616C52.1755 37.9491 52.4099 38.2772 52.4568 38.6054C52.5036 38.9335 52.4099 39.3085 52.0817 39.5429C50.4409 41.0429 49.4565 43.0585 49.4565 45.3085C49.4565 49.5741 52.9724 53.0429 57.1917 53.0429H72.706C76.9252 53.0429 80.4412 49.5273 80.4412 45.3085C80.4412 42.7303 79.2693 40.3867 77.2534 38.9803C76.9252 38.7928 76.7846 38.371 76.7846 38.0428C76.7846 37.6678 76.9721 37.3397 77.2534 37.1522C79.2692 35.6991 80.4412 33.3553 80.4412 30.824C80.4412 26.5584 76.9721 23.0896 72.706 23.0896C72.1904 23.0896 71.7684 23.1365 71.3465 23.2302C70.8777 23.2771 70.4089 23.0896 70.2215 22.7615C69.9871 22.3865 69.9871 21.9177 70.1746 21.5428C70.7371 20.5115 71.0653 19.2459 71.0653 17.9334C71.2059 13.7147 67.6899 10.2459 63.4708 10.2459L63.4735 10.2459Z" fill="black"/>
<path fill-rule="evenodd" clip-rule="evenodd" d="M64.2226 71.7804C63.5664 71.7804 63.0508 71.2648 63.0508 70.6085V40.0053C63.0508 39.3491 63.5664 38.8335 64.2226 38.8335C64.8789 38.8335 65.3476 39.3491 65.3476 40.0053V70.6549C65.3476 71.3112 64.8788 71.7804 64.2226 71.7804Z" fill="black"/>
<path fill-rule="evenodd" clip-rule="evenodd" d="M64.2229 43.9868C64.1292 43.9868 63.8948 43.9868 63.801 43.8931L57.941 41.5024C57.3316 41.2212 57.0972 40.6118 57.3316 40.0024C57.6129 39.4399 58.2692 39.1587 58.8318 39.4399L64.6917 41.8306C65.3012 42.1118 65.5356 42.7212 65.3011 43.3306C65.0667 43.7056 64.6917 43.9868 64.2229 43.9868Z" fill="black"/>
<path fill-rule="evenodd" clip-rule="evenodd" d="M64.2243 48.5802C63.8024 48.5802 63.3805 48.3458 63.1929 47.877C62.9585 47.3145 63.1929 46.6583 63.8024 46.377L69.5686 43.8926C70.178 43.6583 70.8343 43.8926 71.0687 44.502C71.35 45.0645 71.0687 45.7207 70.5062 46.002L64.6931 48.4864C64.5056 48.5802 64.365 48.5802 64.2243 48.5802Z" fill="black"/>
<path fill-rule="evenodd" clip-rule="evenodd" d="M90.0957 71.7802C89.4394 71.7802 88.9238 71.2646 88.9238 70.6084V35.458C88.9238 34.8017 89.4395 34.2861 90.0957 34.2861C90.705 34.2861 91.2675 34.8018 91.2675 35.458V70.6548C91.2675 71.311 90.705 71.7802 90.0957 71.7802Z" fill="black"/>
<path fill-rule="evenodd" clip-rule="evenodd" d="M90.0951 40.3772C89.6732 40.3772 89.2982 40.1897 89.1107 39.8148C88.7825 39.2991 88.9701 38.596 89.5326 38.2679L94.3138 35.596C94.8295 35.2679 95.5325 35.4554 95.8607 36.0179C96.1888 36.5804 96.0013 37.2835 95.392 37.6117L90.6576 40.2835C90.4701 40.3304 90.2826 40.3772 90.0951 40.3772Z" fill="black"/>
<path fill-rule="evenodd" clip-rule="evenodd" d="M90.0939 46.5652C89.8596 46.5652 89.6721 46.5184 89.4846 46.4715L86.1095 44.5028C85.5939 44.1746 85.4064 43.5184 85.6408 42.9559C85.9689 42.3934 86.6252 42.2059 87.1877 42.4871L90.6095 44.4558C91.1251 44.7371 91.3126 45.3934 91.0314 46.0027C90.8439 46.3777 90.469 46.5652 90.0939 46.5652Z" fill="black"/>
<path fill-rule="evenodd" clip-rule="evenodd" d="M37.9277 71.7802C37.2715 71.7802 36.7559 71.2646 36.7559 70.6084V35.458C36.7559 34.8017 37.2715 34.2861 37.9277 34.2861C38.5839 34.2861 39.0995 34.8018 39.0995 35.458V70.6548C39.0527 71.311 38.5839 71.7802 37.9277 71.7802Z" fill="black"/>
<path fill-rule="evenodd" clip-rule="evenodd" d="M37.9268 39.8652C37.5518 39.8652 37.0831 39.6308 36.8956 39.2089C36.6612 38.6464 36.8487 37.9902 37.4112 37.7558L42.1925 35.412C42.755 35.1308 43.4112 35.3183 43.6456 35.9277C43.9268 36.4902 43.7393 37.1464 43.13 37.4277L38.3956 39.7714C38.2549 39.8652 38.1143 39.8652 37.9268 39.8652Z" fill="black"/>
<path fill-rule="evenodd" clip-rule="evenodd" d="M37.9277 45.205C37.7402 45.205 37.5996 45.1581 37.4121 45.0644L33.9902 43.4706C33.3809 43.1894 33.1934 42.4862 33.4277 41.9706C33.709 41.3613 34.4121 41.1738 34.9277 41.455L38.3965 43.0488C39.0058 43.33 39.1933 44.0332 38.9121 44.5488C38.7715 44.9706 38.3965 45.205 37.9277 45.205Z" fill="black"/>
<path fill-rule="evenodd" clip-rule="evenodd" d="M96.0486 52.0492H82.8313C81.753 52.0492 80.7686 51.8617 79.7372 51.4867C79.1278 51.2524 78.8934 50.5492 79.0809 49.9867C79.2684 49.3774 79.9716 49.143 80.5811 49.3305C81.378 49.6586 82.0812 49.7524 82.8313 49.7524H96.0014C99.5174 49.7524 102.377 46.893 102.377 43.3773C102.377 41.3148 101.346 39.346 99.6581 38.1742C99.3299 37.9867 99.1893 37.6117 99.1893 37.2836C99.1893 36.9554 99.3768 36.5804 99.6581 36.346C101.346 35.1273 102.377 33.1585 102.377 31.096C102.377 27.5804 99.5174 24.721 96.0014 24.721C95.6264 24.721 95.2045 24.7679 94.8295 24.7679C94.3607 24.8616 93.9856 24.6273 93.7981 24.2523C93.5168 23.9241 93.5168 23.4554 93.7043 23.0804C94.22 22.1898 94.5013 21.1117 94.5013 20.0804C94.5013 16.5648 91.6416 13.7054 88.0788 13.7054C84.5628 13.7054 81.6563 16.5647 81.6563 20.0804C81.6563 21.0648 81.9376 22.096 82.4064 23.0335C82.5939 23.3617 82.547 23.7835 82.3126 24.1117C82.0782 24.3929 81.75 24.6273 81.375 24.6273C80.4843 24.6273 79.6404 24.7679 78.9372 25.0961C78.3747 25.3773 77.7184 25.0961 77.4371 24.5336C77.2027 23.9242 77.4371 23.268 78.0465 23.0336C78.5622 22.7523 79.1248 22.6117 79.7342 22.5179C79.4529 21.7211 79.3123 20.8773 79.3123 20.0335C79.3123 15.2054 83.2502 11.3647 87.982 11.3647C92.8106 11.3647 96.6988 15.2554 96.6988 20.0335C96.6988 20.7835 96.5582 21.5804 96.3707 22.3773C101.012 22.5648 104.665 26.4086 104.665 30.9989C104.665 33.2958 103.727 35.5927 102.04 37.1864C103.681 38.8271 104.665 41.0302 104.665 43.3271C104.712 48.1552 100.821 52.0431 96.0426 52.0431L96.0486 52.0492Z" fill="black"/>
<path fill-rule="evenodd" clip-rule="evenodd" d="M48.0531 52.0493H34.883C30.0543 52.0493 26.1661 48.1586 26.1661 43.3804C26.1661 41.3648 26.8224 39.4898 28.0413 37.9898C25.9786 36.3023 24.666 33.7711 24.666 31.0054C24.666 26.7867 27.7132 23.271 31.698 22.5238C31.4167 21.7269 31.3698 20.8832 31.3698 20.0394C31.3698 15.2112 35.2609 11.3706 40.0395 11.3706C44.7744 11.3706 48.662 15.2612 48.662 20.0394C48.662 20.7894 48.5682 21.5863 48.3338 22.3832C48.9901 22.3832 49.7402 22.5238 50.4903 22.7113C51.0997 22.8519 51.4748 23.4613 51.2872 24.0707C51.1466 24.6331 50.4903 25.0551 49.9277 24.8675C49.2245 24.6331 48.5682 24.5863 48.0525 24.5863C47.6306 24.5863 47.1618 24.6332 46.7868 24.6332C46.318 24.7269 45.9429 24.5394 45.7554 24.1175C45.4741 23.7894 45.4741 23.3675 45.7085 22.9457C46.2242 22.055 46.4586 21.0238 46.4586 19.9457C46.4586 16.4301 43.5989 13.5706 40.0829 13.5706C36.567 13.5706 33.7072 16.43 33.7072 19.9457C33.7072 21.0706 33.9885 22.055 34.4104 22.8988C34.5979 23.2269 34.5979 23.6957 34.4104 24.0238C34.2229 24.305 33.7541 24.6331 33.3322 24.6331C29.8162 24.6331 26.9565 27.4925 26.9565 31.0082C26.9565 33.4457 28.2222 35.6019 30.3787 36.68C30.7068 36.8675 30.9881 37.1957 30.9881 37.5238C31.035 37.9925 30.8475 38.3207 30.5662 38.6019C29.2067 39.7738 28.4566 41.5082 28.4566 43.3363C28.4566 46.8519 31.3163 49.7114 34.8791 49.7114H48.0492C48.6587 49.7114 49.2681 49.6645 49.7838 49.4301C50.3932 49.2426 51.0026 49.5708 51.2371 50.1801C51.4246 50.7426 51.0964 51.3989 50.487 51.5864C49.6431 52.0083 48.6586 52.0551 48.0492 52.0551L48.0531 52.0493Z" fill="black"/>
</svg>
