<svg width="129" height="80" viewBox="0 0 129 80" fill="none" xmlns="http://www.w3.org/2000/svg">
<path d="M68.4733 74.1289H58.0563C57.4755 74.1289 57.0039 74.6005 57.0039 75.1813C57.0039 75.7622 57.4755 76.2338 58.0563 76.2338H68.4733C69.0542 76.2338 69.5258 75.7622 69.5258 75.1813C69.5258 74.6005 69.0542 74.1289 68.4733 74.1289Z" fill="black"/>
<path d="M87.9089 38.4013L69.26 33.3337C69.2822 32.7673 69.2475 32.1968 69.0986 31.6335C68.7067 30.1495 67.761 28.9068 66.4337 28.1346C66.2363 28.0195 66.0255 27.9429 65.8193 27.8529L67.6544 25.3501C68.9587 23.8287 69.3095 22.22 68.6143 20.9388L62.1072 8.91845C57.9659 1.81665 56.6604 2.37043 56.0243 2.62872C54.7792 3.14531 54.7599 4.84133 55.9511 9.34889L60.8848 28.0197C59.9326 28.5157 59.1309 29.2601 58.5776 30.2112C57.9458 31.2962 57.713 32.5288 57.8565 33.7537L54.7755 33.4172C52.8044 33.0472 51.2367 33.5495 50.4761 34.7895L43.3204 46.4362C39.2433 53.5676 40.3714 54.4338 40.915 54.8488C41.1655 55.0415 41.4393 55.1431 41.7542 55.1431C42.7795 55.1431 44.2392 54.0662 46.7705 51.5517L59.959 38.4548L57.2464 71.0482H53.8018C51.864 71.0482 49.9932 72.292 49.4497 73.9432L48.1365 77.9355C48.0311 78.2567 48.0851 78.6075 48.2829 78.8812C48.4808 79.1549 48.7982 79.3168 49.1362 79.3168H77.9522C78.2902 79.3168 78.6063 79.1549 78.8041 78.8812C79.002 78.6075 79.0586 78.2567 78.9532 77.9355L77.6387 73.9432C77.0952 72.292 75.2242 71.0482 73.2867 71.0482H70.2127L67.4405 38.809L68.2009 40.5359C68.8666 42.426 70.0834 43.5337 71.5418 43.5749L85.2059 43.9475C93.4193 43.9129 93.6044 42.5034 93.6942 41.8249C93.8683 40.4881 92.4087 39.6246 87.9089 38.4013ZM57.2579 5.47744C58.1266 6.5337 59.3317 8.33895 60.2723 9.95031L66.7639 21.9413C67.0157 22.4064 66.7511 23.1697 66.0071 24.0422L63.5591 27.3766C63.3391 27.3765 63.1212 27.3866 62.901 27.412L57.9865 8.81188C57.5675 7.22359 57.3581 6.16999 57.2579 5.47744ZM60.3969 31.27C60.8865 30.4297 61.6741 29.8296 62.6147 29.5816C62.9243 29.4994 63.2379 29.4596 63.5501 29.4596C64.1849 29.4596 64.8119 29.6266 65.3748 29.9543C66.2151 30.4438 66.8151 31.2315 67.0632 32.1709C67.3125 33.1101 67.1789 34.0918 66.6905 34.9323C66.2009 35.7726 65.4133 36.3727 64.4727 36.6207C63.5347 36.8712 62.5531 36.7375 61.7127 36.248C60.8722 35.7584 60.2723 34.9708 60.0243 34.0302C59.7751 33.0907 59.9087 32.1103 60.3969 31.27ZM45.2873 50.0583C44.1218 51.2149 43.3136 51.9228 42.7636 52.3558C43.2455 51.0759 44.2053 49.1292 45.1304 47.5102L52.2696 35.8918C52.4636 35.5744 52.9133 35.406 53.5558 35.406C53.8268 35.406 54.1328 35.4356 54.4681 35.4973L58.5789 35.949C58.6888 36.1413 58.7952 36.3355 58.9263 36.5131L45.2873 50.0583ZM75.6389 74.6007L76.4972 77.2117H50.5903L51.4487 74.6007C51.707 73.8156 52.785 73.1525 53.8014 73.1525H73.2863C74.3026 73.1525 75.3807 73.8156 75.6389 74.6007ZM59.3576 71.0478L62.0536 38.653C62.5365 38.7835 63.0332 38.8497 63.5335 38.8497C64.0269 38.8497 64.5229 38.7855 65.0112 38.6556C65.1135 38.6286 65.2048 38.579 65.3049 38.5466L68.0997 71.0477L59.3576 71.0478ZM85.2285 41.8425L71.5991 41.4698C71.0697 41.4557 70.5415 40.844 70.1574 39.7622L68.5035 36L68.5102 35.9909C68.6231 35.7971 68.6979 35.5901 68.7866 35.3878L87.3589 40.4342C88.9419 40.8633 89.9597 41.2102 90.6099 41.4698C89.2606 41.6921 87.0942 41.8347 85.2285 41.8425Z" fill="black"/>
<path d="M63.5433 34.7986C64.482 34.7986 65.2429 34.0377 65.2429 33.0989C65.2429 32.1602 64.482 31.3994 63.5433 31.3994C62.6045 31.3994 61.8438 32.1602 61.8438 33.0989C61.8438 34.0377 62.6047 34.7986 63.5433 34.7986Z" fill="black"/>
</svg>
