<svg width="28" height="28" viewBox="0 0 28 28" fill="none" xmlns="http://www.w3.org/2000/svg">
<path d="M4.375 0H18.375L25.375 7V26.25C25.375 27.2165 24.5915 28 23.625 28H4.375C3.40848 28 2.625 27.2165 2.625 26.25V1.75C2.625 0.783475 3.40848 0 4.375 0Z" fill="#EC5C59"/>
<path d="M18.5476 18.8572C17.6027 18.787 16.6931 18.4361 15.9583 17.8045C14.5236 18.1202 13.1588 18.5763 11.7941 19.1379C10.7095 21.0676 9.69467 22.05 8.81985 22.05C8.64485 22.05 8.43502 22.015 8.29502 21.9097C7.91002 21.7343 7.7002 21.3483 7.7002 20.9624C7.7002 20.6465 7.7702 19.7694 11.0943 18.3308C11.8643 16.9273 12.459 15.4888 12.949 13.9801C12.529 13.138 11.6193 11.0677 12.249 10.0153C12.459 9.62923 12.879 9.4187 13.334 9.45388C13.6838 9.45388 14.0336 9.62923 14.2436 9.90993C14.6986 10.5415 14.6636 11.8748 14.0686 13.8397C14.6286 14.8908 15.3621 15.8398 16.2381 16.6467C16.9731 16.5062 17.7077 16.401 18.4426 16.401C20.0872 16.436 20.3322 17.208 20.2972 17.6642C20.2972 18.8572 19.1424 18.8572 18.5476 18.8572ZM8.75002 21.0324L8.85502 20.9974C9.34484 20.8221 9.72967 20.4712 10.0097 20.015C9.48467 20.2255 9.06484 20.5764 8.75002 21.0326V21.0324ZM13.4038 10.5065H13.2988C13.2638 10.5065 13.1938 10.5065 13.1588 10.5415C13.0188 11.1379 13.1238 11.7695 13.3688 12.3309C13.5788 11.7345 13.5788 11.1029 13.4038 10.5065ZM13.6488 15.5941L13.6138 15.6641L13.5788 15.6291C13.2638 16.4362 12.9138 17.2431 12.529 18.0151L12.599 17.9801V18.0501C13.3771 17.7679 14.1717 17.5336 14.9784 17.3483L14.9434 17.3133H15.0484C14.5234 16.7869 14.0336 16.1905 13.6488 15.5941ZM18.4076 17.4537C18.0926 17.4537 17.8127 17.4537 17.4977 17.5237C17.8477 17.6992 18.1977 17.7694 18.5476 17.8045C18.7926 17.8395 19.0376 17.8045 19.2474 17.7344C19.2474 17.629 19.1074 17.4537 18.4076 17.4537Z" fill="white"/>
<path d="M18.375 0L25.375 7H20.125C19.1585 7 18.375 6.21653 18.375 5.25V0Z" fill="#FBA9A9"/>
</svg>
