<svg width="128" height="32" viewBox="0 0 128 32" fill="white" xmlns="http://www.w3.org/2000/svg">
<g clip-path="url(#clip0_2591_172468)">
<path d="M0 15.0582L34.9227 15.0053L8.768 0L0 15.0582Z" />
<path d="M8.76806 29.9986L34.9227 15.0039L3.59473 21.1203L8.76806 29.9986Z" />
<path d="M18.4531 0L34.9225 15.0053L26.2185 0H18.4531Z" />
<path d="M26.2185 29.9986L34.9225 15.0039L18.4531 29.9986H26.2185Z" />
<path d="M65.6748 15.5033C65.6748 12.4028 64.0641 10.625 60.0535 10.625C56.0428 10.625 54.4108 12.6673 54.3041 14.9848H57.4508C57.5575 13.7149 58.3575 13.1224 60.0321 13.1224C61.5148 13.1224 62.2721 13.7467 62.2721 14.6991C62.2721 15.7044 61.2588 15.8843 59.0401 16.2017C56.0748 16.6144 53.6748 17.5456 53.6748 20.4663C53.6748 23.1012 55.6055 24.5192 58.3361 24.5192C60.6295 24.5192 61.5895 23.7467 62.2615 22.7414H62.3148C62.3895 23.334 62.5281 23.9583 62.7308 24.2123H66.1441V24.0853C65.8348 23.8525 65.6748 23.2599 65.6748 22.2546V15.5139V15.5033ZM62.3468 19.5351C62.3468 20.8261 61.2268 22.0642 59.2001 22.0642C57.9521 22.0642 57.1201 21.6303 57.1201 20.3816C57.1201 19.1329 58.0268 18.7308 59.8828 18.3181C60.7681 18.1065 61.7281 17.9054 62.3575 17.5456V19.5351H62.3468Z" />
<path d="M72.1812 20.3057V13.2792H74.4745V10.9512H72.1812V6.82422H68.7252V10.9512H66.8799V13.2792H68.7252V21.0464C68.7252 23.5544 70.6239 24.221 72.3412 24.221C73.7492 24.221 74.5492 24.1681 74.5492 24.1681V21.5861C74.5492 21.5861 73.9519 21.6073 73.5039 21.6073C72.7252 21.6073 72.1812 21.2687 72.1812 20.2951V20.3057Z" />
<path d="M87.7651 15.5033C87.7651 12.4028 86.1545 10.625 82.1438 10.625C78.1331 10.625 76.5011 12.6673 76.3945 14.9848H79.5411C79.6478 13.7149 80.4478 13.1224 82.1225 13.1224C83.6051 13.1224 84.3625 13.7467 84.3625 14.6991C84.3625 15.7044 83.3491 15.8843 81.1305 16.2017C78.1651 16.6144 75.7651 17.5456 75.7651 20.4663C75.7651 23.1012 77.6958 24.5192 80.4265 24.5192C82.7198 24.5192 83.6798 23.7467 84.3518 22.7414H84.4051C84.4798 23.334 84.6185 23.9583 84.8211 24.2123H88.2345V24.0853C87.9251 23.8525 87.7651 23.2599 87.7651 22.2546V15.5139V15.5033ZM84.4371 19.5351C84.4371 20.8261 83.3171 22.0642 81.2905 22.0642C80.0425 22.0642 79.2105 21.6303 79.2105 20.3816C79.2105 19.1329 80.1171 18.7308 81.9731 18.3181C82.8585 18.1065 83.8185 17.9054 84.4478 17.5456V19.5351H84.4371Z" />
<path d="M93.5999 5.74609H90.0586V24.2117H93.5999V5.74609Z" />
<path d="M115.061 16.1493C113.163 15.7578 111.392 15.6625 111.392 14.5197C111.392 13.5673 112.299 13.0488 113.685 13.0488C115.2 13.0488 116.107 13.5673 116.267 14.9853H119.467C119.211 12.3292 117.259 10.5938 113.739 10.5938C110.699 10.5938 108.299 11.9588 108.299 14.8266C108.299 17.6943 110.645 18.3609 113.035 18.8266C114.859 19.1863 116.544 19.3133 116.544 20.5832C116.544 21.5144 115.659 22.107 114.101 22.107C112.544 22.107 111.424 21.4403 111.189 19.9165H107.915C108.128 22.7313 110.283 24.5938 114.165 24.5938C117.493 24.5938 119.787 22.9959 119.787 20.3292C119.787 17.2287 117.312 16.6149 115.072 16.1493H115.061Z" />
<path d="M126.954 21.6179C126.176 21.6179 125.632 21.2792 125.632 20.3057V13.2792H127.925V10.9512H125.632V6.82422H122.165V10.9512H120.32V13.2792H122.165V21.0464C122.165 23.5544 124.064 24.221 125.781 24.221C127.189 24.221 127.989 24.1681 127.989 24.1681V21.5861C127.989 21.5861 127.392 21.6073 126.944 21.6073L126.954 21.6179Z" />
<path d="M53.3118 15.0045C53.3118 9.63941 49.0451 5.30078 43.7758 5.30078C41.6851 5.30078 39.7438 5.98861 38.1758 7.15263L39.8611 10.0627C40.9278 9.16321 42.2931 8.61295 43.7758 8.61295C47.1891 8.61295 49.9731 11.4807 49.9731 15.0045C49.9731 16.8352 49.2158 18.4965 48.0211 19.6606L46.4211 16.8987H42.6664L45.1838 21.2267C44.7251 21.3325 44.2558 21.396 43.7758 21.396C42.2931 21.396 40.9278 20.8563 39.8611 19.9463L38.1758 22.8563C39.7438 24.0204 41.6851 24.7082 43.7758 24.7082C44.8744 24.7082 45.9198 24.5177 46.9011 24.1685L48.6504 27.1738H52.3838L49.7171 22.5918C51.9038 20.814 53.3118 18.0733 53.3118 15.0045Z" />
<path d="M102.24 16.9214C101.824 18.1383 101.461 19.8103 101.461 19.8103H101.408C101.408 19.8103 100.971 18.1277 100.544 16.9214L98.5708 10.9531H94.8481L98.4428 20.3817C99.2001 22.3923 99.4561 23.2494 99.4561 23.969C99.4561 25.0484 98.8801 25.7785 97.4828 25.7785H95.7441L97.3441 28.5404H98.3042C101.013 28.5404 101.995 27.4822 103.019 24.5404L107.68 10.9637H104.117L102.24 16.932V16.9214Z" />
</g>
<defs>
<clipPath id="clip0_2591_172468">
<rect width="128" height="30" />
</clipPath>
</defs>
</svg>
