<svg width="20" height="20" viewBox="0 0 20 20" fill="currentColor" xmlns="http://www.w3.org/2000/svg">
<g id="question_mark">
<path id="Vector" d="M9.22422 10.2943C9.86588 9.13594 11.0992 8.4526 11.8159 7.4276C12.5742 6.3526 12.1492 4.34427 9.99922 4.34427C8.59089 4.34427 7.89922 5.41094 7.60755 6.29427L5.44922 5.38594C6.04089 3.61094 7.64922 2.08594 9.99088 2.08594C11.9492 2.08594 13.2909 2.9776 13.9742 4.09427C14.5576 5.0526 14.8992 6.84427 13.9992 8.1776C12.9992 9.6526 12.0409 10.1026 11.5242 11.0526C11.3159 11.4359 11.2326 11.6859 11.2326 12.9193H8.82422C8.81589 12.2693 8.71588 11.2109 9.22422 10.2943ZM11.6659 16.2526C11.6659 17.1693 10.9159 17.9193 9.99922 17.9193C9.08255 17.9193 8.33255 17.1693 8.33255 16.2526C8.33255 15.3359 9.08255 14.5859 9.99922 14.5859C10.9159 14.5859 11.6659 15.3359 11.6659 16.2526Z" fill="currentColor"/>
</g>
</svg>
