<svg width="24" height="24" viewBox="0 0 24 24" fill="none" xmlns="http://www.w3.org/2000/svg">
<path d="M12 6C14.62 6 16.88 7.86 17.39 10.43L17.69 11.93L19.22 12.04C20.78 12.14 22 13.45 22 15C22 16.65 20.65 18 19 18H6C3.79 18 2 16.21 2 14C2 11.95 3.53 10.24 5.56 10.03L6.63 9.92L7.13 8.97C8.08 7.14 9.94 6 12 6ZM12 4C9.11 4 6.6 5.64 5.35 8.04C2.34 8.36 0 10.91 0 14C0 17.31 2.69 20 6 20H19C21.76 20 24 17.76 24 15C24 12.36 21.95 10.22 19.35 10.04C18.67 6.59 15.64 4 12 4Z" fill="#737373"/>
<rect x="11" y="9" width="13" height="13" rx="6.5" fill="#00938C"/>
<path fill-rule="evenodd" clip-rule="evenodd" d="M20.2604 13.0022L16.3821 16.7451L15.3529 15.6455C15.1633 15.4668 14.8654 15.4559 14.6488 15.6076C14.4375 15.7647 14.3779 16.0409 14.5079 16.263L15.7267 18.2455C15.8458 18.4297 16.0517 18.5434 16.2846 18.5434C16.5067 18.5434 16.7179 18.4297 16.8371 18.2455C17.0321 17.9909 20.7533 13.5547 20.7533 13.5547C21.2408 13.0563 20.6504 12.6176 20.2604 12.9968V13.0022Z" fill="white"/>
</svg>
