<svg width="20" height="20" viewBox="0 0 20 20" fill="none" xmlns="http://www.w3.org/2000/svg">
<path d="M15.834 6.66732L12.5007 10.0007H15.0007C15.0007 12.759 12.759 15.0007 10.0007 15.0007C9.15899 15.0007 8.35898 14.7923 7.66732 14.4173L6.45065 15.634C7.47565 16.284 8.69232 16.6673 10.0007 16.6673C13.684 16.6673 16.6673 13.684 16.6673 10.0007L19.1673 10.0007L15.834 6.66732ZM5.00065 10.0007C5.00065 7.24232 7.24232 5.00065 10.0007 5.00065C10.8423 5.00065 11.6423 5.20898 12.334 5.58398L13.5507 4.36732C12.5257 3.71732 11.309 3.33398 10.0007 3.33398C6.31732 3.33398 3.33398 6.31732 3.33398 10.0007H0.833984L4.16732 13.334L7.50065 10.0007H5.00065Z" fill="#737373"/>
</svg>
