<svg width="40" height="40" viewBox="0 0 40 40" fill="none" xmlns="http://www.w3.org/2000/svg">
<path d="M0 20C0 8.95431 8.95431 0 20 0C31.0457 0 40 8.95431 40 20C40 31.0457 31.0457 40 20 40C8.95431 40 0 31.0457 0 20Z" fill="#32C1B3"/>
<path d="M2 20C2 10.0589 10.0589 2 20 2C29.9411 2 38 10.0589 38 20C38 29.9411 29.9411 38 20 38C10.0589 38 2 29.9411 2 20Z" fill="#00938C"/>
<path d="M20.0013 11.667C15.4013 11.667 11.668 15.4003 11.668 20.0003C11.668 24.6003 15.4013 28.3337 20.0013 28.3337C24.6013 28.3337 28.3346 24.6003 28.3346 20.0003C28.3346 15.4003 24.6013 11.667 20.0013 11.667ZM18.3346 24.167L14.168 20.0003L15.343 18.8253L18.3346 21.8087L24.6596 15.4837L25.8346 16.667L18.3346 24.167Z" fill="white"/>
</svg>
