<svg width="100%" height="100%" viewBox="0 0 28 28" fill="none" xmlns="http://www.w3.org/2000/svg">
<path d="M0 14C0 6.26801 6.26801 0 14 0C21.732 0 28 6.26801 28 14C28 21.732 21.732 28 14 28C6.26801 28 0 21.732 0 14Z" fill="#116861"/>
<path d="M14.0007 7.33301C10.3207 7.33301 7.33398 10.3197 7.33398 13.9997C7.33398 17.6797 10.3207 20.6663 14.0007 20.6663C17.6807 20.6663 20.6673 17.6797 20.6673 13.9997C20.6673 10.3197 17.6807 7.33301 14.0007 7.33301ZM12.6673 17.333L9.33398 13.9997L10.274 13.0597L12.6673 15.4463L17.7273 10.3863L18.6673 11.333L12.6673 17.333Z" fill="white"/>
</svg>
