<svg width="32" height="32" viewBox="0 0 32 32" fill="none" xmlns="http://www.w3.org/2000/svg">
<path d="M0 16C0 7.16344 7.16344 0 16 0C24.8366 0 32 7.16344 32 16C32 24.8366 24.8366 32 16 32C7.16344 32 0 24.8366 0 16Z" fill="#00827C"/>
<path d="M2 16C2 8.26801 8.26801 2 16 2C23.732 2 30 8.26801 30 16C30 23.732 23.732 30 16 30C8.26801 30 2 23.732 2 16Z" fill="#116861"/>
<path d="M16.0007 9.33301C12.3207 9.33301 9.33398 12.3197 9.33398 15.9997C9.33398 19.6797 12.3207 22.6663 16.0007 22.6663C19.6807 22.6663 22.6673 19.6797 22.6673 15.9997C22.6673 12.3197 19.6807 9.33301 16.0007 9.33301ZM14.6673 19.333L11.334 15.9997L12.274 15.0597L14.6673 17.4463L19.7273 12.3863L20.6673 13.333L14.6673 19.333Z" fill="white"/>
</svg>
