<svg width="178" height="167" viewBox="0 0 178 167" fill="none" xmlns="http://www.w3.org/2000/svg">
<path d="M119.882 63.5104C107.247 63.5104 94.3996 63.0112 82.3688 59.6529C70.3379 56.2945 59.7883 50.0164 50.0699 42.6643C43.7522 37.8688 37.9787 34.0717 29.7868 34.6466C21.757 35.0705 14.0774 38.073 7.8865 43.2089C-2.55734 52.2856 -0.970363 69.2741 3.20113 81.1797C9.47348 99.1062 28.5323 111.556 44.8102 119.68C63.5668 129.059 84.1069 134.505 104.828 137.637C122.965 140.39 146.196 142.387 161.884 130.557C176.303 119.68 180.263 94.8553 176.726 78.0785C175.847 73.1507 173.21 68.7102 169.305 65.583C159.194 58.1854 144.08 63.1322 132.714 63.3743C128.482 63.3894 124.189 63.4953 119.882 63.5104Z" fill="#F2F2F2"/>
<path d="M154.931 19.0195H24.2399C20.5003 19.0195 17.4688 22.0538 17.4688 25.7968V119.362C17.4688 123.105 20.5003 126.14 24.2399 126.14H154.931C158.671 126.14 161.703 123.105 161.703 119.362V25.7968C161.703 22.0538 158.671 19.0195 154.931 19.0195Z" fill="white" stroke="#BABABA" stroke-linecap="round" stroke-linejoin="round"/>
<path d="M22.8342 116.17H151.863" stroke="#F2F2F2" stroke-linecap="round" stroke-linejoin="round"/>
<path d="M22.8342 99.2275H151.863" stroke="#F2F2F2" stroke-linecap="round" stroke-linejoin="round"/>
<path d="M22.8342 82.2993H151.863" stroke="#F2F2F2" stroke-linecap="round" stroke-linejoin="round"/>
<path d="M22.8342 65.3564H151.863" stroke="#F2F2F2" stroke-linecap="round" stroke-linejoin="round"/>
<path d="M22.8342 48.4131H151.863" stroke="#F2F2F2" stroke-linecap="round" stroke-linejoin="round"/>
<path d="M22.8342 31.4702H151.863" stroke="#F2F2F2" stroke-linecap="round" stroke-linejoin="round"/>
<path d="M48.0901 42.498H39.596C37.5426 42.498 35.8779 44.1642 35.8779 46.2195V113.357C35.8779 115.412 37.5426 117.078 39.596 117.078H48.0901C50.1435 117.078 51.8082 115.412 51.8082 113.357V46.2195C51.8082 44.1642 50.1435 42.498 48.0901 42.498Z" fill="#D2D2D2"/>
<path d="M78.5902 71.5889H70.0961C68.0427 71.5889 66.3781 73.255 66.3781 75.3103V113.357C66.3781 115.412 68.0427 117.078 70.0961 117.078H78.5902C80.6437 117.078 82.3083 115.412 82.3083 113.357V75.3103C82.3083 73.255 80.6437 71.5889 78.5902 71.5889Z" fill="#D2D2D2"/>
<path d="M109.075 50.3042H100.581C98.5277 50.3042 96.863 51.9703 96.863 54.0256V113.342C96.863 115.397 98.5277 117.063 100.581 117.063H109.075C111.129 117.063 112.793 115.397 112.793 113.342V54.0256C112.793 51.9703 111.129 50.3042 109.075 50.3042Z" fill="#D2D2D2"/>
<path d="M139.56 81.9966H131.066C129.013 81.9966 127.348 83.6627 127.348 85.718V113.341C127.348 115.397 129.013 117.063 131.066 117.063H139.56C141.614 117.063 143.278 115.397 143.278 113.341V85.718C143.278 83.6627 141.614 81.9966 139.56 81.9966Z" fill="#D2D2D2"/>
<path d="M36.6335 76.0212L45.4904 75.6732L70.2926 101.194L94.0218 79.5611L119.882 88.078L144.835 72.1333" stroke="#BABABA" stroke-width="1.1" stroke-linecap="round" stroke-linejoin="round"/>
<path d="M53.2891 134.717V141.222" stroke="#BABABA" stroke-linecap="round" stroke-linejoin="round"/>
<path d="M50.0396 137.97H56.5386" stroke="#BABABA" stroke-linecap="round" stroke-linejoin="round"/>
<path d="M169.532 49.1089V55.6139" stroke="#BABABA" stroke-linecap="round" stroke-linejoin="round"/>
<path d="M166.282 52.3613H172.781" stroke="#BABABA" stroke-linecap="round" stroke-linejoin="round"/>
<path d="M6.4353 17.5977V24.0875" stroke="#BABABA" stroke-linecap="round" stroke-linejoin="round"/>
<path d="M3.18591 20.8501H9.68497" stroke="#BABABA" stroke-linecap="round" stroke-linejoin="round"/>
<path d="M9.17112 106.322C9.98916 106.322 10.6523 105.659 10.6523 104.84C10.6523 104.021 9.98916 103.357 9.17112 103.357C8.35309 103.357 7.68994 104.021 7.68994 104.84C7.68994 105.659 8.35309 106.322 9.17112 106.322Z" fill="#CFCFCF"/>
<path d="M80.0864 3.83127C80.9044 3.83127 81.5676 3.16752 81.5676 2.34874C81.5676 1.52996 80.9044 0.866211 80.0864 0.866211C79.2684 0.866211 78.6052 1.52996 78.6052 2.34874C78.6052 3.16752 79.2684 3.83127 80.0864 3.83127Z" fill="#CFCFCF"/>
<path d="M95.3064 167C125.899 167 150.7 165.456 150.7 163.551C150.7 161.646 125.899 160.102 95.3064 160.102C64.7136 160.102 39.9132 161.646 39.9132 163.551C39.9132 165.456 64.7136 167 95.3064 167Z" fill="#F2F2F2"/>
</svg>
